<svg width="27" height="42" viewBox="0 0 27 42" fill="none" xmlns="http://www.w3.org/2000/svg">
<path d="M2 2L25 24.848" stroke="#FFBAA7" stroke-width="5"/>
<path d="M25 2L13.5 13.424L2 24.848" stroke="#FFBAA7" stroke-width="5"/>
<path d="M2.93 32.9777C2.56333 32.9777 2.27667 33.1177 2.07 33.3977C1.86333 33.671 1.76 34.0143 1.76 34.4277C1.76 34.8477 1.86333 35.191 2.07 35.4577C2.27667 35.7243 2.56333 35.8577 2.93 35.8577C3.15667 35.8577 3.36 35.831 3.54 35.7777C3.72667 35.7177 3.93667 35.6343 4.17 35.5277L4.54 36.4677C4.31333 36.641 4.03667 36.7677 3.71 36.8477C3.39 36.9277 3.12667 36.9677 2.92 36.9677C2.13333 36.9677 1.52 36.7377 1.08 36.2777C0.64 35.8177 0.42 35.201 0.42 34.4277C0.42 33.6543 0.64 33.0343 1.08 32.5677C1.52 32.101 2.13333 31.8677 2.92 31.8677C3.12667 31.8677 3.38667 31.911 3.7 31.9977C4.02 32.0843 4.3 32.211 4.54 32.3777L4.17 33.3077C3.93667 33.201 3.72667 33.121 3.54 33.0677C3.36 33.0077 3.15667 32.9777 2.93 32.9777ZM7.64328 29.7877V36.8477H6.35328V29.8977L7.64328 29.7877ZM11.9795 36.9677C11.2129 36.961 10.6129 36.7277 10.1795 36.2677C9.75287 35.8077 9.53953 35.1877 9.53953 34.4077C9.53953 33.6343 9.76287 33.0177 10.2095 32.5577C10.6629 32.0977 11.2795 31.8677 12.0595 31.8677C12.8662 31.8677 13.4895 32.1077 13.9295 32.5877C14.3762 33.061 14.5995 33.6843 14.5995 34.4577C14.5995 35.231 14.3595 35.841 13.8795 36.2877C13.3995 36.7343 12.7662 36.961 11.9795 36.9677ZM13.2595 34.4577C13.2595 33.9977 13.1562 33.6377 12.9495 33.3777C12.7495 33.111 12.4629 32.9777 12.0895 32.9777C11.7095 32.9777 11.4129 33.0943 11.1995 33.3277C10.9862 33.561 10.8795 33.9177 10.8795 34.3977C10.8795 34.8777 10.9695 35.241 11.1495 35.4877C11.3362 35.7343 11.6195 35.8577 11.9995 35.8577C12.3729 35.8577 12.6762 35.7477 12.9095 35.5277C13.1429 35.301 13.2595 34.9443 13.2595 34.4577ZM19.288 33.3077C19.0546 33.201 18.838 33.121 18.638 33.0677C18.438 33.0077 18.2246 32.9777 17.998 32.9777C17.8313 32.9777 17.7013 33.011 17.608 33.0777C17.5213 33.1377 17.478 33.2243 17.478 33.3377C17.478 33.4177 17.5313 33.4943 17.638 33.5677C17.7513 33.641 17.9313 33.721 18.178 33.8077C18.5846 33.9543 18.9613 34.161 19.308 34.4277C19.6546 34.6877 19.828 35.0277 19.828 35.4477C19.828 35.9277 19.6546 36.301 19.308 36.5677C18.968 36.8343 18.468 36.9677 17.808 36.9677C17.6013 36.9677 17.3246 36.9277 16.978 36.8477C16.638 36.7677 16.3546 36.641 16.128 36.4677L16.518 35.5277C16.7513 35.6343 16.9746 35.7177 17.188 35.7777C17.408 35.831 17.608 35.8577 17.788 35.8577C18.028 35.8577 18.2113 35.8243 18.338 35.7577C18.4646 35.691 18.528 35.6043 18.528 35.4977C18.528 35.3643 18.4646 35.2443 18.338 35.1377C18.2113 35.031 18.0113 34.9343 17.738 34.8477C17.3513 34.721 16.9846 34.541 16.638 34.3077C16.298 34.0677 16.128 33.7477 16.128 33.3477C16.128 32.8877 16.298 32.5277 16.638 32.2677C16.978 32.001 17.438 31.8677 18.018 31.8677C18.2246 31.8677 18.4913 31.911 18.818 31.9977C19.1446 32.0843 19.4313 32.211 19.678 32.3777L19.288 33.3077ZM24.0644 36.9677C23.2244 36.9677 22.561 36.7377 22.0744 36.2777C21.5944 35.8177 21.3544 35.201 21.3544 34.4277C21.3544 33.6543 21.571 33.0343 22.0044 32.5677C22.4444 32.101 23.041 31.8677 23.7944 31.8677C24.5544 31.8677 25.111 32.121 25.4644 32.6277C25.8244 33.1277 26.0044 33.721 26.0044 34.4077V34.8077H22.7344C22.7944 35.1277 22.941 35.3843 23.1744 35.5777C23.4077 35.7643 23.7144 35.8577 24.0944 35.8577C24.3144 35.8577 24.511 35.831 24.6844 35.7777C24.8644 35.7177 25.071 35.6343 25.3044 35.5277L25.6844 36.4677C25.4577 36.641 25.181 36.7677 24.8544 36.8477C24.5344 36.9277 24.271 36.9677 24.0644 36.9677ZM24.7744 33.9377C24.7077 33.611 24.5877 33.371 24.4144 33.2177C24.241 33.0577 24.0244 32.9777 23.7644 32.9777C23.4977 32.9777 23.2744 33.061 23.0944 33.2277C22.9144 33.3877 22.7977 33.6243 22.7444 33.9377H24.7744Z" fill="#FFBAA7"/>
</svg>
