<svg width="28" height="41" viewBox="0 0 28 41" fill="none" xmlns="http://www.w3.org/2000/svg">
<line x1="1.5" y1="2.5" x2="26.5" y2="2.5" stroke="#FFBAA7" stroke-width="4"/>
<line x1="1.5" y1="12.5" x2="26.5" y2="12.5" stroke="#FFBAA7" stroke-width="4"/>
<line x1="1.5" y1="22.5" x2="26.5" y2="22.5" stroke="#FFBAA7" stroke-width="4"/>
<path d="M4.79 31.22C4.99667 30.9867 5.27 30.8033 5.61 30.67C5.95667 30.53 6.26667 30.46 6.54 30.46C7.2 30.46 7.66667 30.6533 7.94 31.04C8.22 31.4267 8.36 31.9 8.36 32.46V35.5H7.05V32.52C7.05 32.2133 6.97667 31.98 6.83 31.82C6.68333 31.6533 6.47 31.57 6.19 31.57C6.00333 31.57 5.80667 31.62 5.6 31.72C5.39333 31.82 5.20667 31.9333 5.04 32.06C5.04667 32.1267 5.05333 32.1933 5.06 32.26C5.06667 32.3267 5.07 32.3933 5.07 32.46V35.5H3.76V32.52C3.76 32.2133 3.68667 31.98 3.54 31.82C3.39333 31.6533 3.18333 31.57 2.91 31.57C2.74333 31.57 2.57333 31.6067 2.4 31.68C2.23333 31.7467 2.07333 31.8333 1.92 31.94V35.5H0.62V30.65H1.3L1.62 31.09C1.84 30.89 2.10333 30.7367 2.41 30.63C2.72333 30.5167 3.00333 30.46 3.25 30.46C3.63 30.46 3.94667 30.53 4.2 30.67C4.45333 30.8033 4.65 30.9867 4.79 31.22ZM12.6558 35.62C11.8158 35.62 11.1524 35.39 10.6658 34.93C10.1858 34.47 9.94578 33.8533 9.94578 33.08C9.94578 32.3067 10.1624 31.6867 10.5958 31.22C11.0358 30.7533 11.6324 30.52 12.3858 30.52C13.1458 30.52 13.7024 30.7733 14.0558 31.28C14.4158 31.78 14.5958 32.3733 14.5958 33.06V33.46H11.3258C11.3858 33.78 11.5324 34.0367 11.7658 34.23C11.9991 34.4167 12.3058 34.51 12.6858 34.51C12.9058 34.51 13.1024 34.4833 13.2758 34.43C13.4558 34.37 13.6624 34.2867 13.8958 34.18L14.2758 35.12C14.0491 35.2933 13.7724 35.42 13.4458 35.5C13.1258 35.58 12.8624 35.62 12.6558 35.62ZM13.3658 32.59C13.2991 32.2633 13.1791 32.0233 13.0058 31.87C12.8324 31.71 12.6158 31.63 12.3558 31.63C12.0891 31.63 11.8658 31.7133 11.6858 31.88C11.5058 32.04 11.3891 32.2767 11.3358 32.59H13.3658ZM17.265 31.17C17.485 30.95 17.7583 30.7767 18.085 30.65C18.4183 30.5233 18.715 30.46 18.975 30.46C19.635 30.46 20.1017 30.6533 20.375 31.04C20.655 31.4267 20.795 31.9 20.795 32.46V35.5H19.495V32.52C19.495 32.2133 19.4217 31.98 19.275 31.82C19.1283 31.6533 18.915 31.57 18.635 31.57C18.4483 31.57 18.2517 31.62 18.045 31.72C17.845 31.8133 17.6617 31.9233 17.495 32.05V35.5H16.195V30.65H16.875L17.265 31.17ZM26.0458 35.02C25.8258 35.2267 25.5558 35.39 25.2358 35.51C24.9158 35.6367 24.6258 35.7 24.3658 35.7C23.7058 35.7 23.2358 35.5067 22.9558 35.12C22.6824 34.7267 22.5458 34.2533 22.5458 33.7V30.65H23.8558V33.64C23.8558 33.9467 23.9291 34.1833 24.0758 34.35C24.2224 34.51 24.4358 34.59 24.7158 34.59C24.8891 34.59 25.0724 34.5467 25.2658 34.46C25.4591 34.3733 25.6358 34.2733 25.7958 34.16V30.65H27.0958V35.5H26.4158L26.0458 35.02Z" fill="#FFBAA7"/>
</svg>
