<svg width="20" height="21" viewBox="0 0 20 21" fill="none" xmlns="http://www.w3.org/2000/svg">
<path d="M7 11.293H8V9.29297H9C9.28333 9.29297 9.52083 9.19714 9.7125 9.00547C9.90417 8.8138 10 8.5763 10 8.29297V7.29297C10 7.00964 9.90417 6.77214 9.7125 6.58047C9.52083 6.3888 9.28333 6.29297 9 6.29297H7V11.293ZM8 8.29297V7.29297H9V8.29297H8ZM11 11.293H13C13.2833 11.293 13.5208 11.1971 13.7125 11.0055C13.9042 10.8138 14 10.5763 14 10.293V7.29297C14 7.00964 13.9042 6.77214 13.7125 6.58047C13.5208 6.3888 13.2833 6.29297 13 6.29297H11V11.293ZM12 10.293V7.29297H13V10.293H12ZM15 11.293H16V9.29297H17V8.29297H16V7.29297H17V6.29297H15V11.293ZM6 16.793C5.45 16.793 4.97917 16.5971 4.5875 16.2055C4.19583 15.8138 4 15.343 4 14.793V2.79297C4 2.24297 4.19583 1.77214 4.5875 1.38047C4.97917 0.988802 5.45 0.792969 6 0.792969H18C18.55 0.792969 19.0208 0.988802 19.4125 1.38047C19.8042 1.77214 20 2.24297 20 2.79297V14.793C20 15.343 19.8042 15.8138 19.4125 16.2055C19.0208 16.5971 18.55 16.793 18 16.793H6ZM6 14.793H18V2.79297H6V14.793ZM2 20.793C1.45 20.793 0.979167 20.5971 0.5875 20.2055C0.195833 19.8138 0 19.343 0 18.793V4.79297H2V18.793H16V20.793H2Z" fill="#3DA89A"/>
</svg>
