<svg width="34" height="44" viewBox="0 0 34 44" fill="none" xmlns="http://www.w3.org/2000/svg">
<path d="M33.6607 7.55846C33.337 6.7931 32.7987 6.14582 32.1205 5.68666C31.4424 5.22878 30.6166 4.95885 29.7384 4.95885H26.0727V4.32644H20.7593C20.7835 4.15456 20.797 3.97727 20.797 3.7987C20.7969 1.70397 19.0929 0 16.9982 0C14.9035 0 13.1995 1.70397 13.1995 3.7987C13.1995 3.97727 13.2129 4.15456 13.2371 4.32644H7.92378V4.95885H4.25795C3.67245 4.95885 3.10991 5.07839 2.60098 5.29452C1.83563 5.61816 1.18705 6.15656 0.727805 6.8347C0.26993 7.51412 0 8.3386 0 9.2168V39.7434C0 40.3262 0.119539 40.8902 0.335672 41.4004C0.659313 42.1658 1.19771 42.813 1.87584 43.2722C2.55527 43.7314 3.37975 44 4.25795 44H29.7384C30.3225 44 30.8865 43.8818 31.3954 43.6643C32.1621 43.3421 32.8093 42.8023 33.2686 42.1242C33.7264 41.446 33.9964 40.6202 33.9964 39.7434V9.2168C33.9964 8.63139 33.8782 8.06876 33.6607 7.55846ZM16.9982 2.3888C17.7757 2.3888 18.4081 3.02122 18.4081 3.7987C18.4081 3.98535 18.3704 4.16255 18.3047 4.32644H15.693C15.6258 4.16264 15.5882 3.98535 15.5882 3.7987C15.5883 3.02122 16.2221 2.3888 16.9982 2.3888ZM31.4639 39.7434C31.4639 39.9852 31.4155 40.208 31.3283 40.4135C31.1994 40.721 30.9791 40.9869 30.7025 41.1748C30.4259 41.3601 30.101 41.4675 29.7384 41.4675H4.25795C4.0162 41.4675 3.79199 41.4191 3.58652 41.3332C3.27766 41.2029 3.01314 40.9814 2.82648 40.7061C2.6412 40.4295 2.53378 40.1045 2.53241 39.7433V9.2168C2.53241 8.97505 2.58079 8.75084 2.66802 8.54537C2.7983 8.23651 3.01847 7.97062 3.29373 7.78534C3.57036 7.60005 3.89529 7.49263 4.25786 7.49126H7.92361V8.019C7.92361 9.00995 8.72661 9.81295 9.71893 9.81295H24.2786C25.2696 9.81295 26.0726 9.00995 26.0726 8.019V7.49126H29.7383C29.9801 7.49126 30.2043 7.53964 30.4098 7.62687C30.7172 7.75577 30.9831 7.97603 31.1698 8.25258C31.3564 8.52912 31.4639 8.85414 31.4639 9.21671V39.7434Z" fill="#3DA89A"/>
<path d="M11.1348 14.667H8.41699V17.3848H11.1348V14.667Z" fill="#3DA89A"/>
<path d="M25.5816 14.667H14.3789V17.3848H25.5816V14.667Z" fill="#3DA89A"/>
<path d="M11.1348 22.6982H8.41699V25.416H11.1348V22.6982Z" fill="#3DA89A"/>
<path d="M25.5816 22.6982H14.3789V25.416H25.5816V22.6982Z" fill="#3DA89A"/>
<path d="M11.1348 30.7305H8.41699V33.4482H11.1348V30.7305Z" fill="#3DA89A"/>
<path d="M25.5816 30.7305H14.3789V33.4482H25.5816V30.7305Z" fill="#3DA89A"/>
</svg>
