<svg width="37" height="31" viewBox="0 0 37 31" fill="none" xmlns="http://www.w3.org/2000/svg">
<path d="M30.3463 0.0962093C23.4766 -0.884797 19.5691 5.90875 18.5001 8.0945C17.4305 5.90875 13.5223 -0.884797 6.65391 0.0962093C0.323588 1.00047 -1.31944 7.59059 1.00216 11.6248C3.14982 15.3546 6.42758 17.2758 11.513 18.0659C5.40979 20.1008 2.869 25.141 7.10543 28.9168C11.8805 33.1728 17.0329 29.6104 18.5001 24.2617C19.9654 29.6103 25.1197 33.1728 29.8935 28.9168C34.1299 25.141 31.5897 20.1008 25.4865 18.0659C30.572 17.2758 33.8504 15.3546 35.9981 11.6248C38.3197 7.59059 36.6752 1.00047 30.3463 0.0962093Z" fill="#3DA89A"/>
</svg>
