<svg width="40" height="42" viewBox="0 0 40 42" fill="none" xmlns="http://www.w3.org/2000/svg">
<path d="M2.79298 27.5045L5.48066 21.69C5.47314 21.5163 5.46817 21.3427 5.46817 21.1677C5.46817 13.8565 11.2739 7.92969 18.4385 7.92969C25.6005 7.92969 31.4062 13.8565 31.4062 21.1677C31.4062 25.2772 29.572 28.9501 26.6916 31.379V36.0582C26.6916 36.5141 26.4238 36.9266 26.0109 37.1041L15.2704 41.7551C14.9276 41.9045 14.5321 41.8675 14.2193 41.6568C13.909 41.4473 13.7213 41.0897 13.7213 40.7092V36.7452C13.7213 36.1169 13.2233 35.6073 12.6078 35.6073H7.10731C6.49166 35.6073 5.99117 35.0978 5.99117 34.4695V31.052C5.99117 30.6166 5.74845 30.2194 5.36551 30.0279L3.31349 29.0126C2.76543 28.7407 2.53272 28.0677 2.79298 27.5045ZM18.3432 32.4825C18.9013 32.4825 19.3893 32.1645 19.637 31.6958H17.052C17.2997 32.1645 17.7853 32.4825 18.3432 32.4825ZM15.7257 29.5682C15.7257 29.77 15.8258 29.9475 15.9784 30.0535C15.8258 30.1582 15.7257 30.3357 15.7257 30.5375C15.7257 30.8606 15.9835 31.1237 16.3013 31.1237H20.4154C20.7332 31.1237 20.9884 30.8606 20.9884 30.5375C20.9884 30.3357 20.8883 30.1582 20.7382 30.0535C20.8883 29.9475 20.9884 29.77 20.9884 29.5682C20.9884 29.3689 20.8908 29.1927 20.7406 29.0867C20.8908 28.9807 20.9884 28.8045 20.9884 28.6052C20.9884 28.2808 20.7331 28.0178 20.4154 28.0178H16.3013C15.9835 28.0178 15.7257 28.2808 15.7257 28.6052C15.7257 28.8045 15.8233 28.9807 15.9735 29.0867C15.8233 29.1928 15.7257 29.369 15.7257 29.5682ZM15.0175 24.7371C15.976 25.3846 16.061 25.8661 16.061 27.0716H20.653C20.653 25.8661 20.7406 25.3846 21.6965 24.7371C23.3406 23.6299 24.4243 21.7283 24.4243 19.5689C24.4243 16.1502 21.7065 13.3791 18.3583 13.3791C15.0075 13.3791 12.2923 16.1502 12.2923 19.5689C12.2923 21.7283 13.3759 23.6299 15.0175 24.7371Z" fill="#3DA89A"/>
<path d="M17.4879 0H19.3848V4.40075H17.4879V0Z" fill="#3DA89A"/>
<path d="M25.8276 6.16327L27.4717 7.1313L29.6289 3.31926L27.9848 2.35254L25.8276 6.16327Z" fill="#3DA89A"/>
<path d="M32.1884 11.9465L33.1368 13.6246L36.873 11.4229L35.9221 9.74609L32.1884 11.9465Z" fill="#3DA89A"/>
<path d="M34.8645 20.2002V22.1363H39.1787L39.1762 20.2002H34.8645Z" fill="#3DA89A"/>
<path d="M0.947967 9.74609L-0.00048542 11.4229L3.73319 13.622L4.68164 11.9452L0.947967 9.74609Z" fill="#3DA89A"/>
<path d="M8.88837 2.35254L7.24427 3.32057L9.40135 7.1313L11.043 6.16205L8.88837 2.35254Z" fill="#3DA89A"/>
</svg>
