<svg width="57" height="63" viewBox="0 0 57 63" fill="none" xmlns="http://www.w3.org/2000/svg">
<path d="M6.57941 14.292C2.9469 14.292 0 17.2987 0 21.0071C0 24.7165 2.9469 27.7223 6.57941 27.7223C10.2139 27.7223 13.1588 24.7165 13.1588 21.0071C13.1588 17.2987 10.2139 14.292 6.57941 14.292Z" fill="#3DA89A"/>
<path d="M6.57558 31.8555C3.45969 31.8555 0.822212 34.3135 0.932021 37.6145L2.479 58.8068C2.65763 61.1996 4.31346 62.9888 6.57558 62.9888C8.83867 62.9888 10.463 61.257 10.6731 58.8067L12.2191 37.6144C12.415 34.3135 9.69244 31.8555 6.57558 31.8555Z" fill="#3DA89A"/>
<path d="M50.4211 27.7223C54.0546 27.7223 57.0005 24.7165 57.0005 21.0071C57.0005 17.2986 54.0546 14.292 50.4211 14.292C46.7876 14.292 43.8418 17.2987 43.8418 21.0071C43.8418 24.7167 46.7876 27.7223 50.4211 27.7223Z" fill="#3DA89A"/>
<path d="M50.4173 31.8555C47.3005 31.8555 44.6631 34.3135 44.7739 37.6145L46.3209 58.8068C46.4994 61.1996 48.1542 62.9888 50.4173 62.9888C52.6805 62.9888 54.3048 61.257 54.5139 58.8067L56.0599 37.6144C56.2557 34.3135 53.5342 31.8555 50.4173 31.8555Z" fill="#3DA89A"/>
<path d="M37.1468 10.7529L36.7314 12.3094C38.0501 12.6759 39.1664 13.3611 39.935 14.2157C40.7067 15.0744 41.1316 16.0813 41.1325 17.165C41.1316 18.0373 40.8565 18.8559 40.3494 19.5938C39.8423 20.3296 39.0994 20.9758 38.1856 21.4534L37.518 21.8023L38.3831 23.7769C35.761 23.311 33.3278 22.4427 32.0989 21.9534L32.0741 21.9436L32.0492 21.9358C30.3992 21.4075 29.113 20.3694 28.4577 19.1434L27.0713 19.9203C27.9575 21.5654 29.5683 22.8148 31.5259 23.4571V23.4581C33.047 24.0595 36.2442 25.2036 39.6026 25.5877L40.9767 25.7426L39.5568 22.5021C40.3904 21.9661 41.1047 21.3022 41.6423 20.5216C42.3166 19.547 42.7148 18.393 42.7129 17.165C42.7148 15.6348 42.097 14.2275 41.0999 13.1242C40.1014 12.017 38.7262 11.1915 37.1468 10.7529Z" fill="#3DA89A"/>
<path d="M33.9412 14.674C35.2228 13.1798 36.001 11.3223 36 9.31448C36.001 8.00168 35.6677 6.74732 35.0785 5.62262C34.1924 3.93262 32.7371 2.53112 30.9371 1.54778C29.1352 0.566285 26.9827 0.000984202 24.6729 0C21.5961 0.000984202 18.7934 1.00389 16.7338 2.66559C15.7034 3.49699 14.8584 4.49596 14.2692 5.62262C13.679 6.74732 13.3477 8.00168 13.3477 9.31448C13.3467 10.9889 13.8881 12.5639 14.8144 13.9049C15.606 15.052 16.6764 16.0325 17.9388 16.8006L16.0376 21.1415L17.4107 20.9865C22.1538 20.4446 26.6944 18.8219 28.8507 17.97C30.8999 17.3015 32.6684 16.1583 33.9412 14.674ZM28.3025 16.4556L28.2777 16.4653C26.4117 17.2061 22.637 18.5511 18.6245 19.1893L19.9843 16.0871L19.3169 15.7382C17.9694 15.0345 16.8665 14.0765 16.1075 12.9762C15.3474 11.8729 14.93 10.6343 14.9291 9.31461C14.9291 8.27849 15.1868 7.29429 15.6634 6.38292C16.3768 5.01844 17.5933 3.82448 19.1555 2.97266C20.7178 2.11985 22.619 1.61409 24.673 1.61507C27.4145 1.61409 29.8802 2.51562 31.6334 3.93164C32.5101 4.63928 33.208 5.47351 33.6836 6.38279C34.1601 7.29416 34.4178 8.27837 34.4189 9.31448C34.418 10.8934 33.8183 12.363 32.7507 13.6116C31.6849 14.8571 30.1476 15.864 28.3274 16.4487L28.3025 16.4556Z" fill="#3DA89A"/>
<path d="M20.2065 8.28711C19.5267 8.28711 18.9766 8.84946 18.9766 9.54246C18.9766 10.2355 19.5266 10.7978 20.2065 10.7978C20.8855 10.7978 21.4365 10.2356 21.4365 9.54246C21.4364 8.84946 20.8855 8.28711 20.2065 8.28711Z" fill="#3DA89A"/>
<path d="M24.9507 8.28711C24.2708 8.28711 23.7197 8.84946 23.7197 9.54246C23.7197 10.2355 24.2707 10.7978 24.9507 10.7978C25.6295 10.7978 26.1806 10.2356 26.1806 9.54246C26.1806 8.84946 25.6296 8.28711 24.9507 8.28711Z" fill="#3DA89A"/>
<path d="M29.6948 8.28711C29.0158 8.28711 28.4648 8.84946 28.4648 9.54246C28.4648 10.2355 29.0158 10.7978 29.6948 10.7978C30.3748 10.7978 30.9257 10.2356 30.9257 9.54246C30.9257 8.84946 30.3746 8.28711 29.6948 8.28711Z" fill="#3DA89A"/>
</svg>
