<svg width="29" height="40" viewBox="0 0 29 40" fill="none" xmlns="http://www.w3.org/2000/svg">
<path d="M0.0374107 20.5819C0.165531 17.3552 1.42862 14.4609 3.41473 12.2653L4.47207 14.1092C3.01338 15.9146 2.1003 18.1962 2.00791 20.6968C1.83195 23.0335 2.27771 26.0537 4.56988 28.877C5.70956 30.2812 6.11358 32.1588 6.11358 33.6565V37.791H17.689V35.179C17.689 35.179 19.2853 35.625 20.636 35.625C21.9861 35.625 22.4474 35.3098 22.7576 33.8534C22.9632 32.8911 23.8622 28.7463 23.8622 28.7463L25.6276 28.2953C25.9494 28.2135 26.2171 27.987 26.356 27.6794C26.4949 27.3724 26.4896 27.0173 26.3411 26.7144C26.3411 26.7144 24.4098 22.6976 23.6053 21.1151C23.6039 15.0259 18.7674 10.0902 12.8012 10.0902C12.5247 10.0902 12.253 10.1109 11.9819 10.1314L11.3352 8.16845C11.8166 8.11271 12.3042 8.07617 12.8012 8.07617C19.6791 8.07617 25.306 13.652 25.569 20.6092C26.4504 22.3698 28.0399 25.6764 28.112 25.8278C28.5241 26.6661 28.5395 27.6545 28.1478 28.5217C27.7579 29.3876 27.0142 30.0174 26.1071 30.2486L25.5252 30.3979C25.2433 31.6981 24.8185 33.6584 24.6856 34.2813C24.1846 36.6352 22.9734 37.6387 20.636 37.6387C20.3124 37.6387 19.9832 37.6194 19.6622 37.5871V37.7909V39.8051H17.689H6.1135H4.14027V37.7912V33.6567C4.14027 32.309 3.73229 31.0026 3.05047 30.1622C0.241779 26.7021 -0.141289 23.0501 0.0374107 20.5819Z" fill="#3DA89A"/>
<path d="M9.82637 15.7653C9.19453 16.0585 8.6921 15.8788 8.31718 15.2326L2.12248 4.43337C2.00579 4.23995 1.86624 3.95843 1.70095 3.58814C1.44402 3.01268 1.40563 2.39943 1.58227 1.74552C1.75968 1.09239 2.20406 0.600973 2.91825 0.269861C3.65872 -0.0736131 4.32294 -0.0886955 4.91366 0.221659C5.50102 0.520353 5.91852 0.951911 6.16935 1.51361C6.32444 1.85779 6.43908 2.15026 6.51799 2.39119L10.4253 14.2518C10.4968 14.5092 10.4819 14.7934 10.3814 15.1073C10.2829 15.4198 10.0975 15.64 9.82637 15.7653Z" fill="#3DA89A"/>
<path d="M12.415 17.1939C13.051 17.4376 13.5122 17.8794 13.7968 18.5182C14.0699 19.1322 14.0949 19.7778 13.8669 20.4523C13.6343 21.1165 13.1966 21.5969 12.558 21.8928C11.9207 22.1895 11.2827 22.215 10.6455 21.9713C10.0068 21.7284 9.54357 21.2809 9.2529 20.6284C8.96222 19.978 8.93594 19.3261 9.17528 18.6758C9.4073 18.0433 9.84894 17.5753 10.4998 17.2738C11.1371 16.9765 11.7763 16.9509 12.415 17.1939Z" fill="#3DA89A"/>
</svg>
