<svg width="57" height="47" viewBox="0 0 57 47" fill="none" xmlns="http://www.w3.org/2000/svg">
<g clip-path="url(#clip0_640_5837)">
<path d="M48.9382 4.96705L46.0287 46.4169H6.33303C6.4286 45.0879 6.49077 44.2217 6.49077 44.2217L9.58091 1.19202C9.59397 1.01834 9.67539 0.856831 9.80745 0.742671C9.93951 0.628511 10.1115 0.570946 10.286 0.582514L48.3977 3.23616C48.572 3.24941 48.734 3.33052 48.8487 3.46192C48.9634 3.59332 49.0215 3.76443 49.0104 3.93818L48.9382 4.96705Z" fill="white"/>
<path d="M13.8764 13.1295C13.8794 13.0867 13.8909 13.0448 13.9101 13.0064C13.9294 12.9679 13.956 12.9336 13.9886 12.9054C14.0211 12.8772 14.059 12.8557 14.0999 12.8421C14.1408 12.8285 14.184 12.823 14.227 12.826L18.2758 13.1079L18.3031 13.1839C18.5054 13.6978 18.6979 14.2152 18.8806 14.7363C18.9151 14.8101 18.926 14.8925 18.9121 14.9726C18.8701 15.0681 18.7929 15.1437 18.6963 15.1839L17.265 15.9974C17.2011 16.0338 17.1316 16.077 17.1131 16.1479C17.1058 16.1864 17.107 16.226 17.1165 16.264C17.1843 16.644 17.8779 18.6532 18.0237 19.0774L13.8089 18.7838C13.7659 18.7809 13.7238 18.7695 13.6852 18.7503C13.6466 18.7312 13.6121 18.7046 13.5838 18.6722C13.5555 18.6398 13.5339 18.6021 13.5202 18.5613C13.5066 18.5206 13.5011 18.4775 13.5042 18.4346L13.8764 13.1295Z" fill="white"/>
<path d="M17.1135 16.1484C17.132 16.0775 17.2015 16.0343 17.2654 15.9978L18.6967 15.1844C18.7933 15.1442 18.8706 15.0685 18.9125 14.9731C18.9265 14.893 18.9155 14.8105 18.8811 14.7368C18.6985 14.2157 18.506 13.6982 18.3035 13.1844L18.2762 13.1084L26.7745 13.7004C26.8176 13.7034 26.8596 13.7148 26.8982 13.7339C26.9368 13.7531 26.9713 13.7796 26.9996 13.8121C27.0279 13.8445 27.0495 13.8822 27.0632 13.9229C27.0768 13.9637 27.0823 14.0067 27.0793 14.0496L26.707 19.3537C26.7009 19.4403 26.6605 19.5209 26.5948 19.5778C26.529 19.6347 26.4433 19.6633 26.3564 19.6573L18.0241 19.0769C17.8778 18.6527 17.1847 16.6435 17.1169 16.2635C17.1076 16.2258 17.1064 16.1866 17.1135 16.1484Z" fill="#3DA89A"/>
<path d="M36.6649 32.0498L46.9863 32.7685C46.9863 32.7685 46.9671 33.042 46.9324 33.5368C46.7967 35.4703 46.4234 40.7865 46.0282 46.4168H35.3235C35.6161 42.2807 36.0371 36.2704 36.3121 32.353C36.3152 32.31 36.3268 32.268 36.3462 32.2295C36.3656 32.191 36.3925 32.1566 36.4253 32.1284C36.458 32.1003 36.4961 32.0788 36.5372 32.0653C36.5783 32.0518 36.6217 32.0465 36.6649 32.0498Z" fill="white"/>
<path d="M14.2269 12.2429L22.182 12.797L26.3056 13.0841C26.8317 13.1207 27.421 13.1341 27.6197 13.748C27.6679 13.9543 27.6751 14.168 27.6409 14.3771L27.5712 15.3708L27.3881 17.9786L27.3166 18.9938C27.3176 19.1918 27.2974 19.3894 27.2564 19.5832C27.0533 20.248 26.4609 20.2476 25.9119 20.2094L24.2799 20.0958L14.5862 19.4205C14.3276 19.4025 14.0669 19.3918 13.8088 19.3663C13.6853 19.3599 13.5643 19.3292 13.4528 19.2759C13.3413 19.2227 13.2414 19.148 13.1591 19.0561C13.0767 18.9643 13.0134 18.8571 12.9728 18.7407C12.9322 18.6244 12.9151 18.5012 12.9225 18.3783C12.9308 18.1502 12.9545 17.9217 12.9713 17.694C13.0764 16.1964 13.1585 14.6955 13.2868 13.1999C13.2853 12.9491 13.3833 12.7079 13.5595 12.5287C13.7356 12.3495 13.9756 12.2468 14.2274 12.2429C14.9804 12.2092 14.9787 13.3747 14.2274 13.4085C14.4568 13.398 14.4616 12.9869 14.4558 13.2159C14.4536 13.307 14.4431 13.3985 14.4368 13.4894L14.3692 14.4514L14.1937 16.9507L14.122 17.972C14.1157 18.0616 14.1464 18.3494 14.0901 18.4263C14.2264 18.2398 13.7732 18.2134 13.828 18.2022C13.8625 18.2006 13.8972 18.2029 13.9311 18.2092L14.3819 18.2408L23.4398 18.8722L25.3467 19.005L25.9828 19.0492C26.0937 19.045 26.2048 19.0532 26.3139 19.0735C26.3244 19.0769 26.3475 19.0698 26.3563 19.0764C26.1213 18.903 26.1203 19.555 26.1279 19.269C26.134 19.0368 26.1605 18.8032 26.1766 18.5715L26.3456 16.1639L26.4831 14.2057C26.5075 13.8536 26.5448 14.3249 26.7554 14.2827C26.6583 14.2873 26.561 14.2806 26.4655 14.2625L22.8468 14.0105L14.3922 13.4216L14.2271 13.4102C14.0731 13.4066 13.9264 13.344 13.8174 13.2355C13.7085 13.127 13.6456 12.9808 13.642 12.8274C13.6429 12.673 13.7047 12.5251 13.8142 12.4158C13.9236 12.3064 14.0718 12.2443 14.2269 12.2429Z" fill="#7E7E7E"/>
<path d="M45.4436 46.4168L45.6079 44.0764L46.0316 38.0377L46.6138 29.7443L47.2477 20.7293L47.8284 12.441L48.2558 6.35302L48.3796 4.58643C48.4177 4.37267 48.433 4.15551 48.4252 3.93856C48.3984 3.77732 48.4462 3.89922 48.324 3.80913C48.3206 3.80646 48.4301 3.82297 48.386 3.81787C48.357 3.81471 48.3275 3.81374 48.2984 3.8118C48.1522 3.8033 48.0059 3.79164 47.8613 3.78145L46.087 3.65784L39.7177 3.21419L31.1326 2.6161L22.1821 1.99276L14.7199 1.4731L10.5982 1.18608C10.5029 1.17928 10.4032 1.16301 10.3057 1.16568C10.262 1.16843 10.2187 1.17567 10.1765 1.18729C10.1277 1.19798 10.1543 1.29122 10.1653 1.19895C10.1653 1.20866 10.1653 1.21862 10.1631 1.22809C10.1333 1.52337 10.1206 1.82132 10.0992 2.11709L9.75787 6.8802L9.21517 14.4249L8.5774 23.3113L7.94596 32.1017L7.4235 39.3784L7.1168 43.6498L7.07585 44.2197C7.07219 44.3731 7.00937 44.5192 6.90042 44.6278C6.79147 44.7363 6.64476 44.7988 6.49073 44.8025C6.33594 44.8012 6.18785 44.7394 6.0784 44.6304C5.96894 44.5214 5.90689 44.3739 5.90561 44.2197L6.07505 41.8594L6.51267 35.7685L7.10973 27.4552L7.76189 18.3733L8.36554 9.96706L8.81217 3.74721C8.87312 2.8973 8.91165 2.04424 8.99527 1.19749C9.01326 0.867139 9.16025 0.556897 9.40484 0.333062C9.64943 0.109226 9.97222 -0.0104494 10.3042 -0.000390077C10.3998 0.00179539 10.4958 0.0129656 10.5912 0.019522L12.1247 0.126367L18.1986 0.549863L26.7367 1.14455L35.8165 1.77591L43.5083 2.31257L47.9525 2.62217C48.0802 2.63116 48.2085 2.6382 48.336 2.64889C48.6195 2.65379 48.8936 2.75158 49.1157 2.92715C49.3379 3.10273 49.4957 3.34629 49.565 3.62021C49.6038 3.91707 49.6005 4.2179 49.555 4.51382L49.2468 8.88719L48.7292 16.2632L48.1056 25.1473L47.4798 34.0641L46.9602 41.4679L46.6538 45.8326L46.6128 46.4168C46.6093 46.5703 46.5465 46.7165 46.4375 46.825C46.3286 46.9336 46.1818 46.9961 46.0277 46.9996C45.8729 46.9983 45.7248 46.9365 45.6154 46.8275C45.5059 46.7185 45.4439 46.571 45.4426 46.4168H45.4436Z" fill="#7E7E7E"/>
<path d="M45.3485 7.65724L32.2729 6.74639L19.5644 5.86127L12.7712 5.38824C12.6171 5.38472 12.4704 5.32219 12.3614 5.21365C12.2524 5.10511 12.1896 4.95891 12.1861 4.80545C12.1874 4.65127 12.2494 4.50378 12.3589 4.39475C12.4683 4.28573 12.6164 4.22393 12.7712 4.22266L25.0606 5.07863L37.9885 5.97905L45.3485 6.49166C45.5026 6.49518 45.6493 6.55771 45.7583 6.66625C45.8673 6.77479 45.9301 6.92099 45.9336 7.07445C45.9323 7.22863 45.8703 7.37613 45.7608 7.48515C45.6514 7.59417 45.5033 7.65598 45.3485 7.65724Z" fill="#7E7E7E"/>
<path d="M46.9857 33.3504L42.4008 33.0314L36.8281 32.6428C36.7758 32.6448 36.7235 32.6412 36.672 32.6319C36.6499 32.5833 37.0263 32.5105 36.8971 32.3553C36.9007 32.3595 36.8946 32.3796 36.8951 32.3847C36.8955 32.5375 36.8847 32.6902 36.8629 32.8415L36.7072 35.0578L36.2293 41.8471C36.124 43.3465 36.0387 44.8489 35.9124 46.3467C35.9104 46.371 35.9092 46.3941 35.9075 46.4176C35.9039 46.5711 35.8411 46.7172 35.7321 46.8258C35.6232 46.9343 35.4764 46.9968 35.3224 47.0004C35.1676 46.9991 35.0195 46.9373 34.9101 46.8283C34.8006 46.7193 34.7385 46.5718 34.7373 46.4176L35.0103 42.5457L35.5011 35.5609L35.6756 33.0792C35.7212 32.4301 35.6895 31.5207 36.5882 31.4697C37.0896 31.4707 37.5904 31.5026 38.0878 31.5654L41.3396 31.792C43.1868 31.9204 45.0363 32.0319 46.8823 32.1778C46.9164 32.1805 46.9508 32.1827 46.9852 32.1849C47.1392 32.1885 47.2859 32.2511 47.3949 32.3596C47.5038 32.4681 47.5667 32.6142 47.5703 32.7677C47.569 32.9218 47.507 33.0693 47.3975 33.1783C47.2881 33.2874 47.14 33.3492 46.9852 33.3504H46.9857Z" fill="#7E7E7E"/>
<path d="M8.62303 22.5295C9.95587 23.5355 11.2919 24.5372 12.6189 25.5508C13.3254 26.0907 14.029 26.6343 14.7297 27.1816C15.046 27.4296 15.361 27.6791 15.6746 27.93C16.0266 28.1669 16.2715 28.5314 16.3573 28.9458C16.3851 29.2833 16.3693 29.6229 16.3102 29.9564C16.2767 30.2993 16.2442 30.6423 16.2127 30.9853C16.1384 31.7734 16.0653 32.5616 15.9933 33.35C15.9202 34.1411 15.8462 34.9321 15.7714 35.7229C15.737 36.0823 15.7021 36.4415 15.6668 36.8006C15.6327 37.143 15.6356 37.2581 15.9158 37.466C17.4566 38.6087 19.0288 39.7092 20.5889 40.825C20.7197 40.906 20.8143 41.0337 20.8534 41.1821C20.8924 41.3304 20.8729 41.488 20.7988 41.6225C20.7196 41.755 20.5913 41.8512 20.4416 41.8903C20.2919 41.9294 20.1327 41.9083 19.9984 41.8316C18.5812 40.818 17.156 39.8161 15.7505 38.7857C15.4459 38.5903 15.1574 38.3711 14.8877 38.1301C14.7346 37.97 14.6191 37.778 14.5495 37.568C14.4799 37.3581 14.4579 37.1354 14.4852 36.9159C14.5527 36.1855 14.627 35.456 14.6953 34.7259C14.8392 33.188 14.9776 31.6497 15.1261 30.1121C15.1842 29.8044 15.2142 29.492 15.2156 29.1789C15.1873 28.8972 14.757 28.6801 14.5541 28.5191C13.897 27.9969 13.2352 27.4805 12.5687 26.9699C11.0649 25.8152 9.54751 24.6783 8.03401 23.5358C7.90366 23.4545 7.80935 23.3268 7.77034 23.1786C7.73134 23.0305 7.75056 22.8731 7.8241 22.7386C7.90309 22.6059 8.03139 22.5095 8.18121 22.4704C8.33102 22.4312 8.49029 22.4525 8.62449 22.5295H8.62303Z" fill="#7E7E7E"/>
<path d="M15.3619 31.6635C13.774 32.6282 12.1437 33.5636 10.6222 34.6292L10.9121 34.126C10.8789 35.2549 10.7833 36.3824 10.7351 37.5108C10.7031 38.2582 9.53291 38.2621 9.56485 37.5108C9.6002 36.6825 9.65164 35.855 9.69796 35.0274C9.71405 34.7409 9.72064 34.4529 9.74063 34.1668C9.76671 33.7948 10.0032 33.6374 10.2838 33.4526C11.2936 32.787 12.3285 32.1579 13.3581 31.5234C13.8283 31.2334 14.2997 30.9447 14.7721 30.6572C15.417 30.2655 16.0055 31.273 15.3629 31.6635H15.3619Z" fill="#7E7E7E"/>
<path d="M3.13423 45.834H49.9132C50.6663 45.834 50.6676 46.9996 49.9132 46.9996H3.13423C2.38138 46.9996 2.38016 45.834 3.13423 45.834Z" fill="#7E7E7E"/>
<path d="M0.0853081 28.7865C0.199081 28.6294 0.313584 28.4727 0.428819 28.3161C0.630469 28.1064 0.784606 27.8561 0.880822 27.582C0.915588 27.3786 0.869793 27.1697 0.753071 26.9992C0.581463 26.7188 0.47787 26.4023 0.450518 26.075C0.431619 25.7525 0.495292 25.4305 0.635561 25.1392C0.759411 24.8745 0.999308 24.6693 1.09731 24.3947C1.13531 24.2824 1.1465 24.1629 1.13 24.0457C1.11349 23.9284 1.06974 23.8166 1.00223 23.7191C0.805732 23.4092 0.59753 23.1067 0.395666 22.8005C-0.0187912 22.1715 0.993946 21.5863 1.40596 22.2121C1.81433 22.8316 2.34337 23.4442 2.3068 24.23C2.28829 24.603 2.16225 24.9627 1.94378 25.2662C1.7663 25.5153 1.57101 25.7479 1.62075 26.075C1.65976 26.3327 1.8626 26.5563 1.95354 26.7994C2.07211 27.1365 2.09439 27.4997 2.0179 27.8487C1.90087 28.4329 1.43668 28.905 1.09585 29.3751C1.01452 29.5053 0.886218 29.5995 0.737316 29.6384C0.588414 29.6772 0.430216 29.6579 0.29522 29.5842C0.162118 29.5053 0.0654937 29.3775 0.0262186 29.2283C-0.0130564 29.0791 0.00816813 28.9202 0.0853081 28.7865Z" fill="#7E7E7E"/>
<path d="M56.3037 15.3364C56.675 16.1511 57.2238 17.0362 56.9035 17.9558C56.8363 18.1549 56.7392 18.3426 56.6155 18.5127C56.5058 18.6608 56.3588 18.7824 56.2594 18.9364C56.1784 19.0706 56.1336 19.2234 56.1293 19.38C56.125 19.5366 56.1614 19.6916 56.235 19.83C56.4521 20.2516 56.5362 20.7288 56.4763 21.1988C56.3958 21.645 56.1736 22.0535 55.8425 22.3644C55.7258 22.463 55.6356 22.5889 55.58 22.7308C55.5244 22.8727 55.5052 23.0262 55.5241 23.1774C55.5899 23.5936 55.8763 23.9419 55.9402 24.3649C56.0209 24.8652 55.9105 25.3776 55.6308 25.801C55.3017 26.2813 54.8058 26.6703 54.3914 27.0751C53.8536 27.6011 53.0261 26.7776 53.5637 26.2509C53.8962 25.9255 54.2622 25.6152 54.5693 25.2658C54.6676 25.1586 54.7373 25.0286 54.7721 24.8877C54.807 24.7468 54.8058 24.5994 54.7688 24.4591C54.6656 24.0783 54.4328 23.7537 54.3733 23.3569C54.3085 22.9301 54.379 22.4938 54.575 22.1087C54.7424 21.7722 55.0869 21.5713 55.2495 21.243C55.3109 21.1038 55.3386 20.9522 55.3304 20.8003C55.3222 20.6485 55.2783 20.5007 55.2022 20.3688C55.0087 19.9926 54.9336 19.5669 54.9867 19.1474C55.0398 18.7279 55.2186 18.3342 55.4999 18.0175C55.617 17.9158 55.7077 17.7874 55.7642 17.6433C55.8208 17.4992 55.8415 17.3436 55.8247 17.1897C55.7545 16.7611 55.4719 16.3155 55.2934 15.9246C55.2198 15.7902 55.2005 15.6328 55.2395 15.4847C55.2786 15.3366 55.3729 15.2089 55.5033 15.1278C55.6376 15.051 55.7968 15.0299 55.9466 15.069C56.0963 15.1081 56.2246 15.2044 56.3037 15.3369V15.3364Z" fill="#7E7E7E"/>
<path d="M47.3797 22.7943L43.7556 24.3873C43.6658 24.4388 43.564 24.466 43.4603 24.466C43.3566 24.466 43.2548 24.4388 43.1649 24.3873C42.3867 23.8069 41.6324 23.1938 40.8354 22.6389L41.6358 22.4298C41.0858 23.5507 40.5413 24.6745 40.0024 25.801C39.9526 25.8904 39.8792 25.9646 39.7902 26.0154C39.7011 26.0663 39.5998 26.092 39.4972 26.0898C37.7037 25.8647 35.9112 25.6319 34.1198 25.3914C33.9661 25.3866 33.8201 25.3236 33.7114 25.2154C33.6027 25.1071 33.5395 24.9616 33.5347 24.8086C33.5347 24.5264 33.8043 24.1838 34.1198 24.2258C35.9112 24.4654 37.7037 24.6982 39.4972 24.9242L38.9921 25.2129C39.5284 24.0852 40.0729 22.9614 40.6255 21.8414C40.7043 21.7085 40.8326 21.612 40.9825 21.5729C41.1324 21.5337 41.2918 21.5551 41.4259 21.6324C42.2229 22.1875 42.9772 22.8009 43.7556 23.3807H43.1649L46.789 21.788C46.9241 21.7148 47.0821 21.6956 47.2309 21.7345C47.3797 21.7733 47.508 21.8672 47.5896 21.9971C47.6667 22.1308 47.688 22.2894 47.6487 22.4385C47.6094 22.5877 47.5128 22.7155 47.3797 22.7943Z" fill="#7E7E7E"/>
<path d="M44.1582 23.8215C44.0722 24.634 43.994 25.4475 43.9237 26.262C43.9237 26.4165 43.862 26.5648 43.7523 26.6741C43.6426 26.7834 43.4937 26.8448 43.3386 26.8448C43.1834 26.8448 43.0345 26.7834 42.9248 26.6741C42.8151 26.5648 42.7534 26.4165 42.7534 26.262C42.8232 25.4477 42.9013 24.6342 42.988 23.8215C42.9925 23.6678 43.0532 23.521 43.1586 23.4087C43.2405 23.3269 43.3449 23.2712 43.4585 23.2486C43.5722 23.226 43.6901 23.2375 43.7972 23.2817C43.9043 23.326 43.9958 23.4009 44.0601 23.497C44.1243 23.5931 44.1585 23.7061 44.1582 23.8215Z" fill="#7E7E7E"/>
<path d="M18.8668 13.0288C19.0077 13.3887 19.1445 13.7502 19.2771 14.1133C19.4103 14.48 19.6124 14.8841 19.4168 15.2668C19.2491 15.5948 18.888 15.7454 18.5821 15.9195L18.0196 16.2391L17.7641 16.3848L17.662 16.4428C17.5424 16.5237 17.5276 16.5237 17.6176 16.4428L17.6976 16.1487C17.7032 16.0759 17.6888 16.1439 17.6976 16.1861C17.7037 16.2206 17.7149 16.2546 17.7239 16.2883C17.7532 16.3964 17.7858 16.5035 17.8187 16.6106C17.9102 16.909 18.0077 17.2058 18.1059 17.502C18.2663 17.9852 18.4316 18.467 18.5969 18.9488C18.8407 19.66 17.711 19.9655 17.4684 19.2586C17.2141 18.5178 16.9576 17.7774 16.7241 17.0297C16.6124 16.6723 16.4169 16.2121 16.608 15.8544C16.7892 15.5159 17.2134 15.3566 17.5323 15.1745L18.0443 14.8831C18.1293 14.8345 18.2149 14.786 18.2998 14.7374L18.4019 14.6794C18.4903 14.6256 18.4923 14.6249 18.408 14.6772L18.328 14.9712C18.3466 14.777 18.1484 14.4149 18.0745 14.2146C17.9661 13.9209 17.8546 13.6285 17.74 13.3375C17.6999 13.1885 17.7202 13.0297 17.7967 12.8956C17.8732 12.7614 17.9996 12.6627 18.1486 12.6206C18.2981 12.5831 18.4564 12.6044 18.5905 12.6803C18.7247 12.7561 18.8242 12.8805 18.8685 13.0276L18.8668 13.0288Z" fill="#7E7E7E"/>
</g>
<defs>
<clipPath id="clip0_640_5837">
<rect width="57" height="47" fill="white" transform="matrix(-1 0 0 1 57 0)"/>
</clipPath>
</defs>
</svg>
