<svg width="160" height="97" viewBox="0 0 160 97" fill="none" xmlns="http://www.w3.org/2000/svg">
<path d="M70.6275 73.5372C65.7181 76.1776 60.8091 78.8181 55.8997 81.4589C50.5927 84.3132 45.286 87.1679 39.9789 90.0222C37.3314 91.4462 34.6834 92.8705 32.0359 94.2945C30.7011 95.0123 31.9061 96.9413 33.2449 96.2213C38.1674 93.5734 43.09 90.9259 48.013 88.278C53.3161 85.4256 58.6191 82.5731 63.9226 79.7207C66.5606 78.3019 69.1985 76.8827 71.8369 75.464C73.1716 74.7462 71.9666 72.8172 70.6279 73.5372H70.6275Z" fill="#E2E2E2"/>
<path d="M129.436 63.518C124.968 65.9212 120.5 68.3248 116.031 70.728C111.177 73.339 106.322 75.9501 101.468 78.5612C99.0518 79.8606 96.6355 81.1604 94.2195 82.4598C92.8847 83.1775 94.0897 85.1066 95.4285 84.3866C99.9091 81.9767 104.389 79.5668 108.87 77.1569C113.721 74.5477 118.572 71.9385 123.423 69.3289C125.83 68.0339 128.237 66.7394 130.645 65.4444C131.98 64.7267 130.775 62.7977 129.436 63.5176V63.518Z" fill="#E2E2E2"/>
<path d="M45.1024 52.6337C47.8925 54.1339 50.6825 55.6345 53.4726 57.1347C58.0079 59.5736 62.5432 62.0125 67.0789 64.4518C68.289 65.1026 69.4992 65.7534 70.7094 66.4042C72.0469 67.1235 73.2547 65.1959 71.9184 64.4774C68.846 62.8255 65.7741 61.1732 62.7017 59.5208C58.2459 57.1247 53.7896 54.7282 49.3338 52.3321C48.3265 51.7902 47.3191 51.2487 46.3118 50.7069C44.9742 49.9877 43.766 51.9152 45.1024 52.6337Z" fill="#E2E2E2"/>
<path d="M90.3215 42.2237C82.4388 46.4637 74.556 50.7037 66.6733 54.9436C64.6295 56.043 62.5856 57.1423 60.5418 58.2416C59.207 58.9594 60.412 60.8884 61.7507 60.1684C69.6411 55.9243 77.531 51.6806 85.4213 47.4366C87.4576 46.3413 89.4942 45.2461 91.5305 44.1505C92.8653 43.4327 91.6603 41.5037 90.3215 42.2237Z" fill="#E2E2E2"/>
<path d="M58.9778 26.5791C59.6653 26.9479 60.3524 27.3167 61.0399 27.6855C62.9152 28.6917 64.7905 29.698 66.6661 30.704C69.4394 32.1921 72.2131 33.6802 74.9865 35.1683C78.3849 36.9915 81.7833 38.815 85.1817 40.6383C88.9392 42.6545 92.697 44.6704 96.4545 46.6866C100.281 48.7401 104.109 50.7933 107.936 52.8468C111.541 54.7813 115.147 56.7162 118.753 58.6508C121.872 60.3242 124.991 61.9977 128.11 63.6712C130.47 64.9377 132.831 66.2043 135.191 67.4705C136.502 68.1742 137.814 68.8776 139.125 69.5812C139.253 69.6499 139.381 69.7186 139.509 69.7873C140.52 70.3297 141.433 68.8761 140.423 68.3343C139.407 67.7891 138.391 67.2442 137.375 66.699C135.242 65.5547 133.109 64.4105 130.977 63.2662C128.017 61.6786 125.058 60.0906 122.099 58.503C118.585 56.618 115.072 54.7328 111.559 52.8479C107.757 50.8081 103.956 48.7681 100.154 46.7284C96.3537 44.6894 92.5537 42.6505 88.7539 40.6116C85.246 38.7295 81.738 36.8474 78.2301 34.9652C75.2799 33.3823 72.3293 31.7992 69.3791 30.2163C67.2588 29.0788 65.1387 27.941 63.0184 26.8034C62.0189 26.2672 61.0257 25.7178 60.0187 25.1939C59.9761 25.1718 59.9345 25.1488 59.8922 25.126C58.8813 24.5836 57.9684 26.0372 58.9784 26.5791H58.9778Z" fill="#E2E2E2"/>
<path d="M14.293 59.6733L1.07609 52.5657C0.8549 52.4467 0.71875 52.2269 0.71875 51.9889V34.5715C0.71875 34.3335 0.8549 34.1137 1.07609 33.9947L13.3596 27.3891V21.1041C13.3596 20.8661 13.4957 20.6463 13.7169 20.5273L23.1141 15.4739C23.3353 15.3549 23.608 15.3549 23.8292 15.4739C23.8292 15.4739 26.6025 16.9652 29.6736 18.6161C31.9431 17.3963 34.2153 16.1738 35.6798 15.3862C35.9485 15.2419 36.2747 15.2426 36.5434 15.3869C38.6791 16.5353 48.0751 21.5883 50.0287 22.6389C50.2507 22.7583 50.3852 22.9806 50.3852 23.2194C50.3852 29.3044 50.3852 34.4767 50.3852 40.6282C50.3852 40.867 50.2483 41.0905 50.0263 41.2099C38.4675 47.4257 26.9087 53.6416 15.3499 59.8578C15.1287 59.9768 14.856 59.9768 14.6348 59.8578L14.293 59.6741V59.6733Z" fill="white"/>
<path d="M27.6346 41.4385V47.2635C24.6445 48.8723 18.1951 52.3406 14.9922 54.0628V48.2378C17.3055 46.9927 24.7571 42.9867 27.6346 41.4385Z" fill="#3DA89A"/>
<path d="M50.3841 29.2061V35.0311C47.1812 36.7533 40.7366 40.2216 37.7461 41.8263V36.0013C40.6236 34.4531 48.0664 30.4512 50.3841 29.2061Z" fill="#3DA89A"/>
<path d="M28.3521 53.2541V29.4673C28.3521 29.3609 28.3429 29.2501 28.3521 29.1441C28.3805 28.8124 28.5913 28.6562 28.8708 28.506L31.6081 27.034L35.3301 25.0325L36.6581 24.3184C36.7631 24.2619 36.904 24.2109 36.9963 24.1366C37.0961 24.0562 37.0777 24.138 37.0298 24.07C37.1092 24.183 37.0274 24.7506 37.0274 24.9224V47.8163C37.0274 48.6776 38.4648 48.6791 38.4648 47.8163V28.3423C38.4648 26.9362 38.5131 25.5215 38.4648 24.1157C38.4448 23.5352 38.119 23 37.4933 22.8186C36.9815 22.6702 36.5451 22.8334 36.1147 23.0648L33.1026 24.6844L29.369 26.6922C28.5382 27.1389 27.4286 27.5483 27.0597 28.4375C26.87 28.895 26.9147 29.3989 26.9147 29.8805V53.2545C26.9147 54.1158 28.3521 54.1173 28.3521 53.2545V53.2541Z" fill="#7E7E7E"/>
<path d="M27.2709 34.4892C25.3284 35.5338 23.3864 36.5781 21.444 37.6228C19.5742 38.6284 17.7048 39.6336 15.8351 40.6392C15.4262 40.859 14.8057 41.0706 14.4847 41.3919C14.3083 41.5686 14.2811 41.7683 14.2743 41.9937C14.2679 42.1997 14.2743 42.4065 14.2743 42.6125C14.2743 46.5405 14.2743 50.4688 14.2743 54.3968V58.4861C14.2743 59.3474 15.7117 59.3489 15.7117 58.4861V41.8654L15.3555 42.4433C19.569 40.1773 23.7829 37.9114 27.9964 35.6454C28.7973 35.2148 28.0742 34.0574 27.2709 34.4896V34.4892Z" fill="#7E7E7E"/>
<path d="M35.3571 20.9014C31.7593 18.9665 28.1775 17.0032 24.5625 15.0965C24.0766 14.8403 23.5504 14.6963 22.9878 14.838C22.6932 14.912 22.4328 15.069 22.1713 15.2096L19.3309 16.7369C17.4216 17.7637 15.4588 18.7336 13.5903 19.824C12.515 20.4518 12.6408 21.4864 12.6408 22.5013V26.2854C12.6408 26.3772 12.5606 27.1091 12.6408 27.1589C12.1964 26.8826 12.9882 26.9027 12.7171 26.9629C12.6348 26.9812 12.5426 27.0567 12.4695 27.0961L9.98688 28.4312L2.87752 32.2543C2.24987 32.592 1.61384 32.9196 0.992978 33.2677C0.227982 33.6969 0 34.367 0 35.1409C0 39.6665 0 44.1921 0 48.7177V51.1949C0 52.0149 0.0822491 52.7599 0.927898 53.2601C2.39281 54.1269 3.94756 54.8837 5.45 55.6919L12.4412 59.4514C12.9718 59.7366 13.4952 60.0408 14.0359 60.309C15.068 60.8207 15.8781 60.3473 16.7868 59.8586C18.0489 59.1799 19.311 58.5012 20.5727 57.8225C25.6206 55.1076 30.6689 52.3932 35.7169 49.6783C38.2981 48.29 40.8798 46.9018 43.4611 45.5138C44.7232 44.8351 45.9852 44.1564 47.2469 43.4777C47.8207 43.169 48.394 42.8607 48.9678 42.5521C49.5643 42.2311 50.3189 41.9555 50.7373 41.423C51.0903 40.9737 51.103 40.4743 51.103 39.9362C51.103 39.2448 51.103 38.5534 51.103 37.8621C51.103 36.5857 51.103 35.3094 51.103 34.0334C51.103 31.5194 51.103 29.0054 51.103 26.4914C51.103 25.8413 51.103 25.1909 51.103 24.5408C51.103 23.9387 51.2053 23.2466 50.9086 22.6899C50.7082 22.3135 50.3868 22.0629 50.0091 21.8565C49.3387 21.4901 48.6623 21.1324 47.9892 20.7705L40.796 16.9024L37.92 15.3557C37.2545 14.998 36.5901 14.5379 35.7724 14.6826C35.2457 14.7756 34.7794 15.098 34.3226 15.3438C33.8495 15.5982 33.3764 15.8529 32.9028 16.1073C31.7054 16.7514 30.5076 17.3952 29.3098 18.0393C28.5089 18.47 29.232 19.6273 30.0353 19.1952C31.2331 18.5514 32.4305 17.9073 33.6283 17.2632C34.1014 17.0088 34.5746 16.754 35.0481 16.4997C35.3943 16.3137 35.9037 15.8808 36.3158 16.0393C36.7394 16.2022 37.1451 16.4852 37.5407 16.6979C39.7503 17.8861 41.9598 19.0743 44.1694 20.2625C45.8866 21.1859 47.6218 22.0855 49.3231 23.0339C49.7204 23.2552 49.6657 23.5847 49.6657 23.9993C49.6657 25.2652 49.6657 26.5308 49.6657 27.7967C49.6657 30.2193 49.6657 32.6418 49.6657 35.0647C49.6657 36.3552 49.6657 37.646 49.6657 38.9365C49.6657 39.2392 49.6657 39.5419 49.6657 39.8447C49.6657 40.0447 49.7244 40.346 49.6413 40.5409C49.5551 40.7435 49.2896 40.8332 49.1027 40.9339C48.7586 41.1192 48.4144 41.304 48.0702 41.4892C45.6035 42.8157 43.1369 44.1423 40.6702 45.4688C35.7368 48.1219 30.8035 50.7747 25.8701 53.4278C23.4035 54.7543 20.9368 56.0809 18.4701 57.4074C17.8964 57.7161 17.323 58.0244 16.7493 58.3331C16.4626 58.4874 16.1755 58.6418 15.8889 58.7957C15.6373 58.9311 15.2983 59.2171 14.9921 59.2171C14.8188 59.2171 14.6427 59.0899 14.4982 59.0125L8.9939 56.0522L2.57727 52.6018C2.2327 52.4166 1.49406 52.1782 1.43696 51.7602C1.38546 51.3831 1.43696 50.9684 1.43696 50.5895C1.43696 46.0006 1.43696 41.4118 1.43696 36.8234C1.43696 36.2057 1.43297 35.5876 1.43696 34.9699C1.43936 34.5667 1.68571 34.4414 2.02908 34.2569L8.0117 31.0397C9.80282 30.0765 11.6311 29.156 13.3922 28.1459C14.1604 27.7056 14.0778 27.0451 14.0778 26.3192V22.6568C14.0778 22.164 13.8654 21.2499 14.3792 20.9457C15.1043 20.5161 15.8745 20.1416 16.6187 19.7415L22.9323 16.3461C23.1228 16.2438 23.3408 16.0798 23.5736 16.1289C23.7381 16.1635 23.9057 16.2899 24.0479 16.3662L26.5445 17.7087L33.2754 21.3284L34.6309 22.0573C35.4334 22.489 36.1581 21.3325 35.3563 20.9014H35.3571Z" fill="#7E7E7E"/>
<path d="M17.337 23.8006C19.3317 24.8731 21.3265 25.946 23.3212 27.0186L24.1777 27.4794C24.9802 27.9111 25.7049 26.7545 24.9031 26.3235C22.9084 25.251 20.9136 24.1781 18.9189 23.1055L18.0625 22.6447C17.2599 22.213 16.5353 23.3696 17.337 23.8006Z" fill="#7E7E7E"/>
<path d="M12.3649 39.6809C10.1693 38.5001 7.97415 37.3197 5.77858 36.1389C5.46436 35.9701 5.15013 35.8009 4.83591 35.632C4.03338 35.2003 3.30871 36.3569 4.11044 36.7879C6.30601 37.9687 8.50118 39.1491 10.6968 40.3298C11.011 40.4987 11.3252 40.6679 11.6394 40.8367C12.442 41.2685 13.1666 40.1119 12.3649 39.6809Z" fill="#7E7E7E"/>
<path d="M49.6655 22.8509C45.5715 25.0525 41.4778 27.2541 37.3837 29.4557C36.5828 29.8864 37.3058 31.0437 38.1092 30.6116C42.2032 28.41 46.2969 26.2084 50.391 24.0067C51.1919 23.5761 50.4689 22.4187 49.6655 22.8509Z" fill="#7E7E7E"/>
<path d="M31.5388 33.9378C31.4306 33.8753 31.5324 33.9393 31.5508 33.9549C31.5157 33.9255 31.4841 33.8946 31.4514 33.8634C31.3819 33.7972 31.5069 33.9538 31.459 33.8682C31.4402 33.8344 31.4179 33.802 31.3983 33.7686C31.346 33.6767 31.4346 33.9132 31.3831 33.7303C31.3711 33.6875 31.3556 33.6462 31.344 33.6031C31.3069 33.4636 31.312 33.4952 31.3033 33.3413C31.2977 33.2446 31.2973 33.1479 31.3017 33.0512C31.3037 33.0099 31.3264 32.7875 31.3085 32.911C31.3368 32.7124 31.3891 32.5153 31.4534 32.3241C31.5273 32.1047 31.5604 32.0292 31.645 31.8674C31.7512 31.664 31.8734 31.468 32.0108 31.2813C32.1349 31.1129 32.1633 31.0801 32.3282 30.9154C32.3973 30.8466 32.4683 30.7796 32.5426 30.7157C32.5885 30.6759 32.6356 30.6372 32.6835 30.5996C32.7063 30.5818 32.8165 30.5033 32.743 30.5535C32.9143 30.4364 33.1199 30.3133 33.304 30.2456C33.3838 30.2162 33.5108 30.1835 33.611 30.1697C33.4853 30.1872 33.8825 30.2114 33.7108 30.1716C33.752 30.1813 33.7919 30.1906 33.8326 30.2028C33.7468 30.1772 33.8075 30.1593 33.829 30.2066C33.8498 30.2523 33.8933 30.2497 33.831 30.1995C33.8626 30.2248 33.8897 30.2519 33.9189 30.2795C33.8095 30.1772 34.0027 30.4159 33.98 30.3713C33.9452 30.3032 34.0027 30.4304 34.0079 30.4457C34.0271 30.5018 34.0414 30.5587 34.0558 30.6164C34.1381 30.9444 34.0622 31.3665 33.9592 31.7217C33.8418 32.127 33.714 32.3862 33.4581 32.7526C33.2249 33.0858 32.8692 33.432 32.5234 33.6458C32.2911 33.7898 32.0894 33.8746 31.8379 33.9489C31.8215 33.9538 31.6941 33.9724 31.8055 33.9601C31.7476 33.9664 31.689 33.9649 31.6311 33.9642L31.5971 33.9627C31.679 33.975 31.6782 33.9731 31.5955 33.9575L31.5352 33.9408C31.6099 33.9735 31.6107 33.9724 31.5376 33.9374C31.1951 33.7675 30.7555 33.8571 30.5542 34.1777C30.3638 34.4811 30.4684 34.9229 30.8122 35.0936C32.0603 35.7132 33.524 34.8173 34.3105 33.9173C35.0923 33.0229 35.6158 31.8336 35.504 30.6629C35.4445 30.0388 35.1893 29.4334 34.6056 29.0797C33.9995 28.7127 33.2489 28.8108 32.6236 29.07C31.4722 29.5468 30.6477 30.5762 30.1929 31.6413C29.7301 32.7243 29.5892 34.3893 30.8122 35.0936C31.1424 35.2837 31.6035 35.1598 31.796 34.8534C31.9968 34.5339 31.8686 34.1282 31.5376 33.9374L31.5388 33.9378Z" fill="#7E7E7E"/>
<path d="M57.6616 30.6504C56.7752 29.5265 55.0296 29.5269 54.1436 30.6504C53.8318 31.0461 53.5739 31.4797 53.3774 31.9349C53.2553 32.2179 53.1558 32.5106 53.0964 32.8103C53.0401 33.096 53.0201 33.3864 53.0005 33.6765C52.9658 34.1875 52.9339 34.7171 53.1319 35.1946C53.3036 35.6085 53.6461 35.9566 54.0702 36.1589C54.4942 36.3612 55.4285 36.4683 55.9032 36.4683C56.2614 36.4683 57.3122 36.3612 57.7362 36.1589C58.1603 35.9566 58.5028 35.6085 58.6745 35.1946C58.8726 34.7171 58.8406 34.1875 58.8059 33.6765C58.7863 33.3868 58.7664 33.096 58.7101 32.8103C58.6506 32.5102 58.5511 32.2179 58.429 31.9349C58.2325 31.4793 57.9746 31.0457 57.6624 30.65L57.6616 30.6504Z" fill="#3DA89A"/>
<path d="M55.3164 36.8096V39.0998C55.3164 39.4501 55.647 39.7855 56.0351 39.7692C56.4232 39.7528 56.7538 39.475 56.7538 39.0998V36.8096C56.7538 36.4593 56.4232 36.1239 56.0351 36.1402C55.647 36.1566 55.3164 36.4344 55.3164 36.8096Z" fill="#FEBE69"/>
<path d="M11.3706 55.7432C10.4842 54.6193 8.73859 54.6197 7.85262 55.7432C7.54079 56.1388 7.28286 56.5725 7.08643 57.0277C6.96425 57.3107 6.86483 57.6034 6.80534 57.9031C6.74904 58.1887 6.72908 58.4792 6.70952 58.7693C6.67478 59.2802 6.64284 59.8098 6.84088 60.2873C7.01256 60.7013 7.35513 61.0494 7.77915 61.2517C8.20278 61.454 9.13746 61.5611 9.61219 61.5611C9.97033 61.5611 11.0212 61.454 11.4452 61.2517C11.8693 61.0494 12.2118 60.7013 12.3835 60.2873C12.5815 59.8098 12.5496 59.2802 12.5149 58.7693C12.4953 58.4796 12.4753 58.1887 12.419 57.9031C12.3596 57.603 12.2601 57.3107 12.138 57.0277C11.9415 56.5721 11.6836 56.1385 11.3714 55.7428L11.3706 55.7432Z" fill="#3DA89A"/>
<path d="M9.02344 61.8995V64.1896C9.02344 64.5399 9.35403 64.8754 9.74212 64.859C10.1302 64.8427 10.4608 64.5649 10.4608 64.1896V61.8995C10.4608 61.5492 10.1302 61.2137 9.74212 61.2301C9.35403 61.2464 9.02344 61.5242 9.02344 61.8995Z" fill="#FEBE69"/>
<path d="M26.1449 75.6963C26.1449 75.5564 26.1449 69.0185 26.1449 59.2469C30.3568 56.9817 36.6636 53.5904 40.8759 51.3252C45.0878 53.5904 51.3946 56.9817 55.6065 59.2473V75.694C51.631 77.8324 46.1031 80.8065 40.8751 83.6188C36.7375 81.3937 31.0515 78.3352 26.1445 75.6966L26.1449 75.6963Z" fill="white"/>
<path d="M40.8771 51.3252C36.6652 53.5904 30.3584 56.9817 26.1465 59.2469C27.0991 59.759 27.8094 60.1413 27.8094 60.1413C31.5458 62.1507 37.1407 65.1593 40.8771 67.1687C45.188 64.8503 51.9176 61.2314 55.608 59.2473C51.3962 56.9821 45.0893 53.5904 40.8771 51.3252Z" fill="#FFBAA7"/>
<path d="M53.8429 76.7964V68.7731C53.8429 68.264 53.2328 67.9408 52.7617 68.1952C51.4461 68.9048 50.1297 69.6136 48.8137 70.3225C48.4951 70.4943 48.0974 70.6348 47.9824 70.9922C47.8766 71.3221 47.9569 71.7483 47.9569 72.0904C47.9569 72.806 47.9569 73.5215 47.9569 74.237C47.9569 75.8864 47.9569 77.5357 47.9569 79.1855C47.9569 80.0468 49.3943 80.0483 49.3943 79.1855C49.3943 76.5138 49.3943 73.8421 49.3943 71.1704L49.0381 71.7483C50.521 70.9495 52.0043 70.151 53.4867 69.3514L52.4055 68.7735V76.7968C52.4055 77.6581 53.8429 77.6596 53.8429 76.7968V76.7964Z" fill="#7E7E7E"/>
<path d="M45.3437 70.4729C43.9111 71.2428 42.4797 72.0141 41.0476 72.7839C40.8288 72.9014 40.6914 73.1271 40.6914 73.3618C40.6914 74.6192 40.6914 75.8769 40.6914 77.1343C40.6914 77.6438 41.3015 77.9659 41.7726 77.7123C43.2048 76.9417 44.6366 76.1711 46.0691 75.4013C46.2879 75.2838 46.4253 75.058 46.4253 74.8234C46.4253 73.566 46.4253 72.3082 46.4253 71.0509C46.4253 70.1895 44.9879 70.1881 44.9879 71.0509C44.9879 72.3082 44.9879 73.566 44.9879 74.8234L45.3441 74.2454C43.9119 75.0153 42.4797 75.7858 41.0476 76.5564L42.1288 77.1343C42.1288 75.8769 42.1288 74.6192 42.1288 73.3618L41.7726 73.9397C43.2052 73.1699 44.6366 72.3986 46.0687 71.6288C46.8697 71.1985 46.147 70.0408 45.3437 70.4729Z" fill="#7E7E7E"/>
<path d="M27.4452 60.7186C31.2119 62.7444 34.9786 64.7701 38.7453 66.7954C39.25 67.0669 39.8041 67.4589 40.3763 67.6028C41.2675 67.8271 41.9698 67.3525 42.6905 66.965L49.2508 63.4368C51.0343 62.4777 52.8179 61.5186 54.6014 60.5595C55.4023 60.1288 54.6793 58.9715 53.8759 59.4036C50.152 61.4063 46.428 63.4089 42.704 65.4116C42.1926 65.6868 41.6803 66.0267 41.1405 66.2524C40.7021 66.4358 40.231 66.0486 39.86 65.8493L33.4163 62.384C31.6675 61.4435 29.9187 60.5033 28.1699 59.5628C27.3674 59.131 26.6427 60.2876 27.4444 60.7186H27.4452Z" fill="#7E7E7E"/>
<path d="M26.8643 75.1825C26.8643 72.2363 26.8643 69.2902 26.8643 66.344C26.8643 65.1632 26.8643 63.9829 26.8643 62.8021C26.8643 62.1565 26.8643 61.5105 26.8643 60.8649C26.8643 60.5153 26.7002 59.8132 26.9909 59.5644C27.0915 59.4781 27.2596 59.4201 27.3765 59.3568L28.3759 58.8195L35.2904 55.1009C37.0644 54.147 38.816 53.1324 40.623 52.2332C40.9944 52.0483 41.2651 52.3061 41.6164 52.495C42.6581 53.0551 43.6998 53.6155 44.7415 54.1756C46.8808 55.3259 49.0196 56.4765 51.1589 57.6268C52.1742 58.1727 53.1896 58.7187 54.2049 59.265C54.5635 59.458 54.8773 59.5383 54.8885 59.9229C54.9076 60.5967 54.8885 61.274 54.8885 61.9478C54.8885 64.537 54.8885 67.1257 54.8885 69.7149V73.1884C54.8885 73.815 54.9408 74.464 54.8885 75.0891C54.8521 75.5235 54.0828 75.7396 53.7106 75.9397C52.6526 76.5087 51.5949 77.078 50.5369 77.647C48.1257 78.9442 45.7149 80.241 43.3037 81.5382C42.6976 81.8643 42.0915 82.1901 41.4859 82.5159C41.3138 82.6085 41.0594 82.8268 40.8574 82.8127C40.635 82.7974 40.2925 82.53 40.0988 82.4263C39.0268 81.8498 37.9551 81.2734 36.8831 80.697C34.5666 79.4511 32.25 78.2053 29.9335 76.9594C29.3601 76.6511 28.7864 76.3424 28.213 76.0341C27.9563 75.8962 27.6996 75.7578 27.4428 75.6198C27.2556 75.519 26.8831 75.4183 26.8639 75.1825C26.7952 74.3286 25.3571 74.3215 25.4265 75.1825C25.4796 75.8437 25.8102 76.2747 26.4115 76.6117C27.0228 76.9542 27.648 77.2766 28.2657 77.6087C29.4763 78.2599 30.6869 78.9107 31.8971 79.5619C34.2531 80.829 36.6088 82.096 38.9649 83.3631C39.476 83.6379 40.0221 84.0362 40.6147 84.1232C41.3501 84.2315 41.935 83.8205 42.5407 83.4947C43.8064 82.8142 45.0717 82.1332 46.337 81.4526C48.7601 80.1492 51.1829 78.8457 53.606 77.5422C54.1051 77.2737 54.6042 77.0051 55.1033 76.7366C55.7269 76.4012 56.2408 76.0297 56.3147 75.3115C56.331 75.1535 56.3254 74.9954 56.3254 74.837V60.7779C56.3254 60.0646 56.4432 59.2442 55.8611 58.6822C55.4918 58.3259 54.936 58.1117 54.4812 57.8674C53.9434 57.5781 53.4056 57.2891 52.8678 56.9998C51.7167 56.3809 50.566 55.7617 49.4149 55.1429C47.1858 53.9439 44.9563 52.7453 42.7272 51.5463C41.8564 51.0781 41.0303 50.5165 40.0221 51.01C39.8545 51.0922 39.6924 51.1874 39.5283 51.2756L36.8903 52.6943L29.186 56.8376L26.6507 58.201C26.5217 58.2705 26.3876 58.3352 26.2618 58.41C25.7407 58.7194 25.4617 59.1921 25.4261 59.7652C25.3814 60.4822 25.4261 61.2163 25.4261 61.9348C25.4261 65.9241 25.4261 69.9131 25.4261 73.9024C25.4261 74.3294 25.4261 74.7559 25.4261 75.1829C25.4261 76.0442 26.8635 76.0457 26.8635 75.1829L26.8643 75.1825Z" fill="#7E7E7E"/>
<path d="M25.7872 74.6937C27.1499 74.1731 28.6691 74.3333 30.0654 74.8138C30.8044 75.0682 32.1995 75.6692 32.8606 76.0805C33.3773 76.4018 33.8588 76.7053 34.2385 77.1281C34.6797 77.619 35.1932 78.1743 35.6607 78.699C36.0069 79.0877 36.4237 79.4335 36.9108 79.7136C37.4091 79.9999 38.0272 80.3514 38.5714 80.6593C39.4118 81.1349 39.9532 81.8795 40.0031 82.6917C40.0163 82.9052 40.0043 83.1153 39.9844 83.3459C39.9576 83.656 39.774 83.9238 39.4509 84.1034C38.5374 84.6118 35.951 85.842 34.6102 86.2972C34.2138 86.4319 33.9454 86.4631 33.4935 86.4713C32.8762 86.4828 32.0493 86.5014 31.4229 86.1596C27.9329 84.2563 22.2773 81.2562 20.221 80.3249C19.7978 80.133 19.5371 79.7779 19.5431 79.3941C19.5491 79.0062 19.5846 78.548 19.7215 78.1747C19.8645 77.7853 20.1148 77.4394 20.4949 77.133C21.0547 76.6811 21.4544 76.5272 21.8117 76.3557C22.7951 75.8838 24.4125 75.2185 25.7868 74.6933L25.7872 74.6937Z" fill="white"/>
<path d="M31.1546 81.3861C31.9771 81.0134 32.7992 80.6408 33.6217 80.2682L33.9759 80.1079C34.3148 79.9543 34.433 79.4797 34.2338 79.1919C34.0098 78.8684 33.6129 78.7876 33.2504 78.9516C32.4279 79.3243 31.6058 79.6969 30.7833 80.0696L30.4292 80.2299C30.0902 80.3834 29.972 80.858 30.1712 81.1458C30.3952 81.4694 30.7921 81.5501 31.1546 81.3861Z" fill="#3DA89A"/>
<path d="M31.7583 86.8865C31.9987 86.7776 32.14 86.5317 32.14 86.1643C32.14 85.5094 31.589 84.7001 30.7917 84.3387C30.4008 84.1616 30.0682 84.1453 29.831 84.2528C29.5863 84.3636 29.4434 84.6072 29.4434 84.9423C29.4434 85.6704 29.976 86.4209 30.7917 86.7906C31.1834 86.968 31.5196 86.9947 31.7583 86.8865Z" fill="#211715"/>
<path d="M25.9782 75.3395C27.6392 74.7408 29.3169 75.1833 30.8673 75.852C31.5293 76.1376 32.1737 76.4478 32.7754 76.8334C33.5372 77.3217 34.0822 77.9889 34.6739 78.6416C35.2848 79.3154 35.8749 79.903 36.687 80.372C37.4009 80.7844 38.3228 81.1396 38.861 81.7584C39.1968 82.1444 39.608 83.1497 39.0886 83.526C38.6506 83.8433 38.0593 84.0601 37.5686 84.2951C36.9074 84.612 36.2398 84.9177 35.5635 85.2048C35.0137 85.4383 34.4116 85.7355 33.8031 85.7905C33.0313 85.8604 32.2475 85.8333 31.5696 85.4644C30.9407 85.1218 30.3103 84.7812 29.6794 84.442C27.0902 83.05 24.495 81.6614 21.8542 80.3553C21.5963 80.2277 21.338 80.1012 21.078 79.9774C20.8656 79.8762 20.5195 79.7803 20.3645 79.6107C20.1298 79.353 20.2819 78.7907 20.3685 78.4969C20.4915 78.0807 20.7806 77.7631 21.1403 77.4998C21.7228 77.0736 22.4567 76.7944 23.1227 76.5032C24.0634 76.0922 25.0176 75.7073 25.9782 75.3391C26.34 75.2004 26.5879 74.8958 26.4801 74.5157C26.3903 74.1985 25.9547 73.9107 25.5961 74.0483C24.6183 74.4231 23.6453 74.8103 22.6847 75.2227C21.9584 75.5344 21.1802 75.8364 20.5238 76.2674C19.7026 76.807 19.0893 77.5039 18.9136 78.4448C18.7363 79.3935 18.811 80.3385 19.7908 80.8685C20.9319 81.4858 22.1401 82.0139 23.2956 82.6101C24.8922 83.4338 26.4793 84.2732 28.062 85.1196C28.8031 85.516 29.5429 85.914 30.2811 86.3141C31.122 86.7701 31.8503 87.1089 32.8464 87.1412C33.7168 87.1695 34.497 87.0687 35.3019 86.7597C36.0653 86.4666 36.8132 86.1393 37.553 85.7983C38.231 85.4856 38.9065 85.1642 39.5645 84.8158C40.4689 84.3371 40.7859 83.6521 40.7216 82.6915C40.6653 81.8551 40.2425 81.0752 39.5685 80.52C38.7788 79.8696 37.7626 79.5099 36.9285 78.9168C35.9775 78.2403 35.3698 77.2165 34.5294 76.4351C33.8298 75.7847 32.9311 75.3019 32.0499 74.8984C30.0504 73.9832 27.7893 73.2573 25.5957 74.0479C24.7421 74.3555 25.113 75.6508 25.9778 75.3388L25.9782 75.3395Z" fill="#7E7E7E"/>
<path d="M32.1201 87.4644C32.9051 87.0844 32.9937 86.094 32.7042 85.4012C32.4168 84.7124 31.8777 84.0884 31.1535 83.7607C30.7199 83.5644 30.21 83.4331 29.7325 83.5729C29.2713 83.7079 28.9399 84.0341 28.7954 84.4614C28.672 84.8262 28.7139 85.2584 28.8305 85.6202C28.9547 86.0051 29.1675 86.3372 29.4394 86.6451C29.7141 86.9568 30.0846 87.2201 30.4767 87.3901C30.7578 87.5117 31.0217 87.5909 31.3315 87.6151C31.6118 87.637 31.8678 87.5712 32.1201 87.4644C32.2742 87.3994 32.4076 87.2101 32.4507 87.0643C32.4982 86.904 32.4766 86.6905 32.3784 86.5485C32.1496 86.2178 31.7627 86.1531 31.395 86.3082C31.5919 86.2249 31.5108 86.2658 31.4561 86.2792C31.3751 86.2993 31.3739 86.264 31.5252 86.2766C31.4701 86.2721 31.4078 86.2785 31.3519 86.2774C31.2569 86.2751 31.5412 86.3194 31.397 86.2814C31.3683 86.274 31.3383 86.2692 31.3096 86.2617C31.2792 86.2539 31.2489 86.2454 31.2193 86.2361C31.1882 86.226 31.1571 86.2156 31.1263 86.2041C31.2102 86.2379 31.2273 86.2439 31.1782 86.2227C31.0529 86.1602 30.9291 86.1011 30.8121 86.0248C30.7885 86.0096 30.7658 85.9917 30.7418 85.9772C30.888 86.0646 30.8209 86.036 30.7857 86.007C30.7271 85.9579 30.668 85.9107 30.6125 85.8586C30.5677 85.8166 30.5246 85.7731 30.4835 85.7281C30.4711 85.7143 30.3793 85.6143 30.4611 85.7046C30.5414 85.7935 30.4555 85.6946 30.4436 85.6786C30.4084 85.631 30.3757 85.5823 30.345 85.5324C30.3118 85.4785 30.2851 85.3945 30.2431 85.3472C30.2491 85.3539 30.309 85.506 30.2691 85.4038C30.2599 85.3803 30.2503 85.3573 30.2419 85.3338C30.2208 85.2758 30.202 85.2171 30.1868 85.1572C30.1785 85.1248 30.1457 84.9374 30.1649 85.0676C30.1832 85.1937 30.1677 85.072 30.1661 85.049C30.1637 85.0133 30.1621 84.9772 30.1621 84.9415C30.1621 84.9144 30.1649 84.8868 30.1649 84.8597C30.1649 84.7225 30.1333 84.9887 30.1585 84.9043C30.1669 84.8757 30.1753 84.8456 30.1825 84.8165C30.1972 84.7552 30.2403 84.773 30.1501 84.8805C30.1637 84.8645 30.1852 84.8284 30.1924 84.8084C30.2176 84.7377 30.0631 84.9318 30.1521 84.8552C30.1649 84.8441 30.1916 84.8236 30.2 84.8117C30.101 84.879 30.0746 84.8984 30.121 84.8694C30.1349 84.8604 30.1493 84.8522 30.1641 84.8448C30.2667 84.7801 30.0184 84.8794 30.0998 84.8682C30.1262 84.8649 30.1569 84.8537 30.1828 84.8467C30.2443 84.8307 30.2671 84.8671 30.099 84.8563C30.1234 84.8578 30.1501 84.8537 30.1749 84.8541C30.2044 84.8541 30.3226 84.8749 30.1996 84.8504C30.0659 84.8232 30.2104 84.8541 30.2308 84.8586C30.291 84.8712 30.414 84.8846 30.4571 84.9244L30.3809 84.8946C30.4036 84.9043 30.426 84.9144 30.4484 84.9248C30.4799 84.9393 30.511 84.9545 30.5418 84.9705C30.5969 84.9991 30.6508 85.0304 30.7035 85.0631C30.7271 85.078 30.763 85.1133 30.7897 85.1196C30.7794 85.1174 30.6528 85.0151 30.7438 85.0869C30.8025 85.1334 30.8604 85.1799 30.9151 85.2305C30.9598 85.2714 31.0029 85.3134 31.0441 85.3569C31.0624 85.3762 31.0796 85.3963 31.098 85.4157C31.1942 85.5164 31.0185 85.3119 31.0744 85.3855C31.1519 85.4882 31.2257 85.5912 31.288 85.7028C31.3032 85.7299 31.3168 85.7574 31.3315 85.7846C31.3978 85.904 31.2705 85.6321 31.32 85.7563C31.3415 85.811 31.3627 85.8657 31.3803 85.9214C31.3938 85.9653 31.4417 86.0747 31.4282 86.1182C31.427 86.1219 31.4094 85.9293 31.4158 86.0371C31.4178 86.0691 31.421 86.1003 31.4218 86.1323C31.4226 86.1572 31.4222 86.1821 31.4218 86.2071C31.421 86.235 31.419 86.2628 31.4166 86.2904C31.4338 86.1851 31.4377 86.1583 31.4282 86.21C31.4206 86.2402 31.4154 86.2707 31.4062 86.3004L31.3954 86.3342C31.3699 86.4004 31.3807 86.3785 31.4278 86.2688C31.417 86.2814 31.4014 86.3127 31.3954 86.3257C31.3659 86.367 31.3723 86.3618 31.4142 86.3093C31.4581 86.2588 31.4633 86.2521 31.4294 86.2889C31.4082 86.3067 31.3264 86.3714 31.4314 86.2967C31.542 86.2182 31.425 86.2941 31.397 86.3078C31.0628 86.4696 30.9363 86.9304 31.1391 87.2238C31.3587 87.541 31.7651 87.637 32.1225 87.4641L32.1201 87.4644Z" fill="#7E7E7E"/>
<path d="M22.9497 81.9939C23.1901 81.885 23.3314 81.6391 23.3314 81.2717C23.3314 80.6168 22.7804 79.8076 21.9831 79.4461C21.5922 79.2691 21.2596 79.2527 21.0225 79.3602C20.7777 79.471 20.6348 79.7146 20.6348 80.0497C20.6348 80.7778 21.1674 81.5283 21.9831 81.898C22.3748 82.0754 22.711 82.1022 22.9497 81.9939Z" fill="#7E7E7E"/>
<path d="M23.3115 82.5719C24.0965 82.1918 24.1851 81.2014 23.8956 80.5086C23.6082 79.8198 23.0691 79.1958 22.3449 78.8682C21.9113 78.6718 21.4014 78.5405 20.9239 78.6803C20.4627 78.8153 20.1313 79.1415 19.9868 79.5688C19.8634 79.9336 19.9054 80.3658 20.0219 80.7276C20.1461 81.1125 20.3589 81.4446 20.6308 81.7526C20.9055 82.0642 21.276 82.3275 21.6681 82.4975C21.9492 82.6191 22.2131 82.6983 22.5229 82.7225C22.8032 82.7444 23.0592 82.6786 23.3115 82.5719C23.4656 82.5068 23.599 82.3175 23.6421 82.1717C23.6896 82.0114 23.668 81.798 23.5698 81.6559C23.341 81.3253 22.9542 81.2606 22.5864 81.4156C22.7833 81.3323 22.7022 81.3732 22.6475 81.3866C22.5665 81.4067 22.5653 81.3714 22.7166 81.384C22.6615 81.3796 22.5992 81.3859 22.5433 81.3848C22.4483 81.3825 22.7326 81.4268 22.5884 81.3889C22.5597 81.3814 22.5297 81.3766 22.501 81.3691C22.4706 81.3613 22.4403 81.3528 22.4108 81.3435C22.3796 81.3334 22.3485 81.323 22.3177 81.3115C22.4016 81.3453 22.4187 81.3513 22.3696 81.3301C22.2443 81.2676 22.1205 81.2085 22.0035 81.1323C21.9799 81.117 21.9572 81.0992 21.9332 81.0847C22.0794 81.172 22.0123 81.1434 21.9772 81.1144C21.9185 81.0653 21.8594 81.0181 21.8039 80.966C21.7592 80.924 21.716 80.8805 21.6749 80.8355C21.6625 80.8217 21.5707 80.7217 21.6525 80.8121C21.7328 80.9009 21.647 80.802 21.635 80.786C21.5998 80.7384 21.5671 80.6897 21.5364 80.6399C21.5032 80.5859 21.4765 80.5019 21.4345 80.4547C21.4405 80.4614 21.5004 80.6135 21.4605 80.5112C21.4513 80.4878 21.4417 80.4647 21.4333 80.4413C21.4122 80.3833 21.3934 80.3245 21.3782 80.2646C21.3699 80.2323 21.3371 80.0448 21.3563 80.175C21.3747 80.3011 21.3591 80.1795 21.3575 80.1564C21.3551 80.1207 21.3535 80.0846 21.3535 80.0489C21.3535 80.0218 21.3563 79.9943 21.3563 79.9671C21.3563 79.8299 21.3247 80.0961 21.3499 80.0117C21.3583 79.9831 21.3667 79.953 21.3739 79.924C21.3886 79.8626 21.4318 79.8805 21.3415 79.9879C21.3551 79.9719 21.3767 79.9359 21.3838 79.9158C21.409 79.8451 21.2545 80.0393 21.3435 79.9626C21.3563 79.9515 21.383 79.931 21.3914 79.9191C21.2924 79.9864 21.2661 80.0058 21.3124 79.9768C21.3263 79.9678 21.3407 79.9597 21.3555 79.9522C21.4581 79.8875 21.2098 79.9868 21.2912 79.9757C21.3176 79.9723 21.3483 79.9612 21.3743 79.9541C21.4357 79.9381 21.4585 79.9745 21.2904 79.9638C21.3148 79.9652 21.3415 79.9612 21.3663 79.9615C21.3958 79.9615 21.514 79.9824 21.391 79.9578C21.2573 79.9307 21.4018 79.9615 21.4222 79.966C21.4825 79.9786 21.6054 79.992 21.6486 80.0318L21.5723 80.0021C21.5951 80.0117 21.6174 80.0218 21.6398 80.0322C21.6713 80.0467 21.7025 80.0619 21.7332 80.0779C21.7883 80.1066 21.8422 80.1378 21.8949 80.1705C21.9185 80.1854 21.9544 80.2207 21.9811 80.2271C21.9708 80.2248 21.8442 80.1226 21.9352 80.1943C21.9939 80.2408 22.0518 80.2873 22.1065 80.3379C22.1512 80.3788 22.1944 80.4208 22.2355 80.4643C22.2538 80.4837 22.271 80.5037 22.2894 80.5231C22.3856 80.6239 22.2099 80.4193 22.2658 80.493C22.3433 80.5956 22.4171 80.6986 22.4794 80.8102C22.4946 80.8373 22.5082 80.8649 22.5229 80.892C22.5892 81.0114 22.4619 80.7395 22.5114 80.8637C22.5329 80.9184 22.5541 80.9731 22.5717 81.0289C22.5852 81.0728 22.6331 81.1821 22.6196 81.2256C22.6184 81.2293 22.6008 81.0367 22.6072 81.1445C22.6092 81.1765 22.6124 81.2077 22.6132 81.2397C22.614 81.2646 22.6136 81.2896 22.6132 81.3145C22.6124 81.3424 22.6104 81.3703 22.608 81.3978C22.6252 81.2925 22.6292 81.2658 22.6196 81.3175C22.612 81.3476 22.6068 81.3781 22.5976 81.4078L22.5868 81.4417C22.5613 81.5079 22.5721 81.4859 22.6192 81.3762C22.6084 81.3889 22.5928 81.4201 22.5868 81.4331C22.5573 81.4744 22.5637 81.4692 22.6056 81.4168C22.6495 81.3662 22.6547 81.3595 22.6208 81.3963C22.5996 81.4142 22.5178 81.4789 22.6228 81.4041C22.7334 81.3256 22.6164 81.4015 22.5884 81.4153C22.2542 81.577 22.1277 82.0378 22.3305 82.3312C22.5501 82.6485 22.9566 82.7444 23.3139 82.5715L23.3115 82.5719Z" fill="#7E7E7E"/>
<path d="M106.67 4.05979C105.252 3.29703 104.145 2.70125 103.588 2.40187C103.354 2.27617 103.067 2.27692 102.833 2.40262C98.1918 4.89915 93.5519 7.39532 88.9109 9.88962C88.6785 10.0146 88.5352 10.2444 88.5352 10.4947C88.5352 13.2463 88.5352 28.9351 88.5352 28.9351C88.5352 29.1869 88.6781 29.4186 88.9121 29.5443C101.862 36.5084 117.594 44.9683 120.228 46.3845C120.459 46.5091 120.744 46.5087 120.976 46.3841C125.616 43.8894 130.254 41.3936 134.893 38.899C135.126 38.7733 135.271 38.5408 135.271 38.289V19.8456C135.271 19.5939 135.127 19.3622 134.893 19.2361C133.638 18.5611 129.442 16.3048 125.247 14.05V7.40945C125.247 7.1547 125.101 6.91855 124.864 6.79136C120.481 4.43577 116.39 2.23415 113.602 0.735413C113.369 0.610084 113.082 0.610455 112.849 0.735784C110.789 1.84366 108.729 2.95116 106.669 4.05867" fill="white"/>
<path d="M120.611 46.5912V27.3623L110.588 21.972C110.588 18.4465 110.588 14.9205 110.588 14.9205L98.5596 8.45215V15.5037L88.5352 10.113V28.9358C88.5352 29.1876 88.6781 29.4192 88.9121 29.5449C103.094 37.1714 120.611 46.5912 120.611 46.5912Z" fill="white"/>
<path d="M119.601 32.4758C109.11 26.8342 99.1661 21.4863 88.5352 15.7695C88.5352 17.9834 88.5352 20.5264 88.5352 22.7835C99.202 28.5196 109.955 34.3022 120.612 40.0331C120.611 38.5589 120.611 35.9936 120.611 33.0188L119.601 32.4758Z" fill="#3DA89A"/>
<path d="M119.893 27.3614V44.8784C119.893 45.7397 121.33 45.7412 121.33 44.8784V27.3614C121.33 26.5001 119.893 26.4986 119.893 27.3614Z" fill="#7E7E7E"/>
<path d="M99.2788 15.5033V8.45256L98.1976 9.03049C102.207 11.186 106.216 13.3434 110.226 15.4985L109.87 14.9206V21.9732C109.87 22.2079 110.007 22.4336 110.226 22.5511C113.567 24.3466 116.908 26.1429 120.249 27.9399C121.052 28.3717 121.776 27.2151 120.975 26.784C117.634 24.987 114.293 23.1908 110.951 21.3953L111.307 21.9732V14.9206C111.307 14.6855 111.171 14.4602 110.951 14.3426C106.942 12.1871 102.932 10.0301 98.923 7.87464C98.4515 7.621 97.8418 7.94306 97.8418 8.45256V15.5033C97.8418 16.3646 99.2792 16.3661 99.2792 15.5033H99.2788Z" fill="#7E7E7E"/>
<path d="M88.2904 10.7542C91.5955 12.5263 94.8955 14.307 98.1986 16.082C99.0011 16.5134 99.7258 15.3568 98.9241 14.9262C95.6209 13.1507 92.321 11.3705 89.0159 9.5984C88.2129 9.16774 87.4883 10.3243 88.2904 10.7542Z" fill="#7E7E7E"/>
<path d="M120.974 32.4403C112.781 28.0344 104.589 23.6286 96.3956 19.2231C94.0383 17.9553 91.6811 16.6879 89.3242 15.4201C88.5217 14.9883 87.797 16.1449 88.5987 16.576C96.8065 20.9896 105.014 25.4037 113.222 29.8173C115.564 31.0769 117.906 32.3365 120.248 33.5961C121.051 34.0279 121.775 32.8713 120.974 32.4403Z" fill="white"/>
<path d="M88.1729 23.3611C96.2513 27.7056 104.33 32.0497 112.408 36.3942C114.696 37.6244 116.984 38.855 119.272 40.0853C120.075 40.517 120.799 39.3604 119.998 38.9294C111.92 34.5853 103.842 30.2416 95.7642 25.8975C93.4756 24.6669 91.187 23.4359 88.8984 22.2053C88.0959 21.7735 87.3712 22.9301 88.1729 23.3611Z" fill="white"/>
<path d="M104.617 20.522C104.783 20.522 104.941 20.4629 105.062 20.355C105.189 20.2416 105.258 20.0887 105.258 19.9243V19.236L105.898 19.58C105.996 19.6324 106.107 19.6603 106.219 19.6603C106.573 19.6603 106.86 19.3922 106.86 19.0627V17.9979C106.86 17.7852 106.737 17.587 106.54 17.4806L105.258 16.7919V15.414C105.258 15.2013 105.135 15.0031 104.938 14.8967L103.948 14.3645C103.85 14.3117 103.74 14.2842 103.628 14.2842C103.274 14.2842 102.986 14.5523 102.986 14.8822V15.5698L102.347 15.2258C102.249 15.1734 102.138 15.1455 102.026 15.1455C101.672 15.1455 101.385 15.4136 101.385 15.7431V16.8075C101.385 17.0202 101.507 17.2184 101.705 17.3244L102.987 18.0139V19.3933C102.987 19.6056 103.11 19.8035 103.308 19.9098L104.297 20.442C104.395 20.4945 104.506 20.5224 104.618 20.5224L104.617 20.522Z" fill="#FFBAA7"/>
<path d="M111.219 15.3976C114.535 13.614 117.852 11.83 121.169 10.0468C121.97 9.61611 121.247 8.45878 120.444 8.89092C117.127 10.6742 113.81 12.4581 110.493 14.2418C109.692 14.6724 110.415 15.8297 111.219 15.3976Z" fill="#7E7E7E"/>
<path d="M98.9959 8.95916C101.675 7.51807 104.353 6.07734 107.032 4.63662C107.833 4.20596 107.11 3.04862 106.307 3.48077C103.628 4.92149 100.949 6.36221 98.2704 7.80331C97.4695 8.23396 98.1925 9.3913 98.9959 8.95916Z" fill="#7E7E7E"/>
<path d="M124.363 26.031C126.977 24.6253 129.591 23.2195 132.205 21.8134C133.006 21.3827 132.283 20.2254 131.48 20.6575C128.866 22.0633 126.252 23.4694 123.638 24.8752C122.837 25.3058 123.56 26.4632 124.363 26.031Z" fill="#7E7E7E"/>
<path d="M107.033 3.4821C106.247 3.05925 105.461 2.63604 104.674 2.21319C103.957 1.82754 103.281 1.46754 102.451 1.84353C101.483 2.28236 100.562 2.85173 99.6289 3.35342C98.6563 3.87668 97.6836 4.39956 96.7114 4.92282C94.8237 5.93809 92.9359 6.95337 91.0478 7.96865C90.5903 8.21484 90.1323 8.46066 89.6747 8.70686C89.214 8.95454 88.6538 9.17061 88.2781 9.52912C87.8629 9.92556 87.8169 10.4302 87.8169 10.9494C87.8169 14.8647 87.8169 18.7796 87.8169 22.695C87.8169 24.4235 87.8169 26.1521 87.8169 27.881C87.8169 28.2228 87.8026 28.5676 87.8169 28.9093C87.8405 29.4638 88.1192 29.8729 88.6211 30.1615C89.398 30.6082 90.2062 31.0139 90.9967 31.439C97.2768 34.8162 103.557 38.1933 109.837 41.5705C112.132 42.8048 114.427 44.0392 116.723 45.2735C117.466 45.6729 118.209 46.0727 118.952 46.4721C119.191 46.6008 119.429 46.7339 119.67 46.8581C120.595 47.3334 121.285 46.992 122.122 46.542C125.925 44.4973 129.727 42.4515 133.529 40.4065C134.589 39.8364 135.965 39.3998 135.989 38.0825C135.996 37.7199 135.989 37.3566 135.989 36.994C135.989 33.3788 135.989 29.7636 135.989 26.148V21.2933C135.989 20.8946 135.994 20.4956 135.989 20.0969C135.988 20.0024 135.989 19.9121 135.979 19.8172C135.899 19.0623 135.328 18.6975 134.684 18.3512C133.387 17.6535 132.09 16.9562 130.793 16.2586C129.891 15.7736 128.989 15.2887 128.087 14.8037C127.636 14.5616 127.186 14.3191 126.735 14.077C126.52 13.9614 126.284 13.787 126.05 13.7092C125.686 13.588 126.147 13.5478 125.966 13.9443C125.969 13.9387 125.965 13.9301 125.966 13.9242C126.016 13.7509 125.966 13.5013 125.966 13.3239V12.0833C125.966 11.0981 125.966 10.113 125.966 9.12747C125.966 8.59231 125.993 8.05046 125.966 7.51568C125.916 6.51751 125.103 6.1471 124.273 5.70083C123.331 5.19431 122.389 4.68779 121.447 4.18127C119.805 3.29801 118.162 2.41476 116.52 1.53151C115.813 1.15143 115.106 0.77098 114.399 0.390903C114.028 0.191567 113.668 0.00338952 113.226 4.24612e-05C112.689 -0.00404839 112.244 0.288261 111.799 0.527762C109.968 1.51217 108.138 2.49657 106.307 3.48098C105.506 3.91164 106.229 5.06898 107.032 4.63683C108.835 3.66767 110.637 2.69851 112.44 1.72898C112.626 1.62894 112.908 1.41139 113.116 1.36564C113.299 1.32511 113.403 1.40097 113.56 1.48577C113.876 1.65535 114.191 1.82493 114.506 1.99452C115.21 2.37348 115.915 2.75207 116.619 3.13103C118.259 4.01279 119.898 4.89456 121.538 5.77595C122.434 6.25793 123.351 6.71722 124.231 7.22411C124.527 7.39444 124.529 7.4744 124.529 7.75183V12.7985C124.529 13.2983 124.382 14.1005 124.766 14.5099C125.049 14.8112 125.557 14.9897 125.925 15.1871C126.404 15.4445 126.883 15.7022 127.362 15.9596C128.188 16.404 129.015 16.8484 129.841 17.2928C131.145 17.9938 132.449 18.6952 133.753 19.3962C134.001 19.5298 134.485 19.683 134.552 19.9578C134.568 20.024 134.552 20.111 134.552 20.1787V23.5057C134.552 27.2008 134.552 30.896 134.552 34.5912V37.9445C134.552 38.0159 134.568 38.1045 134.552 38.1747C134.512 38.3499 134.436 38.367 134.261 38.4652C133.81 38.7196 133.346 38.9572 132.889 39.203C131.06 40.1871 129.23 41.1715 127.4 42.1555C125.571 43.1395 123.741 44.124 121.911 45.108C121.682 45.2311 121.453 45.3538 121.224 45.4769C121.068 45.561 120.83 45.7477 120.656 45.767C120.501 45.7841 120.378 45.6911 120.246 45.6205C119.994 45.4851 119.743 45.3497 119.491 45.2147C117.753 44.2805 116.015 43.3459 114.278 42.4114C108.646 39.3827 103.013 36.3543 97.3814 33.3256C95.8107 32.481 94.24 31.6364 92.6692 30.7915C91.8955 30.3753 91.1213 29.9592 90.3475 29.5427C90.1802 29.4527 90.0129 29.3627 89.8452 29.2727C89.7218 29.2065 89.3369 29.0763 89.2743 28.9659C89.2575 28.9361 89.2647 28.9305 89.2531 28.9034C89.1505 28.6609 89.2531 28.1856 89.2531 27.9301C89.2531 27.2514 89.2531 26.5723 89.2531 25.8936C89.2531 21.8273 89.2531 17.7607 89.2531 13.6943C89.2531 12.9416 89.2531 12.1893 89.2531 11.4366C89.2531 11.1852 89.2292 10.9219 89.2531 10.6716C89.2807 10.3815 89.5406 10.3235 89.7981 10.1851C90.2844 9.9237 90.7707 9.66226 91.257 9.40081C94.9187 7.43237 98.58 5.46281 102.241 3.49326C102.536 3.33446 103.016 2.9369 103.358 3.05144C103.596 3.13066 103.837 3.3088 104.055 3.42632C104.805 3.82982 105.556 4.23333 106.306 4.63721C107.108 5.06898 107.833 3.91238 107.031 3.48136L107.033 3.4821Z" fill="#7E7E7E"/>
<path d="M102.236 37.834V44.0187C102.236 44.88 103.674 44.8815 103.674 44.0187V37.834C103.674 36.9727 102.236 36.9712 102.236 37.834Z" fill="#7E7E7E"/>
<path d="M92.3652 32.6163V38.8009C92.3652 39.6622 93.8026 39.6637 93.8026 38.8009V32.6163C93.8026 31.755 92.3652 31.7535 92.3652 32.6163Z" fill="#7E7E7E"/>
<path d="M103.855 24.9327V30.8614C103.855 31.7227 105.293 31.7242 105.293 30.8614V24.9327C105.293 24.0714 103.855 24.0699 103.855 24.9327Z" fill="white"/>
<path d="M95.8359 20.2588V27.0099C95.8359 27.8712 97.2733 27.8727 97.2733 27.0099V20.2588C97.2733 19.3975 95.8359 19.396 95.8359 20.2588Z" fill="white"/>
<path d="M111.873 29.0508V35.0737C111.873 35.935 113.31 35.9365 113.31 35.0737V29.0508C113.31 28.1895 111.873 28.188 111.873 29.0508Z" fill="white"/>
<path d="M109.507 32.2852L100.062 27.2058C99.8408 27.0868 99.5693 27.0861 99.3481 27.2051C97.652 28.1174 94.0965 30.0293 93.2621 30.4781C93.1515 30.5376 93.084 30.647 93.084 30.766V32.013C93.084 32.132 93.1523 32.242 93.2629 32.3015C97.4628 34.5601 101.622 36.7966 102.84 37.4519C103.061 37.5709 103.332 37.5702 103.554 37.4512C104.754 36.8056 108.619 34.7271 109.508 34.2492C109.618 34.1897 109.686 34.0803 109.686 33.9613V32.5738C109.686 32.4548 109.617 32.3447 109.507 32.2856L109.507 32.2852Z" fill="white"/>
<path d="M109.868 31.7095C108.093 30.7548 106.318 29.8001 104.543 28.8455L101.256 27.0779C101.001 26.9406 100.749 26.7945 100.488 26.6651C99.7702 26.3088 99.1969 26.5148 98.5397 26.8681C96.9115 27.7439 95.2832 28.6194 93.655 29.4952C93.035 29.8288 92.4037 30.0794 92.3642 30.8374C92.3382 31.3294 92.2328 32.1375 92.5455 32.5667C92.8984 33.0509 93.7465 33.3376 94.2743 33.6214C94.8892 33.952 95.504 34.2826 96.1189 34.6132C97.2424 35.2172 98.3656 35.8215 99.4891 36.4255C100.292 36.8572 101.094 37.2886 101.897 37.7204C102.132 37.8468 102.363 37.9896 102.614 38.0889C103.17 38.3095 103.659 38.1689 104.153 37.903C105.766 37.0357 107.378 36.1685 108.99 35.3016C109.663 34.9397 110.376 34.6809 110.402 33.8519C110.422 33.2331 110.577 32.2554 110.013 31.814C109.309 31.2632 108.287 32.2056 108.996 32.7608C108.823 32.6251 109 32.515 108.965 32.6407C108.957 32.6671 108.966 32.7214 108.965 32.7441C108.959 32.8735 108.965 33.0051 108.965 33.1346C108.965 33.3317 108.88 33.7184 108.965 33.8988V33.9338C108.961 34.0517 109.007 33.9721 109.102 33.6954C109.095 33.6928 109.005 33.7463 109.008 33.7456C108.918 33.7649 108.794 33.8609 108.715 33.9033C108.449 34.0464 108.182 34.1896 107.916 34.3328C106.569 35.0576 105.221 35.7821 103.873 36.5069C103.719 36.5898 103.367 36.8714 103.189 36.8751C103.095 36.8769 102.738 36.6267 102.621 36.5642C101.927 36.1908 101.233 35.8174 100.538 35.444C98.4634 34.328 96.3884 33.2123 94.313 32.0962C94.2212 32.0468 93.9896 31.8645 93.8822 31.8645L93.796 31.818C93.7992 32.0144 93.8008 32.0694 93.8004 31.9832C93.81 31.888 93.8004 31.7872 93.8004 31.6916C93.8004 31.4339 93.8419 31.1416 93.8004 30.8864C93.798 30.8708 93.8111 30.8035 93.8004 30.7879C93.8395 30.8452 93.544 31.0066 93.7113 31.0099C93.7828 31.0114 93.9453 30.8842 94.0024 30.8533C94.2775 30.7053 94.5526 30.5573 94.8281 30.4093C96.307 29.6142 97.7855 28.8187 99.2643 28.0236C99.5814 27.8533 99.6061 27.7365 99.8916 27.8901L100.746 28.3498L103.731 29.9545C105.534 30.9244 107.338 31.8947 109.142 32.8646C109.944 33.2963 110.669 32.1397 109.867 31.7087L109.868 31.7095Z" fill="#7E7E7E"/>
<path d="M154.02 59.401C154.886 59.8648 155.734 60.3177 156.553 60.7521C156.689 60.8246 156.855 60.8235 156.991 60.751C157.519 60.4691 158.152 60.1321 158.665 59.8577C158.733 59.8209 158.774 59.7543 158.774 59.6803C158.774 58.9023 158.773 56.1622 158.772 54.1543C157.294 55.7895 155.662 57.5906 154.02 59.401Z" fill="#7E7E7E"/>
<path d="M139.424 41.7225C139.341 41.6775 139.258 41.6325 139.175 41.5879C136.076 45.0157 132.149 49.3427 128.768 53.0627C134.993 56.4291 143.22 60.896 149.587 64.2817C152.979 60.5486 156.963 56.1584 160 52.7942C153.786 49.4922 145.466 44.9881 139.424 41.7225H139.424Z" fill="#3DA89A"/>
<path d="M136.297 49.1869C141.464 51.9791 146.629 54.7731 151.808 57.5449C152.612 57.9748 153.337 56.8186 152.534 56.389C147.355 53.6173 142.189 50.8232 137.023 48.0311C136.221 47.5978 135.497 48.7544 136.297 49.1869Z" fill="white"/>
<path d="M146.827 59.1282C148.743 57.011 150.671 54.9034 152.586 52.7855C152.836 52.5092 152.877 52.1098 152.586 51.8387C152.329 51.5995 151.821 51.5608 151.569 51.8387C149.654 53.9562 147.727 56.0641 145.81 58.1813C145.56 58.4576 145.52 58.8571 145.81 59.1282C146.067 59.3673 146.575 59.406 146.827 59.1282Z" fill="white"/>
<path d="M141.894 56.4701C143.826 54.3633 145.733 52.2365 147.657 50.1234C147.908 49.8478 147.947 49.4469 147.657 49.1765C147.4 48.9366 146.893 48.8995 146.641 49.1765C144.716 51.2893 142.809 53.4165 140.877 55.5233C140.625 55.7981 140.588 56.2001 140.877 56.4701C141.135 56.7108 141.64 56.7461 141.894 56.4701Z" fill="white"/>
<path d="M136.833 53.7433C138.756 51.6279 140.674 49.5085 142.596 47.3928C142.847 47.1168 142.887 46.7167 142.596 46.4459C142.339 46.2064 141.832 46.1689 141.58 46.4459C139.657 48.5616 137.74 50.6811 135.816 52.7964C135.566 53.072 135.526 53.4725 135.816 53.7433C136.074 53.9828 136.581 54.0203 136.833 53.7433Z" fill="white"/>
<path d="M76.323 86.3096C76.3214 86.8879 76.323 87.4658 76.323 88.0441C76.323 88.3945 76.6536 88.7299 77.0417 88.7135C77.4297 88.6972 77.7603 88.4194 77.7603 88.0441C77.7603 87.4658 77.7587 86.8879 77.7603 86.3096C77.7611 85.9593 77.4293 85.6242 77.0417 85.6402C76.6516 85.6566 76.3238 85.9344 76.323 86.3096Z" fill="#211715"/>
<path d="M77.0264 91.6182C75.0628 90.5472 72.8684 89.35 70.674 88.1537C70.674 87.8814 70.6736 82.9594 70.674 82.7801C71.976 82.0702 73.3794 81.3045 74.8176 80.5198C76.1903 79.7708 77.892 79.7708 79.2646 80.5198C80.7032 81.3045 82.107 82.0702 83.409 82.7801C83.4086 82.965 83.409 87.8785 83.409 88.1533C81.2426 89.3348 79.0766 90.5163 77.1322 91.577C77.1018 91.5937 77.0715 91.6101 77.0411 91.6268L77.026 91.6186L77.0264 91.6182Z" fill="white"/>
<path d="M79.1918 81.2572L83.0459 83.3595L82.6897 82.7816C82.687 84.5726 82.6897 86.3636 82.6897 88.1547L83.0459 87.5768C80.9234 88.7345 78.8005 89.8922 76.678 91.0499H77.4034C75.2809 89.8922 73.1584 88.7345 71.0359 87.5768L71.3921 88.1547C71.3921 86.3636 71.3873 84.5722 71.3921 82.7812L71.0359 83.3591C72.3308 82.6529 73.6256 81.9466 74.9204 81.24C75.7181 80.8049 74.9955 79.6472 74.1949 80.0842C73.3704 80.5338 72.5464 80.9834 71.7219 81.4331C71.3541 81.6339 70.986 81.8343 70.6183 82.0352C70.2697 82.2252 69.9815 82.3892 69.9547 82.7964C69.916 83.3859 69.9547 83.9891 69.9547 84.5793C69.9547 85.4614 69.9547 86.3432 69.9547 87.2253C69.9547 87.5002 69.9451 87.7765 69.9547 88.0513C69.9783 88.7241 70.6906 88.9398 71.2408 89.2399C73.0534 90.2284 74.8657 91.2169 76.678 92.2058C76.8996 92.3266 77.1819 92.3266 77.4034 92.2058C78.9857 91.3426 80.5676 90.4798 82.1499 89.6166C82.548 89.3994 82.9457 89.1826 83.3437 88.9654C83.7282 88.7557 84.0956 88.6043 84.1271 88.1417C84.1415 87.9319 84.1271 87.7173 84.1271 87.5076C84.1271 85.9687 84.1782 84.422 84.1271 82.8838C84.1036 82.1761 83.2635 81.9262 82.6873 81.6119C81.7638 81.108 80.8403 80.6045 79.9168 80.1006C79.1171 79.6643 78.3928 80.8209 79.1914 81.2564L79.1918 81.2572Z" fill="#7E7E7E"/>
<path d="M73.2061 84.9393C74.3636 85.5704 75.5207 86.2018 76.6782 86.833C76.8998 86.9538 77.182 86.9538 77.4036 86.833C78.5611 86.2018 79.7182 85.5704 80.8757 84.9393C81.6734 84.5041 80.9507 83.3464 80.1502 83.7834C78.9927 84.4145 77.8356 85.046 76.6782 85.6771H77.4036C76.2462 85.046 75.0891 84.4145 73.9316 83.7834C73.1319 83.3472 72.4076 84.5038 73.2061 84.9393Z" fill="#7E7E7E"/>
<path d="M68.4062 77.5713V77.398C68.4062 77.0239 68.6953 76.6524 69.2655 76.3455C70.4549 75.7059 72.0508 75.7289 73.2218 76.3586C73.7612 76.6486 74.0479 77.0276 74.0479 77.4121V77.5892C74.0479 77.9607 73.7788 78.3374 73.2094 78.6439C72.0472 79.269 70.3431 79.217 69.2898 78.6502C68.6981 78.3318 68.4062 77.9521 68.4062 77.5713Z" fill="#7E7E7E"/>
<path d="M85.601 77.575V77.3988C85.601 77.0317 85.3148 76.6643 84.7298 76.3496C83.5871 75.7353 81.9585 75.7304 80.7823 76.3627C80.2468 76.6505 79.959 77.0287 79.959 77.4133V77.5899C79.959 77.9603 80.2253 78.3363 80.7942 78.6424C81.9501 79.2638 83.647 79.2181 84.7051 78.6491C85.2976 78.3304 85.601 77.9529 85.601 77.575Z" fill="#7E7E7E"/>
<path d="M85.5772 70.5778V70.4045C85.5772 70.0199 85.2901 69.641 84.7511 69.3509C83.5801 68.7209 81.9842 68.6982 80.7948 69.3379C80.2246 69.6447 79.9355 70.0162 79.9355 70.3903V70.5674C79.9355 70.9445 80.2274 71.3242 80.8191 71.6425C81.8728 72.2089 83.5765 72.261 84.7387 71.6362C85.3081 71.3301 85.5772 70.953 85.5772 70.5778Z" fill="#7E7E7E"/>
<path d="M68.4316 70.581V70.4048C68.4316 70.0202 68.7195 69.642 69.2549 69.3541C70.4312 68.7216 72.0598 68.7264 73.2025 69.3411C73.7874 69.6558 74.0737 70.0232 74.0737 70.3902V70.5669C74.0737 70.9447 73.7706 71.3218 73.1781 71.6406C72.1197 72.2096 70.4228 72.2557 69.2673 71.6339C68.6984 71.3278 68.432 70.9518 68.432 70.581H68.4316Z" fill="#7E7E7E"/>
<path d="M73.5186 71.7915C73.3302 71.6409 72.8574 71.4003 72.8151 71.1682V71.5241C72.7261 71.5914 72.7516 71.5911 72.8918 71.5234C72.9644 71.5107 73.0379 71.5066 73.1122 71.5111C73.3134 71.5185 73.5142 71.5821 73.7031 71.642C74.0381 71.7484 74.3615 71.8875 74.6921 72.005C75.404 72.2582 76.1302 72.4304 76.8976 72.4364C77.703 72.4423 78.5139 72.2895 79.2701 72.0388C79.6338 71.9183 79.984 71.764 80.3493 71.648C80.5385 71.5881 80.7402 71.5234 80.9418 71.5178C81.0189 71.5137 81.0951 71.5189 81.1702 71.5345C81.3095 71.5951 81.3375 71.6011 81.254 71.5524V71.1965C81.2101 71.4401 80.6036 71.7588 80.4108 71.9299C80.0814 72.2225 79.7919 72.5606 79.6374 72.9633C79.2912 73.8652 79.831 74.5908 80.5389 75.1609C80.6927 75.2847 80.8536 75.4 81.0073 75.5231C81.0245 75.5369 81.1782 75.6931 81.2189 75.7035C81.3179 75.7291 81.2676 75.8236 81.2421 75.6451C81.2688 75.8307 81.2421 76.0352 81.2421 76.2223C81.2421 76.4361 81.2125 76.6734 81.2421 76.8857C81.2421 76.8835 81.2365 76.9586 81.2421 76.9664V76.988C81.3762 76.7968 81.3806 76.7325 81.2548 76.7954C81.2265 76.7872 81.0823 76.8273 81.0396 76.8296C80.8931 76.8374 80.7522 76.8021 80.6124 76.7664C79.8003 76.5599 79.0669 76.1531 78.232 76.0066C77.2598 75.8355 76.2536 75.9009 75.3038 76.1542C74.8925 76.2639 74.496 76.4116 74.1004 76.5614C73.8792 76.6451 73.6548 76.7303 73.4212 76.7809C73.3565 76.795 72.772 76.7734 72.7848 76.7611C72.8047 76.7418 72.8179 77.097 72.8542 76.8575C72.8694 76.7574 72.8542 76.6444 72.8542 76.544V75.7968C72.8542 75.7035 72.8994 75.5644 72.8395 75.676C72.7397 75.8619 72.9868 75.5863 72.9764 75.5956C73.0647 75.5164 73.1645 75.448 73.2591 75.3755C73.6468 75.0794 74.0401 74.7533 74.2848 74.3386C74.8785 73.3334 74.3615 72.4713 73.5178 71.7911C72.8215 71.2299 71.8002 72.1731 72.5013 72.738C72.6885 72.889 73.0663 73.1225 73.1154 73.3735C73.1661 73.6331 72.8886 73.883 72.7101 74.0463C72.2034 74.5089 71.4672 74.863 71.4165 75.5986C71.3726 76.2323 71.25 77.2673 71.7914 77.737C73.0128 78.7969 74.7536 77.6303 76.0484 77.3595C76.7758 77.2074 77.5297 77.1996 78.2503 77.3856C78.9287 77.5607 79.5524 77.8858 80.2299 78.0579C80.9482 78.2405 81.8689 78.2301 82.3999 77.663C82.7186 77.3231 82.6786 76.9051 82.6786 76.4878C82.6786 76.1516 82.7261 75.7812 82.6531 75.4491C82.5085 74.7946 81.8058 74.4446 81.3195 74.021C81.1351 73.8604 80.919 73.6915 80.9793 73.4386C81.0488 73.1478 81.379 72.9105 81.6062 72.7257C82.1296 72.2995 82.8447 71.8406 82.6199 71.0886C82.4023 70.3612 81.4217 70.121 80.7142 70.199C79.9472 70.2835 79.2685 70.6476 78.5378 70.8566C77.7529 71.0812 76.9052 71.1823 76.0951 71.0176C75.3409 70.864 74.6661 70.5077 73.9315 70.3043C73.1397 70.0849 72.0062 70.0986 71.5439 70.8618C71.0536 71.671 71.9232 72.2757 72.5017 72.738C73.2004 73.2966 74.2213 72.3534 73.5182 71.7911L73.5186 71.7915Z" fill="#7E7E7E"/>
<path d="M76.8782 73.546L76.879 73.5375L76.8534 73.7156C76.8546 73.7097 76.8562 73.7037 76.859 73.6985L76.7867 73.8584C76.7899 73.8525 76.7935 73.8465 76.7979 73.8413L76.6857 73.9767C76.6945 73.9674 76.7029 73.9596 76.7133 73.9514L76.5679 74.0559C76.5967 74.0362 76.6278 74.0213 76.6606 74.0083L76.4889 74.0756C76.5823 74.041 76.6797 74.0202 76.7792 74.0068L76.5879 74.0306C76.742 74.0116 76.8973 74.0116 77.0515 74.0295L76.8602 74.0057C76.966 74.0195 77.071 74.0403 77.17 74.0778L76.9983 74.0105C77.0267 74.0224 77.0531 74.0354 77.0782 74.0526L76.9329 73.9481C76.9441 73.9566 76.9536 73.9648 76.9628 73.9752L76.8506 73.8398C76.8554 73.8454 76.8598 73.8517 76.863 73.8584L76.7907 73.6985C76.7939 73.7045 76.7959 73.7108 76.7971 73.7175L76.7716 73.5393C76.7728 73.5453 76.7728 73.5512 76.7716 73.5576L76.7971 73.3794C76.7963 73.3854 76.7943 73.391 76.7919 73.3965L76.8642 73.2366C76.8614 73.2426 76.8578 73.2485 76.8534 73.2537L76.9656 73.1184C76.9572 73.1276 76.9492 73.1355 76.9393 73.1436L77.0846 73.0391C77.0566 73.0592 77.0263 73.0737 76.9944 73.0871L77.166 73.0198C77.0778 73.0529 76.9856 73.0722 76.8917 73.0853L77.083 73.0615C76.9173 73.0819 76.7496 73.0823 76.5839 73.0626L76.7752 73.0864C76.6781 73.0737 76.5835 73.054 76.4921 73.0202L76.6638 73.0875C76.6302 73.0737 76.5983 73.0588 76.5687 73.0384L76.7141 73.1429C76.7037 73.1347 76.6949 73.1269 76.6861 73.1172L76.7983 73.2526C76.7939 73.2474 76.7899 73.2414 76.7867 73.2351L76.859 73.395C76.8562 73.3895 76.8542 73.3835 76.8534 73.3776L76.879 73.5557L76.8782 73.5468C76.8634 73.3671 76.8079 73.2039 76.6678 73.0734C76.5432 72.9573 76.3388 72.8699 76.1595 72.8774C75.9734 72.8852 75.781 72.9421 75.6512 73.0734C75.5278 73.1987 75.4264 73.3709 75.4408 73.5468C75.4568 73.7443 75.5203 73.9306 75.6772 74.0723C75.7522 74.1403 75.8413 74.2032 75.9379 74.243C76.0401 74.2854 76.1431 74.3285 76.2525 74.3527C76.3639 74.3776 76.4813 74.3887 76.5939 74.4018C76.7149 74.4155 76.8371 74.4192 76.9584 74.4114C77.1333 74.4006 77.3158 74.3828 77.4839 74.3322C77.7881 74.2411 78.0935 74.0619 78.1774 73.7524C78.2153 73.6133 78.2145 73.4813 78.1762 73.3426C78.1219 73.1462 77.9638 72.9882 77.7829 72.8837C77.6376 72.7996 77.4551 72.7457 77.2846 72.7208C77.097 72.6933 76.9089 72.6698 76.7189 72.6803C76.5212 72.691 76.3136 72.7137 76.1263 72.7773C75.9626 72.8331 75.8173 72.8934 75.6911 73.009C75.6376 73.0577 75.5869 73.1195 75.5478 73.1782C75.468 73.2976 75.452 73.4095 75.4408 73.5468C75.4272 73.71 75.5306 73.9071 75.6512 74.0198C75.7758 74.1359 75.9802 74.2233 76.1595 74.2158C76.3456 74.208 76.538 74.1511 76.6678 74.0198L76.7799 73.8845C76.845 73.78 76.8778 73.6673 76.8782 73.5468V73.546Z" fill="#7E7E7E"/>
<path d="M76.248 77.2104V81.7483C76.248 82.1102 76.5782 82.4177 76.9667 82.4177C77.3552 82.4177 77.6854 82.1113 77.6854 81.7483V77.2104C77.6854 76.8486 77.3552 76.541 76.9667 76.541C76.5782 76.541 76.248 76.8475 76.248 77.2104Z" fill="#7E7E7E"/>
<path d="M84.6225 50.1227L71.7872 57.0258L70.0332 57.9682C69.0051 58.5204 67.7426 58.5286 66.7077 57.9879C64.9238 57.0559 62.5218 55.7632 61.2386 55.0209C60.7235 54.723 60.3929 54.2128 60.3606 53.6486C60.2711 52.0796 60.3398 49.094 60.4772 47.8054C60.7207 45.5223 61.6837 43.925 63.4649 42.967C64.7916 42.2533 72.3929 38.1659 76.4451 35.9865C77.7738 35.2718 79.3861 35.313 80.7392 35.9865C82.3131 36.7705 84.8548 38.1067 86.7705 39.2362C87.4908 39.6609 87.9999 40.2473 88.1101 41.0421C88.2546 42.2429 88.3592 46.0448 88.2418 47.5447C88.2095 47.9575 87.9579 48.3275 87.573 48.5343L84.6221 50.1215L84.6225 50.1227Z" fill="white"/>
<path d="M84.2598 49.5441C81.1335 51.2255 78.0073 52.9068 74.881 54.5885C73.7307 55.2073 72.5804 55.8262 71.4297 56.4446C70.7147 56.8292 69.9996 57.2133 69.2841 57.5975C68.6409 57.9434 68.0795 57.9341 67.4267 57.5953C66.6481 57.191 65.8727 56.7808 65.0994 56.3673C64.292 55.9355 63.4871 55.5 62.6874 55.0563C62.0677 54.7127 61.1774 54.4014 61.0787 53.6491C60.9869 52.9484 61.0348 52.2054 61.0396 51.501C61.0452 50.691 61.0648 49.8811 61.1051 49.0722C61.177 47.6277 61.3339 46.1569 62.2175 44.9214C62.8483 44.0393 63.8049 43.5573 64.7608 43.0434C67.3337 41.6599 69.9065 40.2761 72.4794 38.8927C73.8282 38.1675 75.1769 37.4419 76.5256 36.7167C77.3621 36.2671 78.2369 36.0194 79.2095 36.1893C80.119 36.3481 80.9147 36.8327 81.7129 37.2452C82.5789 37.6929 83.4393 38.1504 84.293 38.6182C84.7282 38.857 85.1618 39.0983 85.5926 39.3438C86.0146 39.5844 86.4809 39.8053 86.8375 40.1285C87.333 40.5777 87.408 41.1088 87.4504 41.7157C87.4979 42.3926 87.5238 43.0705 87.5434 43.7485C87.5649 44.5016 87.5769 45.2554 87.5721 46.0089C87.5701 46.309 87.5657 46.6087 87.5558 46.9089C87.5474 47.1599 87.5865 47.495 87.4552 47.7226C87.2998 47.9926 86.8495 48.1514 86.5792 48.2968L85.0747 49.106L84.2586 49.5449C83.4577 49.9755 84.1808 51.1329 84.9841 50.7007L87.4739 49.3615C87.9474 49.1068 88.4162 48.8632 88.6961 48.3983C89.0666 47.7824 88.9975 46.9747 89.0067 46.2889C89.0267 44.7809 88.9939 43.2665 88.8909 41.7611C88.8418 41.0426 88.7739 40.3337 88.3288 39.7164C87.755 38.9209 86.8219 38.4698 85.9635 37.9867C85.0264 37.4594 84.0789 36.948 83.1255 36.4471C82.2619 35.9937 81.3939 35.4801 80.4696 35.1406C79.479 34.7769 78.3702 34.6973 77.3345 34.9357C76.4493 35.1395 75.6764 35.6267 74.8958 36.0465C71.9161 37.649 68.9367 39.2512 65.957 40.8537C65.0383 41.3475 64.1184 41.8392 63.2012 42.3357C61.7252 43.1345 60.6895 44.3417 60.1644 45.8557C59.631 47.3934 59.645 49.09 59.613 50.6903C59.5959 51.5393 59.5915 52.3899 59.6222 53.2385C59.6558 54.1586 59.9101 54.9615 60.7501 55.5208C61.4644 55.9965 62.2662 56.3836 63.0236 56.7961C63.874 57.2587 64.728 57.7158 65.5849 58.168C66.4529 58.6258 67.342 59.2279 68.3801 59.219C69.0497 59.2134 69.6135 58.9672 70.1757 58.6648C71.3331 58.0427 72.491 57.4205 73.6485 56.7983L84.721 50.8431L84.9845 50.7015C85.7854 50.2708 85.0623 49.1135 84.259 49.5456L84.2598 49.5441Z" fill="#7E7E7E"/>
<path d="M71.4812 49.4467C71.1556 49.6193 70.9257 50.0112 70.8535 50.3857C70.7414 50.9684 70.7294 51.9746 70.739 52.7004C70.74 52.7846 70.7728 52.8193 70.8305 52.8413C70.8942 52.8659 71.0257 52.8506 71.0257 52.8506L71.0807 52.8441C71.0925 52.8378 71.1042 52.8318 71.1042 52.8318L83.1796 46.45L83.5422 46.2583C83.5293 45.2243 83.4798 44.1082 83.4205 43.6228C83.3989 43.4683 83.3543 43.3253 83.2901 43.1934L83.2182 43.2315L71.4861 49.4465" fill="#3DA89A"/>
<path d="M63.7985 46.8056C64.8765 47.3854 65.9541 47.9648 67.0321 48.5446L67.4949 48.7934C67.8207 48.9686 68.2962 48.8741 68.4783 48.5531C68.6604 48.2322 68.5681 47.8242 68.2204 47.6372C67.1423 47.0574 66.0647 46.478 64.9867 45.8982L64.5239 45.6494C64.1981 45.4742 63.7226 45.5687 63.5406 45.8896C63.3585 46.2106 63.4507 46.6185 63.7985 46.8056Z" fill="#7E7E7E"/>
<path d="M70.6797 58.8005C70.3898 58.6446 70.2109 58.3103 70.2109 57.8347C70.2109 56.883 70.9284 55.7256 71.8132 55.2496C72.256 55.0116 72.6565 54.9893 72.9467 55.1455C73.237 55.3017 73.4155 55.6356 73.4155 56.1113C73.4155 57.063 72.698 58.2203 71.8132 58.6963C71.3704 58.9344 70.9699 58.9567 70.6797 58.8005Z" fill="#7E7E7E"/>
<path d="M84.7363 51.5036C84.4464 51.3478 84.2676 51.0134 84.2676 50.5378C84.2676 49.5861 84.9851 48.4288 85.8698 47.9527C86.3126 47.7147 86.7131 47.6924 87.0034 47.8486C87.2936 48.0048 87.4721 48.3388 87.4721 48.8144C87.4721 49.7661 86.7546 50.9234 85.8698 51.3995C85.4271 51.6375 85.0266 51.6598 84.7363 51.5036Z" fill="#7E7E7E"/>
<path d="M71.0401 58.2223C70.9322 58.1606 71.0792 58.248 71.078 58.2569C71.0784 58.2539 71.0069 58.1896 70.9977 58.1848C70.9287 58.1468 71.0568 58.2908 71.0257 58.2182C71.0153 58.1937 70.9949 58.161 70.977 58.1409C70.9215 58.0791 71.0185 58.2896 70.9798 58.1479C70.971 58.1152 70.9582 58.0836 70.9494 58.0505C70.9402 58.0159 70.9338 57.981 70.9263 57.9464C70.953 58.0669 70.9303 57.9575 70.9283 57.8958C70.9259 57.8266 70.9279 57.7571 70.9326 57.6879C70.9338 57.6723 70.9474 57.5942 70.9422 57.5886C70.9658 57.6154 70.9191 57.7147 70.9394 57.6161C70.9722 57.4614 71.0117 57.3093 71.0668 57.1598C71.0792 57.126 71.094 57.0925 71.1059 57.0587C71.1658 56.8947 71.0616 57.1401 71.1111 57.043C71.1447 56.9772 71.177 56.9106 71.2129 56.8459C71.2996 56.6909 71.4014 56.5477 71.5048 56.4019C71.5216 56.3785 71.5878 56.3015 71.4976 56.4071C71.5216 56.3788 71.5459 56.3509 71.5707 56.3234C71.6198 56.2691 71.6709 56.216 71.724 56.1646C71.7759 56.1144 71.8298 56.0657 71.8853 56.0188C71.9196 55.9902 71.9556 55.9638 71.9899 55.9352C72.0554 55.8809 71.8837 56.0021 71.9951 55.9329C72.0642 55.8902 72.1328 55.8474 72.2055 55.8098C72.2195 55.8028 72.356 55.7381 72.2826 55.7697C72.2131 55.7994 72.3385 55.7515 72.3552 55.7466C72.4055 55.7317 72.4563 55.7213 72.5078 55.7098C72.477 55.7165 72.3636 55.7117 72.491 55.715C72.5042 55.715 72.6016 55.7161 72.6012 55.7172L72.5153 55.7072C72.5489 55.7135 72.582 55.7217 72.6148 55.7321C72.6227 55.7518 72.4674 55.6243 72.5808 55.7228C72.6639 55.7946 72.5461 55.6589 72.5429 55.6882C72.5429 55.6893 72.5996 55.7381 72.608 55.7448C72.7118 55.8284 72.5677 55.7139 72.5824 55.7087C72.5876 55.7068 72.6255 55.7749 72.6327 55.7842C72.7214 55.901 72.6068 55.6871 72.6327 55.7745C72.6551 55.8496 72.6794 55.9218 72.695 55.9991C72.6619 55.8366 72.6942 56.0958 72.6938 56.1352C72.693 56.1951 72.7042 56.3019 72.679 56.3569C72.685 56.3435 72.7094 56.2007 72.6818 56.3294C72.6747 56.3632 72.6687 56.3967 72.6611 56.4305C72.6415 56.5161 72.6176 56.6009 72.59 56.6845C72.5676 56.753 72.5413 56.8199 72.5153 56.8872C72.4702 57.004 72.5114 56.9002 72.5217 56.8779C72.5058 56.911 72.4902 56.9445 72.4734 56.9772C72.398 57.126 72.3117 57.2703 72.2155 57.4082C72.1887 57.4466 72.1612 57.4841 72.1332 57.5217C72.0933 57.5745 72.0618 57.6109 72.1237 57.5388C72.0638 57.6087 72.0019 57.6771 71.9364 57.7426C71.8725 57.8065 71.8055 57.8683 71.736 57.9267C71.7084 57.9497 71.6801 57.9713 71.6525 57.994C71.5172 58.1044 71.7739 57.9218 71.6262 58.0122C71.5459 58.0613 71.4653 58.107 71.3826 58.152C71.3671 58.1606 71.2545 58.2097 71.3603 58.1677C71.3 58.1915 71.2353 58.2026 71.1738 58.2227C71.1323 58.2365 71.0432 58.229 71.1874 58.2264C71.1415 58.2272 71.0932 58.2257 71.0472 58.2286C70.9442 58.2357 71.2125 58.2681 71.0556 58.2264C70.9155 58.1896 71.1778 58.2904 71.0405 58.222C70.7091 58.0572 70.2431 58.1342 70.0571 58.4622C69.881 58.7727 69.9608 59.2019 70.315 59.3782C71.3463 59.8914 72.4886 59.2469 73.1402 58.4849C73.7295 57.7958 74.1911 56.8928 74.1284 55.9898C74.0956 55.5168 73.9335 55.0266 73.5263 54.7161C73.0496 54.3528 72.4179 54.2899 71.8486 54.4985C70.9231 54.8377 70.2236 55.6042 69.8367 56.4417C69.4015 57.3833 69.2246 58.7519 70.3154 59.3782C70.636 59.5623 71.1203 59.4526 71.2988 59.1379C71.4844 58.8107 71.3826 58.4183 71.0405 58.222L71.0401 58.2223Z" fill="#7E7E7E"/>
<path d="M85.0986 50.9254C84.9908 50.8637 85.1378 50.9511 85.1366 50.96C85.137 50.9571 85.0655 50.8927 85.0563 50.8879C84.9873 50.85 85.1154 50.9939 85.0843 50.9214C85.0739 50.8968 85.0535 50.8641 85.0356 50.844C84.9801 50.7823 85.0771 50.9928 85.0384 50.8511C85.0296 50.8183 85.0168 50.7867 85.008 50.7536C84.9988 50.719 84.9924 50.6841 84.9849 50.6495C85.0116 50.77 84.9888 50.6607 84.9869 50.5989C84.9845 50.5298 84.9865 50.4602 84.9912 50.391C84.9924 50.3754 85.006 50.2973 85.0008 50.2917C85.0244 50.3185 84.9777 50.4178 84.998 50.3193C85.0308 50.1645 85.0703 50.0124 85.1254 49.8629C85.1378 49.8291 85.1526 49.7956 85.1645 49.7618C85.2244 49.5978 85.1202 49.8432 85.1697 49.7462C85.2033 49.6803 85.2356 49.6138 85.2715 49.5491C85.3582 49.394 85.46 49.2508 85.5634 49.105C85.5802 49.0816 85.6464 49.0046 85.5562 49.1102C85.5802 49.082 85.6045 49.0541 85.6293 49.0266C85.6784 48.9723 85.7295 48.9191 85.7826 48.8678C85.8345 48.8175 85.8884 48.7688 85.9439 48.722C85.9782 48.6933 86.0142 48.6669 86.0485 48.6383C86.114 48.584 85.9423 48.7052 86.0537 48.6361C86.1228 48.5933 86.1914 48.5505 86.2641 48.513C86.2781 48.5059 86.4146 48.4412 86.3412 48.4728C86.2717 48.5026 86.3971 48.4546 86.4138 48.4497C86.4641 48.4349 86.5149 48.4245 86.5664 48.4129C86.5356 48.4196 86.4222 48.4148 86.5496 48.4181C86.5628 48.4181 86.6602 48.4192 86.6598 48.4204L86.5739 48.4103C86.6075 48.4166 86.6406 48.4248 86.6734 48.4352C86.6813 48.4549 86.526 48.3274 86.6394 48.4259C86.7225 48.4977 86.6047 48.362 86.6015 48.3914C86.6015 48.3925 86.6582 48.4412 86.6666 48.4479C86.7704 48.5316 86.6262 48.417 86.641 48.4118C86.6462 48.4099 86.6841 48.478 86.6913 48.4873C86.78 48.6041 86.6654 48.3902 86.6913 48.4776C86.7137 48.5528 86.738 48.6249 86.7536 48.7023C86.7205 48.5397 86.7528 48.799 86.7524 48.8384C86.7516 48.8982 86.7628 49.005 86.7376 49.06C86.7436 49.0466 86.768 48.9038 86.7404 49.0325C86.7332 49.0663 86.7273 49.0998 86.7197 49.1337C86.7001 49.2192 86.6762 49.304 86.6486 49.3877C86.6262 49.4561 86.5999 49.523 86.5739 49.5903C86.5288 49.7071 86.5699 49.6034 86.5803 49.581C86.5644 49.6141 86.5488 49.6476 86.532 49.6803C86.4566 49.8291 86.3703 49.9734 86.2741 50.1114C86.2473 50.1497 86.2198 50.1872 86.1918 50.2248C86.1519 50.2776 86.1204 50.3141 86.1823 50.2419C86.1224 50.3118 86.0605 50.3803 85.995 50.4457C85.9311 50.5097 85.864 50.5714 85.7946 50.6298C85.767 50.6529 85.7387 50.6744 85.7111 50.6971C85.5758 50.8076 85.8325 50.625 85.6848 50.7153C85.6045 50.7644 85.5239 50.8102 85.4412 50.8552C85.4256 50.8637 85.3131 50.9128 85.4189 50.8708C85.3586 50.8946 85.2939 50.9057 85.2324 50.9258C85.1909 50.9396 85.1018 50.9321 85.246 50.9295C85.2001 50.9303 85.1518 50.9288 85.1058 50.9318C85.0028 50.9388 85.2711 50.9712 85.1142 50.9295C84.9741 50.8927 85.2364 50.9935 85.099 50.9251C84.7677 50.7603 84.3017 50.8373 84.1157 51.1653C83.9396 51.4759 84.0194 51.905 84.3736 52.0813C85.4049 52.5945 86.5472 51.95 87.1988 51.188C87.7881 50.4989 88.2497 49.5959 88.187 48.693C88.1542 48.2199 87.9921 47.7298 87.5849 47.4192C87.1082 47.0559 86.4765 46.993 85.9072 47.2017C84.9817 47.5408 84.2821 48.3073 83.8953 49.1448C83.4601 50.0865 83.2828 51.455 84.3736 52.0813C84.6942 52.2654 85.1789 52.1557 85.3574 51.8411C85.543 51.5138 85.4412 51.1214 85.099 50.9251L85.0986 50.9254Z" fill="#7E7E7E"/>
<path d="M85.76 48.2073C86.0918 47.9879 86.4295 47.7718 86.8056 47.6223L86.634 47.6896C86.8128 47.6208 86.9969 47.5699 87.1885 47.5442L86.9973 47.568C87.0879 47.5576 87.1786 47.5531 87.27 47.5546L86.5769 47.0634C86.6324 47.2348 86.6883 47.4059 86.7438 47.5773C86.8524 47.912 87.252 48.1582 87.6277 48.0448C87.9907 47.9354 88.2462 47.5803 88.1296 47.2214C88.0741 47.05 88.0182 46.8789 87.9627 46.7074C87.8697 46.4203 87.5922 46.2214 87.2696 46.2162C86.4275 46.202 85.6969 46.6134 85.0341 47.0514C84.878 47.1545 84.7562 47.2746 84.7039 47.4516C84.6564 47.6119 84.6779 47.8254 84.7762 47.9674C84.8752 48.1102 85.0225 48.2363 85.2058 48.275C85.3847 48.3129 85.6039 48.3107 85.7596 48.2077L85.76 48.2073Z" fill="#7E7E7E"/>
<path d="M87.2071 63.4432C92.0722 60.8266 97.18 58.0794 101.27 55.8789C101.619 55.6914 102.047 55.6914 102.395 55.8789C105.115 57.3419 112.517 61.3219 115.869 63.1241C116.619 63.5276 116.618 64.5355 115.868 64.939C111.63 67.2172 106.541 69.9547 101.805 72.503C101.457 72.6904 101.03 72.69 100.681 72.503C98.6094 71.3891 91.3112 67.4645 87.2075 65.2584C86.4569 64.8549 86.4569 63.8471 87.2075 63.4436L87.2071 63.4432Z" fill="#C7E8C5"/>
<path d="M95.5412 63.0705C95.5811 63.1545 95.6206 63.2386 95.659 63.323L95.5867 63.1631C95.8019 63.6387 95.9808 64.1267 96.1197 64.6265C96.196 64.8998 96.503 65.1308 96.8129 65.1178C97.1303 65.1044 97.4189 64.9192 97.506 64.6265C97.6537 64.1296 97.8242 63.6395 98.0382 63.1638L97.9659 63.3237C98.0043 63.2389 98.0442 63.1545 98.0849 63.0705C98.1668 62.9016 98.2123 62.7402 98.1572 62.5547C98.1113 62.3992 97.9823 62.2311 97.827 62.1545C97.6601 62.0723 97.4581 62.0314 97.2732 62.0872C97.1059 62.1378 96.9195 62.2389 96.8436 62.3947C96.5485 63.0028 96.3114 63.6276 96.1201 64.2706H97.506C97.3259 63.6242 97.0736 63.0043 96.7825 62.3947C96.7138 62.2512 96.5082 62.127 96.3529 62.0872C96.1808 62.0429 95.9516 62.063 95.7991 62.1545C95.6458 62.2467 95.5104 62.384 95.4689 62.5547L95.4434 62.7328C95.4438 62.8537 95.4765 62.9663 95.5416 63.0705H95.5412Z" fill="#3DA89A"/>
<path d="M100.137 60.2375C100.177 60.3215 100.216 60.4056 100.255 60.49L100.182 60.3301C100.398 60.8057 100.576 61.2937 100.715 61.7935C100.792 62.0668 101.099 62.2978 101.409 62.2848C101.726 62.2714 102.015 62.0862 102.102 61.7935C102.249 61.2966 102.42 60.8065 102.634 60.3308L102.562 60.4907C102.6 60.4059 102.64 60.3215 102.681 60.2375C102.762 60.0686 102.808 59.9072 102.753 59.7217C102.707 59.5662 102.578 59.3981 102.423 59.3215C102.256 59.2393 102.054 59.1984 101.869 59.2542C101.702 59.3048 101.515 59.4059 101.439 59.5617C101.144 60.1698 100.907 60.7946 100.716 61.4376H102.102C101.922 60.7912 101.669 60.1713 101.378 59.5617C101.31 59.4182 101.104 59.294 100.949 59.2542C100.777 59.2099 100.547 59.23 100.395 59.3215C100.241 59.4137 100.106 59.551 100.065 59.7217L100.039 59.8998C100.039 60.0207 100.072 60.1333 100.137 60.2375Z" fill="#3DA89A"/>
<path d="M104.99 62.7043C105.03 62.7883 105.07 62.8724 105.108 62.9568L105.036 62.7969C105.251 63.2725 105.43 63.7605 105.569 64.2603C105.645 64.5336 105.952 64.7646 106.262 64.7516C106.579 64.7382 106.868 64.553 106.955 64.2603C107.103 63.7634 107.273 63.2733 107.487 62.7976L107.415 62.9575C107.453 62.8727 107.493 62.7883 107.534 62.7043C107.616 62.5354 107.661 62.374 107.606 62.1885C107.56 62.033 107.432 61.8649 107.276 61.7883C107.109 61.7061 106.907 61.6652 106.722 61.721C106.555 61.7716 106.369 61.8727 106.293 62.0285C105.998 62.6366 105.761 63.2614 105.569 63.9044H106.955C106.775 63.258 106.523 62.6381 106.232 62.0285C106.163 61.885 105.957 61.7608 105.802 61.721C105.63 61.6767 105.401 61.6968 105.248 61.7883C105.095 61.8805 104.96 62.0178 104.918 62.1885L104.893 62.3666C104.893 62.4875 104.925 62.6001 104.99 62.7043Z" fill="#3DA89A"/>
<path d="M100.106 65.7209C100.146 65.8049 100.185 65.889 100.223 65.9734L100.151 65.8135C100.366 66.2891 100.545 66.7771 100.684 67.2769C100.76 67.5502 101.067 67.7812 101.377 67.7682C101.695 67.7548 101.983 67.5696 102.07 67.2769C102.218 66.78 102.389 66.2899 102.603 65.8142L102.53 65.9741C102.569 65.8893 102.609 65.8049 102.649 65.7209C102.731 65.552 102.777 65.3906 102.722 65.2051C102.676 65.0496 102.547 64.8815 102.391 64.8049C102.225 64.7227 102.023 64.6818 101.838 64.7376C101.67 64.7882 101.484 64.8893 101.408 65.0451C101.113 65.6532 100.876 66.278 100.685 66.921H102.07C101.89 66.2746 101.638 65.6547 101.347 65.0451C101.278 64.9016 101.073 64.7774 100.917 64.7376C100.745 64.6933 100.516 64.7134 100.364 64.8049C100.21 64.8971 100.075 65.0344 100.033 65.2051L100.008 65.3832C100.008 65.5041 100.041 65.6167 100.106 65.7209Z" fill="#3DA89A"/>
</svg>
