<svg width="88" height="88" viewBox="0 0 88 88" fill="none" xmlns="http://www.w3.org/2000/svg">
<path d="M84.7587 37.1756C79.8967 31.7714 77.1955 24.208 77.1955 24.208C77.1955 24.208 74.4941 31.7714 69.6306 37.1756C69.6306 37.1756 71.8589 38.3229 73.0756 37.7145C73.0756 37.7145 71.8589 42.3764 66.3887 48.5228C71.2507 49.8719 74.8975 47.6435 74.8975 47.6435V54.3305H76.6548H77.7345H79.4933V47.6435C79.4933 47.6435 83.1386 49.8719 88.0006 48.5228C82.5301 42.3764 81.3167 37.7145 81.3167 37.7145C82.5301 38.3229 84.7587 37.1756 84.7587 37.1756Z" fill="#3DA89A"/>
<path d="M55.7915 54.4267C32.1214 51.2336 27.2924 50.482 36.4254 44.5799C43.1801 40.2142 58.0704 36.9912 65.774 34.465L49.9035 34.4648C38.8257 36.6114 29.0608 38.4836 21.4642 41.9256C17.4991 43.7221 12.999 45.5 15.1762 49.5C17.3533 53.5 19.4991 57 19.4991 57C19.4991 57 21.4642 59 26.999 61C39.6733 64.2105 51.9365 65.8967 42.3417 71.1952C30.3263 77.8318 22.2617 82.4338 15.176 85.5686H69.0016C74.4121 81.4615 83.8571 73.7704 85.378 69.0662C87.5294 62.4124 80.4529 57.7553 55.7915 54.4267Z" fill="#E9E9E9"/>
<path d="M17.4226 69.01C17.4226 69.01 22.2705 71.9731 28.7353 70.1796C21.462 62.0062 19.8466 55.8095 19.8466 55.8095C21.462 56.6178 24.425 55.0922 24.425 55.0922C17.9602 47.9072 14.3686 37.8506 14.3686 37.8506C14.3686 37.8506 10.7767 47.9072 4.31045 55.0922C4.31045 55.0922 7.27323 56.6178 8.89041 55.8095C8.89041 55.8095 7.27341 62.0062 0 70.1796C6.46473 71.9731 11.3142 69.01 11.3142 69.01V77.9004H13.65H15.0856H17.423V69.01H17.4226Z" fill="#3DA89A"/>
<path d="M76.4213 17.4736C76.5513 17.234 76.537 16.9346 76.3835 16.7044L72.1463 10.3499C71.9809 10.0993 71.9809 9.7715 72.1463 9.51919L76.3835 3.16634C76.5372 2.93466 76.5513 2.63834 76.4213 2.39566C76.2888 2.15297 76.0351 2 75.7593 2H56V17.872H75.7593C76.0351 17.8721 76.2881 17.7161 76.4213 17.4736Z" fill="#FFBAA7"/>
<rect x="50" y="2" width="4" height="32" fill="#7E7E7E"/>
</svg>
