<svg width="80" height="58" viewBox="0 0 80 58" fill="none" xmlns="http://www.w3.org/2000/svg">
<g clip-path="url(#clip0_640_5769)">
<path d="M73.013 15.9261C73.145 15.8174 73.2972 15.7359 73.4609 15.6865C73.6245 15.637 73.7963 15.6206 73.9663 15.6381C74.1834 15.6436 74.3949 15.7082 74.5783 15.8247C74.7617 15.9413 74.91 16.1056 75.0076 16.3C75.3364 16.9568 75.2531 18.127 74.9654 18.8372C74.7619 19.3401 74.4316 20.1085 73.7126 20.6315C73.5542 20.7487 73.3733 20.8317 73.1813 20.8753C72.9892 20.9189 72.7903 20.9221 72.597 20.8848L72.4927 20.861C72.3691 21.2051 72.2231 21.5408 72.0556 21.8658C71.7795 22.5008 70.4991 24.4734 68.8762 25.6093C68.8791 25.9383 68.8739 26.1252 68.9092 26.6099C68.9158 26.872 68.96 27.1318 69.0404 27.3813C69.1512 27.7017 69.3461 27.9862 69.6048 28.2048C70.1781 28.6677 70.7675 28.8889 71.4936 29.1626L72.1564 29.4241C69.8197 30.6005 67.25 31.2381 64.6356 31.2904C62.1061 31.3004 58.788 30.4262 57.0104 29.4299L57.6898 29.1624C58.416 28.8897 59.0043 28.6669 59.5773 28.2041C59.8783 27.9974 60.1634 27.7682 60.43 27.5185C60.7883 27.1171 60.911 26.6083 61.014 26.0013C59.8967 25.5507 58.9535 24.7236 58.0874 23.5527C57.2931 22.4685 56.7288 21.2327 56.4291 19.9217C56.2192 19.9535 56.0049 19.937 55.8024 19.8734C55.5998 19.8099 55.4144 19.7009 55.2602 19.5549C54.6065 18.9518 54.3674 18.1504 54.2233 17.6271C54.02 16.8883 54.0725 15.7162 54.4749 15.1021C54.5944 14.9202 54.7608 14.7743 54.9566 14.6798C55.1523 14.5854 55.3699 14.5459 55.5863 14.5657C55.7572 14.5681 55.9259 14.6044 56.0826 14.6725C56.2394 14.7406 56.3812 14.8391 56.4998 14.9624C56.4998 14.9624 55.6516 6.83887 64.6647 6.83887C74.2154 6.8406 73.013 15.9261 73.013 15.9261Z" fill="white"/>
<path d="M7.49741 15.8958C7.52023 15.6045 7.59711 15.32 7.72411 15.0569C7.86696 14.7777 8.11331 14.5657 8.41031 14.4664C8.3808 14.3669 8.36413 14.3114 8.36413 14.3114C8.03606 13.2509 7.86415 12.1481 7.85384 11.0378C7.83624 9.43487 8.18681 7.84938 8.87842 6.40397C9.57003 4.95856 10.5841 3.69197 11.8423 2.70219C13.5884 1.31028 15.7411 0.529473 17.9716 0.479055C20.199 0.357341 22.4049 0.969794 24.2523 2.22284C25.5827 3.11297 26.691 4.29794 27.4913 5.68605C28.2916 7.07416 28.7626 8.62819 28.8677 10.2279C28.9423 11.3357 28.8554 12.4485 28.6096 13.5311L28.5772 13.679C28.7363 13.7126 28.8869 13.7784 29.0198 13.8722C29.1527 13.9661 29.2651 14.0861 29.3502 14.225C29.7611 14.8795 29.7919 16.1136 29.5627 16.8866C29.4004 17.4341 29.1322 18.2724 28.4322 18.8929C28.2782 19.0317 28.0971 19.1371 27.9004 19.2023C27.7038 19.2674 27.4957 19.2911 27.2895 19.2716L27.178 19.2572C27.0832 19.6302 26.9642 19.9965 26.8217 20.354C26.5602 21.1606 25.0588 23.9977 23.064 25.1818C23.064 25.201 23.064 25.2127 23.064 25.2127V26.342C22.0286 27.3703 20.8381 28.2287 19.5362 28.8856L18.7086 28.9144C17.1001 28.2348 15.6309 27.2629 14.3752 26.0478V25.2394C13.6215 24.7801 12.9429 24.2073 12.3631 23.541C11.4216 22.4862 10.7056 21.2495 10.2591 19.9069C10.0424 19.9616 9.81604 19.9661 9.5973 19.9201C9.37856 19.8741 9.17315 19.7787 8.99668 19.6413C8.25107 19.0763 7.91956 18.261 7.71567 17.7277C7.51054 17.1403 7.43604 16.5151 7.49741 15.8958Z" fill="white"/>
<path d="M22.2683 32.2987C23.5663 30.8891 24.4514 29.2014 25.2871 27.57C24.8556 26.8639 24.3044 26.2387 23.6583 25.7227C22.4904 27.0226 21.0927 28.0949 19.5357 28.8855C19.3579 28.9719 19.3734 29.2836 19.4782 29.4059C19.5591 29.5002 21.6261 31.7149 22.2683 32.2987Z" fill="white"/>
<path d="M16.2195 32.5096C14.8264 31.1943 13.8261 29.5725 12.8789 28.0034C13.2605 27.269 13.767 26.6069 14.3757 26.0469C15.6313 27.262 17.1002 28.2339 18.7085 28.9136C18.8919 28.9875 18.898 29.2996 18.8018 29.4288C18.7275 29.5287 16.8195 31.8824 16.2195 32.5096Z" fill="white"/>
<path d="M56.817 29.999C57.5849 29.7298 58.3388 29.4222 59.0758 29.0772C59.3688 28.9182 59.6473 28.7338 59.9081 28.526C60.1805 28.34 60.4404 28.1363 60.6862 27.9162C61.1703 27.4361 61.3447 26.7759 61.4575 26.1246C61.4864 26.0069 61.4692 25.8825 61.4094 25.7771C61.3497 25.6716 61.2519 25.5932 61.1362 25.5577C61.0186 25.5263 60.8934 25.5424 60.7876 25.6026C60.6818 25.6628 60.6038 25.7623 60.5705 25.8796C60.4787 26.4095 60.3789 26.9577 59.9629 27.3334C59.7423 27.5327 59.4874 27.6983 59.2516 27.879C59.0136 28.0587 58.7582 28.214 58.4893 28.3424C57.8738 28.6407 57.209 28.8598 56.573 29.1106C56.4574 29.1462 56.3598 29.2247 56.3001 29.3301C56.2404 29.4355 56.2231 29.5598 56.2519 29.6775C56.285 29.7949 56.363 29.8945 56.4688 29.9547C56.5747 30.015 56.7 30.031 56.8175 29.9994L56.817 29.999Z" fill="#7E7E7E"/>
<path d="M68.4164 25.6914C68.4197 26.299 68.3917 26.9902 68.619 27.5611C68.7412 27.896 68.9353 28.1999 69.1877 28.4513C69.4459 28.6857 69.7337 28.8853 70.0437 29.0447C70.7766 29.4351 71.5926 29.695 72.3652 29.9998C72.4828 30.0314 72.6081 30.0153 72.714 29.9551C72.8199 29.8949 72.8979 29.7953 72.9311 29.6779C72.9606 29.5601 72.9437 29.4354 72.8839 29.3298C72.824 29.2242 72.7258 29.1458 72.6097 29.111C71.9651 28.8567 71.2912 28.6353 70.6691 28.3309C70.1747 28.0891 69.6919 27.7947 69.483 27.2617C69.3962 26.9855 69.353 26.6975 69.355 26.4079C69.341 26.169 69.3375 25.9305 69.3358 25.6914C69.3328 25.0983 68.413 25.097 68.416 25.6914H68.4164Z" fill="#7E7E7E"/>
<path d="M79.5408 37.5724C79.4899 40.4419 79.2315 43.7451 78.5061 46.7366C77.9708 48.9431 77.2362 50.998 75.5374 52.5908C74.0401 53.9947 71.4614 54.4035 69.6475 53.8237C68.9694 54.2522 68.1974 54.5085 67.3982 54.5704C66.3718 54.5896 65.3455 54.6119 64.3194 54.63C64.3772 54.7564 64.4063 54.8942 64.4046 55.0333C64.403 55.1724 64.3705 55.3094 64.3097 55.4344C64.2489 55.5595 64.1611 55.6694 64.0528 55.7564C63.9444 55.8434 63.8182 55.9052 63.6832 55.9374C61.3596 56.5141 58.9807 56.8372 56.5879 56.9013C53.9456 56.9691 51.754 57.0127 49.9977 55.1537C48.376 53.4381 48.0735 50.9156 47.9361 48.6625C47.7954 46.5049 47.7694 44.3413 47.8581 42.1809C47.9636 40.1042 48.3119 38.047 48.8957 36.0516C49.219 35.0092 49.6721 34.0118 50.2444 33.0831C51.6348 30.9836 53.8791 30.2869 56.2347 29.5172L56.6958 29.385C56.7991 29.3555 56.8705 29.3466 56.9008 29.3668C58.6486 30.3889 62.0528 31.3011 64.6365 31.2909C67.3735 31.2385 70.0595 30.5399 72.4766 29.252C74.4549 29.8857 75.9642 30.5863 77.2017 31.8073C78.5369 32.9571 79.5395 34.5323 79.5408 37.5724Z" fill="#FFBAA7"/>
<path d="M65.9726 50.28C66.4574 51.4765 67.6972 53.178 69.2513 53.6754C69.3806 53.7315 69.5131 53.7802 69.6479 53.8213C68.9701 54.2509 68.1978 54.508 67.3983 54.5703C66.4401 54.5876 65.482 54.6087 64.5239 54.626L64.3591 54.6587C64.0621 52.6499 63.7287 50.232 63.5332 49.2199C64.1871 49.2136 64.8356 49.1007 65.4533 48.8857C65.6162 49.362 65.7886 49.8287 65.9726 50.28Z" fill="white"/>
<path d="M71.7944 11.8766C71.4414 11.1822 70.9912 10.542 70.4575 9.97533L69.1011 8.78983C68.258 9.79154 66.9948 10.4328 65.8403 10.8255C64.3364 11.3381 63.344 11.1434 61.7702 10.6646C61.3973 10.8296 61.0022 10.9673 60.6601 11.079C59.8915 11.3304 59.0162 11.4151 58.302 11.795C57.7233 12.1344 57.2768 12.6608 57.0357 13.2879C56.8776 13.6603 56.608 14.5845 56.4992 14.9626C56.3806 14.8393 56.2388 14.7407 56.0821 14.6726C55.9253 14.6045 55.7566 14.5682 55.5857 14.5658C55.4539 14.562 55.3221 14.5749 55.1935 14.6042C54.8885 13.5542 54.7529 12.4621 54.7916 11.3692C54.989 7.87665 56.6069 5.5669 58.3413 4.63471C59.9701 2.62148 62.7295 1.54141 65.5574 1.84849C67.3393 2.03757 69.0369 2.70613 70.4705 3.78336C71.3903 4.59591 72.1393 5.25867 72.1393 5.25867C73.7682 6.69748 74.966 9.13801 74.9133 12.475C74.8889 13.5782 74.6921 14.6708 74.33 15.7129C74.2119 15.6739 74.0897 15.6488 73.9659 15.638C73.796 15.6206 73.6242 15.6371 73.4607 15.6865C73.2971 15.736 73.145 15.8174 73.013 15.9261L72.6717 16.2186L72.6401 15.2896C72.6113 14.1036 72.3226 12.9384 71.7944 11.8766Z" fill="#D8D8D8"/>
<path d="M56.8239 14.6374C56.5621 14.3795 56.2297 14.2052 55.869 14.1369C55.5082 14.0685 55.1354 14.109 54.7976 14.2533C54.5564 14.3685 54.3435 14.5354 54.174 14.7424C54.0045 14.9494 53.8826 15.1912 53.8169 15.4507C53.4453 16.6314 53.6872 18.0142 54.2985 19.0739C54.7233 19.8102 55.4344 20.4637 56.3385 20.3971C56.4596 20.3942 56.5749 20.3447 56.6605 20.2589C56.7461 20.1731 56.7955 20.0575 56.7984 19.9362C56.7973 19.8142 56.7485 19.6976 56.6625 19.6114C56.5765 19.5252 56.4601 19.4763 56.3385 19.4753C55.6366 19.5271 55.1905 18.8705 54.9329 18.2976C54.7132 17.8208 54.5894 17.3053 54.5688 16.7805C54.5577 16.4806 54.5855 16.1806 54.6516 15.888C54.6773 15.7692 54.7134 15.6528 54.7593 15.5402C54.7927 15.4694 54.8305 15.4008 54.8724 15.3347C54.8823 15.3174 54.949 15.237 54.8829 15.3155C54.9437 15.2331 55.0217 15.1648 55.1114 15.1155C55.2012 15.0662 55.3005 15.037 55.4026 15.0299C55.5424 15.01 55.6848 15.0229 55.8187 15.0677C55.9526 15.1125 56.0743 15.188 56.1741 15.2881C56.5916 15.7106 57.2422 15.0576 56.8246 14.6363L56.8239 14.6374Z" fill="#7E7E7E"/>
<path d="M67.2064 26.8442C68.3906 26.6407 69.4252 25.8648 70.2634 25.0407C71.0225 24.2965 71.6808 23.4555 72.2214 22.5395C72.5039 22.0426 72.7432 21.5221 72.9365 20.9839L72.3707 21.3058C73.9121 21.6597 74.8832 20.2578 75.3903 19.0066C75.6349 18.3838 75.7281 17.7117 75.6624 17.0456C75.6081 16.4962 75.4474 15.9287 75.0015 15.569C74.6694 15.3107 74.2596 15.1731 73.8393 15.1789C73.419 15.1846 73.0131 15.3334 72.6882 15.6007C72.6026 15.6875 72.5547 15.8046 72.5547 15.9266C72.5547 16.0486 72.6026 16.1657 72.6882 16.2525C72.7758 16.3363 72.8923 16.383 73.0135 16.383C73.1346 16.383 73.2511 16.3363 73.3387 16.2525C73.4533 16.1725 73.5848 16.1203 73.723 16.1C73.8611 16.0797 74.0021 16.0918 74.1347 16.1355C74.3014 16.1757 74.4475 16.276 74.545 16.4172C74.8188 16.8703 74.7985 17.5004 74.7156 18.0064C74.6186 18.5709 74.4018 19.108 74.0797 19.5812C73.7521 20.0805 73.2527 20.5626 72.6152 20.4162C72.4977 20.3873 72.3736 20.4045 72.2684 20.4643C72.1632 20.5242 72.0849 20.6222 72.0495 20.7381C71.7469 21.5404 71.3346 22.2966 70.8242 22.985C70.2103 23.859 69.455 24.6241 68.5895 25.2487C68.1046 25.5998 67.5492 25.8407 66.9619 25.9547C66.8448 25.9881 66.7455 26.0662 66.6855 26.1723C66.6254 26.2784 66.6093 26.4039 66.6407 26.5218C66.6755 26.6381 66.7537 26.7365 66.8591 26.7965C66.9645 26.8564 67.0889 26.8733 67.2064 26.8436V26.8442Z" fill="#7E7E7E"/>
<path d="M55.8591 19.4011C56.0682 20.6637 56.508 21.8769 57.1564 22.9797C57.8462 24.1467 58.7794 25.2439 59.9349 25.9677C60.5178 26.3311 61.16 26.5887 61.832 26.7286C62.4096 26.849 62.656 25.9604 62.0765 25.8396C60.6177 25.5354 59.4771 24.614 58.5815 23.4513C57.6254 22.1932 56.9945 20.7176 56.745 19.156C56.7117 19.0387 56.6338 18.9392 56.5279 18.8789C56.4221 18.8187 56.2969 18.8026 56.1793 18.8341C56.0632 18.869 55.9651 18.9474 55.9052 19.053C55.8453 19.1586 55.8284 19.2833 55.8579 19.4011H55.8591Z" fill="#7E7E7E"/>
<path d="M63.2677 22.6683C63.2957 22.6555 63.3252 22.6437 63.3522 22.6299C63.3991 22.6071 63.2372 22.6747 63.3062 22.6491C63.3269 22.6414 63.3474 22.6328 63.3681 22.6251C63.4565 22.5921 63.5468 22.5646 63.6387 22.5429C63.6979 22.5289 63.7577 22.5185 63.8174 22.5074C63.9056 22.4909 63.7628 22.511 63.8238 22.5062C63.8569 22.5036 63.8897 22.4991 63.9228 22.4965C64.0936 22.4834 64.2651 22.4822 64.436 22.4928C64.5173 22.4976 64.5985 22.5043 64.6794 22.5145C64.5895 22.5032 64.7267 22.5231 64.7323 22.5241C64.766 22.5301 64.7997 22.5368 64.8332 22.5433C64.9549 22.5685 65.0745 22.6031 65.1908 22.6468C65.2052 22.652 65.2194 22.6578 65.2334 22.6635C65.2663 22.6763 65.252 22.6703 65.1904 22.6455C65.2037 22.6426 65.2406 22.6689 65.2518 22.6747C65.2918 22.6939 65.3311 22.7158 65.3692 22.739C65.3985 22.7569 65.4267 22.7774 65.4554 22.7966C65.5185 22.835 65.3715 22.7186 65.4187 22.7674C65.429 22.7782 65.4422 22.7866 65.4535 22.7972C65.54 22.8825 65.6566 22.93 65.7779 22.9295C65.8993 22.9291 66.0155 22.8805 66.1013 22.7946C66.1871 22.7086 66.2355 22.5921 66.236 22.4705C66.2365 22.3489 66.189 22.2321 66.1039 22.1454C65.6586 21.7538 65.0647 21.6155 64.487 21.5742C63.9096 21.5281 63.3301 21.6306 62.8034 21.8719C62.6984 21.9339 62.6222 22.035 62.5913 22.1531C62.5604 22.2712 62.5773 22.3968 62.6384 22.5024C62.7023 22.6054 62.8031 22.6799 62.9202 22.7107C63.0372 22.7414 63.1616 22.7261 63.2677 22.6678V22.6683Z" fill="#7E7E7E"/>
<path d="M64.1859 18.3767C64.1056 18.6236 64.0314 18.8737 63.973 19.1268C63.9454 19.2254 63.9321 19.3275 63.9337 19.4299C63.9367 19.5322 63.9646 19.6324 64.0148 19.7215C64.0651 19.8107 64.1363 19.8863 64.2223 19.9417C64.3487 20.0211 64.4927 20.0679 64.6416 20.0778C64.7335 20.0799 64.8254 20.0718 64.9156 20.0536L64.7933 20.0701C64.8066 20.0684 64.82 20.0669 64.8332 20.0659C64.9547 20.0631 65.0707 20.0152 65.159 19.9315C65.2452 19.845 65.2937 19.7278 65.2937 19.6056C65.2937 19.4833 65.2452 19.3661 65.159 19.2797C65.1164 19.2366 65.0656 19.2025 65.0097 19.1794C64.9537 19.1564 64.8937 19.1447 64.8332 19.1452C64.7682 19.15 64.704 19.1614 64.6395 19.1702L64.7617 19.1537C64.7219 19.1595 64.6816 19.1606 64.6416 19.1572L64.7638 19.1735C64.7287 19.1686 64.6944 19.1593 64.6615 19.146L64.7715 19.1925C64.7377 19.1782 64.7055 19.1601 64.6757 19.1387L64.7688 19.2107C64.7617 19.2051 64.7553 19.1986 64.7497 19.1915L64.8215 19.2849C64.814 19.2742 64.8076 19.2628 64.8024 19.2509L64.8487 19.3611C64.8444 19.3486 64.841 19.3357 64.8386 19.3227L64.8549 19.4452C64.8511 19.4113 64.8517 19.377 64.8568 19.3432L64.8403 19.4658C64.8676 19.3187 64.9038 19.1734 64.9488 19.0308C64.9871 18.8942 65.0287 18.7583 65.0723 18.6233C65.1038 18.5054 65.0877 18.3799 65.0277 18.2739C64.9676 18.1678 64.8683 18.0897 64.7512 18.0563C64.6337 18.0266 64.5093 18.0435 64.4039 18.1034C64.2985 18.1634 64.2202 18.2618 64.1855 18.3782L64.1859 18.3767Z" fill="#7E7E7E"/>
<path d="M60.2518 16.0245C60.0891 16.4618 60.1188 17.4915 60.9557 17.6277C62.0686 17.6853 62.1997 16.4508 61.859 15.8464C61.58 15.3519 60.6899 15.1009 60.2518 16.0245Z" fill="#7E7E7E"/>
<path d="M69.162 16.5442C69.273 16.9976 69.1237 18.0168 68.2775 18.0549C67.1651 17.9834 67.1778 16.7413 67.5861 16.1809C67.9205 15.7219 68.8338 15.5761 69.162 16.5442Z" fill="#7E7E7E"/>
<path d="M58.1092 4.2369C55.5173 5.64825 54.3329 8.91516 54.3224 11.7281C54.318 12.6914 54.447 13.6508 54.7056 14.5786C54.8668 15.1486 55.7544 14.9064 55.5925 14.3336C55.1725 12.8158 55.1346 11.2173 55.4823 9.68123C55.7682 8.39452 56.3082 7.12951 57.1958 6.14085C57.5861 5.69262 58.0527 5.31742 58.5739 5.03274C59.0942 4.74948 58.6314 3.95325 58.1096 4.2369H58.1092Z" fill="#7E7E7E"/>
<path d="M71.2422 3.79817C69.9091 2.70024 68.3369 1.93203 66.6528 1.55565C64.8507 1.15963 62.972 1.30602 61.2526 1.97642C60.3137 2.35261 59.4496 2.8945 58.7015 3.57636C58.2641 3.97793 58.9158 4.62839 59.3519 4.22836C61.7955 1.98545 65.5211 1.73751 68.4541 3.11449C69.2156 3.47572 69.9331 3.92378 70.5922 4.44979C70.6802 4.53281 70.7965 4.57904 70.9174 4.57904C71.0383 4.57904 71.1546 4.53281 71.2426 4.44979C71.328 4.36293 71.3759 4.24586 71.3759 4.12388C71.3759 4.00191 71.328 3.88484 71.2426 3.79798L71.2422 3.79817Z" fill="#7E7E7E"/>
<path d="M74.816 15.6997C75.334 14.0572 75.4874 12.321 75.2654 10.6128C75.0946 9.16232 74.6031 7.76832 73.8267 6.53237C73.4453 5.9412 72.9872 5.40349 72.4644 4.93339C72.0237 4.54027 71.3704 5.18996 71.814 5.58519C73.8236 7.37603 74.559 10.1494 74.4445 12.7698C74.3877 13.6832 74.2144 14.5854 73.929 15.4547C73.7548 16.0229 74.6424 16.2661 74.816 15.6997Z" fill="#7E7E7E"/>
<path d="M70.1331 10.3016C71.3952 11.6615 72.123 13.4336 72.1817 15.29C72.2043 15.8813 73.1241 15.8842 73.1015 15.29C73.0355 13.1906 72.2116 11.1865 70.7828 9.64975C70.3795 9.2138 69.7303 9.86695 70.1325 10.3016H70.1331Z" fill="#7E7E7E"/>
<path d="M68.667 8.2246C68.0168 9.10341 67.0133 9.70336 66.0145 10.1051C65.4676 10.3455 64.888 10.5032 64.2949 10.5731C63.7152 10.6089 63.1336 10.55 62.5728 10.3988C61.9979 10.2584 61.7524 11.1477 62.3283 11.2877C62.9809 11.4656 63.6583 11.5344 64.3332 11.4913C65.0199 11.417 65.6916 11.2402 66.3261 10.9668C67.5456 10.4675 68.6676 9.7627 69.4613 8.68974C69.5221 8.58402 69.5388 8.45856 69.5079 8.34055C69.477 8.22253 69.401 8.12147 69.2963 8.05925C69.1904 8.00032 69.0658 7.98462 68.9486 8.01542C68.8314 8.04623 68.7304 8.12115 68.667 8.2246Z" fill="#7E7E7E"/>
<path d="M64.3163 8.04959C63.8777 8.58273 63.3767 9.06104 62.8241 9.47419C62.5165 9.71743 62.1888 9.93401 61.8445 10.1216C61.4888 10.2961 61.121 10.4446 60.744 10.5662C59.9599 10.8322 59.1254 10.9336 58.3618 11.2604C57.633 11.5833 57.047 12.1618 56.7138 12.8872C56.4404 13.5191 56.2196 14.1725 56.0536 14.8407C55.8883 15.4115 56.7757 15.6552 56.9407 15.0858C57.2739 13.9358 57.5523 12.565 58.7921 12.0726C59.5458 11.7734 60.3665 11.6735 61.1326 11.4056C61.8822 11.1522 62.5884 10.7847 63.2263 10.3159C63.8702 9.85138 64.4546 9.30912 64.9663 8.7014C65.0495 8.61339 65.0959 8.49675 65.0959 8.37549C65.0959 8.25424 65.0495 8.1376 64.9663 8.04959C64.8796 7.964 64.7628 7.91602 64.6411 7.91602C64.5194 7.91602 64.4026 7.964 64.3159 8.04959H64.3163Z" fill="#7E7E7E"/>
<path d="M69.0784 14.9061C69.2062 15.0846 69.3496 15.2514 69.5068 15.4045C69.5987 15.4912 69.6959 15.5721 69.7979 15.6466C69.8883 15.7114 69.9871 15.7636 70.0915 15.8016C70.1508 15.8208 70.2141 15.8235 70.2749 15.8097C70.3357 15.8071 70.3947 15.7883 70.4458 15.7552C70.498 15.7246 70.5436 15.6841 70.5801 15.6358C70.6166 15.5876 70.6433 15.5326 70.6587 15.4741C70.674 15.4155 70.6776 15.3545 70.6694 15.2945C70.6612 15.2345 70.6413 15.1767 70.6108 15.1245L70.5389 15.0311C70.4826 14.9748 70.4127 14.9339 70.336 14.9126L70.3226 14.9073L70.4324 14.9537C70.3629 14.9215 70.2977 14.8808 70.2383 14.8326L70.3314 14.9046C70.1474 14.7575 69.9824 14.5881 69.8401 14.4003L69.9119 14.4936C69.8987 14.4761 69.8855 14.4586 69.8736 14.4408C69.8091 14.3406 69.712 14.266 69.5988 14.2295C69.5406 14.2134 69.4797 14.2089 69.4198 14.2164C69.3598 14.2238 69.3019 14.2431 69.2493 14.273C69.1968 14.3028 69.1506 14.3428 69.1135 14.3906C69.0764 14.4384 69.049 14.493 69.0329 14.5514C69.016 14.6106 69.0115 14.6727 69.0194 14.7338C69.0274 14.7948 69.0478 14.8536 69.0793 14.9065L69.0784 14.9061Z" fill="#7E7E7E"/>
<path d="M61.4038 20.8886C61.2199 21.169 61.0714 21.4712 60.9619 21.7882C60.9375 21.8765 60.9401 21.9702 60.9691 22.0571C60.9982 22.144 61.0524 22.2203 61.1249 22.2761C61.1974 22.332 61.2849 22.3649 61.3762 22.3707C61.4675 22.3765 61.5584 22.3549 61.6373 22.3086L61.7305 22.2366C61.7867 22.1802 61.8275 22.1101 61.8487 22.0332C61.8727 21.9659 61.8983 21.8993 61.9254 21.8335L61.879 21.9436C61.9665 21.7374 62.073 21.54 62.1973 21.3538C62.2435 21.2746 62.265 21.1835 62.2593 21.092C62.2535 21.0005 62.2206 20.9128 62.1648 20.8401C62.1091 20.7674 62.0329 20.713 61.9462 20.684C61.8594 20.6549 61.766 20.6524 61.6778 20.6768C61.5642 20.7127 61.4669 20.7874 61.403 20.8881L61.4038 20.8886Z" fill="#7E7E7E"/>
<path d="M57.2867 28.677C55.6719 29.2429 53.986 29.672 52.4737 30.4932C51.7489 30.8777 51.0918 31.3786 50.5287 31.9761C49.9435 32.6347 49.4685 33.3839 49.1224 34.1947C48.3419 35.9327 47.9052 37.8163 47.6348 39.698C47.3282 41.8272 47.3091 43.99 47.3639 46.1371C47.4127 48.0414 47.4551 50.0049 47.877 51.8706C48.2653 53.5864 49.09 55.1898 50.5395 56.2343C51.8576 57.1844 53.5041 57.3757 55.0838 57.3845C57.0881 57.4028 59.0904 57.2529 61.0698 56.9364C61.5672 56.855 62.0627 56.7629 62.5562 56.6601C63.0494 56.5577 63.609 56.4955 64.0683 56.2827C64.2592 56.1916 64.4268 56.0582 64.5587 55.8926C64.6905 55.7269 64.783 55.5334 64.8292 55.3267C64.9216 54.8984 64.7873 54.4322 64.7246 54.0064C64.4912 52.418 64.2917 50.8207 64.003 49.2411C63.971 49.0656 63.9395 48.8883 63.8909 48.7165C63.8554 48.6006 63.7769 48.5028 63.6717 48.443C63.5665 48.3833 63.4424 48.3663 63.325 48.3954C63.2439 48.409 63.1627 48.4211 63.0814 48.4328C63.0648 48.4353 62.9427 48.452 63.0569 48.4365C63.0027 48.4438 62.9483 48.4507 62.894 48.4576C62.6652 48.4862 62.4361 48.5121 62.2067 48.5371C61.5552 48.6078 60.9025 48.6698 60.2496 48.7291C58.534 48.8853 56.8165 49.0211 55.0984 49.148C54.9773 49.1509 54.862 49.2004 54.7764 49.2862C54.6907 49.372 54.6414 49.4876 54.6385 49.6089C54.6394 49.7309 54.6882 49.8475 54.7742 49.9338C54.8603 50.02 54.9767 50.0689 55.0984 50.0698C56.8422 49.941 58.5846 49.8033 60.3255 49.6441C61.4063 49.5453 62.4983 49.4639 63.5695 49.2843L63.0038 48.9623C63.1133 49.4047 63.1965 49.8532 63.2529 50.3055C63.375 51.0754 63.4867 51.8468 63.599 52.6181C63.6629 53.0598 63.7272 53.5015 63.7918 53.9432C63.82 54.1353 63.8483 54.3273 63.8767 54.5193C63.922 54.7022 63.9438 54.89 63.9415 55.0784C63.8987 55.4306 63.5762 55.4898 63.2886 55.5566C62.8182 55.6658 62.3459 55.7669 61.8717 55.86C59.9761 56.2203 58.0533 56.4183 56.1241 56.4517C54.6703 56.4844 53.0861 56.5347 51.7434 55.8815C48.5841 54.3452 48.4519 50.33 48.3224 47.2819C48.2072 45.2067 48.2307 43.1262 48.3927 41.0542C48.4764 40.1579 48.6108 39.267 48.7951 38.3859C48.9546 37.5362 49.1695 36.6979 49.4386 35.8764C49.9816 34.3228 50.7144 32.8037 52.083 31.8217C53.3584 30.9068 54.8782 30.444 56.3524 29.9621C56.746 29.8335 57.139 29.7035 57.5299 29.5665C57.6463 29.5318 57.7448 29.4533 57.8049 29.3475C57.865 29.2417 57.882 29.1167 57.8524 28.9987C57.819 28.8814 57.741 28.782 57.6353 28.7218C57.5295 28.6616 57.4043 28.6456 57.2867 28.677Z" fill="#7E7E7E"/>
<path d="M53.6758 40.7949C54.0226 43.7048 54.3739 46.6139 54.7065 49.5255C54.71 49.6467 54.7596 49.7618 54.8451 49.8475C54.9306 49.9332 55.0456 49.9829 55.1664 49.9864C55.2882 49.9857 55.4047 49.9369 55.4908 49.8507C55.5769 49.7644 55.6256 49.6476 55.6263 49.5255C55.2937 46.6141 54.9424 43.7048 54.5956 40.7949C54.592 40.6738 54.5424 40.5587 54.4569 40.473C54.3714 40.3873 54.2565 40.3376 54.1357 40.334C54.0139 40.3347 53.8974 40.3835 53.8113 40.4698C53.7252 40.556 53.6765 40.6729 53.6758 40.7949Z" fill="#7E7E7E"/>
<path d="M71.9318 29.0229C70.0313 29.9939 67.9618 30.5886 65.8366 30.7743C63.8119 30.9528 61.7853 30.6434 59.8428 30.0699C58.8991 29.8116 57.9894 29.442 57.1327 28.9687C56.6193 28.6712 56.1554 29.468 56.6684 29.7648C57.4737 30.2129 58.3248 30.5729 59.207 30.8385C60.22 31.1619 61.2572 31.4033 62.3086 31.5606C63.3613 31.7279 64.4287 31.7822 65.4929 31.7225C66.6763 31.6418 67.8486 31.4424 68.9923 31.1271C70.1697 30.8123 71.3107 30.3737 72.3961 29.8185C72.9221 29.546 72.4574 28.7504 71.9318 29.0225V29.0229Z" fill="#7E7E7E"/>
<path d="M64.5226 55.087C65.5161 55.0688 66.5237 55.0945 67.515 55.0256C68.3579 54.9398 69.1701 54.6623 69.8898 54.2143C70.4012 53.9159 69.9386 53.1197 69.4257 53.4185C68.8178 53.773 68.0906 54.0836 67.4197 54.1087C66.4551 54.1448 65.4878 54.1471 64.5226 54.1652C63.9314 54.1759 63.9285 55.098 64.5226 55.087Z" fill="#7E7E7E"/>
<path d="M63.532 49.6809C63.8941 49.6713 64.2551 49.637 64.6125 49.5783C64.9384 49.5177 65.2598 49.4348 65.5743 49.3302C65.6325 49.3141 65.687 49.2867 65.7347 49.2495C65.7823 49.2123 65.8222 49.166 65.852 49.1134C65.8819 49.0607 65.901 49.0027 65.9085 48.9426C65.9159 48.8826 65.9115 48.8216 65.8955 48.7633C65.8794 48.7049 65.852 48.6503 65.8149 48.6025C65.7778 48.5548 65.7317 48.5148 65.6791 48.4849C65.6266 48.455 65.5687 48.4358 65.5088 48.4283C65.4488 48.4209 65.388 48.4253 65.3298 48.4414C65.0242 48.5429 64.7123 48.6241 64.396 48.6845C64.3588 48.691 64.3215 48.6972 64.2843 48.7037C64.2521 48.7087 64.1172 48.72 64.2651 48.7072C64.1967 48.7131 64.1285 48.7231 64.0599 48.7293C63.8844 48.7452 63.7083 48.7538 63.5322 48.7598C63.4102 48.7598 63.2932 48.8084 63.207 48.8948C63.1207 48.9812 63.0723 49.0985 63.0723 49.2207C63.0723 49.3429 63.1207 49.4602 63.207 49.5466C63.2932 49.6331 63.4102 49.6816 63.5322 49.6816L63.532 49.6809Z" fill="#7E7E7E"/>
<path d="M70.83 29.2397C72.5939 29.7416 74.4109 30.2745 75.9303 31.34C76.5313 31.7663 77.0816 32.2602 77.5706 32.812C78.007 33.3047 78.3514 33.8721 78.5874 34.487C78.9351 35.4774 79.1022 36.5224 79.0806 37.5721C79.0825 38.1653 80.0025 38.1664 80.0004 37.5721C79.9941 35.7324 79.6172 33.9055 78.4552 32.4394C77.9669 31.8442 77.4104 31.3087 76.7972 30.8439C76.0862 30.2989 75.308 29.8482 74.4818 29.503C73.3717 29.0467 72.2336 28.6618 71.0746 28.3507C70.5041 28.1885 70.2607 29.0778 70.83 29.2397Z" fill="#7E7E7E"/>
<path d="M70.8508 29.9782C71.0821 29.6474 71.2933 29.303 71.4832 28.9467C71.579 28.7646 71.6687 28.5749 71.7547 28.3706C72.3275 26.5094 72.6772 23.3303 72.7584 21.6716C72.7979 21.3944 72.7662 21.1116 72.6661 20.8502C72.5905 20.7056 72.4772 20.5843 72.3381 20.4994C72.199 20.4144 72.0394 20.3691 71.8766 20.3682C71.2867 20.4258 71.1101 20.8083 71.0424 21.1667C71.0156 21.3071 70.9849 21.5212 70.9658 21.6923L70.9533 21.6772C70.8642 21.5526 70.746 21.4517 70.6091 21.3833C70.4721 21.3149 70.3206 21.2811 70.1677 21.2848C69.7212 21.3261 69.4324 21.6649 69.3257 22.1955C69.1645 23.0113 68.8345 24.3775 68.549 25.4453C68.5653 25.0762 68.5749 24.7318 68.5862 24.3166C68.5896 24.1303 68.5552 23.9453 68.485 23.7728C68.4543 23.6941 68.4056 23.6237 68.3427 23.5675C68.2799 23.5112 68.2047 23.4705 68.1232 23.4488C67.9872 23.4299 67.8487 23.4524 67.7257 23.5135C67.6026 23.5746 67.5008 23.6713 67.4334 23.7912C67.323 24.0457 67.2555 24.3168 67.2339 24.5934C67.135 25.3765 66.9474 26.1457 66.6747 26.8862C66.1227 28.1931 64.5268 29.8629 64.3275 30.9265C64.2164 31.5197 64.3134 32.002 64.3921 32.5261C64.472 33.0567 64.6391 33.6301 64.6648 34.2967C64.7504 35.5875 64.7964 36.3628 64.8528 37.5892C66.6312 37.2494 68.5967 36.8675 70.2817 36.5688C69.8143 35.5358 69.2818 34.2067 69.3619 33.4548C69.3714 32.4931 69.6907 31.5601 70.2721 30.7949C70.4815 30.5027 70.6734 30.2372 70.8508 29.9782Z" fill="white"/>
<path d="M69.0563 25.3316C69.2968 24.4142 69.5256 23.4924 69.7201 22.5639C69.7483 22.3917 69.7895 22.222 69.8433 22.0561C69.8612 22.0176 69.8813 21.9802 69.9035 21.9441C69.9131 21.9276 69.9675 21.8548 69.9301 21.9004C69.9596 21.8644 69.9926 21.8315 70.0286 21.8022C69.9711 21.8481 70.0763 21.7782 70.0861 21.7732C70.0118 21.8116 70.2452 21.7367 70.1691 21.7458C70.2358 21.7332 70.3048 21.7418 70.3665 21.7701C70.4115 21.792 70.4529 21.8205 70.4895 21.8546C70.539 21.9011 70.5854 21.9507 70.6286 22.0031C70.7153 22.0887 70.8321 22.1367 70.9538 22.1367C71.0755 22.1367 71.1923 22.0887 71.279 22.0031C71.3629 21.9154 71.4097 21.7987 71.4097 21.6772C71.4097 21.5557 71.3629 21.439 71.279 21.3513C71.1249 21.1536 70.9192 21.0025 70.6846 20.9148C70.4501 20.8271 70.1959 20.8062 69.9503 20.8545C69.7012 20.921 69.4747 21.0535 69.2945 21.2381C69.1142 21.4227 68.9869 21.6525 68.9258 21.9034C68.7813 22.3835 68.7099 22.8938 68.5947 23.3822C68.4601 23.9523 68.3183 24.5206 68.1695 25.0872C68.0189 25.6616 68.9059 25.9064 69.0565 25.3322L69.0563 25.3316Z" fill="#7E7E7E"/>
<path d="M72.1986 28.4934C72.5316 27.3158 72.7687 26.113 72.9076 24.897C73.0816 23.7524 73.1885 22.5986 73.2277 21.4415C73.238 20.7789 72.9385 20.208 72.2964 19.974C72.0006 19.8793 71.6809 19.8936 71.3948 20.0145C71.1087 20.1353 70.8752 20.3547 70.7363 20.633C70.6313 20.8799 70.5659 21.1418 70.5424 21.4092C70.5267 21.5244 70.5012 21.7415 70.493 21.8089C70.488 21.849 70.4639 22.0082 70.4506 22.0969C70.3726 22.6219 70.2924 23.1461 70.2101 23.6698C70.0271 24.8355 69.8549 26.0095 69.5969 27.1614C69.467 27.7391 70.3537 27.9858 70.4838 27.4064C70.6882 26.496 70.8322 25.5707 70.9809 24.65C71.1357 23.6923 71.3087 22.7311 71.4172 21.7668C71.4343 21.5584 71.4686 21.3517 71.5197 21.149C71.5288 21.0777 71.5596 21.0109 71.6078 20.9576C71.656 20.9044 71.7194 20.8673 71.7893 20.8513C72.2301 20.7169 72.3157 21.2129 72.3067 21.5112C72.2749 22.5482 72.1582 23.5882 72.0256 24.6162C71.8892 25.8447 71.6506 27.0595 71.3124 28.2482C71.1399 28.8168 72.0267 29.06 72.1992 28.4932L72.1986 28.4934Z" fill="#7E7E7E"/>
<path d="M65.3108 37.5893C65.237 35.9669 65.2 34.3316 64.8929 32.7346C64.7658 32.0743 64.6202 31.3067 64.8816 30.6839C65.156 30.1187 65.4861 29.5824 65.8671 29.083C66.3319 28.4698 66.735 27.8119 67.0705 27.1191C67.1281 27.0127 67.1431 26.8883 67.1125 26.7712C67.0818 26.654 67.0078 26.553 66.9055 26.4886C66.8 26.4278 66.6748 26.411 66.557 26.4419C66.4392 26.4729 66.3384 26.5491 66.2762 26.654C65.7333 27.9109 64.7196 28.8932 64.1312 30.1239C63.7784 30.8621 63.7895 31.6057 63.91 32.4023C63.9689 32.7916 64.0497 33.1755 64.1195 33.5629C64.184 33.9833 64.2242 34.4072 64.2398 34.8323C64.2985 35.7508 64.3489 36.6698 64.391 37.5893C64.418 38.18 65.3378 38.1833 65.3108 37.5893Z" fill="#7E7E7E"/>
<path d="M70.6796 36.3368C70.3572 35.6646 70.0979 34.9638 69.9048 34.2435C69.7729 33.6287 69.7992 32.9902 69.9815 32.3884C70.1693 31.7085 70.5778 31.1593 70.9806 30.5929C71.4424 29.9733 71.8358 29.3053 72.1539 28.6006C72.2115 28.4942 72.2265 28.3698 72.1958 28.2527C72.1652 28.1356 72.0912 28.0346 71.989 27.9701C71.8834 27.9092 71.7582 27.8924 71.6404 27.9234C71.5227 27.9543 71.4218 28.0305 71.3597 28.1355C71.0143 28.891 70.5871 29.6063 70.0859 30.2684C69.64 30.8921 69.2428 31.5215 69.0602 32.2768C68.87 33.0001 68.8558 33.7586 69.0188 34.4886C69.2359 35.2846 69.5262 36.0588 69.8861 36.801C69.9483 36.9059 70.0491 36.9821 70.1669 37.013C70.2846 37.0439 70.4098 37.0272 70.5154 36.9664C70.6185 36.9027 70.6931 36.8017 70.7239 36.6843C70.7546 36.5668 70.739 36.4421 70.6803 36.3359L70.6796 36.3368Z" fill="#7E7E7E"/>
<path d="M67.1178 27.0092C67.3456 26.3888 67.5148 25.7484 67.6231 25.0962C67.6567 24.7978 67.7054 24.5012 67.7691 24.2076C67.7783 24.1721 67.7886 24.1368 67.7999 24.1018C67.8208 24.0467 67.8241 24.0352 67.8097 24.0676C67.8229 24.0389 67.8381 24.0111 67.8551 23.9845C67.8298 24.0154 67.836 24.0102 67.873 23.9693C67.9138 23.9322 67.9202 23.9264 67.8921 23.952C67.9185 23.9346 67.946 23.9189 67.9743 23.905C67.8814 23.9461 68.091 23.8631 68.0201 23.8952C67.9883 23.8996 67.9962 23.9008 68.0441 23.8986C67.9872 23.8897 67.9882 23.8926 68.0471 23.9075C68.0073 23.8923 68.0109 23.8975 68.0584 23.9232C68.023 23.8988 68.0251 23.9052 68.0648 23.9424C68.0527 23.8973 68.074 23.9764 68.0803 23.9981C68.0916 24.0365 68.12 24.146 68.1209 24.1537C68.1393 24.4176 68.1355 24.6826 68.1094 24.9459C68.091 25.5092 68.0607 26.0725 68.0184 26.6359C68.0194 26.7578 68.0682 26.8745 68.1542 26.9607C68.2402 27.0469 68.3566 27.0958 68.4783 27.0968C68.5995 27.0945 68.7152 27.0452 68.8009 26.9592C68.8867 26.8733 68.9359 26.7574 68.9382 26.6359C68.9765 26.1227 69.006 25.609 69.0242 25.0947C69.0434 24.5614 69.1254 23.9647 68.8518 23.479C68.7775 23.3534 68.6769 23.2454 68.5568 23.1626C68.4367 23.0798 68.3001 23.0242 68.1565 22.9997C68.0128 22.9751 67.8656 22.9822 67.7249 23.0204C67.5843 23.0586 67.4536 23.127 67.342 23.2209C66.8524 23.596 66.8357 24.2292 66.7479 24.7894C66.6401 25.4632 66.4675 26.125 66.2325 26.7655C66.2011 26.8834 66.2172 27.0088 66.2773 27.1149C66.3373 27.221 66.4366 27.2992 66.5536 27.3326C66.6712 27.3625 66.7957 27.3457 66.9011 27.2857C67.0065 27.2256 67.0847 27.1271 67.1193 27.0106L67.1178 27.0092Z" fill="#7E7E7E"/>
<path d="M9.49892 14.4937C9.2893 14.4037 9.0612 14.3655 8.83379 14.3823C8.69023 14.3916 8.5485 14.4198 8.41222 14.466C8.05411 13.3579 7.86596 12.2017 7.85421 11.037C7.82828 8.79158 8.52733 6.59791 9.8471 4.7832C10.093 5.40428 11.1061 5.93798 11.61 6.29192C12.2961 6.77204 12.2062 7.44939 11.8576 8.09927C11.304 9.13393 10.8585 10.2232 10.5283 11.3497C10.2041 12.4534 10.064 13.5905 9.83043 14.7057C9.73183 14.6179 9.61993 14.5463 9.49892 14.4937Z" fill="#B7B7B7"/>
<path d="M27.4414 13.8569C27.3365 13.9247 27.2427 14.0083 27.1632 14.1048C26.8344 12.9909 26.6075 11.8432 26.1907 10.7459C25.7747 9.64841 25.2466 8.59694 24.615 7.60823C24.2176 6.98696 24.0761 6.3196 24.7234 5.78705C25.2152 5.38241 26.2334 4.74482 26.3837 4.08398C27.6357 5.52587 28.6473 7.52411 28.8654 10.2281C28.9514 11.3859 28.8558 12.5501 28.5822 13.6782C28.4549 13.6494 28.3247 13.6356 28.1941 13.637C27.9275 13.6373 27.6665 13.7135 27.4414 13.8569Z" fill="#B7B7B7"/>
<path d="M29.0538 13.653C29.6643 10.8159 29.3069 7.8069 27.7998 5.29896C26.6297 3.35738 24.8923 1.82322 22.8231 0.904359C20.1198 -0.243517 17.0786 -0.30076 14.3342 0.744576C11.923 1.69277 9.92538 3.46695 8.6962 5.75186C7.46702 8.03677 7.08592 10.6844 7.62062 13.2243C7.70091 13.6324 7.80305 14.0355 7.92128 14.4342C8.08972 15.0015 8.97771 14.7607 8.80831 14.1892C8.04181 11.6052 8.161 8.78499 9.40924 6.36732C10.3787 4.49377 11.9034 2.9671 13.7737 1.9971C16.2071 0.796426 19.0104 0.588517 21.5937 1.41712C23.5824 2.07662 25.3122 3.34916 26.536 5.05295C28.0177 7.14284 28.6691 9.71112 28.363 12.2564C28.3187 12.6436 28.248 13.0273 28.1669 13.4087C28.0424 13.9872 28.9288 14.2345 29.0538 13.6538V13.653Z" fill="#7E7E7E"/>
<path d="M10.1554 14.3794C9.86133 14.1314 9.50048 13.9763 9.11847 13.9338C8.73647 13.8913 8.35046 13.9632 8.00923 14.1405C7.77017 14.2781 7.56469 14.4673 7.40774 14.6945C7.25079 14.9217 7.14631 15.181 7.10189 15.4537C6.9817 16.1082 6.99639 16.7805 7.14504 17.4291C7.2937 18.0778 7.57318 18.6891 7.96631 19.2255C8.52202 19.9871 9.30672 20.5458 10.2863 20.3751C10.4034 20.3417 10.5027 20.2636 10.5628 20.1575C10.623 20.0514 10.639 19.9258 10.6077 19.808C10.5729 19.6916 10.4946 19.5931 10.3892 19.5332C10.2838 19.4732 10.1593 19.4563 10.0418 19.4861C9.37111 19.6031 8.82824 18.9201 8.53218 18.4106C8.23303 17.9169 8.03907 17.3665 7.96248 16.794C7.90097 16.2599 7.89809 15.6192 8.19894 15.1591C8.21695 15.1334 8.21274 15.138 8.1861 15.1725C8.20424 15.1503 8.22341 15.1286 8.24359 15.1074C8.25911 15.0923 8.36201 15.0003 8.33327 15.0214C8.43093 14.9509 8.5417 14.9008 8.65903 14.8739C8.80244 14.8327 8.95345 14.8255 9.10011 14.8529C9.24678 14.8802 9.38508 14.9414 9.50409 15.0316C9.59189 15.115 9.70828 15.1615 9.82928 15.1615C9.95028 15.1615 10.0667 15.115 10.1545 15.0316C10.2399 14.9447 10.2877 14.8276 10.2877 14.7057C10.2877 14.5837 10.2399 14.4666 10.1545 14.3798L10.1554 14.3794Z" fill="#7E7E7E"/>
<path d="M27.5493 14.3615C27.6421 14.274 27.7512 14.2058 27.8703 14.1606C27.9895 14.1154 28.1163 14.0943 28.2437 14.0983C28.371 14.1024 28.4962 14.1316 28.6123 14.1842C28.7283 14.2368 28.8329 14.3119 28.92 14.4051C28.8535 14.3271 28.942 14.4391 28.9535 14.4573C28.9957 14.5231 29.0323 14.5924 29.0629 14.6643C29.1105 14.7877 29.1474 14.9149 29.1731 15.0446C29.238 15.3619 29.2606 15.6864 29.2406 16.0096C29.205 16.5739 29.0556 17.1251 28.8014 17.6299C28.5078 18.2264 28.0285 18.8819 27.2889 18.8108C27.1672 18.8117 27.0507 18.8606 26.9647 18.9468C26.8786 19.0331 26.8299 19.1498 26.829 19.2717C26.8315 19.3932 26.8807 19.509 26.9664 19.5949C27.0521 19.6808 27.1677 19.7301 27.2889 19.7326C28.8196 19.8796 29.6842 18.1984 30.0222 16.9518C30.1975 16.2698 30.215 15.5566 30.0734 14.8668C30.033 14.585 29.9362 14.3143 29.7889 14.0709C29.6415 13.8276 29.4466 13.6166 29.2158 13.4506C28.8544 13.2338 28.4319 13.1418 28.0133 13.1887C27.5947 13.2356 27.2029 13.4188 26.8981 13.7103C26.4731 14.1247 27.1239 14.7763 27.5485 14.3621L27.5493 14.3615Z" fill="#7E7E7E"/>
<path d="M26.8732 18.4875C26.8078 18.8636 26.7168 19.2349 26.6009 19.5986C26.5551 19.7469 26.5066 19.8944 26.4527 20.0403C26.4412 20.0715 26.4292 20.1024 26.4175 20.1335C26.3832 20.2232 26.4704 19.996 26.4006 20.1761C26.3815 20.2234 26.3652 20.271 26.3472 20.3184C26.3362 20.3474 26.3247 20.376 26.314 20.4054C26.3071 20.4235 26.2992 20.4413 26.2922 20.4592C26.2695 20.5168 26.3282 20.3766 26.3023 20.4354C26.2615 20.5281 26.2199 20.6205 26.1762 20.7119C26.0777 20.9174 25.972 21.1193 25.861 21.3184C25.287 22.3932 24.5363 23.3633 23.6405 24.188C23.1586 24.6379 22.5805 24.9713 21.9503 25.1628C21.3799 25.3182 21.6221 26.2077 22.1948 26.0516C23.5192 25.6906 24.5886 24.6812 25.4199 23.6282C26.1368 22.7447 26.727 21.7652 27.1734 20.7181C27.1913 20.6747 27.2089 20.6313 27.2252 20.5873C27.2323 20.5681 27.2681 20.4584 27.2455 20.5233C27.2131 20.6161 27.2715 20.4604 27.2878 20.42C27.3024 20.3835 27.3168 20.347 27.3306 20.3104C27.3645 20.2193 27.3963 20.1275 27.4264 20.0355C27.5711 19.6107 27.6825 19.1753 27.7596 18.7331C27.7884 18.6154 27.7712 18.4911 27.7115 18.3856C27.6518 18.2802 27.5541 18.2017 27.4384 18.1662C27.3209 18.1347 27.1957 18.1507 27.0898 18.211C26.984 18.2712 26.906 18.3707 26.8728 18.488L26.8732 18.4875Z" fill="#7E7E7E"/>
<path d="M9.61715 19.3665C9.95393 20.645 10.5192 21.8516 11.2854 22.928C12.1259 24.0968 13.2093 25.1865 14.5076 25.8356C15.1916 26.1754 15.9309 26.3894 16.6904 26.4676C16.8121 26.4668 16.9286 26.418 17.0147 26.3318C17.1008 26.2455 17.1495 26.1287 17.1503 26.0067C17.1476 25.8853 17.0983 25.7697 17.0126 25.6838C16.9269 25.5979 16.8115 25.5485 16.6904 25.5458C14.1544 25.2687 12.1753 23.0481 11.1367 20.8614C10.8734 20.302 10.6617 19.7196 10.5044 19.1215C10.3511 18.549 9.46385 18.7919 9.61715 19.3665Z" fill="#7E7E7E"/>
<path d="M18.0206 21.7148C18.0831 21.6787 18.1457 21.643 18.2103 21.6107C18.2316 21.6 18.3036 21.5512 18.3253 21.5567C18.2624 21.5824 18.2476 21.5888 18.2808 21.576C18.2946 21.5704 18.3084 21.5648 18.3224 21.5596C18.3471 21.5504 18.3718 21.5416 18.3968 21.5329C18.5201 21.4911 18.6461 21.4579 18.7741 21.4336C18.817 21.4254 18.8599 21.4183 18.903 21.4114C18.8358 21.4221 18.9178 21.4096 18.9444 21.4068C19.0402 21.3966 19.136 21.3901 19.2319 21.3862C19.4044 21.379 19.5773 21.3839 19.7492 21.4008C19.7887 21.4048 19.8424 21.4146 19.7732 21.4029C19.8115 21.4094 19.8498 21.4154 19.8882 21.4231C19.9457 21.4346 20.0031 21.4481 20.0597 21.464C20.1162 21.4799 20.1674 21.4978 20.2208 21.5164C20.3003 21.5443 20.2245 21.5036 20.1992 21.5057C20.2228 21.5132 20.2453 21.5237 20.2662 21.537C20.3302 21.5687 20.3915 21.6055 20.4494 21.6472C20.5549 21.7084 20.6802 21.7253 20.798 21.6944C20.9159 21.6634 21.0168 21.587 21.0787 21.4819C21.137 21.3755 21.1524 21.2509 21.1217 21.1335C21.091 21.0162 21.0166 20.9151 20.9137 20.8512C20.4441 20.5128 19.7904 20.4433 19.2309 20.4644C18.6437 20.475 18.0682 20.6311 17.5559 20.919C17.5038 20.9495 17.4581 20.9901 17.4216 21.0383C17.3851 21.0865 17.3585 21.1415 17.3431 21.2C17.3278 21.2586 17.3242 21.3196 17.3324 21.3796C17.3406 21.4395 17.3605 21.4973 17.391 21.5495C17.4215 21.6018 17.462 21.6475 17.5101 21.6841C17.5582 21.7207 17.613 21.7474 17.6715 21.7628C17.7299 21.7781 17.7908 21.7818 17.8506 21.7736C17.9104 21.7653 17.9681 21.7454 18.0202 21.7148H18.0206Z" fill="#7E7E7E"/>
<path d="M18.6795 17.3254C18.7228 17.4683 18.7628 17.6123 18.8012 17.7567C18.8455 17.9077 18.8805 18.0612 18.9062 18.2165L18.8899 18.094C18.8936 18.1248 18.8942 18.156 18.8916 18.1869L18.9081 18.0644C18.9056 18.0833 18.901 18.1018 18.8945 18.1197L18.9408 18.0097C18.935 18.0221 18.928 18.0339 18.92 18.045L18.9918 17.9517C18.9861 17.9587 18.9797 17.9652 18.9727 17.9709L19.0658 17.8988C19.0389 17.9171 19.0105 17.933 18.9809 17.9463L19.0907 17.8998C19.0551 17.915 19.0179 17.9258 18.9797 17.9321L19.102 17.9155C19.0629 17.9198 19.0235 17.9195 18.9845 17.9146L19.1068 17.9311C19.0332 17.9209 18.9602 17.9079 18.8862 17.9008C18.7642 17.9007 18.6471 17.949 18.5605 18.0352C18.4742 18.1216 18.4258 18.2389 18.4258 18.3611C18.4258 18.4833 18.4742 18.6006 18.5605 18.687C18.6502 18.7684 18.7654 18.8159 18.8862 18.8214C18.8931 18.8214 18.9 18.8222 18.9069 18.8237L18.7847 18.8072C18.8754 18.8255 18.9675 18.8363 19.06 18.8397C19.2077 18.8353 19.3522 18.7958 19.4816 18.7244C19.5594 18.684 19.6277 18.6273 19.6817 18.5581C19.7357 18.4889 19.7742 18.4089 19.7947 18.3235C19.8216 18.1784 19.8163 18.0292 19.7794 17.8864C19.7219 17.6144 19.6487 17.3456 19.5686 17.0798C19.5348 16.965 19.4597 16.8668 19.3578 16.8044C19.2789 16.758 19.1879 16.7364 19.0966 16.7421C19.0053 16.7479 18.9177 16.7808 18.8452 16.8367C18.7727 16.8926 18.7184 16.9689 18.6893 17.0558C18.6603 17.1428 18.6578 17.2364 18.6822 17.3248L18.6795 17.3254Z" fill="#7E7E7E"/>
<path d="M14.2435 15.0581C14.1174 15.5327 14.2527 16.6081 15.1428 16.6658C16.3144 16.6135 16.3268 15.3066 15.9093 14.7086C15.5666 14.2189 14.6089 14.0464 14.2435 15.0581Z" fill="#7E7E7E"/>
<path d="M23.6276 14.6963C23.7897 15.1597 23.7372 16.2422 22.854 16.3682C21.6818 16.4066 21.5701 15.1042 21.9405 14.4756C22.2436 13.9615 23.1855 13.7157 23.6276 14.6963Z" fill="#7E7E7E"/>
<path d="M18.0291 17.026C18.7826 15.6692 18.6475 13.6401 17.0518 12.9589C16.2883 12.6556 15.4671 12.5258 14.6475 12.579C13.891 12.6153 13.0724 12.7369 12.4212 13.1498C11.7924 13.5278 11.3361 14.1374 11.15 14.8482C11.0258 15.471 11.0888 16.1166 11.3311 16.7034C11.5816 17.3053 11.9982 17.8231 12.5321 18.196C13.0659 18.5689 13.6948 18.7815 14.345 18.8088C15.0812 18.8683 15.821 18.7526 16.5042 18.471C17.1523 18.1634 17.6863 17.6574 18.0291 17.026C18.3286 16.5131 17.534 16.0485 17.2348 16.5607C17.0066 16.9857 16.6635 17.3377 16.2449 17.5765C15.8468 17.7689 15.4121 17.8737 14.9702 17.8837C13.9876 17.9371 12.9846 17.6825 12.4174 16.8131C11.904 16.0257 11.8121 14.9527 12.5174 14.2425C12.9229 13.834 13.428 13.6681 13.982 13.5704C14.6447 13.4518 15.3237 13.46 15.9833 13.5944C16.5661 13.7179 17.1875 13.9339 17.4374 14.5546C17.6984 15.202 17.564 15.9679 17.2348 16.5607C16.9468 17.0796 17.7407 17.545 18.0291 17.026Z" fill="#7E7E7E"/>
<path d="M20.7627 16.4557C20.1597 15.5435 20.048 14.0814 21.2148 13.5671C21.8103 13.315 22.4493 13.1819 23.0958 13.1752C23.6898 13.1621 24.3474 13.1913 24.8796 13.4824C25.1031 13.5943 25.3018 13.7503 25.4636 13.941C25.6255 14.1318 25.7472 14.3534 25.8214 14.5925C25.9212 15.0274 25.8946 15.4818 25.7448 15.902C25.5877 16.3389 25.3121 16.7231 24.949 17.0115C24.5859 17.2999 24.1497 17.481 23.6894 17.5344C23.1253 17.625 22.5483 17.5909 21.9987 17.4346C21.4894 17.2546 21.0543 16.91 20.7618 16.4551C20.698 16.3519 20.5972 16.2773 20.4801 16.2465C20.363 16.2157 20.2385 16.2312 20.1325 16.2898C20.0279 16.3522 19.9521 16.4533 19.9212 16.5713C19.8903 16.6892 19.907 16.8146 19.9675 16.9204C20.3233 17.4745 20.8282 17.9165 21.4238 18.1954C22.0288 18.4374 22.6813 18.536 23.3305 18.4835C24.6492 18.4148 25.9188 17.7833 26.4808 16.53C26.742 15.9574 26.8415 15.3238 26.7682 14.6985C26.7186 14.3375 26.5949 13.9908 26.4049 13.6801C26.215 13.3694 25.963 13.1015 25.6647 12.8932C25.0476 12.435 24.3068 12.2969 23.5547 12.2595C22.7307 12.211 21.9054 12.3313 21.1293 12.613C20.3534 12.9055 19.6626 13.4772 19.47 14.3251C19.3746 14.769 19.3696 15.2277 19.4552 15.6736C19.5408 16.1195 19.7153 16.5435 19.9683 16.9203C20.294 17.4132 21.091 16.9521 20.7627 16.4557Z" fill="#7E7E7E"/>
<path d="M18.0087 15.3116L19.8412 15.2412C19.9632 15.2412 20.0802 15.1926 20.1664 15.1062C20.2527 15.0197 20.3011 14.9025 20.3011 14.7802C20.3011 14.658 20.2527 14.5408 20.1664 14.4543C20.0802 14.3679 19.9632 14.3193 19.8412 14.3193L18.0087 14.3898C17.8868 14.3898 17.7698 14.4384 17.6835 14.5248C17.5973 14.6113 17.5488 14.7285 17.5488 14.8507C17.5488 14.973 17.5973 15.0902 17.6835 15.1766C17.7698 15.2631 17.8868 15.3116 18.0087 15.3116Z" fill="#7E7E7E"/>
<path d="M12.8105 11.0232C12.7292 11.1094 12.6406 11.1883 12.5456 11.2589L12.6388 11.1867C12.4285 11.3595 12.1973 11.5052 11.9508 11.6203L12.0606 11.5738C12.037 11.584 12.0128 11.5927 11.9882 11.6C11.8734 11.6333 11.7753 11.7087 11.7134 11.8112C11.6672 11.8903 11.6456 11.9815 11.6513 12.073C11.657 12.1645 11.6899 12.2523 11.7456 12.325C11.8014 12.3977 11.8775 12.452 11.9643 12.4812C12.0511 12.5103 12.1445 12.5128 12.2327 12.4884C12.4597 12.411 12.6731 12.2983 12.8651 12.1544C12.9944 12.0666 13.1192 11.972 13.241 11.8742C13.3194 11.8138 13.3927 11.7471 13.4603 11.6747C13.5443 11.5866 13.5922 11.47 13.5944 11.3482C13.5938 11.226 13.5457 11.1089 13.4603 11.0217C13.374 10.9353 13.257 10.8867 13.1351 10.8867C13.0131 10.8867 12.8961 10.9353 12.8099 11.0217L12.8105 11.0232Z" fill="#7E7E7E"/>
<path d="M15.7051 20.4315C15.5527 20.7512 15.4328 21.0853 15.3472 21.429C15.3164 21.549 15.333 21.6762 15.3935 21.7841C15.424 21.8364 15.4645 21.8822 15.5126 21.9188C15.5607 21.9554 15.6156 21.9821 15.674 21.9975C15.7324 22.0128 15.7933 22.0165 15.8532 22.0083C15.913 22 15.9707 21.9801 16.0228 21.9495C16.1251 21.8874 16.2003 21.7891 16.2336 21.6741C16.3011 21.4137 16.3865 21.1583 16.4892 20.9097L16.4429 21.02C16.4605 20.9783 16.4787 20.9372 16.4986 20.8969C16.5582 20.7885 16.5748 20.6616 16.545 20.5416C16.529 20.4832 16.5016 20.4286 16.4645 20.3808C16.4274 20.3331 16.3812 20.2931 16.3287 20.2632C16.2762 20.2333 16.2183 20.2141 16.1583 20.2066C16.0984 20.1992 16.0376 20.2036 15.9793 20.2197C15.8636 20.2513 15.7649 20.3271 15.7045 20.431L15.7051 20.4315Z" fill="#7E7E7E"/>
<path d="M22.6035 25.212V26.1492C22.6048 26.2713 22.6528 26.3882 22.7377 26.4757C22.802 26.5404 22.884 26.5845 22.9734 26.6024C23.0627 26.6202 23.1554 26.6111 23.2396 26.5761C23.3237 26.5412 23.3956 26.4819 23.4462 26.4059C23.4967 26.3299 23.5235 26.2406 23.5233 26.1492V25.212C23.5221 25.09 23.4741 24.9731 23.3892 24.8856C23.3249 24.8209 23.2428 24.7768 23.1534 24.7589C23.0641 24.741 22.9714 24.7502 22.8873 24.7851C22.8031 24.8201 22.7312 24.8794 22.6807 24.9554C22.6301 25.0314 22.6033 25.1207 22.6035 25.212Z" fill="#7E7E7E"/>
<path d="M9.8734 28.9533C7.63465 29.7158 6.20897 30.3603 4.87201 31.2855C3.58257 32.1772 2.804 33.3472 2.12546 35.0249C0.962302 39.2182 0.742317 41.8266 0.529423 45.974C0.386698 48.0604 0.461001 50.156 0.751132 52.2269C0.975946 53.6667 1.63648 55.0026 2.64342 56.054C3.91791 57.3703 6.72329 57.6232 7.89392 57.5316C10.9126 57.2956 14.7263 56.6242 18.2729 55.7212C20.1372 55.9781 22.1985 56.1266 24.1607 56.2299C26.8298 56.3707 29.1165 56.4997 31.9535 56.1892C33.763 55.9912 35.8279 54.8022 36.5312 53.5412C37.3935 51.9949 37.6384 50.7237 37.734 48.7188C37.8659 46.1468 37.7911 43.5684 37.5102 41.0085C37.2153 38.4101 36.8817 35.7848 35.647 33.4489C35.2447 32.6787 34.7491 31.9611 34.1715 31.3124C33.5802 30.6775 32.8896 30.1435 32.1267 29.7315C30.0598 28.5258 27.6325 28.0052 25.3206 27.5068C24.4753 29.1584 23.5845 30.8707 22.2698 32.2982C21.6276 31.7144 19.5606 29.4997 19.4793 29.4054L18.8023 29.429C18.728 29.5289 16.82 31.8826 16.22 32.5098C14.824 31.1918 13.8224 29.566 12.8735 27.9939C11.7241 28.3459 10.738 28.6587 9.8734 28.9533Z" fill="#3DA89A"/>
<path d="M22.8487 50.9961C22.4191 49.3241 21.9134 47.4457 21.5742 46.3246C22.9118 45.7081 23.5732 45.5289 24.8627 45.1558C25.9204 44.8496 27.0503 44.5295 28.5081 44.5293C29.4776 44.5293 30.5148 44.9499 31.2342 45.2038L31.4521 45.2806C31.2675 47.2512 31.0608 49.1716 30.8741 50.5427L30.661 50.7347C30.661 50.7347 29.8528 51.4631 29.2543 51.5797C28.3706 51.7526 24.0211 52.0583 23.2182 51.6494L22.9859 51.5311C22.9411 51.3562 22.8953 51.1774 22.8487 50.9961Z" fill="white"/>
<path d="M5.73552 43.4983C5.70926 43.4512 5.68512 43.4036 5.66385 43.3548C5.6075 43.2272 5.5884 43.0861 5.60874 42.948C5.62909 42.8099 5.68806 42.6804 5.77882 42.5745C5.88541 42.4631 6.01764 42.3795 6.16394 42.3312C6.31024 42.2829 6.46613 42.2713 6.61794 42.2974C6.61794 42.2974 6.72487 42.3086 6.85326 42.3228C6.75872 42.2153 6.67893 42.0957 6.61603 41.9671C6.53706 41.8059 6.50784 41.6248 6.53211 41.4469C6.55638 41.2691 6.63303 41.1025 6.75227 40.9685C6.8699 40.8627 7.00921 40.7841 7.1604 40.7381C7.3116 40.6921 7.471 40.6799 7.62742 40.7023C7.99534 40.7548 8.3392 40.9163 8.61486 41.1661C10.0494 42.4392 12.6899 45.0199 14.0242 46.3682C14.0242 46.3682 14.2816 46.6158 14.5552 46.8716C11.6732 47.3734 8.73386 47.8875 7.36145 48.1416L7.22463 47.9705C6.79884 47.4379 6.44146 46.9507 5.98271 46.3602C5.82613 46.1841 5.70102 45.9823 5.61288 45.7637C5.57487 45.6377 5.56624 45.5046 5.58763 45.3748C5.60903 45.2449 5.65989 45.1217 5.73628 45.0147C6.03004 44.6869 6.41501 44.7458 6.93623 44.8392C6.7243 44.6208 6.51217 44.4026 6.29774 44.1877C6.08041 43.9841 5.89132 43.7523 5.73552 43.4983Z" fill="white"/>
<path d="M30.3366 50.4083C30.0231 50.6892 29.6133 51.0253 29.1587 51.129C29.0924 51.1442 29.0246 51.1534 28.9575 51.1641C28.9384 51.1672 28.9192 51.1695 28.9012 51.1722C28.8399 51.1814 28.997 51.1601 28.9318 51.1682C28.8811 51.1745 28.8303 51.181 28.7795 51.1874C28.5572 51.2135 28.3342 51.2352 28.1113 51.2546C26.946 51.3667 25.775 51.4097 24.6046 51.3833C24.34 51.375 24.0755 51.3598 23.8124 51.3291C23.7233 51.3187 23.8092 51.3291 23.8249 51.331C23.7908 51.3257 23.7567 51.3207 23.7227 51.3147C23.6766 51.3065 23.6304 51.2974 23.5848 51.2867C23.5447 51.2773 23.5056 51.265 23.466 51.2546C23.4504 51.2508 23.4351 51.2417 23.4198 51.2391C23.3431 51.225 23.52 51.2853 23.4504 51.2515C23.3444 51.1929 23.2199 51.1773 23.1028 51.2081C22.9857 51.2389 22.8848 51.3136 22.8211 51.4169C22.7607 51.5227 22.7441 51.648 22.7749 51.766C22.8058 51.8839 22.8816 51.9849 22.9861 52.0474C23.4023 52.2138 23.847 52.2969 24.2951 52.2918C24.9028 52.326 25.5131 52.3168 26.1211 52.2963C27.1979 52.2896 28.2727 52.2012 29.3362 52.0318C29.953 51.9149 30.5279 51.4716 30.9866 51.0606C31.4287 50.6643 30.7758 50.0142 30.3363 50.4086L30.3366 50.4083Z" fill="#7E7E7E"/>
<path d="M22.1266 46.5778C22.8011 46.2841 23.4937 46.0339 24.2001 45.8288C24.9386 45.6099 25.6793 45.3837 26.4324 45.2197C27.2308 45.0234 28.0548 44.9525 28.875 45.0094C29.6474 45.0875 30.3867 45.391 31.1128 45.6485C31.2303 45.6798 31.3554 45.6635 31.4612 45.6034C31.567 45.5432 31.645 45.4438 31.6784 45.3266C31.7085 45.2088 31.6918 45.0839 31.6319 44.9782C31.572 44.8725 31.4736 44.7941 31.3573 44.7595C30.5574 44.4759 29.7657 44.1811 28.9158 44.0916C28.0253 44.0291 27.1305 44.1044 26.2628 44.3147C25.4836 44.4795 24.7187 44.7138 23.9556 44.9398C23.174 45.1712 22.408 45.4527 21.6623 45.7824C21.5576 45.8446 21.4816 45.9457 21.4507 46.0637C21.4198 46.1817 21.4365 46.3071 21.4973 46.4128C21.5609 46.5162 21.6617 46.591 21.7789 46.6218C21.8961 46.6525 22.0206 46.6369 22.1266 46.5782V46.5778Z" fill="#7E7E7E"/>
<path d="M14.3471 46.0433C12.9199 44.6016 11.4656 43.1869 9.98437 41.799C9.27536 41.1359 8.48222 40.1841 7.4189 40.2375C6.78654 40.2694 6.21052 40.6468 6.0898 41.3014C5.96562 41.9736 6.35462 42.5065 6.8126 42.9494C7.78069 43.8858 8.73498 44.8364 9.70134 45.7748C10.1266 46.1879 10.7777 45.5368 10.3517 45.123C9.58828 44.3817 8.83175 43.6335 8.07368 42.8868C7.88206 42.6978 7.68641 42.5125 7.4921 42.3258C7.30227 42.1709 7.14342 41.9813 7.02396 41.7672C6.83368 41.3375 7.25066 41.1031 7.62509 41.1643C8.03172 41.2308 8.32931 41.5282 8.62153 41.7931C8.93388 42.0769 9.24355 42.3637 9.55053 42.6535C10.2571 43.3179 10.957 43.9895 11.6502 44.6682C12.3374 45.3387 13.0197 46.0144 13.6969 46.6953C14.1144 47.1178 14.765 46.4648 14.3475 46.0435L14.3471 46.0433Z" fill="#7E7E7E"/>
<path d="M6.61701 41.8374C6.34641 41.8005 6.07104 41.8479 5.8283 41.9733C5.58557 42.0987 5.38725 42.296 5.26031 42.5384C4.97766 43.1473 5.27353 43.72 5.67 44.19C6.0452 44.6353 6.48402 45.0367 6.89026 45.4536C7.30398 45.878 7.72268 46.2975 8.16341 46.694C8.60415 47.0906 9.25567 46.4394 8.81379 46.0422C8.10478 45.4041 7.4546 44.705 6.78506 44.0258C6.62755 43.866 6.46486 43.71 6.32037 43.5378C6.19784 43.4145 6.10879 43.2618 6.06168 43.0943C6.01895 42.7884 6.37192 42.7266 6.61739 42.7584C6.73919 42.7579 6.85585 42.7091 6.94198 42.6228C7.0281 42.5365 7.07673 42.4196 7.07729 42.2975C7.07432 42.1762 7.02492 42.0607 6.93931 41.9749C6.85369 41.8891 6.73843 41.8396 6.61739 41.8366L6.61701 41.8374Z" fill="#7E7E7E"/>
<path d="M6.63342 44.3288C6.1877 44.2711 5.72723 44.3395 5.4099 44.6887C5.26461 44.8628 5.16828 45.0726 5.13082 45.2964C5.09336 45.5202 5.11615 45.75 5.19681 45.9621C5.37234 46.4096 5.72723 46.7762 6.01562 47.1545C6.30728 47.5373 6.59816 47.9204 6.89825 48.2964C6.98486 48.3822 7.10169 48.4303 7.22343 48.4303C7.34517 48.4303 7.462 48.3822 7.54862 48.2964C7.63223 48.2086 7.67889 48.0919 7.67889 47.9705C7.67889 47.8492 7.63223 47.7325 7.54862 47.6446C7.32058 47.3591 7.13126 47.1115 6.91147 46.8227C6.67462 46.5118 6.40654 46.187 6.19786 45.8884C6.15113 45.8242 6.10911 45.7567 6.07215 45.6863C6.07215 45.6875 6.05031 45.6209 6.04456 45.6047C6.01582 45.5252 6.04169 45.6408 6.039 45.5872C6.03709 45.5513 6.03747 45.516 6.03689 45.4799C6.03536 45.3952 6.02789 45.4991 6.03824 45.4503C6.04571 45.415 6.05529 45.381 6.06487 45.346C6.04897 45.4048 6.05682 45.3591 6.07656 45.3251C6.11086 45.2658 5.99685 45.4094 6.09247 45.3059C6.1467 45.2483 6.08442 45.3072 6.11834 45.2815C6.14631 45.2602 6.1992 45.2366 6.13654 45.2623C6.16816 45.2492 6.20207 45.2431 6.23446 45.2331C6.28141 45.2185 6.17103 45.2308 6.25784 45.2287C6.29501 45.2287 6.3318 45.2258 6.36898 45.2266C6.45749 45.2293 6.54578 45.2371 6.63342 45.2498C6.75519 45.2492 6.87179 45.2004 6.95789 45.1141C7.044 45.0278 7.09266 44.9109 7.09332 44.7889C7.09035 44.6676 7.04095 44.5521 6.95534 44.4663C6.86972 44.3805 6.75446 44.331 6.63342 44.328V44.3288Z" fill="#7E7E7E"/>
<path d="M31.4943 38.7361C31.31 42.4093 30.9717 46.0897 30.5199 49.7403C30.4358 50.4194 30.3572 51.0599 30.219 51.7803C30.1898 51.898 30.2068 52.0225 30.2666 52.128C30.3264 52.2335 30.4243 52.312 30.5402 52.3472C30.6578 52.3785 30.7829 52.3624 30.8887 52.3022C30.9945 52.242 31.0725 52.1426 31.1059 52.0253C31.3922 50.5327 31.5353 49.0063 31.694 47.4963C31.9021 45.517 32.0809 43.5349 32.2305 41.5499C32.3014 40.6131 32.3666 39.6756 32.4137 38.737C32.4434 38.1442 31.5234 38.1457 31.4939 38.737L31.4943 38.7361Z" fill="#7E7E7E"/>
<path d="M12.9289 27.4949C10.35 28.2848 7.64369 29.0338 5.3189 30.4461C4.16203 31.1142 3.19113 32.0628 2.49532 33.2049C2.07296 33.905 1.74876 34.66 1.53183 35.4487C1.30361 36.3051 1.09704 37.1674 0.921512 38.0362C0.61099 39.6066 0.392865 41.194 0.268265 42.7901C0.137769 44.3793 0.0383165 45.9781 0.00803989 47.5721C-0.0239613 49.2596 0.0289269 51.0055 0.362353 52.6644C0.515887 53.4088 0.780762 54.1258 1.14801 54.7909C1.51352 55.499 2.01221 56.1296 2.61662 56.648C3.66921 57.4899 5.06117 57.8108 6.37379 57.9508C7.59425 58.0812 8.80838 57.9249 10.02 57.7715C13.269 57.356 16.4842 56.709 19.6415 55.8356C20.408 55.6248 21.1696 55.3985 21.9264 55.1569C22.2744 55.0452 22.6211 54.9294 22.9665 54.8097C23.3645 54.6715 23.8208 54.5656 23.9739 54.1184C24.0714 53.8336 23.9789 53.5495 23.9126 53.2691C23.8532 53.0187 23.7926 52.7687 23.7309 52.519C23.5809 51.9089 23.4271 51.2999 23.2695 50.6919C22.9454 49.4361 22.6136 48.182 22.2568 46.9352C22.1868 46.691 22.1159 46.4471 22.0423 46.2039C21.9505 45.9005 21.871 45.5857 21.5872 45.4019C21.186 45.1423 20.6013 45.351 20.1613 45.4284C17.9879 45.8106 15.8138 46.1897 13.639 46.5656C11.5948 46.922 9.54958 47.2744 7.5084 47.6483C7.25411 47.6948 6.99964 47.7416 6.74593 47.7914C6.62896 47.8249 6.52979 47.903 6.46973 48.0091C6.40967 48.1151 6.39353 48.2405 6.42477 48.3583C6.45929 48.4748 6.53747 48.5734 6.64292 48.6335C6.74836 48.6935 6.8729 48.7103 6.99044 48.6804C8.61426 48.3621 10.248 48.0902 11.8769 47.8048C14.1298 47.4104 16.3832 47.0178 18.637 46.627C19.0996 46.5463 19.5621 46.4656 20.0247 46.3846C20.3864 46.3466 20.7449 46.2834 21.0978 46.1955C21.1614 46.1745 21.1308 46.2014 21.1269 46.1907C21.1474 46.2483 21.0482 46.1419 21.0639 46.1415C21.0403 46.1415 21.0606 46.1 21.0639 46.1542C21.0854 46.2627 21.118 46.3687 21.1612 46.4705C21.2325 46.7067 21.3019 46.9436 21.3693 47.1811C21.5322 47.7502 21.6901 48.3207 21.843 48.8928C22.1731 50.1175 22.4912 51.3455 22.7973 52.5768C22.8598 52.8295 22.9215 53.0824 22.9824 53.3354C23.007 53.4378 23.0312 53.5402 23.0552 53.6427L23.088 53.783C23.0993 53.8322 23.1263 53.9213 23.1055 53.8174C23.0945 53.7638 23.1741 53.7748 23.0568 53.8036C22.978 53.8228 22.8993 53.8595 22.8228 53.8864C22.6413 53.9504 22.4594 54.0127 22.2771 54.0734C21.9367 54.1875 21.5951 54.2979 21.2523 54.4045C18.2334 55.335 15.1536 56.0537 12.0351 56.5554C10.6461 56.7826 9.24298 56.9833 7.83857 57.0751C6.74017 57.1401 5.63938 56.9972 4.5938 56.6538C4.05122 56.4962 3.54676 56.2285 3.11178 55.8673C2.56542 55.3505 2.12086 54.7353 1.80126 54.0538C1.11467 52.6617 1.01905 51.0447 0.951022 49.5183C0.904676 48.0105 0.934352 46.5013 1.03994 44.9965C1.12655 43.4538 1.23271 41.9086 1.44886 40.3778C1.68295 38.7677 2.01489 37.1735 2.44282 35.6039C2.80603 34.2431 3.55535 33.017 4.59993 32.0745C5.40988 31.4123 6.30846 30.8672 7.26944 30.4551C8.41444 29.947 9.58802 29.5062 10.7842 29.135C11.5779 28.8758 12.3747 28.6284 13.1734 28.3839C13.7379 28.2111 13.4972 27.3209 12.9289 27.4951V27.4949Z" fill="#7E7E7E"/>
<path d="M25.2742 27.9672C26.9154 28.3213 28.5665 28.6793 30.1365 29.2875C31.6085 29.8575 33.0401 30.6702 34.0661 31.8928C36.2782 34.5273 36.7471 38.0782 37.0918 41.3826C37.2806 43.2256 37.3603 45.0783 37.3308 46.9308C37.3088 48.4956 37.307 50.1253 36.8548 51.6373C36.6705 52.2788 36.398 52.8915 36.0452 53.4577C35.6699 53.9878 35.1832 54.4291 34.6193 54.7504C33.9818 55.1478 33.285 55.4406 32.5553 55.6176C31.7433 55.7794 30.9181 55.8665 30.0903 55.8779C28.4061 55.9429 26.7196 55.922 25.0375 55.8153C23.2504 55.7231 21.4632 55.6213 19.6836 55.4312C19.2543 55.3853 18.8257 55.3351 18.3979 55.2766C18.2805 55.2482 18.1567 55.2656 18.0516 55.3254C17.9466 55.3852 17.8681 55.4828 17.8323 55.5984C17.8007 55.7163 17.8167 55.8418 17.8768 55.9479C17.9369 56.0541 18.0363 56.1322 18.1534 56.1654C20.026 56.4217 21.9108 56.5665 23.7971 56.6712C25.5467 56.7682 27.2993 56.8692 29.0521 56.8356C30.7876 56.8022 32.5663 56.7436 34.1738 56.0269C34.8773 55.7181 35.5273 55.299 36.0994 54.7855C36.6132 54.2962 37.0206 53.7058 37.2961 53.0513C37.9501 51.6171 38.1345 50.0925 38.2036 48.5309C38.2929 46.6016 38.2689 44.6687 38.1318 42.7423C38.0136 40.9019 37.7785 39.0709 37.4279 37.2605C37.0767 35.5321 36.4993 33.8342 35.5355 32.3474C35.0776 31.6131 34.5161 30.9492 33.8683 30.3762C33.2226 29.8405 32.5169 29.3821 31.7653 29.0102C30.2003 28.2145 28.4979 27.7461 26.7938 27.3586C26.3695 27.2625 25.9443 27.1702 25.5189 27.0784C24.9417 26.9537 24.6949 27.8421 25.2744 27.9672H25.2742Z" fill="#7E7E7E"/>
<path d="M22.5947 32.6245C23.5599 31.5269 24.3858 30.3138 25.0536 29.0129C25.2173 28.7087 25.3769 28.4023 25.5352 28.0951C25.6283 27.9142 25.7686 27.7192 25.74 27.5086C25.6878 27.3225 25.5944 27.1506 25.4666 27.0058C25.0552 26.3984 24.5556 25.856 23.9842 25.3966C23.8967 25.3126 23.7802 25.2656 23.659 25.2656C23.5378 25.2656 23.4213 25.3126 23.3338 25.3966C22.6928 26.1075 21.9825 26.7523 21.2135 27.3215C20.8297 27.6043 20.4309 27.8661 20.0189 28.1058C19.6613 28.313 19.0991 28.4644 18.9757 28.909C18.831 29.4298 19.1712 29.754 19.4875 30.0918C19.8851 30.5172 20.2855 30.9402 20.6886 31.3608C21.0991 31.7887 21.5067 32.225 21.9444 32.6245C22.382 33.0239 23.0332 32.3735 22.5947 31.9727C21.8282 31.2719 21.1267 30.4924 20.4158 29.7363C20.2728 29.5842 20.1302 29.4318 19.9881 29.2792C19.9469 29.2351 19.9064 29.1905 19.865 29.1465C19.8236 29.1025 19.7692 29.0684 19.852 29.1388C19.8723 29.1561 19.8562 29.1667 19.8618 29.1842C19.8286 29.0814 19.8725 29.1331 19.8618 29.154C19.7566 29.3756 19.7315 29.2754 19.8392 29.2481C19.8891 29.2286 19.937 29.2043 19.9823 29.1757C20.1759 29.076 20.3663 28.9708 20.5537 28.8602C20.9404 28.632 21.3149 28.3831 21.6768 28.1175C22.5127 27.5068 23.2854 26.8137 23.9834 26.0486H23.3331C23.9485 26.5396 24.4753 27.1328 24.8906 27.8024V27.3371C24.0541 28.9695 23.1886 30.6103 21.9436 31.9727C21.5452 32.4094 22.1938 33.0631 22.5947 32.6245Z" fill="#7E7E7E"/>
<path d="M16.545 32.184C15.2056 30.9095 14.2264 29.3438 13.2763 27.7711V28.2362C13.6413 27.5381 14.1233 26.9079 14.7012 26.3734H14.0509C14.7166 27.01 15.4371 27.5865 16.2039 28.0962C16.5805 28.3459 16.9685 28.58 17.3679 28.7924C17.5382 28.8831 17.7106 28.9697 17.8852 29.0524C17.9831 29.0989 18.0817 29.1437 18.1811 29.1869C18.2304 29.2084 18.2796 29.2293 18.3291 29.2504L18.4389 29.2969C18.5283 29.3438 18.537 29.3393 18.4651 29.2835C18.4902 29.3278 18.403 29.2091 18.4057 29.212C18.4084 29.2149 18.4021 29.14 18.4042 29.2047C18.4057 29.247 18.4513 29.1337 18.4645 29.1187C18.4329 29.1544 18.4046 29.1938 18.3747 29.231C18.2642 29.3685 18.153 29.5057 18.0412 29.6424C17.6866 30.0777 17.3293 30.5113 16.9693 30.9431C16.619 31.3622 16.2712 31.7881 15.8947 32.1834C15.4863 32.6128 16.1357 33.2657 16.545 32.8352C17.3071 32.0336 17.9937 31.1515 18.6912 30.2942C18.9363 29.9935 19.2981 29.6618 19.3211 29.2539C19.3355 29.0504 19.2733 28.8488 19.1469 28.6889C18.9911 28.5003 18.7502 28.4392 18.5337 28.3415C18.1043 28.1466 17.6861 27.9277 17.2811 27.6858C16.3493 27.131 15.4835 26.4717 14.7005 25.7206C14.6129 25.6367 14.4964 25.5898 14.3753 25.5898C14.2541 25.5898 14.1376 25.6367 14.0501 25.7206C13.5102 26.217 13.0474 26.7913 12.6767 27.4246C12.5768 27.5655 12.4956 27.7188 12.4351 27.8806C12.3688 28.1225 12.5345 28.324 12.6516 28.5172C12.8305 28.8126 13.0119 29.1066 13.196 29.3993C13.9508 30.6515 14.8569 31.8055 15.8939 32.8352C16.3239 33.2442 16.9754 32.5934 16.545 32.184Z" fill="#7E7E7E"/>
<path d="M79.081 37.5727C79.0555 39.4918 78.9198 41.4079 78.6747 43.3114C78.4576 45.1455 78.0484 46.9516 77.4539 48.6998C76.9286 50.164 76.0788 51.7192 74.7712 52.6226C73.5456 53.4334 72.0679 53.7705 70.6129 53.5711C69.944 53.4841 69.2991 53.2644 68.7158 52.925C68.0831 52.5272 67.5387 52.0033 67.1163 51.386C66.7141 50.8026 66.3919 50.1678 66.1582 49.4986C65.8415 48.6487 65.5697 47.7824 65.3296 46.908C64.8561 45.1478 64.479 43.3628 64.2 41.5613C64.0677 40.7347 63.9499 39.906 63.8467 39.075C63.823 38.8861 63.8 38.697 63.7777 38.5077C63.7645 38.395 63.7296 38.3067 63.8275 38.2538C63.9255 38.2215 64.0271 38.2017 64.1301 38.1947L64.4451 38.135L65.1309 38.0044C66.0692 37.8251 67.0076 37.6459 67.9459 37.4666C68.4031 37.3802 68.8605 37.2947 69.3181 37.2101C69.5323 37.1708 69.7467 37.1316 69.9612 37.0927C70.1708 37.0313 70.3864 36.9927 70.6043 36.9775C70.7262 36.9852 70.7154 37.081 70.747 37.1943C70.8061 37.406 70.8656 37.6176 70.9256 37.8292C71.0254 38.1814 71.1262 38.5335 71.228 38.8855C71.426 39.5722 71.6233 40.259 71.8121 40.9484C71.9336 41.3921 72.0526 41.8364 72.1691 42.2814C72.3197 42.8547 73.2071 42.6116 73.0559 42.0364C72.6322 40.4232 72.1607 38.8258 71.71 37.2208C71.5777 36.7501 71.4522 36.2554 70.921 36.0997C70.6776 36.0478 70.4253 36.0549 70.1852 36.1204C69.9494 36.1623 69.7136 36.2046 69.4777 36.2475C68.4753 36.4302 67.4743 36.6205 66.4736 36.812L65.0094 37.0923C64.5478 37.1805 64.0705 37.2408 63.6146 37.3574C63.3844 37.4139 63.1814 37.5496 63.0409 37.7408C62.9003 37.932 62.8312 38.1666 62.8456 38.4036C62.8751 38.8344 62.9501 39.2678 63.0066 39.6957C63.2574 41.5905 63.5667 43.479 63.9902 45.3419C64.2098 46.309 64.4599 47.2699 64.753 48.2174C65.0055 49.0871 65.3169 49.9385 65.6851 50.7657C66.0315 51.4952 66.493 52.1639 67.0518 52.7463C67.638 53.3639 68.3581 53.838 69.1564 54.1321C70.6725 54.6811 72.3334 54.6756 73.8458 54.1165C75.52 53.5075 76.7495 52.2066 77.5873 50.6577C78.4781 49.0111 78.9382 47.1408 79.2795 45.3117C79.654 43.2352 79.8804 41.1345 79.9569 39.0257C79.9773 38.5415 79.9918 38.057 80.0004 37.5723C80.0113 36.9788 79.0915 36.9788 79.0806 37.5723L79.081 37.5727Z" fill="#7E7E7E"/>
</g>
<defs>
<clipPath id="clip0_640_5769">
<rect width="80" height="58" fill="white"/>
</clipPath>
</defs>
</svg>
