<svg width="569" height="558" viewBox="0 0 569 558" fill="none" xmlns="http://www.w3.org/2000/svg">
<g opacity="0.25">
<path d="M185.388 62.4449C186.405 62.9369 186.886 64.1471 186.493 65.1899C186.104 66.2237 184.943 66.6951 183.949 66.2475L181.474 65.1171C181.55 65.7646 181.116 66.4546 180.438 66.6379L174.578 68.2355C173.95 68.4092 173.302 68.1181 172.965 67.6439L171.406 69.8783C170.823 70.7625 169.592 70.9889 168.698 70.3566C167.853 69.7147 167.618 68.4789 168.25 67.585L173.573 59.8403C174.416 58.5815 176.096 58.1166 177.464 58.7785L185.384 62.4539L185.388 62.4449ZM187.105 80.0933C188.397 79.7409 189.7 80.5154 190.038 81.7677L192.895 92.2362C193.247 93.5286 192.522 94.8665 191.23 95.2189L183.975 97.197C182.682 97.5494 181.33 96.7844 180.982 95.483L179.911 91.5434C179.755 92.3013 179.492 93.0516 179.063 93.7326L178.211 94.9424C177.609 95.7733 176.387 96.004 175.542 95.3621C174.648 94.7298 174.481 93.5378 175.064 92.6536L176.279 90.8754L171.261 72.4742C170.89 71.1284 171.674 69.83 172.975 69.482L182.726 66.8226C184.019 66.4702 185.357 67.1951 185.719 68.5366L187.842 76.3177C188.195 77.6101 187.43 78.9619 186.128 79.31L177.67 81.617L178.196 83.5377C178.464 82.8454 179.038 82.2788 179.858 82.0534L187.113 80.0753L187.105 80.0933ZM174.592 65.2432L179.16 63.998L176.379 62.6972L174.601 65.2475L174.592 65.2432ZM182.381 70.1323L175.076 72.12L175.56 73.8982L182.865 71.9105L182.381 70.1323ZM176.848 78.6088L184.152 76.6211L183.678 74.892L176.373 76.8797L176.848 78.6088ZM187.791 59.1081C188.852 58.8214 189.947 59.4511 190.238 60.5028L196.595 83.8062C196.882 84.8669 196.252 85.9619 195.2 86.253C194.14 86.5398 193.044 85.9101 192.753 84.8584L186.396 61.555C186.109 60.4943 186.739 59.3992 187.791 59.1081ZM193.094 53.2198C194.155 52.9331 195.303 53.5441 195.6 54.6539L205.124 89.5756C205.41 90.6363 204.75 91.7944 203.69 92.0811C202.589 92.3818 201.422 91.7173 201.135 90.6566L191.602 55.7306C191.301 54.6298 191.975 53.5118 193.085 53.2154L193.094 53.2198ZM189.036 92.269L186.705 83.7212L181.803 85.0602L184.133 93.608L189.036 92.269Z" fill="#3DA89A"/>
<path d="M225.129 54.9504C224.131 54.9232 223.364 54.0969 223.388 53.1529C223.415 52.1552 224.241 51.3885 225.23 51.4113L231.1 51.5847C232.098 51.6119 232.864 52.4382 232.842 53.4269C232.818 54.3709 231.996 55.1509 231.003 55.1148L225.133 54.9414L225.129 54.9504ZM251.627 85.5525C252.768 85.5822 253.643 86.5055 253.609 87.6554C253.579 88.7516 252.66 89.6179 251.51 89.5838L236.231 89.1357C234.544 89.0863 232.969 88.3914 231.755 87.1595L229.627 84.8527L224.966 89.297C224.092 90.118 222.751 90.1803 221.873 89.4002C221 88.6781 220.983 87.3813 221.756 86.6109L226.929 81.7261L227.437 64.2095L225.401 64.1467C224.359 64.1202 223.538 63.2454 223.564 62.2029C223.595 61.1515 224.466 60.3395 225.508 60.3661L229.088 60.4756C230.533 60.5193 231.694 61.7474 231.65 63.1926L231.133 80.7048L234.616 84.3892C235.003 84.8538 235.542 85.0703 236.137 85.0804L251.614 85.5348L251.627 85.5525ZM232.569 59.5489C231.893 58.8332 231.926 57.6386 232.642 56.9628L238.787 51.1707C239.56 50.445 240.749 50.3757 241.634 51.0037C241.923 51.2101 242.119 51.5161 242.204 51.8683L242.211 51.7162C242.242 50.62 243.161 49.7537 244.257 49.7841C245.353 49.8144 246.219 50.7333 246.189 51.8295L246.105 54.6662L250.486 54.7965C251.483 54.8237 252.25 55.65 252.227 56.6387C252.2 57.6364 251.374 58.4031 250.385 58.3803L246.005 58.25L245.864 63.2253C245.864 63.2253 245.861 63.279 245.861 63.3237L252.179 63.5136C253.177 63.5408 253.943 64.3671 253.92 65.3111C253.893 66.3088 253.066 67.0755 252.078 67.0527L234.959 66.5483C233.962 66.5211 233.195 65.6948 233.218 64.7061C233.241 63.7621 234.063 62.9821 235.056 63.0182L241.87 63.215L241.873 63.1166L242.014 58.1413L236.886 57.9939L235.093 59.6812C234.377 60.357 233.227 60.3229 232.555 59.5535L232.569 59.5489ZM241.768 53.3455L240.54 54.5066L242.137 54.5572L242.193 52.7183C242.085 52.9657 241.98 53.2041 241.777 53.3499L241.768 53.3455ZM238.131 68.6267L249.227 68.9507C250.672 68.9943 251.833 70.2225 251.789 71.6677L251.509 81.3186C251.465 82.7638 250.237 83.9248 248.792 83.8812L237.696 83.5572C236.206 83.5141 235.09 82.2854 235.133 80.8402L235.414 71.1893C235.457 69.7441 236.641 68.5836 238.131 68.6267ZM247.6 80.3054L247.828 72.4397L239.22 72.1859L238.992 80.0516L247.6 80.3054Z" fill="#3DA89A"/>
<path d="M291.921 59.0652C293.286 59.5259 294.04 61.0456 293.579 62.4113L284.423 89.5857C283.949 91.0008 282.451 91.7092 281.076 91.2442L273.39 88.6481C272.024 88.1875 271.258 86.7171 271.731 85.3021L280.888 58.1276C281.349 56.762 282.859 56.0042 284.234 56.4692L291.921 59.0652ZM285.61 60.4674L284.195 59.994L280.937 69.6706L282.352 70.144L285.606 60.4764L285.61 60.4674ZM279.869 72.8198L275.46 85.8838L276.875 86.3572L281.275 73.2889L279.86 72.8155L279.869 72.8198ZM286.74 71.6115L289.999 61.935L288.539 61.4398L285.28 71.1163L286.74 71.6115ZM279.804 87.3519L281.264 87.8471L285.664 74.7788L284.204 74.2836L279.804 87.3519ZM308.473 66.8494C309.465 67.1852 309.994 68.2517 309.658 69.2445C309.322 70.2373 308.256 70.7657 307.263 70.4299L304.006 69.3321L294.147 98.5776C293.687 99.9433 292.217 100.709 290.801 100.236L285.842 98.5703C284.849 98.2344 284.321 97.168 284.657 96.1751C284.98 95.2317 286.046 94.7033 287.039 95.0392L290.44 96.1842L299.954 67.9719L294.9 66.2716C293.907 65.9358 293.379 64.8693 293.715 63.8765C294.05 62.8836 295.117 62.3553 296.11 62.6911L308.473 66.8494Z" fill="#3DA89A"/>
<path d="M345.282 97.1735C347.953 93.5112 346.606 91.7041 345.229 90.7159C343.888 89.7674 341.661 89.4567 340.019 91.7727L339.263 92.8291C338.569 93.8043 337.253 94.0228 336.247 93.3696C335.272 92.6758 335.084 91.3186 335.769 90.3391L336.524 89.2826C339.326 85.3503 344.012 84.5955 347.669 87.1863C352.008 90.2736 351.987 95.207 349.01 99.3877C346.032 103.568 343.866 104.464 342.375 105.365L327.208 113.458L333.654 118.043C334.589 118.706 334.838 119.982 334.216 120.947C333.522 121.922 332.205 122.141 331.23 121.447L322.39 115.149C320.887 114.078 321.055 111.871 322.623 111.04L340.632 101.367C343.488 99.8492 344.645 98.054 345.277 97.1601L345.282 97.1735Z" fill="#3DA89A"/>
<path d="M397.414 138.075C398.083 138.943 397.956 140.17 397.052 140.866C396.185 141.535 394.93 141.373 394.261 140.505L388.737 133.323L363.915 152.42C362.498 153.512 360.397 153.24 359.273 151.774L356.42 148.072C355.751 147.204 355.906 146.013 356.774 145.344C357.602 144.711 358.824 144.825 359.502 145.697L361.809 148.69L386.157 129.953L378.654 120.203C377.985 119.335 378.148 118.081 379.016 117.412C379.923 116.707 381.138 116.905 381.807 117.773L397.414 138.053L397.414 138.075Z" fill="#3DA89A"/>
<path d="M422.097 187.262C422.611 188.61 421.911 190.149 420.563 190.663L388.573 202.783C387.225 203.297 385.686 202.597 385.172 201.249L378.38 183.323C377.866 181.974 378.566 180.435 379.914 179.921L411.904 167.801C413.252 167.287 414.791 167.987 415.305 169.336L422.097 187.262ZM382.753 183.583L388.276 198.162L397.172 194.79L391.645 180.219L382.753 183.583ZM401.89 176.332L395.374 178.802L400.897 193.381L407.412 190.912L401.886 176.341L401.89 176.332ZM417.737 186.997L412.215 172.417L405.606 174.919L411.124 189.485L417.733 186.984L417.737 186.997Z" fill="#3DA89A"/>
<path d="M74.2765 275.391L74.1152 269.914L70.0334 270.039L70.1713 274.416C70.2081 275.511 69.3391 276.435 68.2438 276.472C67.1485 276.509 66.2247 275.64 66.188 274.544L66.0501 270.167L60.6271 270.333L60.7554 274.66C60.7826 275.706 59.9717 276.625 58.8764 276.662C57.8302 276.689 56.9064 275.82 56.8749 274.783L56.7471 270.5L49.6789 270.713C47.2423 270.79 45.1871 268.907 45.1104 266.471L44.9272 260.35C44.8505 257.914 46.7871 255.862 49.2236 255.785L55.7419 255.584C58.1784 255.507 60.2298 257.443 60.3065 259.88L60.5014 266.206L65.9244 266.041L65.6554 257.135C65.6187 256.04 66.4877 255.116 67.583 255.079C68.6782 255.043 69.602 255.912 69.6388 257.007L69.9077 265.913L73.9895 265.788L73.6812 255.585C73.6444 254.49 74.5134 253.566 75.6087 253.529C76.704 253.493 77.6278 254.362 77.6601 255.466L77.9685 265.668L80.6509 265.588C81.7909 265.551 82.7684 266.424 82.8058 267.564C82.8387 268.713 81.9256 269.682 80.7766 269.715L78.0942 269.795L78.2555 275.271C78.2922 276.367 77.4232 277.291 76.3279 277.327C75.2327 277.364 74.3089 276.495 74.2721 275.4L74.2765 275.391ZM49.1054 266.548L56.6252 266.32L56.4271 259.748L48.9073 259.976L49.1054 266.548Z" fill="#3DA89A"/>
<path d="M79.2229 323.383C79.6223 324.509 79.0478 325.72 77.9215 326.12L63.6628 331.209C61.3657 332.03 58.8184 330.82 57.9966 328.523L53.6644 316.375C53.2745 315.297 53.872 314.131 54.9048 313.764C55.982 313.375 57.1296 313.919 57.5151 315.005L61.9125 327.34L74.012 323.018L70.358 312.797C69.5363 310.5 70.7462 307.952 73.0433 307.131L80.1748 304.582L79.5386 302.797C79.1717 301.764 79.7462 300.553 80.779 300.186C81.8563 299.796 83.0669 300.371 83.4338 301.404L84.07 303.189L86.4161 302.357C87.4933 301.968 88.7039 302.542 89.0894 303.628C89.4749 304.715 88.9048 305.916 87.8185 306.302L85.4724 307.133L89.7951 319.233C90.1849 320.31 89.5875 321.476 88.5146 321.857C87.4818 322.224 86.2897 321.703 85.9043 320.616L81.5816 308.517L74.1295 311.177L78.0528 322.151C78.6103 322.376 79.023 322.809 79.2272 323.374L79.2229 323.383Z" fill="#3DA89A"/>
<path d="M101.67 345.872C101.836 346.997 102.234 348.011 102.931 348.914L110.608 358.971C112.091 360.91 111.72 363.63 109.78 365.113L94.1047 377.082C92.1652 378.565 89.4057 378.23 87.9222 376.291L79.7354 365.566C79.0436 364.653 79.2186 363.327 80.1308 362.636C81.0829 361.907 82.3692 362.119 83.061 363.031L91.3114 373.831L107.341 361.59L96.9793 348.013C95.9189 346.622 96.4152 344.563 98.0298 343.889C99.6172 343.179 101.402 344.198 101.67 345.872ZM116.088 364.176C115.712 364.839 114.829 365.078 114.179 364.631C113.49 364.219 113.29 363.301 113.639 362.603L116.216 357.94C116.627 357.25 117.47 357.047 118.097 357.45C118.823 357.901 119.049 358.788 118.638 359.478L116.088 364.176ZM118.509 367.347C118.169 368.049 117.25 368.249 116.628 367.837C115.938 367.425 115.711 366.471 116.087 365.809L118.664 361.146C119.048 360.421 119.895 360.208 120.545 360.656C121.235 361.067 121.498 361.994 121.086 362.684L118.509 367.347Z" fill="#3DA89A"/>
<path d="M130.165 392.078L132.014 411.38C132.073 412.086 132.129 412.613 131.558 413.425C130.79 414.531 129.269 414.806 128.203 414.069C127.098 413.301 126.868 411.801 127.605 410.736L125.516 388.897C125.371 387.705 126.22 386.66 127.453 386.546C128.436 386.443 129.334 387.067 129.672 387.975L146.353 385.09L146.288 384.926C145.727 383.376 146.945 381.8 148.539 381.949C150.28 382.069 151.417 383.83 150.821 385.474L150.8 385.519C150.052 387.546 148.233 389.01 146.118 389.365L130.151 392.083L130.165 392.078Z" fill="#3DA89A"/>
<path d="M173.828 420.997C174.986 420.624 176.148 421.598 176.039 422.811C175.932 424.181 174.592 425.022 173.303 424.631L171.871 424.194C169.684 423.525 168.451 421.229 169.12 419.042L174.809 400.321C175.139 399.226 176.32 398.598 177.416 398.928C178.512 399.258 179.091 400.426 178.761 401.522L172.728 421.343L173.819 420.993L173.828 420.997ZM192.172 401.078C193.268 401.408 193.896 402.589 193.566 403.685L184.451 433.645C183.722 436.025 181.256 437.31 178.926 436.593L176.968 436.002C175.302 435.496 174.583 433.56 175.503 432.072C176.472 430.596 178.533 430.493 179.703 431.793L180.39 432.625L189.565 402.471C189.895 401.376 191.032 400.726 192.172 401.078Z" fill="#3DA89A"/>
<path d="M222.251 418.148L220.507 418.171L220.833 443.011C220.851 444.009 220.061 444.86 219.019 444.878C218.022 444.895 217.22 444.052 217.202 443.055L216.876 418.214L215.378 418.234C214.43 418.242 213.574 417.461 213.566 416.513C213.549 415.516 214.393 414.713 215.332 414.701L216.821 414.677L216.708 406.413C216.69 405.416 217.48 404.61 218.473 404.601C219.515 404.583 220.321 405.373 220.339 406.37L220.452 414.634L222.196 414.611C223.193 414.593 223.955 415.384 223.963 416.377C223.971 417.325 223.239 418.126 222.242 418.144L222.251 418.148ZM225.743 411.228C224.746 411.245 223.894 410.456 223.877 409.459C223.863 408.408 224.698 407.601 225.691 407.592L232.21 407.502L233.92 404.841C234.551 403.835 235.797 403.372 236.889 403.756C237.841 404.038 238.253 405.138 237.71 405.986L236.785 407.438L241.212 407.38C242.71 407.36 243.915 408.543 243.93 409.983L244.053 419.696C244.071 420.737 243.184 421.653 242.137 421.657C241.042 421.672 240.18 420.789 240.176 419.742L240.057 411.031L234.378 411.106L228.132 420.803C227.549 421.71 226.354 422.021 225.4 421.537C224.446 421.098 224.13 419.912 224.723 419.055L229.803 411.17L225.72 411.228L225.743 411.228ZM230.393 424.464C231.838 424.44 233.052 425.627 233.066 427.067L233.271 442.996C233.283 443.89 232.546 444.7 231.652 444.712C230.704 444.72 229.996 443.933 229.984 443.039L229.786 427.558L228.489 427.575L225.599 442.895C225.416 443.895 224.521 444.551 223.531 444.416C222.586 444.326 221.925 443.395 222.109 442.44L224.902 427.617L222.711 427.646C221.862 427.657 221.159 426.973 221.148 426.123C221.137 425.274 221.821 424.572 222.671 424.561L226.002 424.517L226.182 423.571C226.366 422.571 227.261 421.915 228.2 421.948C229.149 421.984 229.853 422.825 229.718 423.77L229.624 424.469L230.371 424.464L230.393 424.464ZM242.946 424.303C244.39 424.28 245.595 425.463 245.619 426.907L245.823 442.836C245.835 443.73 245.143 444.54 244.204 444.552C243.31 444.564 242.548 443.773 242.536 442.879L242.329 427.393L240.093 427.422L237.653 442.894C237.469 443.893 236.574 444.549 235.58 444.468C234.635 444.378 233.975 443.492 234.11 442.546L236.502 427.474L234.959 427.494C234.11 427.505 233.408 426.821 233.396 425.972C233.385 425.122 234.069 424.42 234.919 424.409L237.007 424.386L237.188 423.185C237.372 422.185 238.312 421.529 239.311 421.668C240.256 421.803 240.916 422.689 240.732 423.644L240.594 424.343L242.932 424.308L242.946 424.303Z" fill="#3DA89A"/>
<path d="M261.589 405.096C260.792 405.366 259.905 404.926 259.635 404.129C259.365 403.332 259.805 402.445 260.602 402.175L267.112 399.969C267.909 399.7 268.796 400.14 269.066 400.937C269.336 401.734 268.905 402.625 268.099 402.89L261.589 405.096ZM270.911 407.617L262.228 410.548C261.338 410.851 260.325 410.35 260.022 409.459C259.72 408.569 260.235 407.596 261.135 407.298L269.818 404.366C270.708 404.064 271.711 404.516 272.009 405.415C272.312 406.306 271.811 407.319 270.92 407.621L270.911 407.617ZM264.953 415.043C264.156 415.313 263.269 414.873 262.999 414.076C262.729 413.279 263.169 412.392 263.966 412.122L270.472 409.926C271.269 409.656 272.156 410.096 272.426 410.893C272.696 411.69 272.255 412.577 271.458 412.847L264.953 415.043ZM273.078 403C272.281 403.269 271.394 402.829 271.124 402.032C270.854 401.235 271.294 400.348 272.091 400.078L274.879 399.138L274.345 398.636C273.621 398.041 273.597 396.897 274.268 396.244C275.019 395.518 276.236 395.529 276.992 396.217L277.715 396.811C278.032 397.12 278.221 397.534 278.321 397.971L279.688 397.51L280.102 395.322C280.29 394.313 281.179 393.532 282.279 393.531C283.164 393.493 283.878 394.36 283.701 395.252L283.504 396.212L286.144 395.323C286.941 395.053 287.828 395.493 288.098 396.29C288.368 397.087 287.928 397.974 287.131 398.244L281.752 400.064L282.371 401.907L286.712 400.441C287.469 400.185 288.347 400.621 288.603 401.378C288.869 402.184 288.423 403.013 287.666 403.269L283.325 404.735L284.009 406.765L284.028 406.819L289.83 404.859C290.627 404.59 291.495 404.976 291.783 405.827C292.053 406.624 291.613 407.511 290.816 407.78L275.917 412.815C275.12 413.085 274.233 412.645 273.963 411.848C273.675 410.997 274.134 410.164 274.931 409.894L280.683 407.945L280.665 407.891L279.981 405.861L275.693 407.308C274.936 407.564 274.072 407.168 273.802 406.371C273.546 405.614 273.982 404.736 274.739 404.481L279.027 403.033L278.408 401.19L273.082 402.991L273.078 403ZM266.665 420.093C265.868 420.363 264.981 419.922 264.711 419.125C264.423 418.275 264.859 417.397 265.669 417.123L272.174 414.926C272.971 414.656 273.858 415.096 274.147 415.947C274.417 416.744 273.977 417.631 273.18 417.901L266.674 420.097L266.665 420.093ZM273.196 420.141C274.469 419.713 275.86 420.397 276.288 421.67L280.495 434.125C280.923 435.398 280.239 436.789 278.966 437.218L273.774 438.972C272.5 439.4 271.109 438.716 270.681 437.443L266.474 424.988C266.046 423.715 266.73 422.324 268.004 421.895L273.196 420.141ZM276.904 434.543L273.177 423.509L270.109 424.547L273.836 435.581L276.904 434.543ZM300.34 427.683C301.086 428.322 301.146 429.462 300.489 430.155C299.778 430.866 298.696 430.921 297.954 430.273L293.624 426.479L292.763 431.084C292.573 431.936 291.757 432.474 290.924 432.338C290.09 432.201 289.551 431.385 289.688 430.551L290.986 424.125L286.121 419.828C286.049 419.749 285.963 419.674 285.881 419.59L283.664 420.339L284.576 423.024L285.723 422.213C286.446 421.707 287.499 421.872 288.054 422.585C288.613 423.289 288.425 424.298 287.68 424.759L285.627 426.132L287.521 431.747C287.949 433.021 287.265 434.412 285.992 434.84L284.251 435.431C283.36 435.733 282.411 435.263 282.108 434.372C281.81 433.473 282.258 432.478 283.157 432.18L283.954 431.91L282.679 428.139L281.389 428.992C280.667 429.498 279.688 429.247 279.231 428.515C278.775 427.783 279.007 426.751 279.729 426.245L281.609 424.977L280.409 421.442L278.334 422.149C277.577 422.405 276.762 422 276.506 421.243C276.25 420.486 276.656 419.671 277.413 419.415L279.483 418.717L278.776 416.642L277.193 417.709C276.471 418.215 275.542 417.955 275.08 417.209C274.668 416.454 274.865 415.495 275.588 414.989L280.286 411.774C281.023 411.308 282.062 411.433 282.617 412.146C283.153 412.805 283.019 413.795 282.297 414.301L281.729 414.649L282.734 417.623L287.022 416.176L283.352 412.946C282.692 412.382 282.714 411.371 283.36 410.794C284.05 410.195 285.038 410.173 285.721 410.781L290.513 414.999L293.487 413.994C294.244 413.738 295.059 414.143 295.315 414.9C295.571 415.657 295.166 416.472 294.409 416.728L289.693 418.324L291.76 420.09L291.899 419.413C292.057 418.467 292.84 417.835 293.814 417.773C294.583 417.723 295.245 418.443 295.045 419.246L294.413 422.506L300.318 427.706L300.34 427.683ZM288.373 409.387C289.014 408.797 289.988 408.735 290.671 409.343L292.997 411.401C293.594 411.935 293.616 412.923 293.02 413.49C292.379 414.08 291.382 414.097 290.703 413.48L288.459 411.506C287.798 410.942 287.776 409.954 288.377 409.378L288.373 409.387Z" fill="#3DA89A"/>
<path d="M330.492 373.595C330.82 374.708 330.147 375.894 329.024 376.217L315.154 379.883L307.261 392.25C306.651 393.188 305.411 393.433 304.556 392.697C303.639 391.953 303.434 390.677 304.056 389.667L311.1 378.411C312.025 376.981 313.469 375.925 315.069 375.488L327.838 372.077C328.988 371.79 330.16 372.467 330.497 373.586L330.492 373.595ZM327.785 380.661C328.409 381.507 328.228 382.686 327.382 383.309L314.713 392.644C313.871 393.259 312.688 393.087 312.064 392.241C311.44 391.395 311.622 390.216 312.468 389.592L325.137 380.257C325.978 379.643 327.161 379.815 327.776 380.657L327.785 380.661ZM335.34 386.47L326.361 393.091L329.452 406.772L338.874 399.832L334.101 397.046C333.078 396.496 332.739 395.199 333.289 394.176C333.902 393.162 335.172 392.787 336.182 393.409L345.151 398.614C346.129 399.187 346.539 400.496 346.026 401.559C345.547 402.594 344.277 402.968 343.299 402.395L342.448 401.905L326.377 413.749C325.579 414.341 324.352 414.192 323.728 413.346C323.113 412.504 323.321 411.294 324.132 410.697L325.895 409.395L322.764 395.75L315.393 401.182C314.551 401.797 313.368 401.625 312.744 400.779C312.152 399.982 312.338 398.794 313.171 398.175L333.135 383.471C333.977 382.856 335.16 383.028 335.748 383.835C336.372 384.681 336.19 385.859 335.344 386.483L335.34 386.47Z" fill="#3DA89A"/>
<path d="M280.78 341.348C281.449 340.97 282.313 341.169 282.744 341.793C283.172 342.411 282.986 343.243 282.351 343.626L280.76 344.573C281.152 344.781 281.37 345.291 281.21 345.741L279.835 349.639C279.689 350.058 279.275 350.307 278.88 350.313L279.526 352.05C279.795 352.718 279.445 353.495 278.746 353.75C278.059 353.974 277.277 353.628 277.021 352.928L274.749 346.951C274.371 345.992 274.761 344.872 275.661 344.363L280.784 341.354L280.78 341.348ZM291.32 347.22C291.623 346.361 292.56 345.932 293.392 346.227L300.355 348.682C301.215 348.985 301.683 349.908 301.38 350.768L299.678 355.593C299.375 356.453 298.423 356.913 297.56 356.604L294.941 355.678C295.305 356.059 295.623 356.496 295.838 357L296.185 357.945C296.417 358.604 296.073 359.377 295.387 359.601C294.687 359.856 293.955 359.489 293.686 358.82L293.162 357.452L280.923 353.136C280.026 352.822 279.603 351.881 279.912 351.018L282.199 344.533C282.502 343.673 283.426 343.205 284.317 343.522L289.493 345.346C290.352 345.649 290.812 346.601 290.503 347.464L288.519 353.089L289.798 353.539C289.514 353.121 289.42 352.58 289.611 352.034L291.313 347.209L291.32 347.22ZM278.167 348.472L279.238 345.434L277.434 346.487L278.172 348.469L278.167 348.472ZM283.917 346.007L282.202 350.864L283.384 351.282L285.1 346.425L283.917 346.007ZM286.518 352.385L288.234 347.528L287.082 347.124L285.367 351.981L286.518 352.385ZM279.843 338.712C280.094 338.008 280.87 337.639 281.571 337.883L297.071 343.348C297.776 343.598 298.144 344.374 297.9 345.075C297.65 345.78 296.874 346.149 296.173 345.905L280.673 340.44C279.968 340.19 279.599 339.413 279.843 338.712ZM278.602 333.465C278.852 332.761 279.639 332.355 280.374 332.619L303.601 340.809C304.306 341.06 304.698 341.877 304.448 342.582C304.19 343.314 303.366 343.71 302.662 343.46L279.429 335.272C278.697 335.014 278.332 334.204 278.596 333.469L278.602 333.465ZM298.88 350.854L293.195 348.849L292.046 352.11L297.731 354.115L298.88 350.854Z" fill="#3DA89A"/>
<path d="M291.972 316.213C291.571 316.761 290.812 316.87 290.293 316.492C289.745 316.09 289.636 315.331 290.031 314.787L292.401 311.569C292.802 311.021 293.562 310.912 294.106 311.308C294.625 311.686 294.744 312.448 294.339 312.99L291.969 316.207L291.972 316.213ZM319.354 313.234C319.812 312.607 320.668 312.475 321.298 312.939C321.899 313.38 322.028 314.23 321.564 314.86L315.398 323.236C314.717 324.161 313.719 324.772 312.56 324.975L310.445 325.273L311.128 329.601C311.248 330.408 310.764 331.183 309.988 331.372C309.246 331.581 308.514 331.088 308.382 330.357L307.651 325.572L298.047 318.506L297.224 319.621C296.805 320.194 295.998 320.315 295.425 319.896C294.849 319.472 294.731 318.67 295.15 318.097L296.597 316.137C297.181 315.345 298.317 315.171 299.109 315.755L308.707 322.824L312.117 322.302C312.527 322.265 312.857 322.047 313.093 321.718L319.339 313.235L319.354 313.234ZM297.426 313.831C296.764 313.932 296.108 313.45 296.007 312.788L295.145 307.108C295.039 306.394 295.46 305.702 296.154 305.45C296.381 305.368 296.629 305.377 296.859 305.466L296.776 305.403C296.175 304.962 296.046 304.112 296.487 303.51C296.928 302.909 297.778 302.78 298.38 303.221L299.934 304.366L301.703 301.966C302.105 301.418 302.864 301.309 303.408 301.704C303.956 302.106 304.065 302.865 303.669 303.409L301.901 305.81L304.63 307.815C304.63 307.815 304.659 307.837 304.684 307.854L307.236 304.393C307.638 303.845 308.397 303.736 308.916 304.115C309.464 304.516 309.573 305.275 309.177 305.82L302.268 315.203C301.866 315.75 301.107 315.86 300.563 315.464C300.044 315.085 299.925 314.324 300.33 313.782L303.078 310.045L303.024 310.005L300.295 308.001L298.227 310.813L298.477 312.47C298.578 313.132 298.114 313.762 297.423 313.84L297.426 313.831ZM297.516 306.282L297.69 307.419L298.337 306.544L297.33 305.801C297.426 305.958 297.519 306.108 297.522 306.279L297.516 306.282ZM304.658 314.233L309.135 308.15C309.719 307.358 310.856 307.184 311.648 307.768L316.939 311.661C317.731 312.245 317.905 313.381 317.321 314.173L312.844 320.256C312.243 321.073 311.123 321.222 310.332 320.638L305.04 316.745C304.249 316.161 304.057 315.05 304.658 314.233ZM314.859 313.456L310.546 310.283L307.071 315.002L311.384 318.174L314.859 313.456Z" fill="#3DA89A"/>
<path d="M320.133 280.433C320.919 279.847 322.061 280.014 322.647 280.8L334.307 296.444C334.916 297.256 334.732 298.369 333.94 298.958L329.511 302.254C328.725 302.84 327.605 302.699 326.997 301.886L315.337 286.243C314.751 285.456 314.912 284.318 315.704 283.728L320.133 280.433ZM318.474 284.506L317.662 285.115L321.814 290.684L322.627 290.076L318.478 284.512L318.474 284.506ZM323.163 292.501L328.766 300.025L329.579 299.417L323.97 291.896L323.157 292.504L323.163 292.501ZM325.147 288.188L320.995 282.619L320.152 283.244L324.305 288.813L325.147 288.188ZM331.269 298.163L332.112 297.538L326.503 290.017L325.66 290.642L331.269 298.163ZM330.896 274.185C331.468 273.759 332.27 273.877 332.695 274.449C333.121 275.021 333.003 275.822 332.431 276.248L330.556 277.645L343.103 294.483C343.689 295.27 343.548 296.389 342.736 296.998L339.884 299.128C339.311 299.553 338.51 299.436 338.085 298.864C337.682 298.318 337.799 297.516 338.371 297.091L340.329 295.631L328.226 279.386L325.318 281.556C324.746 281.981 323.945 281.864 323.519 281.291C323.094 280.719 323.211 279.918 323.783 279.492L330.896 274.185Z" fill="#3DA89A"/>
<path d="M362.11 265.329C361.095 262.417 359.563 262.471 358.477 262.859C357.427 263.242 356.391 264.368 357.051 266.183L357.35 267.015C357.627 267.781 357.239 268.602 356.484 268.912C355.718 269.189 354.886 268.769 354.603 268.006L354.305 267.175C353.189 264.085 354.581 261.17 357.446 260.127C360.853 258.895 363.606 260.816 364.793 264.101C365.979 267.385 365.642 268.944 365.568 270.127L364.225 281.747L369.286 279.915C370.019 279.648 370.829 280.003 371.128 280.725C371.405 281.491 371.018 282.312 370.252 282.589L363.306 285.097C362.125 285.523 360.955 284.575 361.097 283.376L362.657 269.555C362.913 267.369 362.357 266.027 362.101 265.327L362.11 265.329Z" fill="#3DA89A"/>
<path d="M405.18 251.995C405.925 251.957 406.562 252.503 406.602 253.278C406.64 254.022 406.064 254.661 405.319 254.699L399.162 255.01L400.238 276.292C400.3 277.507 399.334 278.578 398.079 278.639L394.904 278.802C394.159 278.841 393.552 278.293 393.514 277.548C393.481 276.84 394.017 276.2 394.768 276.159L397.336 276.027L396.278 255.149L387.918 255.572C387.173 255.611 386.534 255.034 386.496 254.29C386.453 253.509 387.034 252.906 387.779 252.868L405.168 251.986L405.18 251.995Z" fill="#3DA89A"/>
<path d="M442.26 257.225C443.214 257.459 443.804 258.447 443.57 259.4L437.967 281.991C437.732 282.945 436.745 283.535 435.791 283.3L423.132 280.161C422.178 279.926 421.588 278.939 421.823 277.985L427.426 255.394C427.66 254.441 428.647 253.851 429.601 254.085L442.26 257.225ZM424.97 277.815L435.266 280.369L436.823 274.085L426.531 271.537L424.97 277.815ZM428.322 264.3L427.181 268.902L437.477 271.456L438.618 266.854L428.325 264.306L428.322 264.3ZM440.424 259.562L430.129 257.007L428.97 261.674L439.256 264.226L440.415 259.559L440.424 259.562Z" fill="#3DA89A"/>
<path d="M356.912 485.96L353.785 483.93L352.275 486.263L354.777 487.88C355.404 488.283 355.584 489.127 355.181 489.754C354.777 490.381 353.934 490.562 353.307 490.158L350.804 488.541L348.797 491.639L351.268 493.243C351.864 493.633 352.064 494.442 351.661 495.069C351.271 495.665 350.427 495.846 349.835 495.462L347.389 493.875L344.772 497.913C343.871 499.306 342.022 499.727 340.629 498.826L337.134 496.559C335.741 495.659 335.343 493.781 336.243 492.388L338.653 488.663C339.554 487.27 341.432 486.872 342.825 487.772L346.44 490.112L348.447 487.014L343.36 483.717C342.733 483.313 342.552 482.469 342.956 481.842C343.359 481.215 344.203 481.035 344.83 481.438L349.917 484.735L351.427 482.403L345.599 478.626C344.972 478.223 344.792 477.379 345.195 476.752C345.599 476.125 346.443 475.944 347.073 476.353L352.901 480.131L353.895 478.599C354.315 477.946 355.182 477.737 355.834 478.158C356.49 478.584 356.679 479.47 356.252 480.126L355.258 481.658L358.385 483.688C359.012 484.091 359.193 484.935 358.789 485.562C358.386 486.189 357.542 486.37 356.915 485.966L356.912 485.96ZM342.219 496.621L345.002 492.325L341.249 489.891L338.465 494.187L342.219 496.621Z" fill="#3DA89A"/>
<path d="M385.68 501.773C386.465 501.985 386.92 502.775 386.708 503.56L384.035 513.508C383.606 515.112 381.942 516.069 380.339 515.639L371.864 513.36C371.111 513.161 370.689 512.375 370.884 511.655C371.083 510.902 371.832 510.47 372.589 510.675L381.193 512.99L383.459 504.547L376.325 502.634C374.722 502.205 373.765 500.542 374.194 498.938L375.529 493.961L374.284 493.626C373.564 493.432 373.109 492.641 373.304 491.921C373.502 491.168 374.293 490.713 375.013 490.907L376.258 491.243L376.701 489.608C376.9 488.854 377.69 488.399 378.447 488.604C379.204 488.809 379.655 489.593 379.451 490.35L379.008 491.985L387.451 494.25C388.205 494.449 388.626 495.235 388.424 495.983C388.229 496.703 387.476 497.168 386.719 496.963L378.276 494.698L376.879 499.897L384.538 501.95C384.88 501.725 385.282 501.662 385.677 501.767L385.68 501.773Z" fill="#3DA89A"/>
<path d="M406.953 497.918C407.647 498.26 408.369 498.43 409.144 498.39L417.743 497.988C419.402 497.909 420.78 499.17 420.86 500.829L421.488 514.233C421.567 515.893 420.311 517.307 418.651 517.386L409.481 517.815C408.703 517.849 408.028 517.238 407.995 516.459C407.956 515.645 408.572 515.007 409.35 514.973L418.587 514.538L417.944 500.83L406.336 501.371C405.147 501.426 404.187 500.351 404.435 499.187C404.652 498.024 405.913 497.42 406.953 497.918ZM422.777 496.937C423.002 497.404 422.795 497.99 422.293 498.181C421.795 498.407 421.204 498.164 420.948 497.698L419.337 494.451C419.111 493.954 419.323 493.404 419.791 493.209C420.325 492.977 420.909 493.194 421.136 493.691L422.777 496.937ZM425.488 496.81C425.75 497.272 425.506 497.863 425.034 498.052C424.537 498.279 423.915 498.036 423.69 497.57L422.079 494.322C421.822 493.827 422.031 493.27 422.533 493.08C423.03 492.853 423.651 493.065 423.877 493.563L425.488 496.81Z" fill="#3DA89A"/>
<path d="M443.839 499.865L455.355 506.302C455.772 506.543 456.089 506.715 456.323 507.349C456.644 508.207 456.209 509.165 455.384 509.475C454.526 509.797 453.598 509.345 453.287 508.52L440.259 501.234C439.536 500.854 439.28 499.974 439.693 499.24C440.017 498.65 440.713 498.389 441.352 498.551L446.196 488.101L446.079 488.074C444.994 487.788 444.584 486.496 445.284 485.662C446.026 484.734 447.451 484.78 448.141 485.75L448.157 485.779C449.002 486.982 449.117 488.567 448.497 489.888L443.836 499.874L443.839 499.865Z" fill="#3DA89A"/>
<path d="M476.925 486.629C477.164 485.837 478.159 485.563 478.795 486.094C479.52 486.685 479.472 487.76 478.755 488.33L477.955 488.962C476.734 489.926 474.972 489.728 474.008 488.507L465.736 478.076C465.25 477.467 465.356 476.563 465.965 476.077C466.574 475.592 467.452 475.721 467.937 476.329L476.692 487.378L476.919 486.632L476.925 486.629ZM472.881 468.653C473.49 468.168 474.394 468.274 474.879 468.883L488.114 485.582C489.163 486.911 488.927 488.788 487.624 489.815L486.535 490.681C485.607 491.417 484.246 491.07 483.769 489.979C483.319 488.866 484.059 487.673 485.24 487.521L485.971 487.459L472.651 470.652C472.166 470.043 472.242 469.155 472.881 468.653Z" fill="#3DA89A"/>
<path d="M494.076 458.432L493.414 459.417L507.439 468.851C508.004 469.228 508.175 469.999 507.781 470.589C507.405 471.154 506.622 471.276 506.058 470.9L492.032 461.465L491.463 462.311C491.101 462.845 490.333 463.021 489.799 462.659C489.235 462.283 489.112 461.5 489.469 460.97L490.032 460.127L485.364 456.991C484.8 456.615 484.654 455.861 485.034 455.302C485.427 454.712 486.181 454.566 486.746 454.943L491.413 458.079L492.076 457.094C492.452 456.529 493.189 456.409 493.748 456.789C494.282 457.151 494.447 457.871 494.07 458.436L494.076 458.432ZM491.556 453.8C491.18 454.364 490.409 454.535 489.844 454.159C489.251 453.76 489.122 452.98 489.502 452.421L491.975 448.739L491.148 446.752C490.83 446.01 491.053 445.133 491.69 444.67C492.217 444.247 492.992 444.442 493.256 445.074L493.71 446.154L495.392 443.654C495.961 442.809 497.089 442.592 497.9 443.142L503.383 446.833C503.973 447.226 504.141 448.077 503.739 448.664C503.323 449.283 502.495 449.423 501.908 449.02L496.988 445.714L494.831 448.921L497.839 456.17C498.12 456.847 497.832 457.636 497.192 457.983C496.576 458.347 495.791 458.064 495.541 457.4L493.096 451.505L491.548 453.812L491.556 453.8ZM500.762 456.322C501.308 455.504 502.443 455.285 503.254 455.834L512.246 461.886C512.751 462.226 512.919 462.951 512.579 463.456C512.217 463.99 511.502 464.081 510.997 463.742L502.258 457.86L501.766 458.592L509.219 466.14C509.708 466.629 509.728 467.384 509.269 467.886C508.853 468.38 508.077 468.389 507.614 467.916L500.401 460.615L499.569 461.852C499.246 462.332 498.592 462.46 498.112 462.137C497.632 461.814 497.504 461.16 497.827 460.68L499.092 458.799L498.632 458.332C498.144 457.842 498.124 457.088 498.505 456.575C498.893 456.058 499.636 455.989 500.113 456.431L500.468 456.754L500.754 456.334L500.762 456.322ZM505.532 449.236C506.078 448.419 507.207 448.203 508.024 448.749L517.015 454.801C517.52 455.14 517.706 455.841 517.349 456.371C517.009 456.876 516.272 456.996 515.767 456.656L507.022 450.778L506.173 452.04L513.885 459.395C514.373 459.885 514.394 460.639 513.963 461.164C513.547 461.658 512.796 461.684 512.319 461.242L504.812 454.069L504.226 454.94C503.903 455.42 503.248 455.548 502.769 455.225C502.289 454.902 502.161 454.248 502.484 453.768L503.279 452.591L502.677 452.025C502.189 451.535 502.186 450.755 502.65 450.25C503.092 449.773 503.843 449.747 504.306 450.219L504.644 450.568L505.53 449.245L505.532 449.236Z" fill="#3DA89A"/>
<path d="M502.004 431.368C501.847 431.918 501.257 432.244 500.707 432.087C500.156 431.929 499.83 431.339 499.988 430.789L501.274 426.293C501.432 425.742 502.021 425.417 502.572 425.574C503.122 425.732 503.454 426.318 503.291 426.872L502.004 431.368ZM507.024 427.128L505.303 433.121C505.127 433.736 504.455 434.109 503.839 433.934C503.224 433.758 502.879 433.093 503.061 432.474L504.782 426.481C504.957 425.866 505.599 425.479 506.217 425.661C506.833 425.837 507.205 426.509 507.03 427.124L507.024 427.128ZM508.873 433.337C508.715 433.887 508.125 434.213 507.575 434.055C507.025 433.898 506.699 433.308 506.856 432.758L508.146 428.267C508.303 427.717 508.893 427.391 509.443 427.549C509.994 427.706 510.32 428.296 510.162 428.846L508.873 433.337ZM505.279 424.128C505.122 424.678 504.532 425.004 503.982 424.847C503.431 424.689 503.105 424.099 503.263 423.549L503.816 421.625L503.328 421.73C502.715 421.904 502.066 421.475 501.96 420.846C501.845 420.145 502.322 419.469 503 419.312L503.612 419.137C503.908 419.08 504.212 419.134 504.495 419.247L504.767 418.304L503.703 417.225C503.211 416.73 503.118 415.93 503.544 415.314C503.865 414.804 504.626 414.74 505.057 415.184L505.518 415.667L506.043 413.845C506.2 413.295 506.79 412.969 507.34 413.126C507.891 413.284 508.217 413.873 508.059 414.424L506.995 418.138L508.266 418.505L509.126 415.509C509.276 414.986 509.86 414.663 510.382 414.813C510.936 414.977 511.228 415.547 511.078 416.069L510.217 419.066L511.618 419.469L511.655 419.48L512.805 415.475C512.963 414.924 513.515 414.588 514.103 414.756C514.653 414.914 514.979 415.503 514.822 416.054L511.871 426.339C511.713 426.89 511.123 427.216 510.573 427.058C509.985 426.89 509.697 426.311 509.854 425.76L510.991 421.787L510.954 421.777L509.553 421.373L508.702 424.333C508.552 424.855 507.997 425.186 507.446 425.028C506.924 424.878 506.601 424.294 506.751 423.772L507.601 420.812L506.33 420.445L505.276 424.122L505.279 424.128ZM512.361 434.333C512.203 434.884 511.614 435.21 511.063 435.052C510.476 434.884 510.153 434.301 510.313 433.741L511.603 429.251C511.76 428.7 512.35 428.374 512.938 428.542C513.488 428.7 513.814 429.289 513.656 429.84L512.367 434.33L512.361 434.333ZM514.916 430.698C515.169 429.82 516.091 429.306 516.969 429.56L525.566 432.028C526.444 432.281 526.958 433.202 526.705 434.081L525.676 437.665C525.423 438.543 524.501 439.057 523.623 438.803L515.026 436.335C514.148 436.082 513.634 435.161 513.888 434.282L514.916 430.698ZM524.41 434.199L516.793 432.012L516.186 434.131L523.803 436.317L524.41 434.199ZM529.645 418.43C530.291 418.26 530.952 418.668 531.085 419.304C531.208 419.977 530.82 420.603 530.17 420.768L526.371 421.721L528.614 423.986C529.017 424.422 529.003 425.087 528.604 425.501C528.204 425.914 527.539 425.9 527.126 425.5L524.033 422.287L519.745 423.345C519.673 423.355 519.597 423.374 519.519 423.387L519.08 424.918L520.935 425.447L520.925 424.491C520.922 423.891 521.422 423.365 522.036 423.331C522.646 423.29 523.138 423.786 523.107 424.382L523.081 426.062L526.956 427.176C527.834 427.429 528.348 428.35 528.094 429.229L527.751 430.432C527.575 431.047 526.944 431.396 526.329 431.221C525.71 431.039 525.327 430.404 525.509 429.785L525.666 429.235L523.063 428.488L523.04 429.54C523.044 430.14 522.525 430.591 521.938 430.563C521.352 430.535 520.864 430.006 520.861 429.406L520.879 427.863L518.436 427.166L518.029 428.6C517.879 429.123 517.337 429.422 516.814 429.272C516.291 429.122 515.992 428.58 516.142 428.058L516.553 426.629L515.119 426.221L515.103 427.52C515.106 428.12 514.601 428.539 514.005 428.509C513.423 428.447 512.963 427.965 512.959 427.365L512.98 423.491C513.004 422.899 513.476 422.366 514.09 422.331C514.667 422.286 515.168 422.745 515.172 423.345L515.146 423.797L517.2 424.387L518.05 421.427L514.822 422.23C514.251 422.381 513.694 421.977 513.621 421.393C513.553 420.775 513.923 420.213 514.528 420.066L518.743 419.018L519.332 416.965C519.482 416.442 520.024 416.143 520.547 416.293C521.069 416.443 521.368 416.985 521.218 417.507L520.286 420.764L522.075 420.291L521.749 419.951C521.281 419.497 521.231 418.814 521.573 418.245C521.843 417.795 522.502 417.703 522.874 418.126L524.453 419.742L529.649 418.451L529.645 418.43ZM514.774 418.043C514.692 417.456 515.035 416.887 515.64 416.74L517.692 416.235C518.222 416.108 518.783 416.478 518.869 417.031C518.951 417.618 518.575 418.183 517.967 418.324L515.993 418.815C515.422 418.966 514.861 418.596 514.771 418.037L514.774 418.043Z" fill="#3DA89A"/>
<path d="M511.053 380.621C511.803 380.869 512.206 381.704 511.952 382.458L508.634 391.638L512.498 400.842C512.787 401.546 512.444 402.334 511.701 402.528C510.929 402.754 510.136 402.374 509.812 401.635L506.241 393.336C505.799 392.265 505.767 391.048 506.142 389.983L509.177 381.519C509.461 380.764 510.294 380.37 511.05 380.615L511.053 380.621ZM513.959 384.871C514.674 384.85 515.263 385.407 515.285 386.122L515.603 396.825C515.621 397.534 515.067 398.129 514.352 398.151C513.637 398.172 513.048 397.614 513.026 396.899L512.708 386.197C512.69 385.488 513.244 384.893 513.953 384.875L513.959 384.871ZM520.134 382.893L520.362 390.48L529.214 394.047L528.979 386.089L525.572 387.681C524.868 388.04 524.011 387.727 523.652 387.024C523.322 386.288 523.604 385.433 524.343 385.108L530.727 382.105C531.426 381.78 532.318 382.057 532.714 382.756C533.107 383.424 532.825 384.279 532.126 384.605L531.522 384.892L531.928 398.469C531.95 399.144 531.391 399.773 530.676 399.795C529.967 399.813 529.371 399.228 529.351 398.544L529.305 397.053L520.458 393.522L520.644 399.75C520.662 400.459 520.108 401.054 519.393 401.075C518.717 401.098 518.125 400.534 518.101 399.829L517.603 382.965C517.585 382.256 518.139 381.661 518.818 381.645C519.532 381.623 520.122 382.181 520.143 382.896L520.134 382.893Z" fill="#3DA89A"/>
</g>
</svg>
