<svg width="46" height="46" viewBox="0 0 46 46" fill="none" xmlns="http://www.w3.org/2000/svg">
<path d="M45.1677 22.6477C45.1677 22.3558 45.2798 22.0623 45.2683 21.7736C45.2568 21.485 45.0786 21.2013 45.0555 20.9127C45.0325 20.6241 44.9962 20.4278 44.9632 20.1409C44.5294 19.877 44.5459 19.8737 44.0643 19.7137C43.5828 19.5537 43.1259 19.9149 43.0484 19.4135C42.9709 18.9122 43.5663 19.1843 43.9753 18.8841C44.3843 18.5839 44.4222 18.6037 44.7521 18.2195C44.6944 17.9341 44.5344 17.6554 44.4668 17.375C44.3991 17.0947 44.5212 16.7599 44.4437 16.4811C44.3662 16.2024 44.1864 15.9501 44.0973 15.6746C44.0083 15.3992 43.9934 15.0941 43.8928 14.822C43.7922 14.5498 43.5795 14.3189 43.4689 14.0518C43.3584 13.7846 43.2694 13.425 43.149 13.1628C42.6542 13.0457 42.6196 13.2222 42.1116 13.2205C41.6036 13.2189 41.4272 13.6427 41.1963 13.1908C40.9654 12.7389 41.4783 12.8923 41.7735 12.48C42.0687 12.0677 42.166 12.0957 42.3606 11.6273C42.2188 11.375 42.0143 11.0748 41.8626 10.8274C41.7108 10.5801 41.5855 10.3145 41.4239 10.0737C41.2622 9.83293 41.0462 9.62843 40.8763 9.39258C40.7064 9.15673 40.4261 9.0083 40.2463 8.7807C40.0665 8.5531 39.9643 8.26448 39.7762 8.04348C39.5882 7.82248 39.4167 7.6691 39.2204 7.45469C38.7158 7.49592 38.696 7.42335 38.2144 7.57674C37.7328 7.73012 37.7262 8.27108 37.3683 7.91319C37.0104 7.5553 37.3568 7.48768 37.5118 7.00444C37.6668 6.5212 37.7971 6.56573 37.8384 6.06106C37.6256 5.8648 37.4409 5.71306 37.2215 5.52505C37.0022 5.33703 36.8884 5.01542 36.6591 4.83565C36.4299 4.65588 36.1347 4.56352 35.8988 4.392C35.663 4.22048 35.3908 4.10668 35.15 3.94505C34.9093 3.78342 34.7014 3.57067 34.4541 3.41893C34.2067 3.2672 33.984 3.24576 33.7317 3.10227C33.2633 3.29854 33.3045 3.33317 32.8922 3.63004C32.4799 3.92691 32.4997 4.40355 32.0478 4.17265C31.5959 3.94175 32.0478 3.67787 32.0445 3.16989C32.0412 2.66192 32.2506 2.62399 32.1335 2.12921C31.8697 2.00881 31.5398 1.82244 31.271 1.71194C31.0021 1.60144 30.6624 1.67731 30.3903 1.5767C30.1181 1.4761 29.8872 1.26334 29.6102 1.17428C29.3331 1.08522 29.0741 0.935135 28.7954 0.85597C28.5167 0.776805 28.2347 0.695991 27.951 0.628371C27.6673 0.560751 27.3193 0.554154 27.034 0.49643C26.6497 0.827933 26.8295 0.994509 26.5293 1.40353C26.2292 1.81255 26.3825 2.22486 25.8795 2.1457C25.3765 2.06653 25.7344 1.69545 25.5744 1.21386C25.4144 0.732275 25.5068 0.686095 25.2445 0.253987C24.9576 0.221002 24.6591 0.234196 24.3688 0.212756C24.0785 0.191315 23.7915 0.217703 23.4996 0.206158C23.2077 0.194614 22.924 0 22.6321 0C22.3402 0 22.0483 0.0445303 21.7596 0.0560751C21.471 0.06762 21.1857 0.212756 20.8987 0.234196C20.6118 0.255637 20.3066 0.221002 20.0197 0.253987C19.7558 0.687745 19.9141 0.755365 19.7541 1.23695C19.5942 1.71854 19.9108 2.22156 19.4094 2.30073C18.9081 2.37989 19.007 1.83893 18.7052 1.42991C18.4034 1.0209 18.5551 0.90215 18.1708 0.570647C17.8855 0.628371 17.5985 0.578893 17.3182 0.646513C17.0378 0.714133 16.7673 0.846074 16.4886 0.92359C16.2099 1.00111 15.9641 1.19407 15.6903 1.28313C15.4166 1.37219 15.1098 1.37714 14.8377 1.47774C14.5655 1.57835 14.2654 1.61298 13.9982 1.72349C13.731 1.83399 13.3847 2.01046 13.1224 2.13085C13.0053 2.62563 13.3434 2.66687 13.3418 3.17484C13.3401 3.68281 13.6733 3.9467 13.2214 4.1776C12.7695 4.40849 12.8717 3.81476 12.4594 3.51954C12.0471 3.22432 11.9993 3.31503 11.5309 3.12041C11.2785 3.26225 11.0839 3.30843 10.8382 3.46181C10.5925 3.6152 10.2741 3.66137 10.0334 3.823C9.79256 3.98463 9.61939 4.24851 9.38519 4.41839C9.15099 4.58826 8.97617 4.83565 8.74857 5.01542C8.52097 5.19519 8.25379 5.32384 8.03444 5.51185C7.81509 5.69987 7.64191 5.86974 7.42751 6.06601C7.46874 6.57068 7.46709 6.57068 7.62047 7.05392C7.77386 7.53715 8.37254 7.67404 8.01465 8.03193C7.65676 8.38983 7.46214 7.96761 6.98056 7.81423C6.49897 7.66085 6.56989 7.29306 6.06521 7.25183C5.86895 7.46459 5.61496 7.773 5.4253 7.99235C5.23563 8.2117 5.14822 8.51517 4.96845 8.74442C4.78868 8.97367 4.49676 9.1155 4.32524 9.3497C4.15371 9.58389 3.98054 9.82139 3.81891 10.0622C3.65728 10.303 3.52534 10.5669 3.37196 10.8126C3.21858 11.0583 3.03551 11.3832 2.89202 11.6372C3.08829 12.1056 3.29115 12.005 3.58637 12.4157C3.88158 12.8264 4.36482 12.7736 4.13392 13.2255C3.90302 13.6774 3.66388 13.2337 3.15591 13.2354C2.64793 13.237 2.63474 13.1414 2.14161 13.2585C2.02121 13.5223 1.89916 13.7813 1.78866 14.0501C1.67816 14.3189 1.50994 14.5647 1.40933 14.8368C1.30873 15.1089 1.251 15.3976 1.16029 15.673C1.06958 15.9484 0.950836 16.2172 0.87332 16.496C0.795805 16.7747 0.85023 17.0881 0.780961 17.3717C0.711692 17.6554 0.489041 18.0084 0.431316 18.2937C0.762819 18.678 0.937641 18.513 1.34666 18.8132C1.75568 19.1134 2.14655 18.8924 2.06904 19.3937C1.99152 19.8951 1.68476 19.557 1.20317 19.717C0.721587 19.877 0.673759 19.778 0.241651 20.0419C0.208665 20.3289 0.0519848 20.6125 0.0305443 20.9028C0.00910384 21.1931 0.0124023 21.4867 0.000857455 21.7769C-0.0106874 22.0672 0.0981643 22.3591 0.0981643 22.651C0.0981643 22.943 0.141045 23.2316 0.150941 23.5202C0.160836 23.8088 0.26639 24.0925 0.28783 24.3811C0.309271 24.6697 0.226807 24.9435 0.259793 25.2305C0.69355 25.4944 0.73808 25.3756 1.21967 25.534C1.70125 25.6923 1.96019 25.4119 2.03935 25.9133C2.11852 26.4147 1.83979 26.3025 1.43077 26.6027C1.02175 26.9029 0.841984 26.6917 0.510481 27.076C0.568205 27.3614 0.762819 27.6368 0.830439 27.9188C0.898059 28.2008 0.779312 28.5323 0.858477 28.8094C0.937642 29.0865 1.18503 29.3174 1.27574 29.5912C1.36645 29.8649 1.27574 30.2063 1.37635 30.4768C1.47695 30.7473 1.80516 30.932 1.91566 31.1992C2.02616 31.4664 1.99317 31.9084 2.11357 32.1723C2.60835 32.2894 2.65123 32.1145 3.15921 32.1178C3.66718 32.1211 3.99209 31.5802 4.22298 32.0337C4.45388 32.4873 3.9525 32.5219 3.65563 32.9342C3.35877 33.3465 3.30599 33.2872 3.10973 33.7556C3.25156 34.0079 3.24332 34.2306 3.39505 34.4779C3.54678 34.7253 3.67048 34.9942 3.83046 35.235C3.99044 35.4757 4.22133 35.672 4.39121 35.9062C4.56108 36.1404 4.78868 36.3317 4.96845 36.5593C5.14822 36.7869 5.29336 37.0409 5.48302 37.2619C5.67269 37.4829 5.86565 37.7996 6.06192 38.014C6.56659 37.9727 6.50557 37.6676 6.9888 37.5142C7.47204 37.3609 7.65841 36.9123 8.0163 37.2701C8.37419 37.628 7.85302 37.7913 7.69964 38.2746C7.54626 38.7578 7.29557 38.7182 7.25434 39.2229C7.46709 39.4191 7.75241 39.6748 7.97342 39.8628C8.19442 40.0508 8.53252 40.0953 8.76012 40.2751C8.98772 40.4549 9.10316 40.7814 9.33901 40.9513C9.57485 41.1212 9.91296 41.1426 10.1537 41.3043C10.3945 41.4659 10.5694 41.7265 10.8168 41.8799C11.0641 42.0332 11.3231 42.1437 11.5754 42.2856C12.0438 42.0893 11.9564 41.9508 12.3687 41.6539C12.781 41.357 12.748 40.9381 13.1999 41.169C13.6518 41.3999 13.256 41.6193 13.2593 42.1272C13.2626 42.6352 13.0779 42.66 13.195 43.1531C13.4589 43.2735 13.7475 43.4302 14.0163 43.5407C14.2852 43.6512 14.6183 43.5901 14.8904 43.6907C15.1626 43.7914 15.4017 43.9744 15.6788 44.0635C15.9559 44.1525 16.2346 44.2235 16.5133 44.3026C16.792 44.3818 17.0675 44.4692 17.3495 44.5368C17.6315 44.6044 17.8476 44.6209 18.1329 44.6787C18.5172 44.3472 18.5683 44.395 18.8685 43.986C19.1686 43.577 18.8899 43.0492 19.3913 43.1283C19.8927 43.2075 19.5678 43.5901 19.7261 44.0701C19.8844 44.55 19.6981 44.6457 19.9603 45.0794C20.2473 45.1124 20.6118 45.0118 20.902 45.0349C21.1923 45.058 21.4727 45.1817 21.7629 45.1932C22.0532 45.2048 22.3418 45.2328 22.6338 45.2328C22.9257 45.2328 23.2159 45.1833 23.5046 45.1718C23.7932 45.1603 24.0901 45.2163 24.3787 45.1949C24.6673 45.1734 24.8537 45.0118 25.1406 44.9788C25.4045 44.5451 25.3501 44.5418 25.5084 44.0602C25.6668 43.5786 25.3814 43.2487 25.8828 43.1712C26.3842 43.0921 26.2539 43.4648 26.5541 43.8738C26.8542 44.2828 26.7767 44.3191 27.1626 44.6506C27.448 44.5929 27.6624 44.7051 27.9427 44.6374C28.2231 44.5698 28.5183 44.5319 28.7971 44.4527C29.0758 44.3736 29.3479 44.2548 29.6234 44.1657C29.8988 44.0767 30.1214 43.8326 30.3936 43.732C30.6657 43.6314 30.9461 43.5588 31.2132 43.4483C31.4804 43.3378 31.713 43.252 31.9769 43.13C32.094 42.6352 32.0181 42.6336 32.0197 42.1256C32.0214 41.6176 31.6305 41.428 32.0824 41.1971C32.5343 40.9662 32.4535 41.3999 32.8658 41.6968C33.2781 41.9937 33.2484 42.025 33.7168 42.2196C33.9692 42.0778 34.2347 42.0794 34.4821 41.9277C34.7295 41.776 34.9785 41.6209 35.2193 41.4593C35.4601 41.2977 35.6828 41.103 35.917 40.9332C36.1512 40.7633 36.387 40.5885 36.6146 40.4087C36.8422 40.2289 37.0583 40.0327 37.2793 39.8447C37.5003 39.6566 37.5976 39.4323 37.8103 39.2361C37.7691 38.7314 37.7213 38.7528 37.5679 38.2713C37.4145 37.7897 37.0071 37.7418 37.365 37.3839C37.7229 37.0261 37.7674 37.44 38.2507 37.5951C38.7339 37.7501 38.7075 37.8622 39.2122 37.9035C39.4085 37.6907 39.5734 37.4631 39.7614 37.2421C39.9494 37.0211 40.2084 36.8578 40.3881 36.6302C40.5679 36.4026 40.5893 36.0563 40.7592 35.8221C40.9291 35.5879 41.2342 35.4477 41.3958 35.2069C41.5575 34.9661 41.5805 34.6379 41.7323 34.3905C41.884 34.1431 42.0258 34.0013 42.1693 33.749C41.9731 33.2806 41.8791 33.3647 41.5838 32.9524C41.2886 32.5401 40.7526 32.4526 40.9835 32.0007C41.2144 31.5488 41.5987 31.9315 42.1067 31.9282C42.6146 31.9249 42.6427 32.2217 43.1375 32.1063C43.2578 31.8424 43.3271 31.5043 43.4393 31.2355C43.5514 30.9667 43.7609 30.7374 43.8615 30.4653C43.9621 30.1931 43.9472 29.8814 44.0363 29.6044C44.1254 29.3273 44.3216 29.0848 44.4008 28.8061C44.48 28.5274 44.5756 28.2503 44.6432 27.9666C44.7109 27.683 44.6993 27.3564 44.757 27.0711C44.4255 26.6868 44.3365 26.7726 43.9275 26.4724C43.5184 26.1722 43.0302 26.3965 43.1094 25.8952C43.1886 25.3938 43.5663 25.7088 44.0478 25.5488C44.5294 25.3888 44.5921 25.5307 45.0259 25.2684C45.0588 24.9815 45.0424 24.678 45.0654 24.3877C45.0885 24.0974 45.237 23.8171 45.2485 23.5252C45.2601 23.2332 45.1628 22.943 45.1628 22.651L45.1677 22.6477Z" fill="#00A29A"/>
<path d="M12.1924 37.5756C12.6113 36.2694 13.5926 35.2188 14.6943 34.4338C16.3683 33.2381 18.4382 32.7153 20.4734 32.8637C21.9973 32.9495 23.8461 33.1111 25.3733 33.2199C26.9715 33.3535 28.5515 33.5119 30.1447 33.5564C32.5608 33.5679 35.0578 33.337 37.2744 32.3079C38.358 31.79 39.3855 31.0627 40.1755 30.0566L40.314 30.1144C39.7384 32.1166 37.9374 33.5564 36.0672 34.32C33.3805 35.4069 30.3657 35.2123 27.6031 34.5361C27.2832 34.4552 26.5196 34.2095 26.1914 34.1122C24.9759 33.7246 23.7076 33.4706 22.4294 33.4838C21.1512 33.4888 19.8961 33.8054 18.7202 34.1584C17.5443 34.4981 16.3914 34.8626 15.3078 35.4316C14.216 36.0006 13.1753 36.7312 12.3276 37.64L12.1924 37.5724V37.5756Z" fill="white"/>
<path d="M13.8947 35.2972C14.0613 34.0982 14.7837 33.0509 15.6479 32.2345C16.9755 30.9811 18.7023 30.3115 20.5149 30.2801C23.0383 30.2092 25.5979 30.0558 28.1164 29.8563C29.4374 29.7705 30.77 29.5066 32.0119 29.1669C33.5111 28.7628 34.9394 28.1246 36.1054 27.0756C36.4913 26.7177 36.8657 26.3153 37.1692 25.8535L37.3259 25.898C37.2055 27.107 36.4996 28.1856 35.642 29.0201C33.8723 30.7139 31.3934 31.3538 29.007 31.3241C28.2862 31.334 27.5539 31.2846 26.8398 31.1741C25.3357 30.8838 23.8184 30.4995 22.2862 30.7502C21.1894 30.8986 20.1603 31.3571 19.2054 31.8024C18.2504 32.2345 17.3103 32.6501 16.4395 33.2307C15.5737 33.803 14.7622 34.4874 14.0464 35.3533L13.8931 35.2989L13.8947 35.2972Z" fill="white"/>
<path d="M21.9423 25.1586C22.3332 24.9442 23.0918 24.6127 23.4613 24.3637C23.5025 24.3356 23.4926 24.141 23.4415 24.08C23.1561 23.7402 20.2947 19.34 19.9962 19.0085C19.7323 18.7133 19.4733 18.4148 19.2144 18.1212C18.8252 18.2383 18.4046 18.3686 17.9807 18.489C17.9428 18.5005 17.8867 18.4461 17.8389 18.4247C17.5965 18.3125 17.3474 18.2136 17.1149 18.0849C16.9566 17.9975 16.7356 17.8952 16.691 17.7518C16.5706 17.3741 16.4931 16.9832 16.5756 16.5643C16.7388 15.7314 17.5305 15.3587 18.2331 15.8188C18.4953 15.9903 18.7378 16.1981 19.0082 16.3565C19.4436 16.6121 19.6053 17.0178 19.4206 17.4895C19.3694 17.6198 19.066 18.0717 18.9555 18.3043C19.1385 18.23 19.2969 18.3191 19.3381 18.2614C20.166 17.0838 19.8114 16.3664 19.3233 16.1437C18.8845 15.9425 18.5728 15.5912 18.1506 15.3966C17.862 15.263 17.1248 15.3092 17.0011 15.4692C16.8378 15.6803 16.6729 15.8914 16.536 16.119C16.155 16.749 16.2045 17.4664 16.658 18.0173C17.0621 18.5071 17.5371 18.865 18.2199 18.8304C18.2991 18.8271 18.3799 18.8733 18.5151 18.9128C18.4063 18.9937 18.3502 19.0332 18.3238 19.053L21.9423 25.1603V25.1586Z" fill="white"/>
<path d="M20.1323 25.6934V25.696L20.135 25.6987L20.1323 25.6934Z" fill="white"/>
<path d="M18.6101 22.9365L18.5112 22.9613L17.9125 23.3208L17.1258 24.157L16.3902 25.4335L15.9845 25.7749L15.46 26.4824L15.4419 26.5962L15.8608 27.317L16.4826 28.0542L16.7762 28.3164L17.1538 28.5292L17.4144 28.5985L17.4573 28.6265L17.5266 28.5523L17.9323 28.4566L18.4023 28.2406L19.5535 27.8019L20.4755 27.6782L20.5167 27.3384L20.5398 27.3252L20.388 26.7628L20.3732 26.5402L20.2066 26.0751L20.1522 25.8128L20.1275 25.6957L19.984 25.5902L20.0516 25.5209L19.9576 25.4632L19.8603 25.1482L19.763 25.0872L19.6855 24.8183L19.6937 24.7408L19.7168 24.6765L19.6195 24.5874L19.5799 24.5149L19.5123 24.2675L19.3985 24.2807V24.1059L19.3408 23.9822L19.2055 23.7265L18.9218 23.4033L18.8493 23.1641L18.7883 23.1493L18.7206 23.0107L18.6101 22.9365Z" fill="white"/>
<path d="M24.0843 23.8558V23.8525H24.0811L24.0843 23.8558Z" fill="white"/>
<path d="M26.7834 21.1515L25.3683 20.985L23.536 20.543L22.3996 21.112L22.2974 21.2588L22.3139 21.3594L22.3402 21.3973L22.3633 21.4171L22.5332 21.4863L22.7262 21.7832L22.9175 21.9861L23.0115 22.1197L23.1039 22.1724L23.122 22.2747L23.3644 22.4908L23.4024 22.5914L23.4535 22.7233L23.5343 22.7431L23.5525 22.8602L23.719 23.1472L23.8378 23.1983L23.9763 23.5529L24.0077 23.632L24.0769 23.6568L24.0951 23.8432L24.2336 23.9421L24.3342 24.1466L24.5816 24.4913L24.6904 24.6233L24.8983 24.9498L24.862 24.9943L25.0632 25.0933L25.9439 24.62L26.9318 24.0856L27.5915 23.4077L27.8208 22.8404L27.8092 22.1477L27.7894 21.4896L27.6294 20.8943L26.7834 21.1515Z" fill="white"/>
<path d="M17.5177 10.8824C17.4814 10.8808 17.4517 10.8791 17.422 10.8758C17.3544 10.8709 17.2753 10.8379 17.2225 10.8626C17.0988 10.9203 16.9767 10.9896 16.8728 11.0803C16.7425 11.1958 16.6469 11.3393 16.7261 11.5702C16.7953 11.7697 16.8976 11.9116 17.0971 11.9462C17.1301 11.9511 17.1615 11.9957 17.1944 12.0221C17.1812 12.0254 17.1681 12.0287 17.1549 12.0319C17.1878 12.2645 17.4319 14.6658 17.4682 14.9198C17.5589 14.9874 17.7156 15.0105 17.775 14.9495C17.8739 14.8472 17.5936 12.2661 17.4583 12.1738C17.4798 12.1573 17.521 12.1375 17.5177 12.1276C17.4831 12.0105 17.5738 11.994 17.6216 11.9445C17.6826 11.8802 17.7552 11.8291 17.8113 11.7598C17.9333 11.6097 17.9201 11.4893 17.7783 11.3244C17.7717 11.3162 17.7651 11.3063 17.7601 11.2964C17.7008 11.1892 17.6859 11.0523 17.5622 10.983C17.5408 10.9715 17.5325 10.9203 17.5177 10.8841V10.8824Z" fill="white"/>
<path d="M15.0326 12.2016C15.0623 12.1834 15.0887 12.1669 15.1134 12.1504C15.1695 12.1141 15.2239 12.0482 15.2816 12.0449C15.4185 12.0366 15.5587 12.0399 15.6923 12.0713C15.8605 12.1108 16.0139 12.1917 16.0535 12.4325C16.0865 12.6403 16.0634 12.8134 15.905 12.9388C15.8787 12.9586 15.8721 13.013 15.8556 13.0509C15.8688 13.0476 15.882 13.0443 15.8951 13.041C15.976 13.262 16.8979 15.4918 16.987 15.7326C16.9391 15.8349 16.8121 15.9289 16.7313 15.9042C16.5944 15.8613 15.6197 13.4534 15.6956 13.3099C15.6692 13.3066 15.623 13.3082 15.6214 13.2967C15.5966 13.1779 15.5076 13.206 15.4432 13.1845C15.3591 13.1565 15.2701 13.1466 15.1893 13.112C15.0111 13.0377 14.965 12.9256 15.0128 12.7128C15.0144 12.7013 15.0161 12.6897 15.0161 12.6782C15.0177 12.5545 14.965 12.4275 15.0425 12.3088C15.0557 12.289 15.0375 12.2395 15.0342 12.1999L15.0326 12.2016Z" fill="white"/>
<path d="M13.53 26.9502H13.5259V26.9584L13.53 26.9502Z" fill="white"/>
<path d="M17.5307 19.4603L16.1305 19.4801L13.8693 18.9886L11.1513 17.849L10.2508 17.0144L8.22884 15.916L7.75056 16.2013L6.96386 17.5208L6.69173 18.3932L6.05511 20.186L5.78298 21.1261L5.62135 21.9243L5.52734 22.5609L5.82586 23.4037L5.66093 23.529L5.82091 23.6379L6.04027 24.5945L6.67358 25.6813L7.22609 26.783L8.4416 27.992L10.0711 29.2734L11.2124 29.5522L11.755 29.0838L11.6197 28.998L12.0997 28.114L12.4823 27.893L12.9787 27.1063L13.0727 26.6099L13.4504 26.5274L13.4785 26.087L13.6055 26.0359L13.7753 25.9897L14.1992 25.3927L14.3064 25.2773L14.6841 24.8237L14.6775 24.507L14.882 24.5615L15.1112 24.3438L15.1442 24.1459L15.6143 23.689L15.6538 23.501L15.888 23.3608L16.1305 23.1118L16.6187 22.4405L16.9535 21.2036L17.3246 20.5554L17.4994 20.435L17.6561 20.021L17.7534 19.5559L17.5258 19.4669L17.5307 19.4603ZM6.61091 20.463L6.83521 20.0474L7.08755 19.9287L7.16012 19.6796L7.30031 19.6648L7.49492 19.7588L7.76375 20.1843L7.772 20.4944L7.80828 20.4878L7.75056 20.7253L7.33824 21.0914L6.87974 21.0766L6.61421 20.463H6.61091ZM7.1931 22.9485L7.2096 22.8512L7.0958 22.6384L6.89129 22.6269L6.93252 22.2063L7.53615 21.728L7.78849 21.6753L8.15298 21.7082L8.60488 22.0843L8.6758 22.3993L8.47953 22.6615L8.05072 23.0425L7.62026 22.9205L7.40421 23.0227L7.1964 22.9485H7.1931ZM9.38333 25.0315L9.12934 25.5296L9.01719 25.4191L8.48283 25.6582L8.03093 25.2327L7.9864 24.1261L8.2173 23.7583L8.53066 23.6461L8.70053 23.6016L8.86216 23.7352L8.95947 23.9743L8.97266 23.9133L9.38498 25.0315H9.38333ZM11.5917 26.0326L11.4301 26.2206L11.1777 26.1942L11.2437 26.4482L11.0408 26.6115L10.5477 26.7517L9.9012 26.1712L9.85832 25.7968L9.99686 25.3465L10.5213 24.8814L10.8446 24.8138L11.148 24.9721L11.4367 25.4768L11.5703 25.7671L11.595 26.031L11.5917 26.0326Z" fill="white"/>
<path d="M31.6704 15.4798L31.1772 12.869L29.6813 11.5958L28.2646 10.7876L25.6621 8.90747L24.4795 8.3995L24.2256 8.21973L24.1662 8.43908L23.8512 8.82831L23.5955 9.56058L23.2475 9.97785L23.4125 10.1312L23.2344 10.6178L23.1222 10.7398L23.0232 11.1818L22.8732 11.769L22.5565 12.5705L22.3866 13.2879L22.3174 13.4149L22.1953 13.6689L21.9743 14.1521L21.684 14.9174L21.529 15.2918L21.5719 15.841L21.3047 16.0966L21.0953 16.6953L21.2437 16.852L21.2272 16.8784L21.0161 17.2066L21.0194 17.6964L20.8198 17.7871L21.1975 18.1549L22.8352 19.4925L24.0953 19.7959L25.8748 19.5716L29.2938 19.6459L31.0552 21.0906L31.3586 21.277L31.5236 20.1324L31.4691 19.7778L31.7578 18.2539L31.6011 16.4133L31.6704 15.4798ZM25.9227 11.8465L25.8831 11.6799L25.6934 11.8465L25.413 11.6354L25.2498 10.9921L25.0551 10.6986L25.3157 10.6639L25.5763 10.6046L25.7742 10.7283L26.208 10.9196L26.495 11.5133L26.4653 11.9009L25.9227 11.8465ZM27.1233 13.6821L26.8693 13.5337L26.5873 13.4957L26.5741 12.9284L26.838 12.6727L26.8314 12.3017L27.7187 12.2885L28.1904 12.5837L28.1657 12.7865L28.0651 12.9449L27.9892 13.0224L28.1492 13.2088L28.0205 13.4314L27.7171 13.6293L27.1266 13.6821H27.1233ZM29.9386 17.167L29.4636 17.3765L29.175 17.5793L28.9952 17.416L28.926 17.2775L28.6736 17.4738L28.5384 17.2462L28.2069 17.0318L28.1607 16.4776L28.2201 16.1741L28.4922 16.1263L29.1107 15.836L29.5659 15.9185L29.8611 16.1906L29.937 17.1687L29.9386 17.167ZM30.4169 14.825L29.8397 15.0939V15.3033L29.3185 15.1219L28.9045 14.3138L28.7742 14.3567L28.7544 14.0994L28.7231 13.9163L28.8468 13.8322L29.1305 13.6013L29.6104 13.659L30.595 14.1851L30.4153 14.8234L30.4169 14.825Z" fill="white"/>
</svg>
