<?xml version="1.0" encoding="UTF-8"?>
<svg id="_レイヤー_2" data-name="レイヤー 2" xmlns="http://www.w3.org/2000/svg" viewBox="0 0 147.75 82.77">
  <defs>
    <style>
      .cls-1 {
        fill: #3da89a;
        stroke-width: 0px;
      }
    </style>
  </defs>
  <g id="_レイヤー_2-2" data-name=" レイヤー 2">
    <path class="cls-1" d="M9.34,14.54c.8,0,1.43.65,1.43,1.43v6.48c0,.8-.62,1.46-1.43,1.46h-4.49c-.8,0-1.46-.65-1.46-1.46v-2.44c-.21.42-.48.8-.83,1.13l-.68.56c-.48.39-1.22.33-1.61-.18-.42-.51-.33-1.22.15-1.63l.98-.83V7.67c0-.83.65-1.46,1.46-1.46h6.04c.8,0,1.46.62,1.46,1.46v4.82c0,.8-.65,1.46-1.46,1.46H3.66v1.19c.27-.36.68-.59,1.19-.59h4.49ZM11.12,4.1c.51.45.59,1.22.21,1.76s-1.13.62-1.64.21l-1.25-1.04c-.06.39-.42.71-.83.71h-3.63c-.39,0-.71-.27-.83-.6l-1.25,1.04c-.48.42-1.22.36-1.63-.15-.39-.51-.33-1.25.18-1.67L4.73.74c.68-.6,1.72-.6,2.41,0l3.99,3.36h-.01ZM8.18,8.06H3.66v1.1h4.52v-1.1ZM3.66,12.07h4.52v-1.07H3.66v1.07ZM4.46,4.02h2.83l-1.4-1.19-1.43,1.19ZM8.53,21.86v-5.29h-3.03v5.29h3.03ZM13.02,2.56c.65,0,1.19.54,1.19,1.19v14.42c0,.65-.54,1.19-1.19,1.19s-1.19-.54-1.19-1.19V3.75c0-.65.54-1.19,1.19-1.19ZM17.01,0C17.66,0,18.23.54,18.23,1.22v21.62c0,.65-.56,1.22-1.22,1.22s-1.25-.56-1.25-1.22V1.22C15.76.54,16.32,0,17.01,0Z"/>
    <path class="cls-1" d="M44.41,21.23c.68,0,1.22.54,1.22,1.22s-.54,1.19-1.22,1.19h-9.13c-1.01,0-1.96-.39-2.71-1.1l-1.31-1.34-2.71,2.73c-.51.51-1.31.57-1.84.12-.54-.42-.57-1.19-.12-1.66l3-3v-10.47h-1.22c-.62,0-1.13-.51-1.13-1.13s.5-1.13,1.13-1.13h2.14c.86,0,1.58.71,1.58,1.58v10.47l2.14,2.14c.24.27.57.39.92.39h9.26ZM28.05,3.42c-.59,0-1.07-.47-1.07-1.04s.48-1.07,1.07-1.07h3.51c.59,0,1.07.48,1.07,1.07s-.48,1.04-1.07,1.04h-3.51ZM32.57,6.04c-.42-.42-.42-1.13,0-1.55l3.57-3.57c.45-.45,1.16-.51,1.7-.15.18.12.3.3.36.51v-.09c0-.65.54-1.19,1.19-1.19s1.19.54,1.19,1.19v1.7h2.62c.59,0,1.07.48,1.07,1.07s-.48,1.07-1.07,1.07h-2.62v3.03h3.78c.59,0,1.07.48,1.07,1.04,0,.6-.48,1.07-1.07,1.07h-10.23c-.59,0-1.07-.48-1.07-1.07s.48-1.04,1.07-1.04h4.07v-3.03h-3.06l-1.04,1.04c-.42.42-1.1.42-1.52-.03h0ZM36.05,11.36h6.63c.86,0,1.58.71,1.58,1.58v5.77c0,.86-.71,1.58-1.58,1.58h-6.63c-.89,0-1.58-.71-1.58-1.58v-5.77c0-.86.68-1.58,1.58-1.58ZM41.91,18.17v-4.7h-5.14v4.7h5.14ZM37.95,2.17l-.71.71h.95v-1.1c-.06.15-.12.3-.24.39Z"/>
    <path class="cls-1" d="M60.2.39c.86,0,1.58.71,1.58,1.58v17.13c0,.89-.71,1.58-1.58,1.58h-4.85c-.86,0-1.58-.69-1.58-1.58V1.96c0-.86.71-1.58,1.58-1.58h4.85ZM56.9,2.38h-.89v6.1h.89V2.38ZM56.01,10.47v8.24h.89v-8.24s-.89,0-.89,0ZM59.67,8.48V2.38h-.92v6.1h.92ZM58.75,18.71h.92v-8.24h-.92v8.24ZM71.06,1.64c.62,0,1.13.5,1.13,1.13s-.51,1.13-1.13,1.13h-2.05v18.44c0,.86-.68,1.58-1.58,1.58h-3.12c-.62,0-1.13-.51-1.13-1.13s.51-1.1,1.13-1.1h2.14V3.9h-3.18c-.62,0-1.13-.51-1.13-1.13s.51-1.13,1.13-1.13h7.79Z"/>
    <path class="cls-1" d="M90.4,6.37c.03-2.71-1.25-3.12-2.26-3.12s-2.17.62-2.17,2.32v.77c0,.71-.56,1.28-1.28,1.31-.71,0-1.28-.59-1.28-1.31v-.77c0-2.88,2.02-4.88,4.7-4.88,3.18,0,4.88,2.41,4.88,5.47s-.74,4.25-1.16,5.21l-4.58,9.19h4.73c.68,0,1.25.54,1.28,1.22,0,.71-.56,1.28-1.28,1.28h-6.48c-1.1,0-1.78-1.13-1.31-2.08l5.41-10.95c.86-1.72.8-3,.8-3.66Z"/>
    <path class="cls-1" d="M121.3.86c.65,0,1.19.5,1.19,1.19s-.54,1.19-1.19,1.19h-5.41v18.71c0,1.07-.89,1.96-1.99,1.96h-2.79c-.65,0-1.16-.51-1.16-1.16s.51-1.16,1.16-1.16h2.26V3.24h-7.35c-.65,0-1.19-.54-1.19-1.19s.54-1.19,1.19-1.19h15.29-.01Z"/>
    <path class="cls-1" d="M146.17.33c.86,0,1.58.71,1.58,1.58v20.43c0,.86-.71,1.58-1.58,1.58h-11.45c-.86,0-1.58-.71-1.58-1.58V1.9c0-.86.71-1.58,1.58-1.58h11.45ZM145.1,2.71h-9.31v4.22h9.31V2.71ZM135.79,9.31v4.16h9.31v-4.16h-9.31ZM135.79,21.53h9.31v-5.68h-9.31v5.68Z"/>
    <path class="cls-1" d="M15.37,35.26h-3.27v2.44h2.62c.65,0,1.19.54,1.19,1.19s-.54,1.19-1.19,1.19h-2.62v3.24h2.59c.62,0,1.16.51,1.16,1.16s-.54,1.16-1.16,1.16h-2.56v4.22c0,1.46-1.16,2.65-2.62,2.65h-3.66c-1.46,0-2.65-1.19-2.65-2.65v-3.9c0-1.46,1.19-2.65,2.65-2.65h3.78v-3.24h-5.32c-.65,0-1.19-.54-1.19-1.19s.54-1.19,1.19-1.19h5.32v-2.44H3.54c-.65,0-1.19-.54-1.19-1.19s.54-1.19,1.19-1.19h6.1v-1.61c0-.68.54-1.25,1.22-1.25s1.25.57,1.25,1.25v1.61h3.27c.65,0,1.19.54,1.19,1.19s-.54,1.19-1.19,1.19h0ZM9.63,50.13v-4.49h-3.93v4.49s3.93,0,3.93,0Z"/>
    <path class="cls-1" d="M41.88,39.54c.71,0,1.28.56,1.28,1.28v9.04c0,1.46-1.19,2.65-2.65,2.65h-7.7c-.68,0-1.22-.57-1.22-1.22s.54-1.22,1.22-1.22h7.82v-7.67h-6.48c-1.46,0-2.65-1.19-2.65-2.65v-4.52h-1.13c-.65,0-1.22-.56-1.22-1.22s.56-1.25,1.22-1.25h1.13v-1.49c0-.68.56-1.25,1.25-1.25s1.25.57,1.25,1.25v1.49h7.67c.68,0,1.22.57,1.22,1.25s-.54,1.22-1.22,1.22h-7.67v4.73h6.96c.24-.27.56-.42.92-.42Z"/>
    <path class="cls-1" d="M57.88,34.19c.59.33,1.22.51,1.9.51h7.55c1.46,0,2.62,1.16,2.62,2.62v11.78c0,1.46-1.16,2.65-2.62,2.65h-8.06c-.68,0-1.25-.56-1.25-1.25s.56-1.25,1.25-1.25h8.12v-12.04h-10.2c-1.04,0-1.84-.98-1.58-1.99.24-1.01,1.37-1.49,2.26-1.01v-.02ZM71.8,33.98c.18.42-.03.92-.48,1.07-.45.18-.95-.06-1.16-.48l-1.28-2.91c-.18-.45.03-.92.45-1.07.48-.18.98.03,1.16.47,0,0,1.31,2.92,1.31,2.92ZM74.18,33.98c.21.42-.03.92-.45,1.07-.45.18-.98-.06-1.16-.48l-1.28-2.91c-.21-.45,0-.92.45-1.07.45-.18.98.03,1.16.47l1.28,2.92Z"/>
    <path class="cls-1" d="M86.97,41.21l7.49,8.83c.27.33.48.56.48,1.16,0,.8-.65,1.46-1.43,1.46s-1.43-.65-1.43-1.43l-8.48-9.99c-.48-.54-.42-1.34.15-1.81.45-.39,1.1-.39,1.58-.06l7.2-7.11-.09-.06c-.8-.56-.74-1.75.09-2.23.89-.54,2.05-.06,2.32.95v.03c.33,1.25-.06,2.59-.98,3.48,0,0-6.9,6.78-6.9,6.78Z"/>
    <path class="cls-1" d="M114.04,44.6c.59-.42,1.43-.06,1.58.65.18.8-.45,1.52-1.25,1.52h-.89c-1.37,0-2.47-1.1-2.47-2.47v-11.69c0-.68.57-1.25,1.25-1.25s1.22.56,1.22,1.25v12.37l.57-.39h-.01ZM121.06,30.03c.68,0,1.25.57,1.25,1.25v18.71c0,1.49-1.19,2.65-2.65,2.65h-1.22c-1.04,0-1.79-.98-1.52-1.99.3-1.01,1.46-1.43,2.35-.89l.54.36v-18.82c0-.68.54-1.25,1.25-1.25v-.02Z"/>
    <path class="cls-1" d="M5.59,66.73h-1.04v14.84c0,.6-.48,1.1-1.1,1.1s-1.07-.5-1.07-1.1v-14.84h-.89c-.57,0-1.07-.48-1.07-1.04,0-.6.51-1.07,1.07-1.07h.89v-4.94c0-.59.48-1.07,1.07-1.07.62,0,1.1.48,1.1,1.07v4.94h1.04c.59,0,1.04.47,1.04,1.07,0,.56-.45,1.04-1.04,1.04ZM10.41,70.57c.86,0,1.58.71,1.58,1.58v9.52c0,.54-.45,1.01-.98,1.01-.57,0-.98-.47-.98-1.01v-9.25h-.77l-1.84,9.13c-.12.59-.65.98-1.25.89-.57-.06-.95-.62-.83-1.19l1.78-8.83h-1.31c-.5,0-.92-.42-.92-.92s.42-.92.92-.92h1.99l.12-.56c.12-.6.65-.98,1.22-.95s.98.54.89,1.1l-.06.42h.45v-.02ZM7.73,62.63c-.59,0-1.1-.48-1.1-1.07,0-.62.51-1.1,1.1-1.1h3.9l1.04-1.58c.39-.59,1.13-.86,1.78-.62.57.18.8.83.48,1.34l-.57.86h2.65c.89,0,1.61.71,1.61,1.58v5.8c0,.62-.54,1.16-1.16,1.16s-1.16-.54-1.16-1.16v-5.2h-3.39l-3.81,5.74c-.36.54-1.07.71-1.64.42-.57-.27-.74-.98-.39-1.49l3.09-4.67h-2.44.01ZM17.9,70.57c.86,0,1.58.71,1.58,1.58v9.52c0,.54-.42,1.01-.98,1.01s-.98-.47-.98-1.01v-9.25h-1.34l-1.58,9.22c-.12.6-.65.98-1.25.92-.57-.06-.95-.59-.86-1.16l1.55-8.98h-.92c-.51,0-.92-.42-.92-.92s.42-.92.92-.92h1.25l.12-.71c.12-.6.68-.98,1.28-.89.57.09.95.62.83,1.19l-.09.42h1.4v-.02Z"/>
    <path class="cls-1" d="M33.4,64.23h-5.47c-.57,0-1.04-.48-1.04-1.04s.48-1.01,1.04-1.01h5.47c.57,0,1.04.45,1.04,1.01s-.48,1.04-1.04,1.04ZM32.3,71.75c.8,0,1.46.65,1.46,1.46v7.85c0,.8-.65,1.46-1.46,1.46h-3.27c-.8,0-1.46-.65-1.46-1.46v-7.85c0-.8.65-1.46,1.46-1.46h3.27ZM28.61,61.02c-.5,0-.92-.42-.92-.92s.42-.92.92-.92h4.1c.5,0,.92.42.92.92s-.42.92-.92.92h-4.1ZM28.61,67.29c-.5,0-.92-.42-.92-.92s.42-.92.92-.92h4.1c.5,0,.92.42.92.92s-.42.92-.92.92h-4.1ZM28.61,70.48c-.5,0-.92-.42-.92-.92,0-.54.42-.95.92-.95h4.1c.5,0,.92.42.92.95s-.42.92-.92.92h-4.1ZM31.65,80.62v-6.96h-1.93v6.96h1.93ZM46.22,81.21c.3.51.12,1.16-.39,1.43-.54.27-1.16.09-1.46-.42l-1.72-2.97-1.37,2.44c-.27.45-.83.59-1.28.36-.45-.24-.59-.8-.36-1.25l1.96-3.39-1.93-3.36-.09-.18h-1.4v1.7l.8-.24c.51-.15,1.07.15,1.25.65.18.51-.12,1.04-.62,1.16l-1.43.39v3.54c0,.8-.65,1.46-1.46,1.46h-1.1c-.56,0-1.01-.45-1.01-1.01s.45-1.04,1.01-1.04h.51v-2.38l-.89.24c-.5.15-1.01-.18-1.13-.68s.21-1.04.71-1.19l1.31-.36v-2.23h-1.31c-.48,0-.86-.39-.86-.86s.39-.86.86-.86h1.31v-1.31l-1.1.3c-.51.15-.98-.18-1.1-.68-.09-.51.21-1.01.71-1.16l3.27-.92c.51-.12,1.07.15,1.25.65.18.48-.09,1.01-.59,1.16l-.39.09v1.87h2.71l-1.46-2.53c-.27-.45-.06-1.01.42-1.22.51-.21,1.07-.03,1.34.45l1.9,3.3h1.87c.48,0,.86.39.86.86s-.39.86-.86.86h-2.97l.83,1.4.21-.36c.27-.51.83-.71,1.4-.56.45.12.68.65.42,1.07l-.98,1.72,2.35,4.07h0ZM35.51,62.03c-.5,0-.92-.42-.92-.92s.42-.92.92-.92h1.75l-.21-.39c-.3-.47-.09-1.13.42-1.37.57-.27,1.25-.03,1.55.51l.3.47c.12.24.15.51.12.77h.86l.65-1.16c.3-.54.95-.8,1.58-.59.51.15.74.77.48,1.25l-.3.51h1.67c.51,0,.92.42.92.92s-.42.92-.92.92h-3.39v1.16h2.74c.48,0,.89.42.89.89,0,.51-.42.89-.89.89h-2.74v1.31h3.66c.51,0,.92.38.92.92,0,.5-.42.92-.92.92h-9.4c-.5,0-.92-.42-.92-.92,0-.54.42-.92.92-.92h3.63v-1.31h-2.71c-.48,0-.89-.39-.89-.89s.42-.89.89-.89h2.71v-1.16h-3.37ZM42.95,68.57c.48-.21,1.04-.06,1.31.42l.92,1.61c.24.42.06.98-.39,1.19-.48.21-1.04.03-1.31-.45l-.89-1.55c-.27-.45-.09-1.01.36-1.22Z"/>
    <path class="cls-1" d="M73.05,63.64c-.24.65-.98.98-1.64.74l-7.97-3.15-8.18,3.15c-.62.24-1.31-.09-1.46-.74-.18-.68.18-1.37.83-1.63l7.38-2.91c.95-.36,2.02-.36,2.94,0l7.35,2.88c.65.27.98,1.01.74,1.66h0ZM70.82,71.55h-6.66l-3.36,7.67h6.99l-1.31-3.03c-.3-.62,0-1.37.62-1.67.65-.27,1.4,0,1.67.65l2.47,5.68c.27.62,0,1.4-.62,1.72-.59.33-1.34.06-1.61-.57l-.24-.54h-11.93c-.59,0-1.13-.51-1.13-1.13s.54-1.13,1.13-1.13h1.31l3.33-7.67h-5.47c-.62,0-1.13-.51-1.13-1.13s.5-1.1,1.13-1.1h14.81c.62,0,1.13.5,1.13,1.1s-.51,1.13-1.13,1.13v.02ZM69.24,66.07c0,.62-.5,1.13-1.13,1.13h-9.4c-.62,0-1.13-.51-1.13-1.13s.5-1.13,1.13-1.13h9.4c.62,0,1.13.51,1.13,1.13Z"/>
  </g>
</svg>