<?xml version="1.0" encoding="UTF-8"?>
<svg id="_レイヤー_2" data-name="レイヤー 2" xmlns="http://www.w3.org/2000/svg" viewBox="0 0 333.03 391.1">
  <defs>
    <style>
      .cls-1 {
        fill: #3da89a;
      }

      .cls-1, .cls-2 {
        stroke-width: 0px;
      }

      .cls-2 {
        fill: #fff;
      }
    </style>
  </defs>
  <g id="_レイヤー_1-2" data-name="レイヤー 1">
    <g>
      <path class="cls-1" d="M302.46,194.74c0-1.77.68-3.55.61-5.3s-1.15-3.47-1.29-5.22-.36-2.94-.56-4.68c-2.63-1.6-2.53-1.62-5.45-2.59-2.92-.96-5.69,1.22-6.16-1.82s3.14-1.39,5.62-3.21,2.71-1.7,4.71-4.03c-.35-1.73-1.32-3.42-1.73-5.12-.41-1.71.33-3.73-.14-5.42s-1.56-3.22-2.1-4.89-.63-3.52-1.24-5.17-1.9-3.05-2.57-4.67c-.67-1.63-1.21-3.8-1.94-5.39-3-.71-3.21.36-6.29.35-3.08-.02-4.15,2.56-5.55-.18-1.4-2.74,1.71-1.81,3.5-4.31s2.38-2.33,3.56-5.17c-.86-1.53-2.1-3.35-3.02-4.85s-1.68-3.11-2.66-4.57-2.29-2.7-3.32-4.13-2.73-2.33-3.82-3.71-1.71-3.13-2.85-4.47-2.18-2.27-3.37-3.57c-3.06.25-3.18-.19-6.1.74-2.93.93-2.96,4.21-5.13,2.04-2.17-2.17-.07-2.58.87-5.51.93-2.93,1.73-2.66,1.98-5.72-1.29-1.19-2.41-2.11-3.74-3.25s-2.02-3.09-3.41-4.18-3.18-1.65-4.61-2.69-3.08-1.73-4.54-2.71c-1.46-.98-2.72-2.27-4.22-3.19-1.5-.92-2.85-1.05-4.38-1.92-2.84,1.19-2.59,1.4-5.09,3.2-2.5,1.8-2.38,4.69-5.12,3.29-2.74-1.4,0-3-.02-6.08s1.25-3.31.54-6.31c-1.6-.73-3.6-1.86-5.23-2.53s-3.69-.21-5.34-.82-3.05-1.9-4.73-2.44c-1.67-.54-3.25-1.45-4.94-1.93s-3.4-.97-5.12-1.38c-1.7-.41-3.83-.45-5.56-.8-2.33,2.01-1.24,3.02-3.06,5.5-1.82,2.48-.89,4.98-3.94,4.5-3.04-.48-.88-2.73-1.85-5.65s-.41-3.2-2-5.82c-1.74-.2-3.55-.12-5.31-.25s-3.5.03-5.27-.04c-1.75-.07-3.49-1.25-5.26-1.25s-3.54.27-5.29.34-3.48.95-5.22,1.08c-1.76.14-3.59-.08-5.33.12-1.6,2.63-.64,3.04-1.61,5.96-.96,2.92.95,5.97-2.09,6.45-3.04.48-2.44-2.8-4.27-5.28s-.91-3.2-3.24-5.21c-1.73.35-3.47.05-5.17.46s-3.34,1.21-5.03,1.68c-1.7.48-3.18,1.64-4.84,2.18s-3.52.57-5.17,1.18-3.47.82-5.09,1.49-3.72,1.74-5.31,2.47c-.71,3,1.34,3.25,1.33,6.33s2.01,4.68-.73,6.08c-2.74,1.4-2.12-2.2-4.62-3.99-2.5-1.8-2.79-1.24-5.63-2.42-1.53.86-2.71,1.14-4.2,2.07-1.5.92-3.42,1.21-4.88,2.19s-2.51,2.58-3.93,3.61c-1.42,1.04-2.48,2.53-3.86,3.62s-3,1.87-4.33,3.01c-1.34,1.14-2.38,2.17-3.68,3.36.25,3.06.24,3.06,1.17,5.99.93,2.93,4.56,3.76,2.39,5.93-2.17,2.17-3.35-.39-6.27-1.32-2.93-.93-2.49-3.16-5.55-3.41-1.19,1.29-2.73,3.16-3.88,4.49-1.14,1.34-1.68,3.17-2.77,4.56-1.09,1.38-2.86,2.25-3.9,3.67-1.03,1.42-2.09,2.86-3.07,4.32-.98,1.46-1.78,3.06-2.71,4.55-.92,1.5-2.04,3.46-2.91,5,1.19,2.84,2.42,2.23,4.21,4.72,1.8,2.5,4.72,2.17,3.32,4.91-1.4,2.74-2.85.05-5.93.06s-3.16-.57-6.15.14c-.73,1.6-1.47,3.17-2.14,4.8s-1.69,3.12-2.3,4.77c-.61,1.65-.96,3.4-1.51,5.07s-1.27,3.3-1.74,4.99-.14,3.59-.56,5.31c-.41,1.7-1.77,3.86-2.12,5.59,2.01,2.33,3.07,1.33,5.55,3.15s4.85.48,4.38,3.52-2.33.99-5.25,1.96-3.21.37-5.83,1.97c-.2,1.74-1.15,3.46-1.28,5.22s-.11,3.54-.18,5.3.59,3.53.59,5.3.26,3.52.32,5.27.7,3.47.83,5.22-.37,3.41-.17,5.15c2.63,1.6,2.9.88,5.82,1.84s4.49-.74,4.97,2.3-1.21,2.36-3.69,4.18c-2.48,1.82-3.57.54-5.58,2.87.35,1.73,1.53,3.4,1.94,5.11s-.31,3.72.17,5.4,1.98,3.08,2.53,4.74,0,3.73.61,5.37,2.6,2.76,3.27,4.38c.67,1.63.47,4.3,1.2,5.9,3,.71,3.26-.35,6.34-.33,3.08.02,5.05-3.26,6.45-.51,1.4,2.74-1.64,2.96-3.44,5.46s-2.12,2.14-3.31,4.98c.86,1.53.81,2.88,1.73,4.38.92,1.5,1.67,3.13,2.64,4.59.98,1.46,2.37,2.65,3.4,4.07,1.04,1.42,2.41,2.58,3.5,3.96s1.97,2.92,3.12,4.26c1.14,1.34,2.32,3.26,3.51,4.56,3.06-.25,2.69-2.1,5.62-3.03,2.93-.93,4.06-3.65,6.23-1.48,2.17,2.17-.99,3.16-1.92,6.09s-2.45,2.69-2.7,5.75c1.29,1.19,3.02,2.74,4.36,3.88,1.34,1.14,3.39,1.41,4.77,2.5,1.38,1.09,2.08,3.07,3.51,4.1,1.42,1.03,3.48,1.16,4.94,2.14s2.52,2.56,4.02,3.49,3.07,1.6,4.6,2.46c2.84-1.19,2.31-2.03,4.81-3.83,2.5-1.8,2.3-4.34,5.04-2.94,2.74,1.4.34,2.73.36,5.81.02,3.08-1.1,3.23-.39,6.22,1.6.73,3.35,1.68,4.98,2.35,1.62.67,3.65.3,5.3.91,1.65.61,3.1,1.72,4.78,2.26s3.37.97,5.06,1.45c1.69.48,3.36,1.01,5.07,1.42,1.7.41,3.02.51,4.75.86,2.33-2.01,2.64-1.72,4.46-4.2,1.82-2.48.13-5.68,3.17-5.2s1.07,2.8,2.03,5.71c.96,2.92-.17,3.49,1.42,6.12,1.74.2,3.95-.41,5.71-.27,1.75.13,3.46.89,5.22.96s3.51.24,5.28.24,3.53-.3,5.28-.37,3.55.27,5.3.14c1.76-.14,2.88-1.11,4.62-1.31,1.6-2.63,1.27-2.65,2.23-5.57.96-2.92-.77-4.92,2.27-5.39,3.04-.48,2.25,1.78,4.07,4.26s1.35,2.7,3.69,4.71c1.73-.35,3.03.33,4.73-.08,1.71-.41,3.49-.64,5.18-1.12,1.7-.48,3.34-1.2,5.01-1.74,1.68-.54,3.02-2.02,4.67-2.63s3.35-1.05,4.97-1.72c1.63-.67,3.03-1.19,4.63-1.93.71-3,.25-3.01.26-6.09s-2.36-4.23.38-5.63c2.74-1.4,2.25,1.23,4.75,3.03s2.32,1.99,5.16,3.17c1.53-.86,3.14-.85,4.64-1.77s3.01-1.86,4.47-2.84c1.46-.98,2.81-2.16,4.23-3.19,1.42-1.04,2.85-2.09,4.23-3.18s2.69-2.28,4.03-3.42,1.93-2.5,3.22-3.69c-.25-3.06-.54-2.93-1.47-5.85-.93-2.93-3.4-3.21-1.23-5.38,2.17-2.17,2.44.34,5.37,1.28s2.77,1.62,5.83,1.87c1.19-1.29,2.19-2.67,3.33-4.01,1.14-1.34,2.71-2.33,3.8-3.71s1.22-3.48,2.25-4.9,2.88-2.27,3.86-3.73,1.12-3.45,2.04-4.95,1.78-2.36,2.65-3.89c-1.19-2.84-1.76-2.33-3.55-4.83s-5.04-3.03-3.64-5.77,3.73-.42,6.81-.44c3.08-.02,3.25,1.78,6.25,1.08.73-1.6,1.15-3.65,1.83-5.28.67-1.62,1.95-3.02,2.56-4.67.61-1.65.52-3.54,1.06-5.22.54-1.67,1.73-3.15,2.21-4.84s1.06-3.37,1.47-5.09c.41-1.7.34-3.7.69-5.43-2.01-2.33-2.55-1.81-5.03-3.63s-5.44-.46-4.96-3.5c.48-3.04,2.77-1.13,5.69-2.1,2.92-.96,3.3-.11,5.93-1.7.2-1.74.1-3.58.24-5.34.13-1.75,1.04-3.46,1.11-5.23.07-1.75-.52-3.53-.52-5.3Z"/>
      <path class="cls-2" d="M102.52,285.27c2.54-7.92,8.49-14.29,15.17-19.05,10.15-7.25,22.7-10.42,35.04-9.52,9.24.52,20.45,1.5,29.71,2.16,9.69.81,19.27,1.77,28.93,2.04,14.65.07,29.79-1.33,43.23-7.57,6.57-3.14,12.8-7.55,17.59-13.65l.84.35c-3.49,12.14-14.41,20.87-25.75,25.5-16.29,6.59-34.57,5.41-51.32,1.31-1.94-.49-6.57-1.98-8.56-2.57-7.37-2.35-15.06-3.89-22.81-3.81-7.75.03-15.36,1.95-22.49,4.09-7.13,2.06-14.12,4.27-20.69,7.72-6.62,3.45-12.93,7.88-18.07,13.39l-.82-.41h0Z"/>
      <path class="cls-2" d="M112.84,271.46c1.01-7.27,5.39-13.62,10.63-18.57,8.05-7.6,18.52-11.66,29.51-11.85,15.3-.43,30.82-1.36,46.09-2.57,8.01-.52,16.09-2.12,23.62-4.18,9.09-2.45,17.75-6.32,24.82-12.68,2.34-2.17,4.61-4.61,6.45-7.41l.95.27c-.73,7.33-5.01,13.87-10.21,18.93-10.73,10.27-25.76,14.15-40.23,13.97-4.37.06-8.81-.24-13.14-.91-9.12-1.76-18.32-4.09-27.61-2.57-6.65.9-12.89,3.68-18.68,6.38-5.79,2.62-11.49,5.14-16.77,8.66-5.25,3.47-10.17,7.62-14.51,12.87l-.93-.33h0Z"/>
      <g>
        <path class="cls-2" d="M161.63,209.94c2.37-1.3,6.97-3.31,9.21-4.82.25-.17.19-1.35-.12-1.72-1.73-2.06-19.08-28.74-20.89-30.75-1.6-1.79-3.17-3.6-4.74-5.38-2.36.71-4.91,1.5-7.48,2.23-.23.07-.57-.26-.86-.39-1.47-.68-2.98-1.28-4.39-2.06-.96-.53-2.3-1.15-2.57-2.02-.73-2.29-1.2-4.66-.7-7.2.99-5.05,5.79-7.31,10.05-4.52,1.59,1.04,3.06,2.3,4.7,3.26,2.64,1.55,3.62,4.01,2.5,6.87-.31.79-2.15,3.53-2.82,4.94,1.11-.45,2.07.09,2.32-.26,5.02-7.14,2.87-11.49-.09-12.84-2.66-1.22-4.55-3.35-7.11-4.53-1.75-.81-6.22-.53-6.97.44-.99,1.28-1.99,2.56-2.82,3.94-2.31,3.82-2.01,8.17.74,11.51,2.45,2.97,5.33,5.14,9.47,4.93.48-.02.97.26,1.79.5-.66.49-1,.73-1.16.85l21.94,37.03Z"/>
        <g>
          <polygon class="cls-2" points="150.66 213.19 150.65 213.2 150.67 213.21 150.66 213.19"/>
          <polygon class="cls-2" points="141.43 196.48 140.83 196.63 137.2 198.81 132.43 203.88 127.97 211.62 125.51 213.69 122.33 217.98 122.22 218.67 124.76 223.04 128.53 227.51 130.31 229.1 132.6 230.39 134.18 230.81 134.44 230.98 134.85 230.53 137.32 229.95 140.17 228.64 147.15 225.98 152.74 225.23 152.99 223.17 153.13 223.09 152.2 219.68 152.12 218.33 151.1 215.51 150.78 213.93 150.62 213.21 149.76 212.57 150.17 212.15 149.6 211.8 149.01 209.89 148.42 209.52 147.95 207.89 148 207.42 148.13 207.03 147.55 206.49 147.31 206.05 146.9 204.54 146.21 204.63 146.21 203.57 145.86 202.82 145.04 201.27 143.32 199.31 142.88 197.86 142.51 197.77 142.1 196.93 141.43 196.48"/>
        </g>
        <g>
          <polygon class="cls-2" points="174.62 202.07 174.62 202.06 174.61 202.06 174.62 202.07"/>
          <polygon class="cls-2" points="190.99 185.68 182.41 184.67 171.3 181.99 164.41 185.44 163.79 186.32 163.89 186.94 164.05 187.17 164.19 187.29 165.22 187.71 166.38 189.51 167.55 190.74 168.12 191.55 168.68 191.87 168.79 192.49 170.26 193.8 170.48 194.41 170.8 195.21 171.29 195.33 171.4 196.04 172.41 197.78 173.13 198.09 173.97 200.24 174.16 200.72 174.58 200.87 174.69 202 175.53 202.6 176.14 203.84 177.64 205.93 178.3 206.73 179.56 208.71 179.34 208.98 180.56 209.58 185.9 206.71 191.89 203.47 195.89 199.36 197.28 195.92 197.21 191.72 197.09 187.73 196.12 184.12 190.99 185.68"/>
        </g>
        <path class="cls-2" d="M134.82,123.4c-.22-.01-.4-.02-.58-.04-.41-.03-.89-.23-1.21-.08-.75.35-1.49.77-2.12,1.32-.79.7-1.37,1.57-.89,2.97.42,1.21,1.04,2.07,2.25,2.28.2.03.39.3.59.46-.08.02-.16.04-.24.06.2,1.41,1.68,15.97,1.9,17.51.55.41,1.5.55,1.86.18.6-.62-1.1-16.27-1.92-16.83.13-.1.38-.22.36-.28-.21-.71.34-.81.63-1.11.37-.39.81-.7,1.15-1.12.74-.91.66-1.64-.2-2.64-.04-.05-.08-.11-.11-.17-.36-.65-.45-1.48-1.2-1.9-.13-.07-.18-.38-.27-.6Z"/>
        <path class="cls-2" d="M119.73,131.38c.18-.11.34-.21.49-.31.34-.22.67-.62,1.02-.64.83-.05,1.68-.03,2.49.16,1.02.24,1.95.73,2.19,2.19.2,1.26.06,2.31-.9,3.07-.16.12-.2.45-.3.68.08-.02.16-.04.24-.06.49,1.34,6.08,14.86,6.62,16.32-.29.62-1.06,1.19-1.55,1.04-.83-.26-6.74-14.86-6.28-15.73-.16-.02-.44-.01-.45-.08-.15-.72-.69-.55-1.08-.68-.51-.17-1.05-.23-1.54-.44-1.08-.45-1.36-1.13-1.07-2.42.01-.07.02-.14.02-.21.01-.75-.31-1.52.16-2.24.08-.12-.03-.42-.05-.66Z"/>
        <g>
          <polygon class="cls-2" points="110.63 220.81 110.61 220.81 110.61 220.85 110.63 220.81"/>
          <path class="cls-2" d="M134.88,175.4l-8.49.11-13.71-2.98-16.48-6.91-5.46-5.06-12.26-6.66-2.9,1.73-4.77,8-1.65,5.29-3.86,10.87-1.65,5.71-.98,4.84-.57,3.86,1.81,5.11-1,.76.97.66,1.33,5.8,3.84,6.59,3.35,6.68,7.37,7.33,9.88,7.77,6.92,1.69,3.29-2.84-.82-.52,2.91-5.36,2.32-1.34,3.01-4.77.57-3.01,2.29-.5.17-2.68.77-.31,1.04-.29,2.57-3.62.65-.7,2.29-2.75-.03-1.92,1.24.33,1.39-1.32.2-1.21,2.85-2.77.25-1.14,1.42-.85,1.47-1.51,2.96-4.08,2.03-7.5,2.25-3.93,1.06-.73.95-2.52.59-2.82-1.38-.54ZM68.68,181.48l1.36-2.52,1.53-.71.44-1.52.85-.09,1.18.57,1.63,2.58.05,1.88.22-.04-.36,1.44-2.5,2.22-2.78-.09-1.61-3.72ZM72.21,196.55l.09-.59-.69-1.29-1.25-.07.25-2.55,3.66-2.9,1.53-.32,2.21.2,2.74,2.28.43,1.92-1.19,1.59-2.6,2.31-2.61-.74-1.3.62-1.26-.45ZM85.49,209.18l-1.54,3.02-.68-.67-3.24,1.45-2.74-2.58-.27-6.71,1.4-2.23,1.9-.68,1.04-.26.98.81.59,1.45.08-.38,2.5,6.78ZM98.88,215.25l-.98,1.15-1.53-.17.39,1.55-1.23.99-2.99.85-3.92-3.52-.26-2.27.84-2.73,3.18-2.82,1.96-.41,1.84.96,1.74,3.06.81,1.77.15,1.6Z"/>
        </g>
        <path class="cls-2" d="M220.62,151.27l-2.99-15.83-9.07-7.72-8.59-4.9-15.78-11.4-7.16-3.08-1.54-1.09-.36,1.33-1.91,2.36-1.55,4.44-2.11,2.53,1,.93-1.08,2.95-.68.74-.6,2.68-.91,3.57-1.92,4.86-1.03,4.36-.42.77-.74,1.54-1.34,2.93-1.76,4.64-.94,2.27.26,3.34-1.62,1.55-1.27,3.63.9.95-.1.16-1.28,1.99.02,2.98-1.2.54,2.29,2.23,9.93,8.11,7.64,1.84,10.79-1.36,20.73.45,10.68,8.76,1.84,1.13,1-6.95-.33-2.15,1.75-9.24-.95-11.16.42-5.66ZM185.77,129.24l-.24-1.02-1.15,1.02-1.7-1.28-.99-3.9-1.18-1.78,1.57-.21,1.58-.36,1.2.76,2.63,1.16,1.74,3.6-.18,2.35-3.29-.33ZM193.05,140.37l-1.54-.9-1.71-.23-.08-3.44,1.6-1.55-.05-2.25,5.38-.08,2.86,1.79-.15,1.23-.61.96-.46.47.97,1.14-.78,1.35-1.85,1.2-3.59.32ZM210.12,161.5l-2.88,1.27-1.76,1.22-1.09-.99-.42-.84-1.52,1.19-.82-1.38-2.01-1.3-.28-3.36.36-1.84,1.64-.29,3.76-1.76,2.76.5,1.78,1.65.46,5.93ZM213.02,147.3l-3.5,1.64v1.27s-3.16-1.1-3.16-1.1l-2.51-4.9-.79.27-.12-1.56-.19-1.11.75-.51,1.72-1.4,2.91.35,5.97,3.19-1.09,3.87Z"/>
      </g>
      <g>
        <path class="cls-1" d="M40.77,49.64c1.13,0,2.09.88,2.19,1.99.1,1.1-.74,2.03-1.83,2.06l-2.72.06c.35.55.26,1.36-.27,1.82l-4.58,3.99c-.49.43-1.2.45-1.71.17l-.43,2.69c-.14,1.05-1.15,1.79-2.23,1.61-1.04-.21-1.79-1.22-1.61-2.3l1.42-9.29c.21-1.5,1.52-2.65,3.04-2.65l8.73-.14ZM50,64.78c1.01-.88,2.52-.75,3.37.23l7.13,8.18c.88,1.01.81,2.53-.2,3.41l-5.67,4.94c-1.01.88-2.56.78-3.44-.24l-2.68-3.08c.19.75.28,1.54.19,2.34l-.24,1.46c-.18,1.01-1.18,1.75-2.22,1.54-1.08-.18-1.75-1.18-1.61-2.23l.32-2.13-12.53-14.38c-.92-1.05-.78-2.56.24-3.44l7.62-6.64c1.01-.88,2.53-.81,3.44.24l5.3,6.08c.88,1.01.78,2.56-.24,3.44l-6.61,5.76,1.31,1.5c-.06-.74.21-1.5.85-2.06l5.67-4.94ZM32.27,56.86l3.57-3.11-3.07.04-.49,3.07ZM41.41,57.87l-5.71,4.97,1.21,1.39,5.71-4.97-1.21-1.39ZM40.12,67.91l5.71-4.97-1.18-1.35-5.71,4.97,1.18,1.35ZM41.48,45.59c.83-.72,2.09-.63,2.81.19l15.87,18.21c.72.83.63,2.09-.19,2.81-.83.72-2.09.63-2.81-.19l-15.87-18.21c-.72-.83-.63-2.09.19-2.81ZM43.69,37.98c.83-.72,2.13-.67,2.88.2l23.78,27.29c.72.83.63,2.16-.2,2.88-.86.75-2.2.66-2.92-.17l-23.79-27.29c-.75-.86-.63-2.16.24-2.91ZM57.04,74.9l-5.82-6.68-3.83,3.34,5.82,6.68,3.83-3.34Z"/>
        <path class="cls-1" d="M73.28,25.59c-.91.41-1.96,0-2.35-.86-.41-.91,0-1.96.9-2.37l5.36-2.4c.91-.41,1.96,0,2.37.9.39.86-.01,1.92-.92,2.32l-5.36,2.4ZM110.46,41.6c1.04-.47,2.23-.02,2.7,1.03.45,1,0,2.18-1.05,2.65l-13.95,6.25c-1.54.69-3.26.75-4.89.17l-2.92-1.15-2.26,6.03c-.43,1.12-1.61,1.76-2.74,1.44-1.1-.27-1.68-1.43-1.32-2.46l2.53-6.65-7.17-15.99-1.86.83c-.95.43-2.07,0-2.5-.95-.43-.96,0-2.07.95-2.5l3.27-1.46c1.32-.59,2.9.01,3.49,1.33l7.16,15.99,4.74,1.8c.55.25,1.13.21,1.67-.04l14.13-6.33ZM81.98,26.49c-.92-.35-1.41-1.44-1.06-2.36l3.01-7.89c.38-.99,1.42-1.57,2.49-1.39.35.06.66.25.89.53l-.06-.14c-.45-1,0-2.18,1-2.63,1-.45,2.18,0,2.63,1l1.16,2.59,4-1.79c.91-.41,1.96,0,2.37.9.41.91,0,1.96-.9,2.37l-4,1.79,2.04,4.54s.02.05.04.09l5.77-2.58c.91-.41,1.96,0,2.35.86.41.91,0,1.96-.9,2.37l-15.63,7c-.91.41-1.96,0-2.37-.9-.39-.86.01-1.92.92-2.32l6.22-2.79s-.04-.09-.04-.09l-2.04-4.54-4.68,2.1-.88,2.3c-.35.92-1.4,1.39-2.34.99ZM87.56,16.9l-.6,1.58,1.46-.65-.75-1.68c.01.27.02.53-.1.75ZM90.94,32.24l10.13-4.54c1.32-.59,2.9.01,3.49,1.33l3.95,8.81c.59,1.32-.01,2.9-1.33,3.49l-10.13,4.54c-1.36.61-2.9-.01-3.49-1.33l-3.95-8.81c-.59-1.32-.03-2.88,1.33-3.49ZM104.55,38.63l-3.22-7.18-7.86,3.52,3.22,7.18,7.86-3.52Z"/>
        <path class="cls-1" d="M135.2.21c1.43-.18,2.77.86,2.95,2.29l3.59,28.45c.19,1.48-.85,2.77-2.29,2.95l-8.05,1.01c-1.43.18-2.76-.81-2.95-2.29l-3.59-28.45c-.18-1.43.85-2.77,2.29-2.95l8.05-1.01ZM130.13,4.22l-1.48.19,1.28,10.13,1.48-.19-1.28-10.12ZM130.34,17.84l1.72,13.68,1.48-.19-1.73-13.68-1.48.19ZM136,13.76l-1.28-10.13-1.53.19,1.28,10.13,1.53-.19ZM136.61,30.95l1.53-.19-1.73-13.68-1.53.19,1.73,13.68ZM153.49.01c1.04-.13,1.98.6,2.11,1.64.13,1.04-.6,1.98-1.64,2.11l-3.41.43,3.86,30.62c.18,1.43-.81,2.76-2.29,2.95l-5.19.66c-1.04.13-1.98-.6-2.11-1.64-.12-.99.61-1.93,1.65-2.06l3.56-.45-3.72-29.54-5.29.67c-1.04.13-1.98-.6-2.11-1.64-.13-1.04.6-1.98,1.64-2.11L153.49.01Z"/>
        <path class="cls-1" d="M199.83,11.28c.81-4.46-1.19-5.5-2.86-5.79-1.62-.27-3.76.42-4.23,3.22l-.22,1.28c-.2,1.18-1.29,1.95-2.48,1.8-1.18-.2-1.94-1.34-1.75-2.52l.22-1.28c.81-4.76,4.7-7.48,9.12-6.74,5.25.89,7.38,5.34,6.52,10.4s-2.42,6.81-3.37,8.27l-10.13,13.89,7.8,1.32c1.13.19,1.91,1.23,1.77,2.37-.2,1.18-1.29,1.95-2.47,1.75l-10.7-1.82c-1.82-.31-2.63-2.37-1.58-3.8l12-16.55c1.91-2.61,2.17-4.73,2.35-5.81Z"/>
        <path class="cls-1" d="M264.57,25.4c.98.49,1.4,1.65.89,2.67-.49.98-1.69,1.38-2.67.89l-8.1-4.06-14.03,28c-.8,1.6-2.81,2.27-4.46,1.44l-4.18-2.09c-.98-.49-1.36-1.63-.87-2.61.47-.93,1.62-1.36,2.61-.87l3.38,1.69,13.76-27.47-11-5.51c-.98-.49-1.38-1.69-.89-2.67.51-1.03,1.69-1.38,2.67-.89l22.88,11.46Z"/>
        <path class="cls-1" d="M308.21,58.93c1.05.99,1.09,2.68.1,3.73l-23.52,24.84c-.99,1.05-2.68,1.09-3.73.1l-13.92-13.18c-1.05-.99-1.09-2.68-.1-3.73l23.52-24.84c.99-1.05,2.68-1.09,3.73-.1l13.92,13.18ZM271.19,72.75l11.32,10.72,6.54-6.91-11.32-10.71-6.54,6.9ZM285.26,57.89l-4.79,5.06,11.32,10.72,4.79-5.06-11.32-10.71ZM304.17,60.59l-11.32-10.72-4.86,5.13,11.31,10.71,4.86-5.13Z"/>
      </g>
      <g>
        <path class="cls-1" d="M33.47,289.72l-2.53-4.86-3.62,1.89,2.03,3.88c.51.97.13,2.18-.84,2.69-.97.51-2.18.13-2.69-.84l-2.03-3.88-4.81,2.51,2,3.84c.48.93.15,2.11-.82,2.62-.93.48-2.14.1-2.62-.82l-1.98-3.8-6.27,3.27c-2.16,1.13-4.83.33-5.96-1.83l-2.83-5.43c-1.13-2.16-.28-4.85,1.88-5.98l5.78-3.02c2.16-1.13,4.85-.28,5.98,1.88l2.93,5.61,4.81-2.51-4.12-7.9c-.51-.97-.13-2.18.84-2.69.97-.51,2.18-.13,2.69.84l4.12,7.9,3.62-1.89-4.72-9.05c-.51-.97-.13-2.18.84-2.69.97-.51,2.18-.13,2.69.85l4.72,9.05,2.38-1.24c1.01-.53,2.27-.17,2.8.84.53,1.02.13,2.29-.89,2.82l-2.38,1.24,2.53,4.86c.51.97.13,2.18-.84,2.69-.97.51-2.18.13-2.69-.84ZM6.96,292.72l6.67-3.48-3.04-5.83-6.67,3.48,3.04,5.83Z"/>
        <path class="cls-1" d="M58.82,330.77c.85.84.86,2.18.02,3.03l-10.62,10.79c-1.71,1.74-4.53,1.76-6.27.05l-9.19-9.05c-.82-.8-.79-2.11-.02-2.89.8-.82,2.07-.83,2.89-.02l9.33,9.19,9.01-9.16-7.74-7.61c-1.74-1.71-1.76-4.53-.05-6.27l5.31-5.4-1.35-1.33c-.78-.77-.79-2.11-.02-2.89.8-.82,2.14-.83,2.92-.06l1.35,1.33,1.75-1.77c.8-.82,2.14-.83,2.96-.02s.83,2.14.02,2.96l-1.75,1.77,9.16,9.01c.82.8.79,2.11-.01,2.92-.77.78-2.07.83-2.89.02l-9.16-9.01-5.55,5.64,8.31,8.17c.6-.04,1.16.17,1.59.59Z"/>
        <path class="cls-1" d="M88.82,341.24c.64.94,1.44,1.68,2.46,2.19l11.29,5.71c2.18,1.1,3.03,3.71,1.93,5.89l-8.9,17.6c-1.1,2.18-3.73,3.08-5.91,1.98l-12.04-6.09c-1.02-.52-1.44-1.79-.92-2.81.54-1.07,1.79-1.44,2.81-.92l12.13,6.13,9.1-18-15.24-7.71c-1.56-.79-2.01-2.86-.85-4.17,1.12-1.33,3.17-1.19,4.14.2ZM109.77,351.44c-.05.76-.74,1.36-1.52,1.24-.8-.07-1.38-.81-1.37-1.59l.29-5.32c.07-.8.74-1.35,1.48-1.26.85.09,1.44.79,1.37,1.59l-.25,5.34ZM113.33,353.24c0,.78-.74,1.36-1.48,1.26-.8-.07-1.42-.83-1.37-1.59l.29-5.32c.03-.82.7-1.38,1.48-1.26.8.07,1.44.79,1.37,1.59l-.29,5.32Z"/>
        <path class="cls-1" d="M134.59,370.43l10.07,16.57c.36.61.64,1.06.48,2.04-.21,1.33-1.46,2.24-2.74,2.04-1.33-.21-2.19-1.46-1.99-2.74l-11.39-18.75c-.65-1.01-.34-2.32.72-2.96.84-.52,1.92-.35,2.62.32l13.76-9.86-.13-.12c-1.18-1.15-.77-3.1.73-3.66,1.62-.65,3.41.44,3.59,2.18v.05c.21,2.15-.79,4.26-2.54,5.5l-13.19,9.4Z"/>
        <path class="cls-1" d="M186.49,377.45c.88-.84,2.35-.47,2.78.67.5,1.28-.34,2.62-1.67,2.83l-1.48.23c-2.26.35-4.37-1.18-4.72-3.44l-3.03-19.33c-.18-1.13.61-2.21,1.74-2.39,1.13-.18,2.16.62,2.34,1.75l3.2,20.47.83-.79ZM194.33,351.53c1.13-.18,2.21.61,2.39,1.74l4.84,30.94c.38,2.46-1.28,4.69-3.69,5.06l-2.02.32c-1.72.27-3.21-1.16-3.03-2.9.23-1.75,2.04-2.74,3.66-2.08l.98.45-4.87-31.14c-.18-1.13.56-2.21,1.74-2.39Z"/>
        <path class="cls-1" d="M228.84,353.8l-1.56.78,11.11,22.22c.45.89.11,2-.82,2.47-.89.45-1.98.04-2.43-.85l-11.11-22.22-1.34.67c-.85.42-1.96.09-2.38-.76-.45-.89-.04-1.98.8-2.4l1.33-.67-3.7-7.39c-.45-.89-.09-1.96.8-2.4.93-.47,2-.11,2.45.78l3.7,7.39,1.56-.78c.89-.45,1.92-.07,2.36.82.42.85.11,1.89-.78,2.34ZM228.97,346.05c-.89.45-2,.11-2.45-.78-.47-.94-.07-2.03.82-2.47l5.83-2.92.38-3.14c.13-1.18,1.05-2.14,2.2-2.27.98-.16,1.83.65,1.71,1.65l-.2,1.71,3.96-1.98c1.34-.67,2.94-.13,3.58,1.16l4.34,8.69c.47.93.07,2.14-.87,2.6-.98.49-2.14.07-2.6-.87l-3.9-7.79-5.08,2.54-1.4,11.45c-.13,1.07-1.07,1.87-2.14,1.85-1.05.02-1.85-.91-1.69-1.94l1.14-9.31-3.65,1.83ZM238.92,355.94c1.29-.65,2.9-.11,3.54,1.18l7.12,14.25c.4.8.09,1.85-.71,2.25-.85.42-1.83.02-2.23-.78l-6.92-13.85-1.16.58,4.07,15.05c.27.98-.25,1.96-1.2,2.27-.89.33-1.89-.22-2.14-1.16l-3.94-14.56-1.96.98c-.76.38-1.69.07-2.07-.69-.38-.76-.07-1.69.69-2.07l2.98-1.49-.25-.93c-.27-.98.25-1.96,1.11-2.34.87-.38,1.87.07,2.16.98l.22.67.67-.33ZM250.15,350.33c1.29-.65,2.89-.11,3.54,1.18l7.12,14.25c.4.8.13,1.83-.71,2.25-.8.4-1.83.02-2.23-.78l-6.93-13.85-2,1,4.54,14.99c.27.98-.25,1.96-1.18,2.32-.89.33-1.87-.18-2.16-1.09l-4.41-14.61-1.38.69c-.76.38-1.69.07-2.07-.69-.38-.76-.07-1.69.69-2.07l1.87-.93-.36-1.16c-.27-.98.29-1.98,1.25-2.29.91-.29,1.89.22,2.14,1.16l.18.69,2.09-1.05Z"/>
        <path class="cls-1" d="M258.57,324.92c-.6.59-1.59.58-2.18-.02-.59-.6-.58-1.59.02-2.18l4.9-4.82c.6-.59,1.59-.58,2.18.02.59.6.59,1.59-.02,2.18l-4.9,4.82ZM268.06,323.13l-6.54,6.42c-.67.66-1.8.65-2.46-.02-.66-.67-.62-1.77.06-2.43l6.54-6.42c.67-.66,1.77-.69,2.43-.01.66.67.65,1.8-.02,2.46ZM265.93,332.41c-.6.59-1.59.58-2.18-.02-.59-.6-.58-1.59.02-2.18l4.9-4.81c.6-.59,1.59-.58,2.18.02.59.6.58,1.59-.02,2.18l-4.9,4.81ZM268,318.03c-.6.59-1.59.58-2.18-.02-.59-.6-.58-1.59.02-2.18l2.1-2.06-.7-.22c-.91-.22-1.43-1.24-1.11-2.12.36-.98,1.46-1.5,2.44-1.21l.91.22c.42.14.77.43,1.05.78l1.03-1.01-.58-2.15c-.27-.99.19-2.08,1.18-2.56.78-.42,1.8.05,2.03.93l.24.95,1.99-1.95c.6-.59,1.59-.58,2.18.02.59.6.58,1.59-.02,2.18l-4.05,3.98,1.36,1.39,3.27-3.21c.57-.56,1.55-.55,2.11.02.59.61.55,1.55-.02,2.11l-3.27,3.21,1.5,1.53.04.04,4.37-4.29c.6-.59,1.55-.62,2.18.02.59.6.58,1.59-.02,2.18l-11.22,11.02c-.6.59-1.59.58-2.18-.02-.63-.64-.58-1.59.02-2.18l4.33-4.26-.04-.04-1.5-1.53-3.23,3.17c-.57.56-1.52.58-2.11-.02-.56-.57-.55-1.55.02-2.11l3.23-3.17-1.36-1.39-4.01,3.94ZM269.67,336.21c-.6.59-1.59.58-2.18-.02-.63-.64-.62-1.62-.01-2.22l4.9-4.81c.6-.59,1.59-.58,2.22.06.59.6.58,1.59-.02,2.18l-4.9,4.81ZM275.57,333.41c.96-.94,2.51-.93,3.45.03l9.21,9.38c.94.96.93,2.51-.03,3.45l-3.91,3.84c-.96.94-2.51.93-3.45-.03l-9.21-9.38c-.94-.96-.93-2.51.03-3.45l3.91-3.84ZM285.18,344.76l-8.16-8.31-2.31,2.27,8.16,8.31,2.31-2.27ZM303.29,328.38c.95.25,1.5,1.25,1.21,2.16-.33.95-1.28,1.47-2.23,1.21l-5.55-1.53,1.23,4.52c.2.85-.3,1.69-1.11,1.93-.81.24-1.65-.26-1.89-1.07l-1.63-6.35-6.25-1.75c-.1-.04-.21-.07-.32-.11l-1.67,1.64,1.99,2.02.68-1.23c.43-.77,1.45-1.08,2.26-.68.81.39,1.08,1.38.61,2.12l-1.25,2.13,4.15,4.23c.94.96.93,2.51-.03,3.45l-1.31,1.29c-.67.66-1.73.65-2.39-.02-.66-.68-.69-1.77-.01-2.43l.6-.59-2.79-2.84-.79,1.33c-.43.77-1.42.97-2.15.51-.73-.46-.97-1.49-.54-2.26l1.14-1.96-2.62-2.66-1.56,1.54c-.57.56-1.48.55-2.04-.02-.56-.57-.55-1.48.02-2.04l1.56-1.53-1.54-1.56-.96,1.65c-.43.77-1.38.94-2.12.47-.7-.5-.94-1.45-.51-2.22l2.83-4.94c.46-.74,1.45-1.08,2.26-.68.77.36,1.08,1.31.65,2.08l-.36.56,2.2,2.24,3.23-3.17-4.71-1.31c-.84-.22-1.26-1.14-.93-1.94.36-.84,1.24-1.29,2.12-1.04l6.15,1.71,2.24-2.2c.57-.56,1.48-.55,2.04.02.56.57.55,1.48-.02,2.04l-3.55,3.49,2.63.69-.17-.67c-.27-.92.16-1.83,1.01-2.31.67-.38,1.58-.02,1.75.79l.85,3.21,7.58,2.11ZM284.55,317.12c.32-.81,1.17-1.29,2.05-1.04l2.99.84c.77.22,1.22,1.1.93,1.87-.32.81-1.21,1.26-2.09,1l-2.88-.8c-.84-.22-1.29-1.1-1-1.88Z"/>
        <path class="cls-1" d="M306.88,266.56c.78.86.69,2.22-.18,3l-10.89,9.34-1.72,14.57c-.14,1.11-1.15,1.87-2.24,1.58-1.15-.27-1.89-1.33-1.77-2.51l1.44-13.2c.21-1.69,1.05-3.27,2.3-4.36l10.01-8.63c.91-.76,2.26-.66,3.05.2ZM307.52,274.1c.93.49,1.28,1.63.79,2.56l-7.34,13.92c-.49.92-1.63,1.28-2.56.79s-1.28-1.63-.79-2.56l7.34-13.92c.49-.92,1.63-1.28,2.55-.79ZM316.85,276.04l-5.2,9.87,8.74,10.97,5.46-10.35-5.51-.43c-1.16-.05-2.03-1.07-1.98-2.23.11-1.18,1.09-2.07,2.27-1.95l10.34.78c1.13.09,2.07,1.09,2.07,2.27.02,1.14-.96,2.03-2.09,1.94l-.98-.07-9.31,17.66c-.46.88-1.63,1.28-2.56.79-.92-.49-1.26-1.67-.79-2.56l1.02-1.94-8.76-10.92-4.27,8.1c-.49.92-1.63,1.28-2.56.79-.88-.46-1.23-1.61-.75-2.53l11.57-21.93c.49-.92,1.63-1.28,2.51-.81.93.49,1.28,1.63.79,2.56Z"/>
      </g>
    </g>
  </g>
</svg>