<svg width="443" height="379" viewBox="0 0 443 379" fill="none" xmlns="http://www.w3.org/2000/svg">
<g opacity="0.3">
<path d="M277.227 300.883C283.829 297.074 296.643 291.185 302.883 286.761C303.58 286.263 303.412 282.806 302.549 281.721C297.73 275.686 249.399 197.515 244.357 191.625C239.9 186.381 235.526 181.078 231.153 175.862C224.579 177.942 217.476 180.257 210.316 182.396C209.676 182.601 208.729 181.634 207.921 181.253C203.826 179.261 199.62 177.503 195.692 175.218C193.018 173.665 189.285 171.848 188.533 169.299C186.499 162.589 185.19 155.645 186.583 148.203C189.341 133.407 202.712 126.785 214.579 134.96C219.008 138.007 223.103 141.699 227.671 144.512C235.025 149.053 237.755 156.261 234.635 164.64C233.772 166.955 228.646 174.983 226.78 179.114C229.872 177.796 232.546 179.378 233.242 178.353C247.226 157.433 241.237 144.687 232.992 140.732C225.582 137.157 220.317 130.917 213.186 127.459C208.311 125.086 195.859 125.906 193.77 128.749C191.012 132.499 188.226 136.249 185.914 140.293C179.48 151.485 180.315 164.23 187.976 174.016C194.8 182.718 202.823 189.076 214.356 188.461C215.693 188.402 217.058 189.223 219.342 189.926C217.503 191.362 216.556 192.065 216.111 192.416L277.227 300.913V300.883Z" fill="#3DA89A"/>
<path d="M246.666 310.406V310.436L246.694 310.465L246.666 310.406Z" fill="#3DA89A"/>
<path d="M220.955 261.442L219.312 261.882L209.172 268.269L195.885 283.124L183.461 305.802L176.608 311.867L167.75 324.436L167.443 326.458L174.519 339.262L185.021 352.359L189.979 357.018L196.358 360.797L200.76 362.028L201.484 362.526L202.654 361.207L209.506 359.508L217.446 355.67L236.889 347.876L252.461 345.679L253.157 339.643L253.547 339.408L250.985 329.417L250.734 325.462L247.92 317.199L247.001 312.541L246.583 310.461L244.16 308.585L245.302 307.355L243.714 306.329L242.071 300.733L240.455 299.649L239.118 294.873L239.257 293.496L239.647 292.353L238.004 290.771L237.335 289.482L236.193 285.087L234.271 285.322V282.216L233.296 280.018L231.039 275.477L226.22 269.734L224.995 265.486L223.964 265.222L222.822 262.761L220.955 261.442Z" fill="#3DA89A"/>
<path d="M313.412 277.818V277.789H313.385L313.412 277.818Z" fill="#3DA89A"/>
<path d="M359.011 229.794L335.111 226.835L304.162 218.982L284.969 229.091L283.242 231.669L283.521 233.486L283.966 234.16L284.356 234.511L287.226 235.742L290.485 241.016L293.716 244.62L295.304 246.993L296.864 247.93L297.17 249.747L301.265 253.585L301.906 255.372L302.769 257.716L304.134 258.068L304.441 260.148L307.254 265.246L309.26 266.155L311.6 272.454L312.129 273.86L313.299 274.3L313.606 277.611L315.973 279.369L317.645 283.002L321.823 289.126L323.662 291.469L327.172 297.271L326.559 298.091L329.957 299.82L344.833 291.411L361.519 281.918L372.661 269.876L376.533 259.797L376.338 247.491L376.004 235.8L373.302 225.223L359.011 229.794Z" fill="#3DA89A"/>
<path d="M202.547 47.3248C201.934 47.2955 201.432 47.2662 200.931 47.2076C199.789 47.1197 198.452 46.5337 197.56 46.9732C195.471 47.9987 193.41 49.2293 191.655 50.8408C189.454 52.8917 187.839 55.4408 189.176 59.5428C190.346 63.088 192.073 65.6078 195.443 66.2231C196 66.311 196.53 67.102 197.087 67.5708C196.864 67.6294 196.641 67.688 196.418 67.7466C196.975 71.8778 201.098 114.538 201.711 119.05C203.243 120.251 205.889 120.662 206.892 119.578C208.564 117.761 203.828 71.9072 201.544 70.2664C201.906 69.9734 202.602 69.6218 202.547 69.446C201.962 67.3657 203.494 67.0727 204.302 66.1937C205.332 65.0511 206.558 64.1428 207.505 62.9122C209.567 60.2459 209.344 58.1071 206.948 55.1771C206.837 55.0306 206.725 54.8548 206.642 54.679C205.639 52.7746 205.388 50.3427 203.299 49.1121C202.937 48.907 202.797 47.9987 202.547 47.3541V47.3248Z" fill="#3DA89A"/>
<path d="M160.506 70.6978C161.007 70.3755 161.453 70.0825 161.871 69.7895C162.818 69.1449 163.737 67.9729 164.712 67.9143C167.024 67.7678 169.392 67.8264 171.648 68.3831C174.49 69.0863 177.08 70.522 177.749 74.7997C178.306 78.4914 177.916 81.5679 175.242 83.7947C174.796 84.1463 174.685 85.1131 174.406 85.787C174.629 85.7284 174.852 85.6698 175.075 85.6112C176.44 89.5374 192.011 129.15 193.516 133.428C192.708 135.245 190.563 136.915 189.198 136.475C186.886 135.713 170.423 92.9361 171.704 90.3871C171.258 90.3285 170.478 90.3578 170.45 90.1527C170.033 88.0431 168.528 88.5412 167.442 88.1603C166.021 87.6622 164.517 87.4864 163.152 86.8711C160.144 85.5526 159.364 83.5603 160.171 79.7806C160.199 79.5755 160.227 79.3704 160.227 79.1653C160.255 76.9679 159.364 74.7118 160.673 72.6022C160.896 72.2506 160.589 71.3716 160.534 70.6684L160.506 70.6978Z" fill="#3DA89A"/>
<path d="M135.159 332.718H135.104V332.835L135.159 332.718Z" fill="#3DA89A"/>
<path d="M202.739 199.672L179.088 199.994L140.897 191.263L94.9902 171.046L79.7806 156.221L45.6287 136.707L37.5504 141.776L24.2629 165.215L19.6666 180.715L8.91404 212.564L4.31773 229.294L1.58781 243.475L0 254.784L5.04199 269.756L2.25636 271.954L4.98628 273.888L8.69118 290.881L19.388 310.19L28.7199 329.762L49.25 351.238L76.7721 374.004L96.0487 378.956L105.213 370.635L102.929 369.111L111.035 353.407L117.498 349.48L125.883 335.504L127.471 326.685L133.85 325.22L134.323 317.397L136.468 316.489L139.365 315.639L146.524 305.033L148.335 302.982L154.714 294.925L154.631 289.27L158.085 290.237L161.957 286.369L162.514 282.824L170.453 274.708L171.149 271.368L175.105 268.877L179.2 264.453L187.445 252.499L193.1 230.524L199.368 219.009L202.321 216.871L204.967 209.516L206.611 201.254L202.766 199.672H202.739ZM18.3016 217.486L22.0901 210.102L26.3521 208.022L27.5778 203.569L29.9456 203.305L33.2326 204.975L37.7732 212.534L37.9125 218.043L38.5253 217.925L37.5225 222.145L30.5584 228.649L22.8144 228.385L18.3016 217.486ZM28.1349 261.64L28.4135 259.912L26.4914 256.132L23.0093 255.927L23.7058 248.456L33.9012 239.959L38.1632 239.021L44.3195 239.607L51.9521 246.287L53.1499 251.884L49.835 256.542L42.5924 263.31L35.3218 261.142L31.7005 262.959L28.1628 261.611L28.1349 261.64ZM65.1282 298.646L60.8383 307.465L58.944 305.502L49.9186 309.75L42.2859 302.191L41.5338 282.531L45.4337 275.997L50.7264 274.005L53.6235 273.243L56.3534 275.616L57.9969 279.865L58.2198 278.751L65.1839 298.616L65.1282 298.646ZM102.428 316.43L99.6979 319.8L95.4359 319.302L96.5223 323.814L93.0959 326.715L84.7669 329.205L73.8472 318.892L73.1229 312.241L75.4629 304.242L84.3212 295.979L89.781 294.778L94.9066 297.591L99.7814 306.557L102.038 311.743L102.456 316.43H102.428Z" fill="#3DA89A"/>
<path d="M441.554 128.977L433.225 82.5954L407.959 59.9762L384.031 45.6194L340.073 12.2179L320.1 3.19364L315.81 0L314.808 3.89685L309.487 10.8115L305.169 23.8205L299.292 31.2333L302.077 33.9582L299.069 42.6016L297.175 44.7697L295.503 52.622L292.968 63.0819L287.62 77.3215L284.751 90.0668L283.581 92.3229L281.519 96.835L277.787 105.42L272.884 119.015L270.265 125.666L270.99 135.452L266.477 139.993L262.939 150.629L265.446 153.412L265.168 153.881L261.602 159.712L261.658 168.414L258.287 170.025L264.666 176.559L292.3 200.321L313.582 205.712L343.639 201.727L401.385 203.046L431.136 228.712L436.261 232.023L439.047 211.689L438.128 205.39L443.003 178.317L440.356 145.619L441.526 129.035L441.554 128.977ZM344.475 64.4297L343.806 61.4412L340.603 64.4297L335.867 60.6794L333.109 49.2525L329.822 44.0372L334.224 43.4219L338.625 42.3671L341.968 44.5939L349.294 47.9927L354.141 58.5405L353.639 65.4259L344.475 64.459V64.4297ZM364.754 97.0401L360.464 94.4032L355.701 93.7293L355.478 83.6502L359.935 79.1088L359.824 72.5164L374.81 72.282L382.777 77.5266L382.359 81.1305L380.66 83.9432L379.379 85.3203L382.081 88.6311L379.908 92.5866L374.782 96.1025L364.782 97.0401H364.754ZM412.305 158.95L404.282 162.671L399.407 166.275L396.371 163.374L395.173 160.913L390.939 164.4L388.655 160.356L383.056 156.547L382.276 146.703L383.279 141.312L387.847 140.462L398.293 135.305L405.982 136.77L410.968 141.605L412.249 158.979L412.305 158.95ZM420.383 117.345L410.634 122.121V125.842L401.831 122.619L394.839 108.262L392.638 109.053L392.304 104.482L391.775 101.23L393.864 99.7357L398.655 95.6337L406.761 96.6592L423.392 106.006L420.355 117.345H420.383Z" fill="#3DA89A"/>
</g>
</svg>
