<svg width="123" height="49" viewBox="0 0 123 49" fill="none" xmlns="http://www.w3.org/2000/svg">
<g opacity="0.3">
<path d="M0 48.6892C1.83227 43.3496 6.12439 39.0551 10.9431 35.846C18.2578 30.9581 27.3181 28.821 36.2197 29.4277C42.8852 29.7783 50.9717 30.439 57.6515 30.884C64.6415 31.4301 71.5522 32.0773 78.5206 32.2593C89.0886 32.3065 100.01 31.3626 109.705 27.1557C114.445 25.0388 118.939 22.0656 122.394 17.9531L123 18.1891C120.482 26.3737 112.605 32.2593 104.425 35.3808C92.6738 39.8236 79.4872 39.0281 67.4044 36.264C65.9977 35.9336 62.665 34.9291 61.2295 34.5313C55.913 32.947 50.3657 31.9087 44.7751 31.9627C39.1846 31.9761 33.695 33.2773 28.5516 34.7268C23.4083 36.1156 18.366 37.6056 13.6266 39.9315C8.85115 42.2575 4.29934 45.2441 0.591519 48.9588L0 48.6824V48.6892Z" fill="#3DA89A"/>
<path d="M7.44472 39.3762C8.17329 34.4749 11.3329 30.1938 15.1128 26.8566C20.9126 21.7328 28.4797 18.9956 36.4003 18.8675C47.4372 18.5776 58.6328 17.9507 69.648 17.1349C75.4262 16.7843 81.2548 15.7056 86.6867 14.3168C93.2439 12.6651 99.4909 10.056 104.591 5.76816C106.279 4.30519 107.916 2.66018 109.244 0.772461L109.929 0.954493C109.402 5.89626 106.315 10.2987 102.564 13.7168C94.8309 20.6407 83.9816 23.2565 73.5434 23.1351C70.3911 23.1756 67.1882 22.9733 64.0647 22.5216C57.4858 21.3351 50.8493 19.771 44.1478 20.789C39.3507 21.3957 34.8494 23.27 30.6727 25.0903C26.496 26.8566 22.3914 28.5556 18.5754 30.9287C14.7882 33.2681 11.2391 36.066 8.10837 39.6054L7.4375 39.383L7.44472 39.3762Z" fill="#3DA89A"/>
</g>
</svg>
