<?xml version="1.0" encoding="UTF-8"?>
<svg id="_レイヤー_2" data-name="レイヤー 2" xmlns="http://www.w3.org/2000/svg" viewBox="0 0 274.47 274.24">
  <defs>
    <style>
      .cls-1 {
        fill: #3da89a;
      }

      .cls-1, .cls-2 {
        stroke-width: 0px;
      }

      .cls-2 {
        fill: #fff;
      }
    </style>
  </defs>
  <g id="_レイヤー_1-2" data-name="レイヤー 1">
    <g>
      <path class="cls-1" d="M273.85,137.31c0-1.77.68-3.55.61-5.3s-1.15-3.47-1.29-5.22-.36-2.94-.56-4.68c-2.63-1.6-2.53-1.62-5.45-2.59-2.92-.96-5.69,1.22-6.16-1.82s3.14-1.39,5.62-3.21,2.71-1.7,4.71-4.03c-.35-1.73-1.32-3.42-1.73-5.12-.41-1.71.33-3.73-.14-5.42s-1.56-3.22-2.1-4.89-.63-3.52-1.24-5.17-1.9-3.05-2.57-4.67c-.67-1.63-1.21-3.8-1.94-5.39-3-.71-3.21.36-6.29.35-3.08-.02-4.15,2.56-5.55-.18-1.4-2.74,1.71-1.81,3.5-4.31s2.38-2.33,3.56-5.17c-.86-1.53-2.1-3.35-3.02-4.85s-1.68-3.11-2.66-4.57-2.29-2.7-3.32-4.13-2.73-2.33-3.82-3.71-1.71-3.13-2.85-4.47-2.18-2.27-3.37-3.57c-3.06.25-3.18-.19-6.1.74-2.93.93-2.96,4.21-5.13,2.04-2.17-2.17-.07-2.58.87-5.51.93-2.93,1.73-2.66,1.98-5.72-1.29-1.19-2.41-2.11-3.74-3.25s-2.02-3.09-3.41-4.18-3.18-1.65-4.61-2.69-3.08-1.73-4.54-2.71c-1.46-.98-2.72-2.27-4.22-3.19-1.5-.92-2.85-1.05-4.38-1.92-2.84,1.19-2.59,1.4-5.09,3.2-2.5,1.8-2.38,4.69-5.12,3.29-2.74-1.4,0-3-.02-6.08s1.25-3.31.54-6.31c-1.6-.73-3.6-1.86-5.23-2.53s-3.69-.21-5.34-.82-3.05-1.9-4.73-2.44c-1.67-.54-3.25-1.45-4.94-1.93s-3.4-.97-5.12-1.38c-1.7-.41-3.83-.45-5.56-.8-2.33,2.01-1.24,3.02-3.06,5.5-1.82,2.48-.89,4.98-3.94,4.5-3.04-.48-.88-2.73-1.85-5.65s-.41-3.2-2-5.82c-1.74-.2-3.55-.12-5.31-.25s-3.5.03-5.27-.04c-1.75-.07-3.49-1.25-5.26-1.25s-3.54.27-5.29.34-3.48.95-5.22,1.08c-1.76.14-3.59-.08-5.33.12-1.6,2.63-.64,3.04-1.61,5.96-.96,2.92.95,5.97-2.09,6.45-3.04.48-2.44-2.8-4.27-5.28s-.91-3.2-3.24-5.21c-1.73.35-3.47.05-5.17.46s-3.34,1.21-5.03,1.68c-1.7.48-3.18,1.64-4.84,2.18s-3.52.57-5.17,1.18-3.47.82-5.09,1.49-3.72,1.74-5.31,2.47c-.71,3,1.34,3.25,1.33,6.33s2.01,4.68-.73,6.08c-2.74,1.4-2.12-2.2-4.62-3.99-2.5-1.8-2.79-1.24-5.63-2.42-1.53.86-2.71,1.14-4.2,2.07-1.5.92-3.42,1.21-4.88,2.19s-2.51,2.58-3.93,3.61c-1.42,1.04-2.48,2.53-3.86,3.62s-3,1.87-4.33,3.01c-1.34,1.14-2.38,2.17-3.68,3.36.25,3.06.24,3.06,1.17,5.99.93,2.93,4.56,3.76,2.39,5.93-2.17,2.17-3.35-.39-6.27-1.32-2.93-.93-2.49-3.16-5.55-3.41-1.19,1.29-2.73,3.16-3.88,4.49-1.14,1.34-1.68,3.17-2.77,4.56-1.09,1.38-2.86,2.25-3.9,3.67-1.03,1.42-2.09,2.86-3.07,4.32-.98,1.46-1.78,3.06-2.71,4.55-.92,1.5-2.04,3.46-2.91,5,1.19,2.84,2.42,2.23,4.21,4.72,1.8,2.5,4.72,2.17,3.32,4.91-1.4,2.74-2.85.05-5.93.06s-3.16-.57-6.15.14c-.73,1.6-1.47,3.17-2.14,4.8s-1.69,3.12-2.3,4.77c-.61,1.65-.96,3.4-1.51,5.07s-1.27,3.3-1.74,4.99-.14,3.59-.56,5.31c-.41,1.7-1.77,3.86-2.12,5.59,2.01,2.33,3.07,1.33,5.55,3.15s4.85.48,4.38,3.52-2.33.99-5.25,1.96-3.21.37-5.83,1.97c-.2,1.74-1.15,3.46-1.28,5.22s-.11,3.54-.18,5.3.59,3.53.59,5.3.26,3.52.32,5.27.7,3.47.83,5.22-.37,3.41-.17,5.15c2.63,1.6,2.9.88,5.82,1.84s4.49-.74,4.97,2.3-1.21,2.36-3.69,4.18c-2.48,1.82-3.57.54-5.58,2.87.35,1.73,1.53,3.4,1.94,5.11s-.31,3.72.17,5.4,1.98,3.08,2.53,4.74,0,3.73.61,5.37,2.6,2.76,3.27,4.38c.67,1.63.47,4.3,1.2,5.9,3,.71,3.26-.35,6.34-.33,3.08.02,5.05-3.26,6.45-.51,1.4,2.74-1.64,2.96-3.44,5.46s-2.12,2.14-3.31,4.98c.86,1.53.81,2.88,1.73,4.38.92,1.5,1.67,3.13,2.64,4.59.98,1.46,2.37,2.65,3.4,4.07,1.04,1.42,2.41,2.58,3.5,3.96s1.97,2.92,3.12,4.26c1.14,1.34,2.32,3.26,3.51,4.56,3.06-.25,2.69-2.1,5.62-3.03,2.93-.93,4.06-3.65,6.23-1.48,2.17,2.17-.99,3.16-1.92,6.09s-2.45,2.69-2.7,5.75c1.29,1.19,3.02,2.74,4.36,3.88,1.34,1.14,3.39,1.41,4.77,2.5,1.38,1.09,2.08,3.07,3.51,4.1,1.42,1.03,3.48,1.16,4.94,2.14s2.52,2.56,4.02,3.49,3.07,1.6,4.6,2.46c2.84-1.19,2.31-2.03,4.81-3.83,2.5-1.8,2.3-4.34,5.04-2.94,2.74,1.4.34,2.73.36,5.81.02,3.08-1.1,3.23-.39,6.22,1.6.73,3.35,1.68,4.98,2.35,1.62.67,3.65.3,5.3.91,1.65.61,3.1,1.72,4.78,2.26s3.37.97,5.06,1.45c1.69.48,3.36,1.01,5.07,1.42,1.7.41,3.02.51,4.75.86,2.33-2.01,2.64-1.72,4.46-4.2,1.82-2.48.13-5.68,3.17-5.2s1.07,2.8,2.03,5.71c.96,2.92-.17,3.49,1.42,6.12,1.74.2,3.95-.41,5.71-.27,1.75.13,3.46.89,5.22.96s3.51.24,5.28.24,3.53-.3,5.28-.37,3.55.27,5.3.14c1.76-.14,2.88-1.11,4.62-1.31,1.6-2.63,1.27-2.65,2.23-5.57.96-2.92-.77-4.92,2.27-5.39,3.04-.48,2.25,1.78,4.07,4.26s1.35,2.7,3.69,4.71c1.73-.35,3.03.33,4.73-.08,1.71-.41,3.49-.64,5.18-1.12,1.7-.48,3.34-1.2,5.01-1.74,1.68-.54,3.02-2.02,4.67-2.63s3.35-1.05,4.97-1.72c1.63-.67,3.03-1.19,4.63-1.93.71-3,.25-3.01.26-6.09s-2.36-4.23.38-5.63c2.74-1.4,2.25,1.23,4.75,3.03s2.32,1.99,5.16,3.17c1.53-.86,3.14-.85,4.64-1.77s3.01-1.86,4.47-2.84c1.46-.98,2.81-2.16,4.23-3.19,1.42-1.04,2.85-2.09,4.23-3.18s2.69-2.28,4.03-3.42,1.93-2.5,3.22-3.69c-.25-3.06-.54-2.93-1.47-5.85-.93-2.93-3.4-3.21-1.23-5.38,2.17-2.17,2.44.34,5.37,1.28s2.77,1.62,5.83,1.87c1.19-1.29,2.19-2.67,3.33-4.01,1.14-1.34,2.71-2.33,3.8-3.71s1.22-3.48,2.25-4.9,2.88-2.27,3.86-3.73,1.12-3.45,2.04-4.95,1.78-2.36,2.65-3.89c-1.19-2.84-1.76-2.33-3.55-4.83s-5.04-3.03-3.64-5.77,3.73-.42,6.81-.44c3.08-.02,3.25,1.78,6.25,1.08.73-1.6,1.15-3.65,1.83-5.28.67-1.62,1.95-3.02,2.56-4.67.61-1.65.52-3.54,1.06-5.22.54-1.67,1.73-3.15,2.21-4.84s1.06-3.37,1.47-5.09c.41-1.7.34-3.7.69-5.43-2.01-2.33-2.55-1.81-5.03-3.63s-5.44-.46-4.96-3.5c.48-3.04,2.77-1.13,5.69-2.1,2.92-.96,3.3-.11,5.93-1.7.2-1.74.1-3.58.24-5.34.13-1.75,1.04-3.46,1.11-5.23.07-1.75-.52-3.53-.52-5.3Z"/>
      <path class="cls-2" d="M73.91,227.84c2.54-7.92,8.49-14.29,15.17-19.05,10.15-7.25,22.7-10.42,35.04-9.52,9.24.52,20.45,1.5,29.71,2.16,9.69.81,19.27,1.77,28.93,2.04,14.65.07,29.79-1.33,43.23-7.57,6.57-3.14,12.8-7.55,17.59-13.65l.84.35c-3.49,12.14-14.41,20.87-25.75,25.5-16.29,6.59-34.57,5.41-51.32,1.31-1.94-.49-6.57-1.98-8.56-2.57-7.37-2.35-15.06-3.89-22.81-3.81-7.75.03-15.36,1.95-22.49,4.09-7.13,2.06-14.12,4.27-20.69,7.72-6.62,3.45-12.93,7.88-18.07,13.39l-.82-.41h0Z"/>
      <path class="cls-2" d="M84.23,214.03c1.01-7.27,5.39-13.62,10.63-18.57,8.05-7.6,18.52-11.66,29.51-11.85,15.3-.43,30.82-1.36,46.09-2.57,8.01-.52,16.09-2.12,23.62-4.18,9.09-2.45,17.75-6.32,24.82-12.68,2.34-2.17,4.61-4.61,6.45-7.41l.95.27c-.73,7.33-5.01,13.87-10.21,18.93-10.73,10.27-25.76,14.15-40.23,13.97-4.37.06-8.81-.24-13.14-.91-9.12-1.76-18.32-4.09-27.61-2.57-6.65.9-12.89,3.68-18.68,6.38-5.79,2.62-11.49,5.14-16.77,8.66-5.25,3.47-10.17,7.62-14.51,12.87l-.93-.33h0Z"/>
      <g>
        <path class="cls-2" d="M133.02,152.51c2.37-1.3,6.97-3.31,9.21-4.82.25-.17.19-1.35-.12-1.72-1.73-2.06-19.08-28.74-20.89-30.75-1.6-1.79-3.17-3.6-4.74-5.38-2.36.71-4.91,1.5-7.48,2.23-.23.07-.57-.26-.86-.39-1.47-.68-2.98-1.28-4.39-2.06-.96-.53-2.3-1.15-2.57-2.02-.73-2.29-1.2-4.66-.7-7.2.99-5.05,5.79-7.31,10.05-4.52,1.59,1.04,3.06,2.3,4.7,3.26,2.64,1.55,3.62,4.01,2.5,6.87-.31.79-2.15,3.53-2.82,4.94,1.11-.45,2.07.09,2.32-.26,5.02-7.14,2.87-11.49-.09-12.84-2.66-1.22-4.55-3.35-7.11-4.53-1.75-.81-6.22-.53-6.97.44-.99,1.28-1.99,2.56-2.82,3.94-2.31,3.82-2.01,8.17.74,11.51,2.45,2.97,5.33,5.14,9.47,4.93.48-.02.97.26,1.79.5-.66.49-1,.73-1.16.85l21.94,37.03Z"/>
        <g>
          <polygon class="cls-2" points="122.05 155.77 122.04 155.78 122.06 155.79 122.05 155.77"/>
          <polygon class="cls-2" points="112.82 139.05 112.22 139.21 108.59 141.39 103.82 146.45 99.36 154.19 96.9 156.27 93.72 160.55 93.61 161.25 96.15 165.61 99.92 170.08 101.7 171.68 103.99 172.97 105.57 173.38 105.83 173.56 106.24 173.1 108.71 172.53 111.56 171.21 118.54 168.56 124.13 167.81 124.38 165.74 124.52 165.66 123.59 162.25 123.51 160.9 122.49 158.09 122.17 156.5 122.01 155.78 121.15 155.14 121.56 154.72 120.99 154.37 120.4 152.47 119.81 152.1 119.34 150.47 119.38 149.99 119.52 149.6 118.94 149.07 118.7 148.62 118.28 147.12 117.6 147.21 117.6 146.14 117.25 145.4 116.43 143.85 114.71 141.89 114.27 140.43 113.9 140.35 113.49 139.5 112.82 139.05"/>
        </g>
        <g>
          <polygon class="cls-2" points="146.01 144.65 146.01 144.63 146 144.63 146.01 144.65"/>
          <polygon class="cls-2" points="162.38 128.25 153.79 127.24 142.69 124.56 135.79 128.01 135.17 128.9 135.28 129.51 135.44 129.74 135.58 129.87 136.61 130.29 137.77 132.09 138.94 133.32 139.51 134.12 140.07 134.45 140.18 135.06 141.65 136.38 141.87 136.99 142.19 137.78 142.68 137.9 142.79 138.62 143.8 140.36 144.52 140.66 145.36 142.82 145.55 143.3 145.97 143.45 146.08 144.58 146.92 145.17 147.53 146.41 149.03 148.51 149.69 149.31 150.95 151.28 150.73 151.56 151.95 152.16 157.29 149.29 163.28 146.04 167.27 141.93 168.67 138.49 168.59 134.29 168.48 130.31 167.51 126.69 162.38 128.25"/>
        </g>
        <path class="cls-2" d="M106.21,65.97c-.22-.01-.4-.02-.58-.04-.41-.03-.89-.23-1.21-.08-.75.35-1.49.77-2.12,1.32-.79.7-1.37,1.57-.89,2.97.42,1.21,1.04,2.07,2.25,2.28.2.03.39.3.59.46-.08.02-.16.04-.24.06.2,1.41,1.68,15.97,1.9,17.51.55.41,1.5.55,1.86.18.6-.62-1.1-16.27-1.92-16.83.13-.1.38-.22.36-.28-.21-.71.34-.81.63-1.11.37-.39.81-.7,1.15-1.12.74-.91.66-1.64-.2-2.64-.04-.05-.08-.11-.11-.17-.36-.65-.45-1.48-1.2-1.9-.13-.07-.18-.38-.27-.6Z"/>
        <path class="cls-2" d="M91.12,73.95c.18-.11.34-.21.49-.31.34-.22.67-.62,1.02-.64.83-.05,1.68-.03,2.49.16,1.02.24,1.95.73,2.19,2.19.2,1.26.06,2.31-.9,3.07-.16.12-.2.45-.3.68.08-.02.16-.04.24-.06.49,1.34,6.08,14.86,6.62,16.32-.29.62-1.06,1.19-1.55,1.04-.83-.26-6.74-14.86-6.28-15.73-.16-.02-.44-.01-.45-.08-.15-.72-.69-.55-1.08-.68-.51-.17-1.05-.23-1.54-.44-1.08-.45-1.36-1.13-1.07-2.42.01-.07.02-.14.02-.21.01-.75-.31-1.52.16-2.24.08-.12-.03-.42-.05-.66Z"/>
        <g>
          <polygon class="cls-2" points="82.02 163.38 82 163.39 81.99 163.42 82.02 163.38"/>
          <path class="cls-2" d="M106.27,117.98l-8.49.11-13.71-2.98-16.48-6.91-5.46-5.06-12.26-6.66-2.9,1.73-4.77,8-1.65,5.29-3.86,10.87-1.65,5.71-.98,4.84-.57,3.86,1.81,5.11-1,.76.97.66,1.33,5.8,3.84,6.59,3.35,6.68,7.37,7.33,9.88,7.77,6.92,1.69,3.29-2.84-.82-.52,2.91-5.36,2.32-1.34,3.01-4.77.57-3.01,2.29-.5.17-2.68.77-.31,1.04-.29,2.57-3.62.65-.7,2.29-2.75-.03-1.92,1.24.33,1.39-1.32.2-1.21,2.85-2.77.25-1.14,1.42-.85,1.47-1.51,2.96-4.08,2.03-7.5,2.25-3.93,1.06-.73.95-2.52.59-2.82-1.38-.54ZM40.07,124.05l1.36-2.52,1.53-.71.44-1.52.85-.09,1.18.57,1.63,2.58.05,1.88.22-.04-.36,1.44-2.5,2.22-2.78-.09-1.61-3.72ZM43.6,139.12l.09-.59-.69-1.29-1.25-.07.25-2.55,3.66-2.9,1.53-.32,2.21.2,2.74,2.28.43,1.92-1.19,1.59-2.6,2.31-2.61-.74-1.3.62-1.26-.45ZM56.88,151.75l-1.54,3.02-.68-.67-3.24,1.45-2.74-2.58-.27-6.71,1.4-2.23,1.9-.68,1.04-.26.98.81.59,1.45.08-.38,2.5,6.78ZM70.27,157.82l-.98,1.15-1.53-.17.39,1.55-1.23.99-2.99.85-3.92-3.52-.26-2.27.84-2.73,3.18-2.82,1.96-.41,1.84.96,1.74,3.06.81,1.77.15,1.6Z"/>
        </g>
        <path class="cls-2" d="M192.01,93.85l-2.99-15.83-9.07-7.72-8.59-4.9-15.78-11.4-7.16-3.08-1.54-1.09-.36,1.33-1.91,2.36-1.55,4.44-2.11,2.53,1,.93-1.08,2.95-.68.74-.6,2.68-.91,3.57-1.92,4.86-1.03,4.36-.42.77-.74,1.54-1.34,2.93-1.76,4.64-.94,2.27.26,3.34-1.62,1.55-1.27,3.63.9.95-.1.16-1.28,1.99.02,2.98-1.2.54,2.29,2.23,9.93,8.11,7.64,1.84,10.79-1.36,20.73.45,10.68,8.76,1.84,1.13,1-6.95-.33-2.15,1.75-9.24-.95-11.16.42-5.66ZM157.16,71.82l-.24-1.02-1.15,1.02-1.7-1.28-.99-3.9-1.18-1.78,1.57-.21,1.58-.36,1.2.76,2.63,1.16,1.74,3.6-.18,2.35-3.29-.33ZM164.44,82.95l-1.54-.9-1.71-.23-.08-3.44,1.6-1.55-.05-2.25,5.38-.08,2.86,1.79-.15,1.23-.61.96-.46.47.97,1.14-.78,1.35-1.85,1.2-3.59.32ZM181.51,104.08l-2.88,1.27-1.76,1.22-1.09-.99-.42-.84-1.52,1.19-.82-1.38-2.01-1.3-.28-3.36.36-1.84,1.64-.29,3.76-1.76,2.76.5,1.78,1.65.46,5.93ZM184.41,89.88l-3.5,1.64v1.27s-3.16-1.1-3.16-1.1l-2.51-4.9-.79.27-.12-1.56-.19-1.11.75-.51,1.72-1.4,2.91.35,5.97,3.19-1.09,3.87Z"/>
      </g>
    </g>
  </g>
</svg>