<svg width="67" height="55" viewBox="0 0 67 55" fill="none" xmlns="http://www.w3.org/2000/svg">
<path d="M41.9289 43.2654C42.9274 42.7177 44.8654 41.8709 45.8091 41.2347C45.9144 41.1631 45.8891 40.666 45.7585 40.5101C45.0297 39.6422 37.7201 28.402 36.9576 27.5552C36.2835 26.8011 35.6221 26.0385 34.9606 25.2886C33.9664 25.5877 32.8921 25.9206 31.8093 26.2281C31.7124 26.2576 31.5692 26.1186 31.447 26.0638C30.8277 25.7773 30.1915 25.5245 29.5975 25.1959C29.1931 24.9726 28.6285 24.7114 28.5148 24.3449C28.2072 23.3801 28.0092 22.3817 28.2199 21.3116C28.637 19.184 30.6592 18.2319 32.4539 19.4073C33.1238 19.8454 33.7431 20.3763 34.434 20.7807C35.5462 21.4337 35.9591 22.4701 35.4873 23.675C35.3567 24.0079 34.5815 25.1622 34.2992 25.7563C34.7668 25.5667 35.1713 25.7942 35.2766 25.6467C37.3915 22.6386 36.4857 20.806 35.2387 20.2373C34.118 19.7233 33.3218 18.8259 32.2433 18.3288C31.506 17.9875 29.6228 18.1055 29.3068 18.5141C28.8897 19.0534 28.4684 19.5927 28.1188 20.1741C27.1456 21.7834 27.272 23.6161 28.4305 25.0232C29.4627 26.2745 30.676 27.1887 32.4202 27.1002C32.6224 27.0918 32.8289 27.2097 33.1743 27.3108C32.8963 27.5173 32.753 27.6184 32.6856 27.6689L41.9289 43.2696V43.2654Z" fill="#3DA89A"/>
<path d="M37.3047 44.6309V44.6356L37.3095 44.6404L37.3047 44.6309Z" fill="#3DA89A"/>
<path d="M33.4154 37.5898L33.1668 37.653L31.6333 38.5715L29.6237 40.7075L27.7447 43.9683L26.7083 44.8404L25.3686 46.6478L25.3223 46.9384L26.3924 48.7795L27.9807 50.6627L28.7306 51.3326L29.6953 51.8761L30.361 52.053L30.4705 52.1246L30.6475 51.935L31.6839 51.6907L32.8846 51.1388L35.8252 50.0181L38.1803 49.7022L38.2856 48.8343L38.3446 48.8006L37.957 47.364L37.9191 46.7952L37.4936 45.6071L37.3545 44.9373L37.2913 44.6382L36.9248 44.3685L37.0975 44.1916L36.8574 44.0441L36.6088 43.2395L36.3645 43.0836L36.1623 42.3969L36.1833 42.1988L36.2423 42.0345L35.9937 41.807L35.8926 41.6217L35.7199 40.9897L35.4292 41.0234V40.5769L35.2817 40.2609L34.9405 39.6079L34.2117 38.7821L34.0263 38.1712L33.8704 38.1333L33.6977 37.7794L33.4154 37.5898Z" fill="#3DA89A"/>
<path d="M47.4022 39.9452V39.9395H47.3965L47.4022 39.9452Z" fill="#3DA89A"/>
<path d="M54.2972 33.039L50.6825 32.6135L46.0018 31.4844L43.0991 32.9379L42.8379 33.3086L42.88 33.5698L42.9474 33.6667L43.0064 33.7172L43.4403 33.8942L43.9333 34.6525L44.422 35.1707L44.6621 35.512L44.898 35.6468L44.9444 35.908L45.5637 36.4599L45.6606 36.7169L45.7912 37.0539L45.9976 37.1045L46.044 37.4036L46.4695 38.1367L46.7728 38.2673L47.1267 39.1731L47.2067 39.3753L47.3837 39.4385L47.43 39.9145L47.7881 40.1673L48.0409 40.6897L48.6729 41.5702L48.9509 41.9073L49.4818 42.7415L49.3891 42.8594L49.9031 43.108L52.1528 41.8989L54.6764 40.5339L56.3616 38.8023L56.9472 37.3531L56.9177 35.5836L56.8671 33.9026L56.4585 32.3817L54.2972 33.039Z" fill="#3DA89A"/>
<path d="M30.6329 6.80526C30.5402 6.80104 30.4644 6.79683 30.3885 6.7884C30.2158 6.77576 30.0136 6.6915 29.8787 6.7547C29.5628 6.90215 29.251 7.0791 28.9856 7.31081C28.6528 7.60572 28.4084 7.97225 28.6106 8.56207C28.7876 9.07184 29.0488 9.43416 29.5586 9.52263C29.6428 9.53527 29.7229 9.64902 29.8071 9.71642C29.7734 9.72485 29.7397 9.73327 29.706 9.7417C29.7903 10.3357 30.4138 16.4698 30.5065 17.1186C30.7382 17.2914 31.1384 17.3503 31.2901 17.1945C31.5429 16.9333 30.8267 10.3399 30.4812 10.104C30.536 10.0619 30.6413 10.0113 30.6329 9.98605C30.5444 9.68693 30.7761 9.6448 30.8983 9.51841C31.0542 9.35411 31.2395 9.22351 31.3828 9.04656C31.6945 8.66318 31.6608 8.35563 31.2985 7.93433C31.2817 7.91327 31.2648 7.88799 31.2522 7.86271C31.1005 7.58887 31.0626 7.23919 30.7466 7.06225C30.6919 7.03276 30.6708 6.90215 30.6329 6.80947V6.80526Z" fill="#3DA89A"/>
<path d="M24.2754 10.1669C24.3512 10.1206 24.4186 10.0785 24.4818 10.0363C24.6251 9.94365 24.7641 9.77512 24.9115 9.7667C25.2612 9.74563 25.6193 9.75406 25.9606 9.83411C26.3903 9.93522 26.7821 10.1417 26.8832 10.7567C26.9675 11.2876 26.9085 11.73 26.504 12.0501C26.4366 12.1007 26.4198 12.2397 26.3777 12.3366C26.4114 12.3282 26.4451 12.3198 26.4788 12.3113C26.6852 12.8759 29.0403 18.5718 29.2678 19.1869C29.1456 19.4481 28.8212 19.6883 28.6147 19.6251C28.2651 19.5155 25.7752 13.3646 25.969 12.9981C25.9016 12.9896 25.7836 12.9938 25.7794 12.9644C25.7162 12.661 25.4887 12.7326 25.3244 12.6779C25.1095 12.6062 24.882 12.581 24.6756 12.4925C24.2206 12.3029 24.1026 12.0164 24.2248 11.473C24.229 11.4435 24.2333 11.414 24.2333 11.3845C24.2375 11.0685 24.1026 10.7441 24.3007 10.4408C24.3344 10.3902 24.288 10.2638 24.2796 10.1627L24.2754 10.1669Z" fill="#3DA89A"/>
<path d="M20.4422 47.8477H20.4336V47.865L20.4422 47.8477Z" fill="#3DA89A"/>
<path d="M30.6621 28.7158L27.0852 28.7621L21.3093 27.5067L14.3663 24.5997L12.066 22.468L6.90086 19.6621L5.6791 20.391L3.6695 23.7613L2.97436 25.99L1.34815 30.5695L0.653012 32.9751L0.24014 35.0142L0 36.6404L0.762548 38.7933L0.34125 39.1092L0.754122 39.3873L1.31445 41.8308L2.93223 44.6072L4.34358 47.4214L7.44855 50.5095L11.611 53.783L14.5264 54.495L15.9124 53.2985L15.567 53.0795L16.7929 50.8213L17.7703 50.2568L19.0385 48.2472L19.2786 46.9791L20.2434 46.7684L20.315 45.6436L20.6394 45.513L21.0775 45.3908L22.1603 43.8657L22.4341 43.5708L23.3989 42.4122L23.3863 41.5991L23.9087 41.7381L24.4943 41.182L24.5785 40.6722L25.7792 39.5052L25.8846 39.025L26.4828 38.6669L27.1021 38.0307L28.3491 36.3118L29.2044 33.1521L30.1523 31.4964L30.5989 31.1888L30.9991 30.1314L31.2477 28.9433L30.6663 28.7158H30.6621ZM2.76793 31.2773L3.34089 30.2156L3.98548 29.9165L4.17085 29.2761L4.52895 29.2382L5.02608 29.4784L5.7128 30.5653L5.73386 31.3573L5.82655 31.3405L5.67488 31.9472L4.62164 32.8824L3.45043 32.8445L2.76793 31.2773ZM4.25511 37.6263L4.29724 37.3777L4.00654 36.8342L3.47992 36.8047L3.58525 35.7304L5.1272 34.5086L5.77178 34.3738L6.70285 34.4581L7.85721 35.4187L8.03837 36.2233L7.53702 36.8932L6.44165 37.8664L5.34206 37.5546L4.79437 37.8158L4.25932 37.622L4.25511 37.6263ZM9.84995 42.9472L9.20115 44.2154L8.91467 43.9331L7.54966 44.544L6.3953 43.457L6.28155 40.6301L6.87137 39.6906L7.67183 39.4041L8.10999 39.2946L8.52286 39.6358L8.77142 40.2467L8.80513 40.0866L9.85837 42.943L9.84995 42.9472ZM15.4911 45.5045L15.0783 45.989L14.4337 45.9174L14.598 46.5662L14.0798 46.9833L12.8201 47.3414L11.1686 45.8584L11.0591 44.9021L11.413 43.7519L12.7527 42.5639L13.5784 42.3911L14.3536 42.7956L15.0909 44.0848L15.4321 44.8304L15.4953 45.5045H15.4911Z" fill="#3DA89A"/>
<path d="M66.7817 18.5455L65.522 11.8764L61.7008 8.62397L58.0818 6.55961L51.4338 1.75681L48.4131 0.459213L47.7643 0L47.6126 0.560327L46.8079 1.55459L46.1549 3.42515L45.266 4.49104L45.6873 4.88284L45.2323 6.12567L44.9458 6.43743L44.693 7.56651L44.3096 9.07055L43.5007 11.1181L43.0668 12.9507L42.8898 13.2751L42.5781 13.9239L42.0135 15.1583L41.2721 17.1131L40.876 18.0695L40.9856 19.4766L40.3031 20.1296L39.768 21.6589L40.1472 22.0592L40.1051 22.1266L39.5658 22.965L39.5742 24.2162L39.0645 24.4479L40.0292 25.3874L44.2085 28.8041L47.4272 29.5793L51.973 29.0064L60.7065 29.196L65.206 32.8865L65.9812 33.3626L66.4025 30.4388L66.2634 29.533L67.0007 25.6402L66.6005 20.9385L66.7774 18.554L66.7817 18.5455ZM52.0994 9.26435L51.9983 8.83462L51.5138 9.26435L50.7976 8.72509L50.3805 7.08202L49.8834 6.33211L50.549 6.24364L51.2147 6.09197L51.7202 6.41216L52.8283 6.90086L53.5613 8.41753L53.4855 9.40759L52.0994 9.26856V9.26435ZM55.1665 13.9534L54.5177 13.5742L53.7972 13.4773L53.7635 12.0281L54.4376 11.375L54.4208 10.4271L56.6873 10.3934L57.8923 11.1475L57.8291 11.6657L57.5721 12.0702L57.3783 12.2682L57.7869 12.7443L57.4583 13.313L56.6831 13.8186L55.1707 13.9534H55.1665ZM62.358 22.8554L61.1447 23.3905L60.4074 23.9087L59.9482 23.4916L59.767 23.1377L59.1267 23.639L58.7812 23.0576L57.9344 22.51L57.8164 21.0944L57.9681 20.3192L58.659 20.197L60.2389 19.4555L61.4017 19.6662L62.1558 20.3613L62.3496 22.8596L62.358 22.8554ZM63.5798 16.873L62.1052 17.5597V18.0947L60.7739 17.6313L59.7165 15.567L59.3837 15.6807L59.3331 15.0235L59.2531 14.5558L59.569 14.341L60.2937 13.7512L61.5196 13.8986L64.0348 15.2426L63.5756 16.873H63.5798Z" fill="#3DA89A"/>
</svg>
