<svg width="310" height="308" viewBox="0 0 310 308" fill="none" xmlns="http://www.w3.org/2000/svg">
<path d="M275.056 158.546C275.056 234.644 213.592 296.33 137.778 296.33C61.9631 296.33 0.5 234.644 0.5 158.546C0.5 82.4481 61.9631 20.7617 137.778 20.7617C213.592 20.7617 275.056 82.4481 275.056 158.546Z" stroke="#3DA89A"/>
<path d="M309.5 169.69C309.5 245.787 248.037 307.474 172.222 307.474C96.4074 307.474 34.9443 245.787 34.9443 169.69C34.9443 93.5917 96.4074 31.9053 172.222 31.9053C248.037 31.9053 309.5 93.5917 309.5 169.69Z" stroke="#3DA89A"/>
<path d="M301.396 137.778C301.396 213.592 239.709 275.056 163.611 275.056C87.5136 275.056 25.8271 213.592 25.8271 137.778C25.8271 61.9631 87.5136 0.5 163.611 0.5C239.709 0.5 301.396 61.9631 301.396 137.778Z" stroke="#3DA89A"/>
</svg>
